<?xml version="1.0" encoding="UTF-8"?><svg id="Layer_2" xmlns="http://www.w3.org/2000/svg" viewBox="0 0 281.45 216.88"><defs><style>.cls-1{fill:#f9f9f8;}.cls-1,.cls-2,.cls-3{stroke-width:0px;}.cls-2{fill:#111;}.cls-3{fill:#f27d21;}</style></defs><g id="Layer_1-2"><path class="cls-2" d="m280.41,66.96c-.24-.33-.46-.65-.64-.99-1.07-1.97-2.44-3.71-3.98-5.28-3.4-3.45-7.19-6.42-11.29-8.99-1.94-1.22-3.9-2.4-5.92-3.5-2.02-1.08-4.09-2.04-6.33-2.67-1.68-.48-3.38-1.08-4.32-2.8-.61-1.08-1.22-2.15-1.23-3.44-.01-.51-.14-.96-.33-1.43-.87-2.13-1.41-4.36-2.32-6.5-1.2-2.85-2.66-5.58-4.38-8.12-1.26-1.85-2.59-3.69-4.2-5.28-1.46-1.45-2.84-3-4.45-4.27-3.05-2.43-6.22-4.69-9.7-6.51-2.79-1.45-5.56-2.86-8.55-3.88-3.89-1.33-7.88-2.09-11.94-2.56-3.42-.39-6.87-.38-10.29-.66-3.95-.31-7.71.36-11.47,1.47-1.88.57-3.75,1.18-5.64,1.7-2.38.66-4.62,1.64-6.86,2.65-2.2.99-4.25,2.29-6.23,3.7-2.52,1.79-4.75,3.9-6.82,6.22-1.53,1.71-2.94,3.52-4.21,5.42-2.48,3.68-4.82,7.46-7.21,11.2-1.51,2.33-2.92,4.72-4.13,7.22-4.64-.12-9.18-1.11-13.68-2.26-5.28-1.34-10.54-2.72-15.84-3.98-5.23-1.24-10.48-2.41-15.74-3.51-5.24-1.09-10.56-2.41-15.9-2.91-2.72-.25-5.49-.03-7.99.83-1.43.13-2.78.46-3.94,1.36-1.78,1.38-3.25,3.03-4.33,5.03-1,1.84-1.47,3.88-2.17,5.83-1.36,3.82-2.1,7.73-2.22,11.76-.19,5.84-.02,11.68.14,17.5.06,1.83.08,3.66.11,5.49.01.48-.03.82-.67.9-3.08.42-6.16.63-9.25.77-2.41.11-4.81.28-7.15.95-2.13.6-4.28,1.15-6.44,1.62-3.02.66-6.07,1.2-9.1,1.85-2.88.61-5.76,1.26-8.62,1.98-1.77.43-3.6.71-5.25,1.55-1.75.89-3.49,1.81-5.23,2.75C1.67,88.83.09,91.48.02,94.85c-.06,2.74.03,5.51.62,8.22.24,1.16.41,2.33.54,3.48.22,2.02.65,3.99.93,5.99.28,2.13.64,4.26,1.01,6.39.49,2.81.91,5.63,1.36,8.44.03.15.12.27.16.42,1.02,3.25,2.35,6.39,3.73,9.5,1.23,2.78,2.6,5.51,3.81,8.32,1.61,3.72,3.65,7.22,5.57,10.78,2.02,3.75,4.68,7.08,7.2,10.48,1.8,2.43,3.73,4.77,6.11,6.64,2.4,1.89,4.79,3.77,7.34,5.46.89.59,1.82.98,2.86,1.11.55.07,1.11.1,1.62.27,1.62.53,3.18.26,4.8-.09,1.98-.43,3.86-1.41,5.9-1.42,1.9-.02,3.59-.71,5.24-1.42,2.89-1.27,5.64-2.88,8.61-3.97,1.9-.71,3.65-1.78,5.62-2.3.6-.16.88-.11,1.21.39.73,1.12,1.5,2.22,2.27,3.3,2.94,4.12,6.45,7.77,9.71,11.62,3.05,3.6,6.29,7.01,10.01,9.92,3.59,2.8,7.59,5.01,11.47,7.38,2.63,1.6,5.51,2.68,8.34,3.86,2.78,1.16,5.44,2.66,8.26,3.69,5.93,2.15,12.01,3.6,18.3,4.36,5.98.7,11.94,1.58,17.99,1.05,2.07-.18,4.15-.26,6.14-.88.67-.21,1.34-.33,2.03-.42,2.35-.32,4.7-.59,7.02-1.03,2.28-.43,4.54-1.01,6.78-1.58,2.73-.7,5.47-1.34,8.06-2.51,3.47-1.56,6.8-3.4,10.18-5.14,3.49-1.8,6.64-4.13,9.97-6.19,4.12-2.56,7.74-5.67,10.76-9.49.3-.37.7-.68,1.06-1.01,2.25-2.04,4.41-4.15,6.02-6.75,2.67-4.28,5.16-8.66,7.46-13.15,2.94-5.76,5.31-11.71,6.41-18.12,1.01-5.98,1.36-11.99,1.5-18.04.17-7.41-.17-14.81-1.15-22.17-.45-3.34-.83-6.68-1.84-9.9-.52-1.67-.16-2.97.82-4.25.24-.31.52-.6.63-1,.52-1.86,1.55-3.5,2.25-5.29,1.12-2.88,2.44-5.69,3.73-8.5.52-1.18,1.26-2.24,2.53-2.76.88-.36,1.8-.45,2.76-.44,1.63.02,3.26,0,4.81,0,2.18-.29,4.31,0,6.41-.27,4.35-.57,8.66-1.35,12.83-2.77,1.18-.4,2.19-1.12,2.92-2.16,1.11-1.55.98-4.16-.29-5.94m-146.45,1.27c0,1.21.02,1.2-1.17,1.3-2.2.18-4.42.35-6.63.43-2.23.09-4.48.23-6.72.21-2.03-.01-4.04.18-6.06.29-1.23.07-2.46.08-3.66.29-1.75.29-3.53.3-5.28.45-3.03.25-6.07.6-9.11.85-2.04.15-4.09.31-6.13.36-2.22.07-4.43,0-6.63.03-2.56.03-5.07.46-7.61.77-2,.25-4.01.46-6.02.69-.34.04-.53-.09-.63-.45-.15-.62-.38-1.22-.52-1.85-.24-1.22-.49-2.45-.72-3.67h0c-.25-1.26-.48-2.5-.73-3.76-.24-1.27-.16-1.4,1.12-1.46h.08c.6-.02,1.21-.04,1.8-.05.14.03.28.05.42.06,3.66.24,7.32.48,10.99.72,3.42.23,7.37.61,9.87-2.28,1.16-1.34.82-2.9-.5-3.93-.14-.11-.28-.21-.43-.3h-.01c-.4-.36-.83-.65-1.3-.89-.46-.26-.97-.44-1.52-.55-1.45-.3-2.91-.61-4.41-.58-2.87.04-5.71-.44-8.56-.71-1.28-.11-2.56-.21-3.84-.29-.87-.05-1.48-.42-1.89-1.21-1.32-2.58-1.79-5.22-.44-7.94.97-1.94,1.86-3.93,3.02-5.79.65-1.03,1.37-1.5,2.67-1.16,2.35.61,4.8.68,7.21.97,3.34.41,6.62,1.1,9.9,1.87,4.24,1.01,8.6,1.31,12.84,2.37,6.32,1.58,12.78,2.65,19.04,4.56,2.31.7,4.69,1.2,7.05,1.74,1.6.36,3.13.92,4.67,1.45.58.2.78.48.7,1.09-.77,5.43-.93,10.89-.86,16.37m98.26,81.87c-.35,1.24-.72,2.47-1.1,3.69-1.05,3.35-2.2,6.66-3.45,9.94-1.13,2.92-2.81,5.57-4.44,8.23-2,3.25-4.21,6.35-6.74,9.24-1.74,1.98-3.76,3.64-5.76,5.33-.86.74-1.71,1.5-2.51,2.3-1.6,1.59-3.55,2.69-5.37,3.97-2.87,2.04-5.94,3.77-9.19,5.09-6.77,2.77-13.67,5.08-20.82,6.61-14.39,1.03-29.2.76-43.13-2.97-.27-.25-.61-.46-1.08-.56-2.02-.47-4.01-1.05-5.95-1.76-1.35-.59-2.67-1.25-3.97-1.96-2.7-1.47-5.46-2.84-8.12-4.39-2.02-1.5-3.85-3.23-5.67-5.07-.66-.67-1.3-1.37-1.95-2.05-2.99-2.56-5.74-5.36-8.36-8.37-.62-.71-1.26-1.42-1.89-2.12-1.87-2.59-3.61-5.28-5.22-8.03,1.68-.43,3.21-.94,4.79-1.34,2.22-.58,4.49-1.1,6.62-2.02.21-.1.48-.1.71-.16,3.49-.92,6.85-2.18,10.1-3.75.71-.33,1.36-.82,1.92-1.36.63-.6.91-1.31.54-2.13-.37-.81-.73-1.62-1.88-1.61-2.56,0-5.11-.06-7.67.25-1.9.23-3.83.37-5.75.4-1.82.02-3.58.42-5.37.66-2.14.28-4.28.62-6.39,1.08-2.35.51-4.72.87-6.99,1.71-.47.16-.98.14-1.46.27-2.74.75-5.44,1.59-8.13,2.51-3.45,1.18-6.81,2.6-10.29,3.69-3,.96-6.07,1.62-9.18,1.98-2.13.25-4.32.48-6.45-.03-.86-.19-1.73-.48-2.48-.93-1.95-1.18-3.83-2.45-5.28-4.27-2.34-2.93-4.68-5.85-6.66-9.06-.8-1.31-1.46-2.69-2.02-4.12-.39-.99-.22-1.43.76-1.84,2.88-1.19,5.81-2.24,8.63-3.55,2.51-1.16,5.09-2.12,7.64-3.18.77-.32,1.57-.56,2.37-.78,2.75-.79,5.43-1.77,8.18-2.48,2.68-.7,5.31-1.5,7.94-2.34,2.02-.65,3.39-1.82,4.07-3.9,1.13-3.45-1.82-6.94-5.31-6.22-1.89.4-3.66,1.11-5.52,1.57-2.34.56-4.6,1.43-6.92,2.08-1.81.51-3.66.76-5.48,1.04-3.17.49-6.33.97-9.47,1.6-2.29.45-4.63.85-6.78,1.91-.65.32-1.43.38-2.14.57-.67.18-1.36.27-2,.55-1.31.54-2.05.37-2.99-.71-.35-.41-.66-.87-.93-1.34-.75-1.28-1.56-2.53-2.16-3.89-1.09-2.47-1.58-5.08-1.32-7.79.12-1.24,1.04-1.98,2.42-2.22,3.94-.68,7.84-1.46,11.78-2.05,1.65-.25,3.29-.56,4.94-.78,1.64-.23,3.31-.32,4.94-.7,1.26-.29,2.62-.31,3.93-.37,2.66-.09,5.31-.31,7.96-.47,2.44-.15,4.8-.89,6.05-3.37.45-.88,1.44-1.65.75-2.81-.78-1.31-1.72-2.58-3.29-2.8-3.66-.49-7.3-1.3-11.04-.54-1.39.28-2.85.16-4.27.29-2.1.2-4.2.41-6.29.53-2.6.17-5.18.41-7.77.55-3.49.19-6.97.49-10.45.72-1.78.11-2.05-.18-2.35-1.88-.19-1.16-.45-2.32-.75-3.46-.43-1.63-.04-2.93,1.3-3.95,2.41-1.82,4.95-3.41,7.56-4.93,2.09-1.22,4.38-1.84,6.67-2.17,2.52-.36,5.04-.78,7.57-1.1,2.34-.3,4.66-.77,7-1.01,1.96-.19,3.9-.49,5.83-.77,2.83-.41,5.66-.86,8.5-1.16,3.85-.4,7.69-.84,11.54-1.1,5-.35,9.92-1.18,14.86-1.93,2.98-.45,5.99-.8,9.01-1.01,6.46-.45,12.96-.52,19.44-.75,6.53-.24,13.07-.65,19.58-1.15,1.53-.11,3.04-.4,4.55-.63.49-.08.98-.15,1.47.04.48.19.74.42.91.99,1.52,5.29,4.11,10.05,7.23,14.54,1.75,2.52,3.43,5.1,5.58,7.31,1.82,1.89,3.81,3.57,5.8,5.28,2.05,1.75,4.47,2.94,6.46,4.73.37.32.81.58,1.24.8,2.62,1.31,5.22,2.64,7.87,3.87,1.11.51,2.32.84,3.51,1.17,3.72,1.03,7.41,2.16,11.2,2.9,5.66,1.11,11.36,1.82,17.14,1.26,5.31-.52,10.39-1.87,15.16-4.37,3.08-1.62,6-3.44,8.9-5.33.73-.49,1.48-.93,2.13-1.5.63-.57,1.23-.55,1.89-.2.21.11.42.23.59.38.26.18.49.38.68.6.29,2.11.52,4.22.72,6.35-.03,1.86.11,3.72.38,5.59.02.12.03.23.05.35.46,8.72.11,17.49-1.41,26.07m5.87-69.38c-.62,1.65-1.14,3.33-1.98,4.91-1.23,2.35-2.63,4.61-3.71,7.05-.85,1.92-2.13,3.65-3.06,5.56-.18.38-.52.71-.84,1.03-2.07,1.99-4.14,3.97-6.22,5.95-.9.86-1.98,1.48-3.07,2.06-2.89,1.53-5.79,3.04-8.82,4.27-3.44,1.41-7.12,1.57-10.78,1.87-.45.03-.89.04-1.33.06-4.23.02-8.39-.34-12.47-1.56-2.13-.64-4.13-1.62-6.31-2.09-.14-.03-.27-.15-.4-.2-4.55-2.14-9.03-4.4-13.08-7.44-2.71-2.04-5.4-4.06-7.75-6.5-1.59-1.66-2.89-3.53-4.06-5.51-.84-1.44-1.7-2.85-2.59-4.24-2.34-3.62-4.64-7.27-5.51-11.58-.37-1.93-.68-3.86-.77-5.85-.17-3.75,0-7.48.32-11.2.2-2.49.58-4.97,1.15-7.43.64-2.75,1.58-5.36,2.64-7.96.75-1.82,1.69-3.54,2.73-5.22,1.32-2.13,2.65-4.24,4-6.35,1.61-2.54,3.09-5.18,5.15-7.39,1.31-1.41,2.74-2.74,4.31-3.91,2.55-1.91,5.04-3.93,7.73-5.67,1.51-.98,3.25-1.42,4.95-1.88,2.65-.71,5.36-1.19,8.06-1.72,1.93-.38,3.89-.6,5.87-.69,2.27-.13,4.52-.27,6.78-.09,2.92.23,5.82.63,8.52,1.74,2.98,1.22,5.7,2.96,8.27,4.96,1.31,1.01,2.71,1.94,4.04,2.94,3.59,2.72,6.88,5.77,9.72,9.3,2.05,2.54,3.55,5.39,5.15,8.18.79,1.4,1.46,2.87,2.24,4.28.93,1.68.77,4.6-.25,6.19-1.57,2.44-3.82,4.03-6.24,5.47-2.65,1.58-5.2,3.34-7.86,4.9-1.47.87-2.85,1.91-4.19,2.97-2.34,1.85-3.86,4.26-4.55,7.18-.63,2.67.79,5.78,3.19,7.35,2.51,1.64,5.28,2.28,8.14,2.79,2.86.51,5.77.66,8.67.77.99.03,1.93.3,2.92.31,1,.01,1.72,1.26,1.29,2.39m31.69-12.58c-1.49,1.13-3.25,1.03-4.93,1.33-.57.1-1.18.07-2.12.12-.05,0-.45.01-.84-.05-3.55-.55-7.09-.17-10.63.23-4.03.46-8.07.49-12.12.27-2.6-.15-5.2-.35-7.81-.58-1.27-.11-2.54-.35-3.81-.56-.23-.04-.46-.16-.68-.28-1.29-.63-1.46-1.59-.38-2.54,1.87-1.66,3.97-3.02,5.99-4.49.81-.58,1.65-1.17,2.45-1.77,2.61-1.99,5.33-3.83,7.84-5.96.91-.76,2.11-.88,3.24-.76,1.63.16,3.2.55,4.72,1.21,2.77,1.23,5.52,2.49,8.19,3.92.23.11.45.22.64.38,1.35,1.13,2.95,1.9,4.42,2.87,1.98,1.33,3.89,2.75,5.83,4.15,1.26.9,1.2,1.62,0,2.51"/><path class="cls-2" d="m134.82,51.86c-.77,5.43-.93,10.89-.86,16.37,0,1.21.02,1.2-1.17,1.3-2.2.18-4.42.35-6.63.43-2.23.09-4.48.23-6.72.21-2.03-.01-4.04.18-6.06.29-1.23.07-2.46.08-3.66.29-1.75.29-3.53.3-5.28.45-3.03.25-6.07.6-9.11.85-2.04.15-4.09.31-6.13.36-2.22.07-4.43,0-6.63.03-2.56.03-5.07.46-7.61.77-2,.25-4.01.46-6.02.69-.34.04-.53-.09-.63-.45-.15-.62-.38-1.22-.52-1.85-.24-1.22-.49-2.45-.72-3.67h0c-.25-1.26-.48-2.5-.73-3.76-.24-1.27-.16-1.4,1.12-1.46h.08c.6-.02,1.21-.04,1.8-.05.14.03.28.05.42.06,3.66.24,7.32.48,10.99.72,3.42.23,7.37.61,9.87-2.28,1.16-1.34.82-2.9-.5-3.93-.14-.11-.28-.21-.43-.3h-.01c-.4-.36-.83-.65-1.3-.89-.46-.26-.97-.44-1.52-.55-1.45-.3-2.91-.61-4.41-.58-2.87.04-5.71-.44-8.56-.71-1.28-.11-2.56-.21-3.84-.29-.87-.05-1.48-.42-1.89-1.21-1.32-2.58-1.79-5.22-.44-7.94.97-1.94,1.86-3.93,3.02-5.79.65-1.03,1.37-1.5,2.67-1.16,2.35.61,4.8.68,7.21.97,3.34.41,6.62,1.1,9.9,1.87,4.24,1.01,8.6,1.31,12.84,2.37,6.32,1.58,12.78,2.65,19.04,4.56,2.31.7,4.69,1.2,7.05,1.74,1.6.36,3.13.92,4.67,1.45.58.2.78.48.7,1.09"/><path class="cls-2" d="m232.22,150.1c-.35,1.24-.72,2.47-1.1,3.69-1.05,3.35-2.2,6.66-3.45,9.94-1.13,2.92-2.81,5.57-4.44,8.23-2,3.25-4.21,6.35-6.74,9.24-1.74,1.98-3.76,3.64-5.76,5.33-.86.74-1.71,1.5-2.51,2.3-1.6,1.59-3.55,2.69-5.37,3.97-2.87,2.04-5.94,3.77-9.19,5.09-6.77,2.77-13.67,5.08-20.82,6.61-14.39,1.03-29.2.76-43.13-2.97-.27-.25-.61-.46-1.08-.56-2.02-.47-4.01-1.05-5.95-1.76-1.35-.59-2.67-1.25-3.97-1.96-2.7-1.47-5.46-2.84-8.12-4.39-2.02-1.5-3.85-3.23-5.67-5.07-.66-.67-1.3-1.37-1.95-2.05-2.99-2.56-5.74-5.36-8.36-8.37-.62-.71-1.26-1.42-1.89-2.12-1.87-2.59-3.61-5.28-5.22-8.03,1.68-.43,3.21-.94,4.79-1.34,2.22-.58,4.49-1.1,6.62-2.02.21-.1.48-.1.71-.16,3.49-.92,6.85-2.18,10.1-3.75.71-.33,1.36-.82,1.92-1.36.63-.6.91-1.31.54-2.13-.37-.81-.73-1.62-1.88-1.61-2.56,0-5.11-.06-7.67.25-1.9.23-3.83.37-5.75.4-1.82.02-3.58.42-5.37.66-2.14.28-4.28.62-6.39,1.08-2.35.51-4.72.87-6.99,1.71-.47.16-.98.14-1.46.27-2.74.75-5.44,1.59-8.13,2.51-3.45,1.18-6.81,2.6-10.29,3.69-3,.96-6.07,1.62-9.18,1.98-2.13.25-4.32.48-6.45-.03-.86-.19-1.73-.48-2.48-.93-1.95-1.18-3.83-2.45-5.28-4.27-2.34-2.93-4.68-5.85-6.66-9.06-.8-1.31-1.46-2.69-2.02-4.12-.39-.99-.22-1.43.76-1.84,2.88-1.19,5.81-2.24,8.63-3.55,2.51-1.16,5.09-2.12,7.64-3.18.77-.32,1.57-.56,2.37-.78,2.75-.79,5.43-1.77,8.18-2.48,2.68-.7,5.31-1.5,7.94-2.34,2.02-.65,3.39-1.82,4.07-3.9,1.13-3.45-1.82-6.94-5.31-6.22-1.89.4-3.66,1.11-5.52,1.57-2.34.56-4.6,1.43-6.92,2.08-1.81.51-3.66.76-5.48,1.04-3.17.49-6.33.97-9.47,1.6-2.29.45-4.63.85-6.78,1.91-.65.32-1.43.38-2.14.57-.67.18-1.36.27-2,.55-1.31.54-2.05.37-2.99-.71-.35-.41-.66-.87-.93-1.34-.75-1.28-1.56-2.53-2.16-3.89-1.09-2.47-1.58-5.08-1.32-7.79.12-1.24,1.04-1.98,2.42-2.22,3.94-.68,7.84-1.46,11.78-2.05,1.65-.25,3.29-.56,4.94-.78,1.64-.23,3.31-.32,4.94-.7,1.26-.29,2.62-.31,3.93-.37,2.66-.09,5.31-.31,7.96-.47,2.44-.15,4.8-.89,6.05-3.37.45-.88,1.44-1.65.75-2.81-.78-1.31-1.72-2.58-3.29-2.8-3.66-.49-7.3-1.3-11.04-.54-1.39.28-2.85.16-4.27.29-2.1.2-4.2.41-6.29.53-2.6.17-5.18.41-7.77.55-3.49.19-6.97.49-10.45.72-1.78.11-2.05-.18-2.35-1.88-.19-1.16-.45-2.32-.75-3.46-.43-1.63-.04-2.93,1.3-3.95,2.41-1.82,4.95-3.41,7.56-4.93,2.09-1.22,4.38-1.84,6.67-2.17,2.52-.36,5.04-.78,7.57-1.1,2.34-.3,4.66-.77,7-1.01,1.96-.19,3.9-.49,5.83-.77,2.83-.41,5.66-.86,8.5-1.16,3.85-.4,7.69-.84,11.54-1.1,5-.35,9.92-1.18,14.86-1.93,2.98-.45,5.99-.8,9.01-1.01,6.46-.45,12.96-.52,19.44-.75,6.53-.24,13.07-.65,19.58-1.15,1.53-.11,3.04-.4,4.55-.63.49-.08.98-.15,1.47.04.48.19.74.42.91.99,1.52,5.29,4.11,10.05,7.23,14.54,1.75,2.52,3.43,5.1,5.58,7.31,1.82,1.89,3.81,3.57,5.8,5.28,2.05,1.75,4.47,2.94,6.46,4.73.37.32.81.58,1.24.8,2.62,1.31,5.22,2.64,7.87,3.87,1.11.51,2.32.84,3.51,1.17,3.72,1.03,7.41,2.16,11.2,2.9,5.66,1.11,11.36,1.82,17.14,1.26,5.31-.52,10.39-1.87,15.16-4.37,3.08-1.62,6-3.44,8.9-5.33.73-.49,1.48-.93,2.13-1.5.63-.57,1.23-.55,1.89-.2.21.11.42.23.59.38.26.18.49.38.68.6.29,2.11.52,4.22.72,6.35-.03,1.86.11,3.72.38,5.59.02.12.03.23.05.35.46,8.72.11,17.49-1.41,26.07"/><path class="cls-2" d="m238.09,80.72c-.62,1.65-1.14,3.33-1.98,4.91-1.23,2.35-2.63,4.61-3.71,7.05-.85,1.92-2.13,3.65-3.06,5.56-.18.38-.52.71-.84,1.03-2.07,1.99-4.14,3.97-6.22,5.95-.9.86-1.98,1.48-3.07,2.06-2.89,1.53-5.79,3.04-8.82,4.27-3.44,1.41-7.12,1.57-10.78,1.87-.45.03-.89.04-1.33.06-4.23.02-8.39-.34-12.47-1.56-2.13-.64-4.13-1.62-6.31-2.09-.14-.03-.27-.15-.4-.2-4.55-2.14-9.03-4.4-13.08-7.44-2.71-2.04-5.4-4.06-7.75-6.5-1.59-1.66-2.89-3.53-4.06-5.51-.84-1.44-1.7-2.85-2.59-4.24-2.34-3.62-4.64-7.27-5.51-11.58-.37-1.93-.68-3.86-.77-5.85-.17-3.75.01-7.48.32-11.2.2-2.49.58-4.97,1.15-7.43.64-2.75,1.58-5.36,2.64-7.96.75-1.82,1.69-3.54,2.73-5.22,1.32-2.13,2.65-4.24,4-6.35,1.61-2.54,3.09-5.18,5.15-7.39,1.31-1.41,2.74-2.74,4.31-3.91,2.55-1.91,5.04-3.93,7.73-5.67,1.51-.98,3.25-1.42,4.95-1.88,2.65-.71,5.36-1.19,8.06-1.72,1.93-.38,3.89-.6,5.87-.69,2.27-.13,4.52-.27,6.78-.09,2.92.23,5.82.63,8.52,1.74,2.98,1.22,5.7,2.96,8.27,4.96,1.31,1.01,2.71,1.94,4.04,2.94,3.59,2.72,6.88,5.77,9.72,9.3,2.05,2.54,3.55,5.39,5.15,8.18.79,1.4,1.46,2.87,2.24,4.28.93,1.68.77,4.6-.25,6.19-1.57,2.44-3.82,4.03-6.24,5.47-2.65,1.58-5.2,3.34-7.86,4.9-1.47.87-2.85,1.91-4.19,2.97-2.34,1.85-3.86,4.26-4.55,7.18-.63,2.67.79,5.78,3.19,7.35,2.51,1.64,5.28,2.28,8.14,2.79,2.86.51,5.77.66,8.67.77.99.03,1.93.3,2.92.31,1,.01,1.72,1.26,1.29,2.39"/><path class="cls-2" d="m269.78,68.14c-1.49,1.13-3.25,1.03-4.93,1.33-.57.1-1.18.07-2.12.12-.05,0-.45.01-.84-.05-3.55-.55-7.09-.17-10.63.23-4.03.46-8.07.49-12.12.27-2.6-.15-5.2-.35-7.81-.58-1.27-.11-2.54-.35-3.81-.56-.23-.04-.46-.16-.68-.28-1.29-.63-1.46-1.59-.38-2.54,1.87-1.66,3.97-3.02,5.99-4.49.81-.58,1.65-1.17,2.45-1.77,2.61-1.99,5.33-3.83,7.84-5.96.91-.76,2.11-.88,3.24-.76,1.63.16,3.2.55,4.72,1.21,2.77,1.23,5.52,2.49,8.19,3.92.23.11.45.22.64.38,1.35,1.13,2.95,1.9,4.42,2.87,1.98,1.33,3.89,2.75,5.83,4.15,1.26.9,1.2,1.62,0,2.51"/><path class="cls-1" d="m232.22,150.1c-.35,1.24-.72,2.47-1.1,3.69-1.05,3.35-2.2,6.66-3.45,9.94-1.13,2.92-2.81,5.57-4.44,8.23-2,3.25-4.21,6.35-6.74,9.24-1.74,1.98-3.76,3.64-5.76,5.33-.86.74-1.71,1.5-2.51,2.3-1.6,1.59-3.55,2.69-5.37,3.97-2.87,2.04-5.94,3.77-9.19,5.09-6.77,2.77-13.67,5.08-20.82,6.61-14.39,1.03-29.2.76-43.13-2.97-.27-.25-.61-.46-1.08-.56-2.02-.47-4.01-1.05-5.95-1.76-1.35-.59-2.67-1.25-3.97-1.96-2.7-1.47-5.46-2.84-8.12-4.39-2.02-1.5-3.85-3.23-5.67-5.07-.66-.67-1.3-1.37-1.95-2.05-2.99-2.56-5.74-5.36-8.36-8.37-.62-.71-1.26-1.42-1.89-2.12-1.87-2.59-3.61-5.28-5.22-8.03,1.68-.43,3.21-.94,4.79-1.34,2.22-.58,4.49-1.1,6.62-2.02.21-.1.48-.1.71-.16,3.49-.92,6.85-2.18,10.1-3.75.71-.33,1.36-.82,1.92-1.36.63-.6.91-1.31.54-2.13-.37-.81-.73-1.62-1.88-1.61-2.56,0-5.11-.06-7.67.25-1.9.23-3.83.37-5.75.4-1.82.02-3.58.42-5.37.66-2.14.28-4.28.62-6.39,1.08-2.35.51-4.72.87-6.99,1.71-.47.16-.98.14-1.46.27-2.74.75-5.44,1.59-8.13,2.51-3.45,1.18-6.81,2.6-10.29,3.69-3,.96-6.07,1.62-9.18,1.98-2.13.25-4.32.48-6.45-.03-.86-.19-1.73-.48-2.48-.93-1.95-1.18-3.83-2.45-5.28-4.27-2.34-2.93-4.68-5.85-6.66-9.06-.8-1.31-1.46-2.69-2.02-4.12-.39-.99-.22-1.43.76-1.84,2.88-1.19,5.81-2.24,8.63-3.55,2.51-1.16,5.09-2.12,7.64-3.18.77-.32,1.57-.56,2.37-.78,2.75-.79,5.43-1.77,8.18-2.48,2.68-.7,5.31-1.5,7.94-2.34,2.02-.65,3.39-1.82,4.07-3.9,1.13-3.45-1.82-6.94-5.31-6.22-1.89.4-3.66,1.11-5.52,1.57-2.34.56-4.6,1.43-6.92,2.08-1.81.51-3.66.76-5.48,1.04-3.17.49-6.33.97-9.47,1.6-2.29.45-4.63.85-6.78,1.91-.65.32-1.43.38-2.14.57-.67.18-1.36.27-2,.55-1.31.54-2.05.37-2.99-.71-.35-.41-.66-.87-.93-1.34-.75-1.28-1.56-2.53-2.16-3.89-1.09-2.47-1.58-5.08-1.32-7.79.12-1.24,1.04-1.98,2.42-2.22,3.94-.68,7.84-1.46,11.78-2.05,1.65-.25,3.29-.56,4.94-.78,1.64-.23,3.31-.32,4.94-.7,1.26-.29,2.62-.31,3.93-.37,2.66-.09,5.31-.31,7.96-.47,2.44-.15,4.8-.89,6.05-3.37.45-.88,1.44-1.65.75-2.81-.78-1.31-1.72-2.58-3.29-2.8-3.66-.49-7.3-1.3-11.04-.54-1.39.28-2.85.16-4.27.29-2.1.2-4.2.41-6.29.53-2.6.17-5.18.41-7.77.55-3.49.19-6.97.49-10.45.72-1.78.11-2.05-.18-2.35-1.88-.19-1.16-.45-2.32-.75-3.46-.43-1.63-.04-2.93,1.3-3.95,2.41-1.82,4.95-3.41,7.56-4.93,2.09-1.22,4.38-1.84,6.67-2.17,2.52-.36,5.04-.78,7.57-1.1,2.34-.3,4.66-.77,7-1.01,1.96-.19,3.9-.49,5.83-.77,2.83-.41,5.66-.86,8.5-1.16,3.85-.4,7.69-.84,11.54-1.1,5-.35,9.92-1.18,14.86-1.93,2.98-.45,5.99-.8,9.01-1.01,6.46-.45,12.96-.52,19.44-.75,6.53-.24,13.07-.65,19.58-1.15,1.53-.11,3.04-.4,4.55-.63.49-.08.98-.15,1.47.04.48.19.74.42.91.99,1.52,5.29,4.11,10.05,7.23,14.54,1.75,2.52,3.43,5.1,5.58,7.31,1.82,1.89,3.81,3.57,5.8,5.28,2.05,1.75,4.47,2.94,6.46,4.73.37.32.81.58,1.24.8,2.62,1.31,5.22,2.64,7.87,3.87,1.11.51,2.32.84,3.51,1.17,3.72,1.03,7.41,2.16,11.2,2.9,5.66,1.11,11.36,1.82,17.14,1.26,5.31-.52,10.39-1.87,15.16-4.37,3.08-1.62,6-3.44,8.9-5.33.73-.49,1.48-.93,2.13-1.5.63-.57,1.23-.55,1.89-.2.21.11.42.23.59.38.26.18.49.38.68.6.29,2.11.52,4.22.72,6.35-.03,1.86.11,3.72.38,5.59.02.12.03.23.05.35.46,8.72.11,17.49-1.41,26.07"/><path class="cls-1" d="m238.09,80.72c-.62,1.65-1.14,3.33-1.98,4.91-1.23,2.35-2.63,4.61-3.71,7.05-.85,1.92-2.13,3.65-3.06,5.56-.18.38-.52.71-.84,1.03-2.07,1.99-4.14,3.97-6.22,5.95-.9.86-1.98,1.48-3.07,2.06-2.89,1.53-5.79,3.04-8.82,4.27-3.44,1.41-7.12,1.57-10.78,1.87-.45.03-.89.04-1.33.06-4.23.02-8.39-.34-12.47-1.56-2.13-.64-4.13-1.62-6.31-2.09-.14-.03-.27-.15-.4-.2-4.55-2.14-9.03-4.4-13.08-7.44-2.71-2.04-5.4-4.06-7.75-6.5-1.59-1.66-2.89-3.53-4.06-5.51-.84-1.44-1.7-2.85-2.59-4.24-2.34-3.62-4.64-7.27-5.51-11.58-.37-1.93-.68-3.86-.77-5.85-.17-3.75.01-7.48.32-11.2.2-2.49.58-4.97,1.15-7.43.64-2.75,1.58-5.36,2.64-7.96.75-1.82,1.69-3.54,2.73-5.22,1.32-2.13,2.65-4.24,4-6.35,1.61-2.54,3.09-5.18,5.15-7.39,1.31-1.41,2.74-2.74,4.31-3.91,2.55-1.91,5.04-3.93,7.73-5.67,1.51-.98,3.25-1.42,4.95-1.88,2.65-.71,5.36-1.19,8.06-1.72,1.93-.38,3.89-.6,5.87-.69,2.27-.13,4.52-.27,6.78-.09,2.92.23,5.82.63,8.52,1.74,2.98,1.22,5.7,2.96,8.27,4.96,1.31,1.01,2.71,1.94,4.04,2.94,3.59,2.72,6.88,5.77,9.72,9.3,2.05,2.54,3.55,5.39,5.15,8.18.79,1.4,1.46,2.87,2.24,4.28.93,1.68.77,4.6-.25,6.19-1.57,2.44-3.82,4.03-6.24,5.47-2.65,1.58-5.2,3.34-7.86,4.9-1.47.87-2.85,1.91-4.19,2.97-2.34,1.85-3.86,4.26-4.55,7.18-.63,2.67.79,5.78,3.19,7.35,2.51,1.64,5.28,2.28,8.14,2.79,2.86.51,5.77.66,8.67.77.99.03,1.93.3,2.92.31,1,.01,1.72,1.26,1.29,2.39"/><path class="cls-1" d="m134.82,51.86c-.77,5.43-.93,10.89-.86,16.37,0,1.21.02,1.2-1.17,1.3-2.2.18-4.42.35-6.63.43-2.23.09-4.48.23-6.72.21-2.03-.01-4.04.18-6.06.29-1.23.07-2.46.08-3.66.29-1.75.29-3.53.3-5.28.45-3.03.25-6.07.6-9.11.85-2.04.15-4.09.31-6.13.36-2.22.07-4.43,0-6.63.03-2.56.03-5.07.46-7.61.77-2,.25-4.01.46-6.02.69-.34.04-.53-.09-.63-.45-.15-.62-.38-1.22-.52-1.85-.24-1.22-.49-2.45-.72-3.67h0c-.25-1.26-.48-2.5-.73-3.76-.24-1.27-.16-1.4,1.12-1.46h.08c.6-.02,1.21-.04,1.8-.05.14.03.28.05.42.06,3.66.24,7.32.48,10.99.72,3.42.23,7.37.61,9.87-2.28,1.16-1.34.82-2.9-.5-3.93-.14-.11-.28-.21-.43-.3h-.01c-.4-.36-.83-.65-1.3-.89-.46-.26-.97-.44-1.52-.55-1.45-.3-2.91-.61-4.41-.58-2.87.04-5.71-.44-8.56-.71-1.28-.11-2.56-.21-3.84-.29-.87-.05-1.48-.42-1.89-1.21-1.32-2.58-1.79-5.22-.44-7.94.97-1.94,1.86-3.93,3.02-5.79.65-1.03,1.37-1.5,2.67-1.16,2.35.61,4.8.68,7.21.97,3.34.41,6.62,1.1,9.9,1.87,4.24,1.01,8.6,1.31,12.84,2.37,6.32,1.58,12.78,2.65,19.04,4.56,2.31.7,4.69,1.2,7.05,1.74,1.6.36,3.13.92,4.67,1.45.58.2.78.48.7,1.09"/><path class="cls-3" d="m269.78,68.14c-1.49,1.13-3.25,1.03-4.93,1.33-.57.1-1.18.07-2.12.12-.05,0-.45.01-.84-.05-3.55-.55-7.09-.17-10.63.23-4.03.46-8.07.49-12.12.27-2.6-.15-5.2-.35-7.81-.58-1.27-.11-2.54-.35-3.81-.56-.23-.04-.46-.16-.68-.28-1.29-.63-1.46-1.59-.38-2.54,1.87-1.66,3.97-3.02,5.99-4.49.81-.58,1.65-1.17,2.45-1.77,2.61-1.99,5.33-3.83,7.84-5.96.91-.76,2.11-.88,3.24-.76,1.63.16,3.2.55,4.72,1.21,2.77,1.23,5.52,2.49,8.19,3.92.23.11.45.22.64.38,1.35,1.13,2.95,1.9,4.42,2.87,1.98,1.33,3.89,2.75,5.83,4.15,1.26.9,1.2,1.62,0,2.51"/><path class="cls-2" d="m204.34,57.14c-3.46-.02-5.9-.95-7.84-2.78-3-2.84-3.87-6.33-2.7-10.38.55-1.89,1.35-3.58,2.72-4.92,1.54-1.51,3.51-2.3,5.66-2.55,2.61-.3,5.1.09,7.4,1.43,2.95,1.72,4.54,4.36,5.12,7.64.69,3.92-.85,6.87-4.01,9.16-2.14,1.55-4.48,2.34-6.36,2.39"/></g></svg>