<svg xmlns="http://www.w3.org/2000/svg" width="110.35" height="144.506" viewBox="0 0 110.35 144.506"><g transform="translate(6342.256 -4349.631)"><path d="M109.53,80.486a38.449,38.449,0,0,0-4.771-8.4c-2.369-3.323-4.864-6.558-7.277-9.851-2.266-3.1-4.365-6.318-6.651-9.405a94.673,94.673,0,0,1-5.647-7.807,2.269,2.269,0,0,0-.426-.489,15.819,15.819,0,0,1-2.95-4.174,1.709,1.709,0,0,1-.025-1.659,2.6,2.6,0,0,0,.25-.739c.318-1.6.553-3.216,1.008-4.771a14.2,14.2,0,0,0,.343-3.7,20.724,20.724,0,0,0-.23-3.509,25.489,25.489,0,0,0-.666-3.371c-.6-2.11-1.619-4.067-2.393-6.113-.045-.1-.035-.284-.186-.259-.386.049-.381-.313-.416-.465a11.362,11.362,0,0,0-.856-1.972,20.265,20.265,0,0,0-3.112-4.728,21.333,21.333,0,0,0-2.07-2.084A21.224,21.224,0,0,0,71.08,5.108a33.072,33.072,0,0,0-5.995-3.2A28.352,28.352,0,0,0,61.057.659,30.253,30.253,0,0,0,54.94.023C53.477-.016,52,0,50.536.018A10.955,10.955,0,0,0,47.428.5c-.6.186-1.209.362-1.8.573-1.375.489-2.775.91-4.11,1.5a21.271,21.271,0,0,0-5.878,3.778,18.9,18.9,0,0,0-2.486,2.716A33.626,33.626,0,0,0,30.99,12.36c-.47.813-1.013,1.581-1.429,2.418-.357.71-.787,1.365-1.184,2.046s-.787,1.385-1.15,2.084A18.345,18.345,0,0,0,25.284,26a48.482,48.482,0,0,0,.137,10.144,20.263,20.263,0,0,0,1.385,5.863,2.309,2.309,0,0,1-.151,2.407,24.27,24.27,0,0,1-1.606,2.227c-1.473,1.605-2.8,3.323-4.164,5.026-3.48,4.36-6.959,8.726-10.043,13.38C9.619,66.9,8.209,68.629,7.167,70.6,5.337,74.037,3.4,77.428,1.73,80.956A13.01,13.01,0,0,0,.4,85.194C.281,86.432.13,87.661.032,88.9a6.089,6.089,0,0,0,.382,2.961,8.3,8.3,0,0,0,4.209,4.228,19.472,19.472,0,0,0,4.16,1.375,31.34,31.34,0,0,0,8.1,1.057c.851-.029,1.7.034,2.55.025,1.771,3.733,3.636,7.453,6.645,10.365a28.927,28.927,0,0,0,7.644,5.143,39.146,39.146,0,0,0,7.913,4.032c.039.612.064,1.219.069,1.835.015,1.414.048,2.829.073,4.248a36.26,36.26,0,0,1-.176,4.889,4.043,4.043,0,0,1-.686,1.958,5.4,5.4,0,0,1-1.433,1.209c-1.757,1.179-3.622,2.188-5.452,3.249a12.988,12.988,0,0,0-2.985,2.08,2.346,2.346,0,0,0,.675,3.944,34.149,34.149,0,0,0,4.757,1.639,1.014,1.014,0,0,0,.768-.073,40.219,40.219,0,0,0,6.4-4.174,8.225,8.225,0,0,0,2.408-2.682,13.859,13.859,0,0,0,1.811-3.969,22.189,22.189,0,0,0,.489-3.044c.04-2.089.064-4.183.049-6.273a27.709,27.709,0,0,1,.191-2.99,38.757,38.757,0,0,0,13.4-.171c.494-.092.983-.2,1.473-.313v.122c.015,1.2-.054,2.407.054,3.6.2,2.129.206,4.262.362,6.386.117,1.556.235,3.1.489,4.639a5.634,5.634,0,0,0,.451,1.36,8.529,8.529,0,0,0,1.688,2.164,14.4,14.4,0,0,0,2.839,2.373,15.656,15.656,0,0,1,2.75,1.909,14.612,14.612,0,0,0,2.883,2.09,1.98,1.98,0,0,0,2.07.2,5.838,5.838,0,0,0,3.1-3.186,3.254,3.254,0,0,0-.842-3.621,8.643,8.643,0,0,0-2.564-1.649,30.708,30.708,0,0,1-4.14-2.285c-.362-.245-.744-.465-1.1-.714-.763-.543-1.39-1.155-1.106-2.212a2.154,2.154,0,0,0,.01-.5c-.01-1.488-.015-2.975-.045-4.463-.044-2.447.318-4.869.46-7.306a5.4,5.4,0,0,1,.1-1.145c.015-.054.035-.1.049-.157a48.659,48.659,0,0,0,7.678-3.616,26.419,26.419,0,0,0,5.07-3.891,39.435,39.435,0,0,0,4.36-5.373A41.681,41.681,0,0,0,92.162,97.6a.317.317,0,0,0,.02-.049,56.746,56.746,0,0,0,6.807-.739c.186-.029.362-.185.563-.069a.912.912,0,0,0,.841-.054c1.2-.48,2.393-.964,3.592-1.444a7.583,7.583,0,0,0,1.776-1.228,8.107,8.107,0,0,0,2-2.173,27.3,27.3,0,0,0,1.64-3.137,11.994,11.994,0,0,0,.949-5.178,9.333,9.333,0,0,0-.817-3.049M30.795,27.673a25.668,25.668,0,0,1,.787-4.453,20.446,20.446,0,0,1,1.111-3.034c.636-1.375,1.414-2.672,2.159-3.988.655-1.146,1.307-2.29,2.041-3.391A18.109,18.109,0,0,1,40.65,8.974c.622-.5,1.243-1.008,1.87-1.5a5.833,5.833,0,0,1,1.507-1,20.394,20.394,0,0,1,2.618-.9c.974-.206,1.929-.509,2.9-.749a33.685,33.685,0,0,1,4.493-.651,17.87,17.87,0,0,1,4.6.206,10.408,10.408,0,0,1,2.907.935,32.984,32.984,0,0,1,2.887,1.679c1.037.636,2.055,1.287,3.029,2a24.7,24.7,0,0,1,3.8,3.338,25.873,25.873,0,0,1,2.995,4.214c.347.573.651,1.175,1.048,1.723a4.456,4.456,0,0,1,.729,1.63c.362,1.688.921,3.323,1.312,5a8.4,8.4,0,0,1,.264,2.2c-.03,1.013.215,2.006.147,2.579-.079,1.835-.083,3.225-.21,4.605A18.247,18.247,0,0,1,76.228,40c-.529,1.223-1.16,2.4-1.8,3.587-.435.8-.822,1.625-1.277,2.413a13.746,13.746,0,0,1-3.582,4.023,27.527,27.527,0,0,1-3.152,2.074c-.714.412-1.444.8-2.183,1.15a13.215,13.215,0,0,1-3.744,1.165c-.989.142-2,.152-2.985.343a1.328,1.328,0,0,1-.719-.069,6.574,6.574,0,0,0-2.09-.313,18.816,18.816,0,0,1-5.124-.754,33.193,33.193,0,0,1-3.983-1.566,32.772,32.772,0,0,1-4.214-2.3A20.915,20.915,0,0,1,38.37,47.5a4.672,4.672,0,0,0-.954-.66A7.356,7.356,0,0,1,35.272,45a14.884,14.884,0,0,1-2.838-5.237c-.269-.871-.773-1.649-1-2.539a22.993,22.993,0,0,1-.856-5.672c0-1.3.089-2.589.216-3.881m53.024,71.41c-.347.817-.748,1.615-1.1,2.432a2.565,2.565,0,0,1-.489.71,33.157,33.157,0,0,1-3.612,3.572.236.236,0,0,0-.054.044A30.3,30.3,0,0,1,74.3,109.36a1.619,1.619,0,0,1-.484.308,45.843,45.843,0,0,0-4.385,1.982c-1.146.489-2.3.954-3.484,1.331a2.381,2.381,0,0,0-.808.333,1.109,1.109,0,0,1-.479.157c-1.752.23-3.489.592-5.271.69a26.6,26.6,0,0,1-3.949.064,41.29,41.29,0,0,1-7.732-1.482,4.706,4.706,0,0,0-1.135-.27,17.52,17.52,0,0,1-5.09-1.307c-.852-.294-1.708-.592-2.569-.856a27.015,27.015,0,0,1-4.9-2.1,14.025,14.025,0,0,1-3.47-2.868,18.585,18.585,0,0,1-2.658-3.944c-.45-.823-.881-1.644-1.36-2.54.489,0,.89,0,1.291,0a61.115,61.115,0,0,0,8.246-.577c.553-.069,1.116-.117,1.679-.132a9.779,9.779,0,0,0,3.8-.964c1.135-.508,2.207-1.126,3.323-1.669a1.985,1.985,0,0,0,.406-.3,18.188,18.188,0,0,0,1.321-1.277c2.686-2.051,3.675-5.295,4.732-8.368l3.9-11.314c.4-1.145.866-2.315,1.2-3.5.724,2.99,1.439,5.985,2.178,8.975a45.18,45.18,0,0,0,3.048,9.146,21.265,21.265,0,0,0,2.134,3.45l.01.01a11.739,11.739,0,0,0,.823,1.424,7.608,7.608,0,0,0,2.814,2.574,13.685,13.685,0,0,0,2.192,1.14,8.609,8.609,0,0,0,2.007.338c2.373.152,4.746.157,7.116.122,1.61-.02,3.225-.073,4.835-.22a1.682,1.682,0,0,1,.743.039,4.906,4.906,0,0,1-.509,1.336m19.864-12.43c-.166.421-.367.837-.543,1.253a3.3,3.3,0,0,1-1.228,1.492A11.722,11.722,0,0,1,97.9,91.052a62.611,62.611,0,0,1-7.248.886,26.256,26.256,0,0,0-4.7.641,2.261,2.261,0,0,1-.656.049c-2.642-.015-5.28.24-7.927.108-1.018-.054-2.036-.2-3.064-.24a8.555,8.555,0,0,1-3.67-.866,1.722,1.722,0,0,0-.567-.127,6.149,6.149,0,0,1-2.7-1.63,3.39,3.39,0,0,1-.426-.837c-.2-.518-.42-1.028-.573-1.557-.592-2.006-1.63-3.855-2.212-5.873-.68-2.368-1.321-4.756-2.055-7.115a6.5,6.5,0,0,1-.264-1.556,1.639,1.639,0,0,0-.068-.495,16.565,16.565,0,0,1-.666-4.15c-.009-.1,0-.2,0-.294-.083-.925-.088-.934.8-1.331a13.1,13.1,0,0,1,1.972-.783.821.821,0,0,1,.954.3,5.669,5.669,0,0,1,.94,1.527c.21.538.45,1.067.612,1.62a34.339,34.339,0,0,0,3.181,6.788c.333.582.646,1.18.974,1.772a1.737,1.737,0,0,0,1.291.94,1.25,1.25,0,0,0,.925-.1,1.7,1.7,0,0,0,.645-.225,2.1,2.1,0,0,0,.67-.641,1.705,1.705,0,0,0,.275-.617,2.388,2.388,0,0,0,.009-.984,1.96,1.96,0,0,0-.186-.5.767.767,0,0,0-.044-.21c-.358-.964-.725-1.923-1.111-2.873a25.073,25.073,0,0,0,6.66-1.16q3.582-.962,7.17-1.933a1.028,1.028,0,0,0,.773-.734,2.029,2.029,0,0,0,.5-2,1.843,1.843,0,0,0-1.238-1.165c-.176-.132-.381-.245-.562-.376a.789.789,0,0,0-.632-.069c-1.424.2-2.848.392-4.272.6-.91.137-1.82.308-2.745.357a8.609,8.609,0,0,0-1.116.328,16.633,16.633,0,0,1-2.192.128c-1.557.107-3.1.323-4.674.308h-.059a10.628,10.628,0,0,0-3.568-4.83c0-.01-.01-.015-.014-.015a3.234,3.234,0,0,0-1.948-.852c-.073-.01-.156-.059-.21-.034-.754.327-1.59.1-2.359.381a13.643,13.643,0,0,0-2.266,1.018,14.335,14.335,0,0,1-1.649.773,6.71,6.71,0,0,0-2.128,1.5c-.191.205-.333.234-.544.068a10.3,10.3,0,0,0-2.373-1.282,8.573,8.573,0,0,1-1.048-.656,5.5,5.5,0,0,0-2.838-1.057,11.438,11.438,0,0,0-2.383.259c-.714.142-1.419.347-2.129.538a3.046,3.046,0,0,0-1.942,1.537A12.2,12.2,0,0,0,41.761,66.5c-.191.343-.377.695-.553,1.048-1.806.024-3.617-.054-5.417-.157-2.193-.132-4.37-.391-6.563-.48a12.712,12.712,0,0,1-2.1-.269,9.037,9.037,0,0,0-3.421-.02,1.364,1.364,0,0,0-1.194,1.106,2.532,2.532,0,0,0-.069.592.923.923,0,0,0,0,.636,4.235,4.235,0,0,0,3.2,2.49,41.134,41.134,0,0,0,5.246.833c1.786.206,3.582.332,5.378.386a13.306,13.306,0,0,0,2.462-.064c-.352.734-.695,1.468-1.009,2.217a5.545,5.545,0,0,0-.333,4.1c-.009.049-.02.1-.024.152a1.731,1.731,0,0,0,.044.5,1.584,1.584,0,0,0,.431.779c.089.078.191.151.284.22.02.01.035.025.054.034a2.9,2.9,0,0,0,.337.142c.02.01.044.015.069.024a1.766,1.766,0,0,0,.518.049.757.757,0,0,0,.959-.054A2.984,2.984,0,0,0,40.812,80a9.04,9.04,0,0,0,1.018-1.909,16.746,16.746,0,0,1,1.2-2.461,54.333,54.333,0,0,0,2.823-6.167,15.683,15.683,0,0,1,.812-1.688,2.115,2.115,0,0,1,2.1-1.052,8.03,8.03,0,0,1,2.613.656c.245.1.255.26.216.455-.108.519-.216,1.033-.333,1.546a51.644,51.644,0,0,1-2.574,8.31c-.944,2.261-1.688,4.6-2.559,6.89a16.636,16.636,0,0,1-2.389,4.272,13.86,13.86,0,0,1-6.636,4.4,14.524,14.524,0,0,1-3.161.508,39.506,39.506,0,0,1-4.375.352c-.582.01-1.17.064-1.752.088a41.355,41.355,0,0,1-5.823-.484c-2.663-.294-5.291-.837-7.957-1.115a22.884,22.884,0,0,1-5.756-1.312,5.4,5.4,0,0,1-3.489-3.719,2.592,2.592,0,0,1,.015-.989,10.471,10.471,0,0,1,1.155-3.612,56.241,56.241,0,0,1,3.577-6.029c4.023-6.162,8.207-12.225,12.494-18.215.832-1.154,1.477-2.438,2.408-3.523,1.169-1.356,2.207-2.81,3.41-4.141.646-.714,1.184-1.532,1.767-2.3.768-1.013,1.561-1.047,2.4-.088a22,22,0,0,0,2.534,2.6c1.258,1.013,2.569,1.958,3.905,2.882a15.864,15.864,0,0,0,2.853,1.429c.852.362,1.683.754,2.54,1.106A21.2,21.2,0,0,0,49.434,58.3c2.325.3,4.625.738,6.945,1.086a9.9,9.9,0,0,0,3.289-.1,13.3,13.3,0,0,0,1.84-.46c1.067-.343,2.154-.617,3.24-.89a17.9,17.9,0,0,0,4.762-2.447c1.067-.705,2.188-1.356,3.176-2.154a13.811,13.811,0,0,0,2.329-2.046.668.668,0,0,1,.113-.093c.935-.539,1.322-1.518,1.938-2.31a13.664,13.664,0,0,0,1.615-2.393.477.477,0,0,1,.729-.22,1.838,1.838,0,0,1,.8.724c.631,1.052,1.376,2.036,1.943,3.132a8.635,8.635,0,0,0,1.14,1.493C85.4,54.2,87.278,56.962,89.177,59.7a15.08,15.08,0,0,0,2.413,2.878.739.739,0,0,1,.089.117c1.169,1.865,2.843,3.357,4.012,5.231.548.876,1.253,1.659,1.83,2.525a13.215,13.215,0,0,1,1.287,2.256,3.34,3.34,0,0,0,.45.744,23.215,23.215,0,0,1,2.247,3.372,30.041,30.041,0,0,1,2.153,4.639c.211.661.338,1.356.489,2.031a5.35,5.35,0,0,1-.465,3.156" transform="translate(-6342.256 4349.631)" fill="#111"/><path d="M109.661,33.954c-.078,1.835-.083,3.225-.21,4.605a18.26,18.26,0,0,1-1.316,5.716c-.529,1.223-1.16,2.4-1.8,3.587-.436.8-.823,1.625-1.277,2.413a13.741,13.741,0,0,1-3.583,4.023,27.526,27.526,0,0,1-3.152,2.075c-.714.411-1.444.8-2.182,1.15A13.244,13.244,0,0,1,92.4,58.687c-.989.142-2,.152-2.985.343a1.325,1.325,0,0,1-.719-.069,6.549,6.549,0,0,0-2.09-.313,18.813,18.813,0,0,1-5.124-.754A33.282,33.282,0,0,1,77.5,56.328a32.8,32.8,0,0,1-4.214-2.3,20.95,20.95,0,0,1-3.01-2.246,4.664,4.664,0,0,0-.954-.661,7.347,7.347,0,0,1-2.143-1.835,14.874,14.874,0,0,1-2.838-5.237c-.269-.871-.773-1.649-1-2.539a23,23,0,0,1-.856-5.672c0-1.3.088-2.589.215-3.881a25.714,25.714,0,0,1,.788-4.453A20.341,20.341,0,0,1,64.6,24.464c.636-1.375,1.414-2.672,2.158-3.988.656-1.146,1.307-2.291,2.041-3.392a18.135,18.135,0,0,1,3.758-3.832c.622-.5,1.243-1.008,1.869-1.5a5.85,5.85,0,0,1,1.507-1,20.4,20.4,0,0,1,2.618-.9c.974-.206,1.928-.509,2.9-.749a33.587,33.587,0,0,1,4.492-.651,17.874,17.874,0,0,1,4.6.206,10.383,10.383,0,0,1,2.907.935,33.268,33.268,0,0,1,2.888,1.679c1.037.636,2.055,1.287,3.029,2a24.708,24.708,0,0,1,3.8,3.338,25.906,25.906,0,0,1,3,4.214c.347.573.65,1.175,1.047,1.723a4.441,4.441,0,0,1,.729,1.63c.362,1.688.92,3.323,1.312,5a8.4,8.4,0,0,1,.264,2.2c-.029,1.014.215,2.007.147,2.58" transform="translate(-6374.162 4345.353)" fill="#111"/><path d="M112.006,171.566a4.906,4.906,0,0,1-.509,1.336c-.347.817-.748,1.615-1.1,2.432a2.565,2.565,0,0,1-.489.71,33.157,33.157,0,0,1-3.612,3.572.236.236,0,0,0-.054.044,30.294,30.294,0,0,1-4.262,3.519,1.619,1.619,0,0,1-.484.308,45.727,45.727,0,0,0-4.385,1.982c-1.146.489-2.3.954-3.485,1.331a2.374,2.374,0,0,0-.807.333,1.117,1.117,0,0,1-.479.156c-1.752.23-3.489.592-5.271.69a26.6,26.6,0,0,1-3.949.064,41.288,41.288,0,0,1-7.732-1.482,4.706,4.706,0,0,0-1.135-.27,17.52,17.52,0,0,1-5.09-1.307c-.852-.294-1.708-.592-2.569-.856a27.019,27.019,0,0,1-4.9-2.1,14.011,14.011,0,0,1-3.469-2.868,18.584,18.584,0,0,1-2.658-3.944c-.45-.822-.881-1.644-1.36-2.54.489,0,.89,0,1.291,0a61.036,61.036,0,0,0,8.246-.577c.553-.069,1.116-.117,1.679-.132a9.786,9.786,0,0,0,3.8-.965c1.136-.508,2.207-1.126,3.323-1.669a1.96,1.96,0,0,0,.406-.3,18.1,18.1,0,0,0,1.322-1.277c2.686-2.05,3.675-5.295,4.732-8.368l3.9-11.314c.4-1.145.866-2.315,1.2-3.5.724,2.99,1.439,5.986,2.178,8.975a45.213,45.213,0,0,0,3.049,9.146,21.232,21.232,0,0,0,2.134,3.45l.01.01a11.8,11.8,0,0,0,.822,1.424,7.615,7.615,0,0,0,2.814,2.574,13.71,13.71,0,0,0,2.192,1.14,8.605,8.605,0,0,0,2.007.338c2.373.152,4.746.157,7.116.122,1.61-.02,3.225-.073,4.835-.22a1.684,1.684,0,0,1,.744.039" transform="translate(-6369.935 4275.812)" fill="#111"/><path d="M108.626,134.842c-.166.421-.367.837-.543,1.253a3.3,3.3,0,0,1-1.228,1.492,11.722,11.722,0,0,1-4.013,1.654,62.609,62.609,0,0,1-7.248.886,26.256,26.256,0,0,0-4.7.641,2.261,2.261,0,0,1-.656.049c-2.642-.015-5.28.24-7.927.108-1.018-.054-2.036-.2-3.064-.24a8.555,8.555,0,0,1-3.67-.866,1.722,1.722,0,0,0-.567-.127,6.149,6.149,0,0,1-2.7-1.63,3.39,3.39,0,0,1-.426-.837c-.2-.518-.42-1.028-.573-1.557-.592-2.006-1.63-3.855-2.212-5.873-.68-2.368-1.321-4.756-2.055-7.115a6.5,6.5,0,0,1-.264-1.556,1.639,1.639,0,0,0-.068-.495,16.565,16.565,0,0,1-.666-4.15c-.009-.1,0-.2,0-.294-.083-.925-.088-.934.8-1.331a13.1,13.1,0,0,1,1.972-.783.821.821,0,0,1,.954.3,5.669,5.669,0,0,1,.94,1.527c.21.538.45,1.067.612,1.62a34.339,34.339,0,0,0,3.181,6.788c.333.582.646,1.18.974,1.772a1.737,1.737,0,0,0,1.291.94,1.25,1.25,0,0,0,.925-.1,1.7,1.7,0,0,0,.645-.225,2.1,2.1,0,0,0,.67-.641,1.705,1.705,0,0,0,.275-.617,2.388,2.388,0,0,0,.009-.984,1.961,1.961,0,0,0-.186-.5.767.767,0,0,0-.044-.21c-.358-.964-.725-1.923-1.111-2.873a25.072,25.072,0,0,0,6.66-1.16q3.582-.962,7.17-1.933a1.028,1.028,0,0,0,.773-.734,2.029,2.029,0,0,0,.5-2,1.843,1.843,0,0,0-1.238-1.165c-.176-.132-.381-.245-.562-.376a.789.789,0,0,0-.632-.069c-1.424.2-2.848.392-4.272.6-.91.137-1.82.308-2.745.357a8.609,8.609,0,0,0-1.116.328,16.634,16.634,0,0,1-2.192.128c-1.557.107-3.1.323-4.674.308h-.059a10.628,10.628,0,0,0-3.568-4.83c0-.01-.01-.015-.014-.015a3.234,3.234,0,0,0-1.948-.852c-.073-.01-.156-.059-.21-.034-.754.327-1.59.1-2.359.381a13.643,13.643,0,0,0-2.266,1.018,14.335,14.335,0,0,1-1.649.773,6.71,6.71,0,0,0-2.128,1.5c-.191.205-.333.234-.544.068a10.3,10.3,0,0,0-2.373-1.282,8.572,8.572,0,0,1-1.048-.656,5.5,5.5,0,0,0-2.838-1.057,11.438,11.438,0,0,0-2.383.259c-.714.142-1.419.347-2.129.538a3.046,3.046,0,0,0-1.942,1.537,12.2,12.2,0,0,0-1.468,2.192c-.191.343-.377.695-.553,1.048-1.806.024-3.617-.054-5.417-.157-2.193-.132-4.37-.392-6.563-.48a12.711,12.711,0,0,1-2.1-.269,9.037,9.037,0,0,0-3.421-.02,1.364,1.364,0,0,0-1.194,1.106,2.533,2.533,0,0,0-.069.592.923.923,0,0,0,0,.636,4.235,4.235,0,0,0,3.2,2.49,41.135,41.135,0,0,0,5.246.833c1.786.206,3.582.332,5.378.386a13.306,13.306,0,0,0,2.462-.064c-.352.734-.695,1.468-1.009,2.217a5.545,5.545,0,0,0-.333,4.1c-.009.049-.02.1-.024.152a1.731,1.731,0,0,0,.044.5,1.584,1.584,0,0,0,.431.779c.089.078.191.151.284.22.02.01.035.025.054.034a2.9,2.9,0,0,0,.337.142c.02.01.044.015.069.024a1.765,1.765,0,0,0,.518.049.757.757,0,0,0,.959-.054,2.984,2.984,0,0,0,.754-.778,9.039,9.039,0,0,0,1.018-1.909,16.746,16.746,0,0,1,1.2-2.461A54.332,54.332,0,0,0,50.8,117.65a15.681,15.681,0,0,1,.812-1.688,2.115,2.115,0,0,1,2.1-1.052,8.03,8.03,0,0,1,2.613.656c.245.1.255.26.216.455-.108.519-.216,1.033-.333,1.546a51.645,51.645,0,0,1-2.574,8.31c-.944,2.261-1.688,4.6-2.559,6.89a16.636,16.636,0,0,1-2.389,4.272,13.86,13.86,0,0,1-6.636,4.4,14.524,14.524,0,0,1-3.161.508,39.5,39.5,0,0,1-4.375.352c-.582.01-1.17.064-1.752.088a41.356,41.356,0,0,1-5.823-.484c-2.663-.294-5.291-.837-7.957-1.115a22.885,22.885,0,0,1-5.756-1.312,5.4,5.4,0,0,1-3.489-3.719,2.591,2.591,0,0,1,.015-.989,10.471,10.471,0,0,1,1.155-3.612,56.241,56.241,0,0,1,3.577-6.029c4.023-6.162,8.207-12.225,12.494-18.215.832-1.154,1.477-2.438,2.408-3.523,1.169-1.356,2.207-2.81,3.41-4.141.646-.714,1.184-1.532,1.767-2.3.768-1.013,1.561-1.047,2.4-.088a22,22,0,0,0,2.534,2.6c1.258,1.013,2.569,1.958,3.905,2.882a15.864,15.864,0,0,0,2.853,1.429c.852.362,1.683.754,2.54,1.106a21.2,21.2,0,0,0,5.589,1.606c2.325.3,4.625.738,6.945,1.086a9.9,9.9,0,0,0,3.289-.1,13.3,13.3,0,0,0,1.84-.46c1.067-.343,2.154-.617,3.24-.89a17.9,17.9,0,0,0,4.762-2.447c1.067-.705,2.188-1.356,3.176-2.154a13.811,13.811,0,0,0,2.329-2.046.668.668,0,0,1,.113-.093c.935-.539,1.322-1.518,1.938-2.31a13.664,13.664,0,0,0,1.615-2.393.477.477,0,0,1,.729-.22,1.838,1.838,0,0,1,.8.724c.631,1.052,1.376,2.036,1.943,3.132a8.635,8.635,0,0,0,1.14,1.493c2.114,2.583,3.988,5.344,5.887,8.085a15.081,15.081,0,0,0,2.413,2.878.739.739,0,0,1,.089.117c1.169,1.865,2.843,3.357,4.012,5.231.548.876,1.253,1.659,1.83,2.525a13.215,13.215,0,0,1,1.287,2.256,3.34,3.34,0,0,0,.45.744,23.214,23.214,0,0,1,2.247,3.372,30.042,30.042,0,0,1,2.153,4.639c.211.661.338,1.356.489,2.031a5.35,5.35,0,0,1-.465,3.156" transform="translate(-6347.2 4301.442)" fill="#111"/><path d="M108.626,134.842c-.166.421-.367.837-.543,1.253a3.3,3.3,0,0,1-1.228,1.492,11.722,11.722,0,0,1-4.013,1.654,62.609,62.609,0,0,1-7.248.886,26.256,26.256,0,0,0-4.7.641,2.261,2.261,0,0,1-.656.049c-2.642-.015-5.28.24-7.927.108-1.018-.054-2.036-.2-3.064-.24a8.555,8.555,0,0,1-3.67-.866,1.722,1.722,0,0,0-.567-.127,6.149,6.149,0,0,1-2.7-1.63,3.39,3.39,0,0,1-.426-.837c-.2-.518-.42-1.028-.573-1.557-.592-2.006-1.63-3.855-2.212-5.873-.68-2.368-1.321-4.756-2.055-7.115a6.5,6.5,0,0,1-.264-1.556,1.639,1.639,0,0,0-.068-.495,16.565,16.565,0,0,1-.666-4.15c-.009-.1,0-.2,0-.294-.083-.925-.088-.934.8-1.331a13.1,13.1,0,0,1,1.972-.783.821.821,0,0,1,.954.3,5.669,5.669,0,0,1,.94,1.527c.21.538.45,1.067.612,1.62a34.339,34.339,0,0,0,3.181,6.788c.333.582.646,1.18.974,1.772a1.737,1.737,0,0,0,1.291.94,1.25,1.25,0,0,0,.925-.1,1.7,1.7,0,0,0,.645-.225,2.1,2.1,0,0,0,.67-.641,1.705,1.705,0,0,0,.275-.617,2.388,2.388,0,0,0,.009-.984,1.961,1.961,0,0,0-.186-.5.767.767,0,0,0-.044-.21c-.358-.964-.725-1.923-1.111-2.873a25.072,25.072,0,0,0,6.66-1.16q3.582-.962,7.17-1.933a1.028,1.028,0,0,0,.773-.734,2.029,2.029,0,0,0,.5-2,1.843,1.843,0,0,0-1.238-1.165c-.176-.132-.381-.245-.562-.376a.789.789,0,0,0-.632-.069c-1.424.2-2.848.392-4.272.6-.91.137-1.82.308-2.745.357a8.609,8.609,0,0,0-1.116.328,16.634,16.634,0,0,1-2.192.128c-1.557.107-3.1.323-4.674.308h-.059a10.628,10.628,0,0,0-3.568-4.83c0-.01-.01-.015-.014-.015a3.234,3.234,0,0,0-1.948-.852c-.073-.01-.156-.059-.21-.034-.754.327-1.59.1-2.359.381a13.643,13.643,0,0,0-2.266,1.018,14.335,14.335,0,0,1-1.649.773,6.71,6.71,0,0,0-2.128,1.5c-.191.205-.333.234-.544.068a10.3,10.3,0,0,0-2.373-1.282,8.572,8.572,0,0,1-1.048-.656,5.5,5.5,0,0,0-2.838-1.057,11.438,11.438,0,0,0-2.383.259c-.714.142-1.419.347-2.129.538a3.046,3.046,0,0,0-1.942,1.537,12.2,12.2,0,0,0-1.468,2.192c-.191.343-.377.695-.553,1.048-1.806.024-3.617-.054-5.417-.157-2.193-.132-4.37-.392-6.563-.48a12.711,12.711,0,0,1-2.1-.269,9.037,9.037,0,0,0-3.421-.02,1.364,1.364,0,0,0-1.194,1.106,2.533,2.533,0,0,0-.069.592.923.923,0,0,0,0,.636,4.235,4.235,0,0,0,3.2,2.49,41.135,41.135,0,0,0,5.246.833c1.786.206,3.582.332,5.378.386a13.306,13.306,0,0,0,2.462-.064c-.352.734-.695,1.468-1.009,2.217a5.545,5.545,0,0,0-.333,4.1c-.009.049-.02.1-.024.152a1.731,1.731,0,0,0,.044.5,1.584,1.584,0,0,0,.431.779c.089.078.191.151.284.22.02.01.035.025.054.034a2.9,2.9,0,0,0,.337.142c.02.01.044.015.069.024a1.765,1.765,0,0,0,.518.049.757.757,0,0,0,.959-.054,2.984,2.984,0,0,0,.754-.778,9.039,9.039,0,0,0,1.018-1.909,16.746,16.746,0,0,1,1.2-2.461A54.332,54.332,0,0,0,50.8,117.65a15.681,15.681,0,0,1,.812-1.688,2.115,2.115,0,0,1,2.1-1.052,8.03,8.03,0,0,1,2.613.656c.245.1.255.26.216.455-.108.519-.216,1.033-.333,1.546a51.645,51.645,0,0,1-2.574,8.31c-.944,2.261-1.688,4.6-2.559,6.89a16.636,16.636,0,0,1-2.389,4.272,13.86,13.86,0,0,1-6.636,4.4,14.524,14.524,0,0,1-3.161.508,39.5,39.5,0,0,1-4.375.352c-.582.01-1.17.064-1.752.088a41.356,41.356,0,0,1-5.823-.484c-2.663-.294-5.291-.837-7.957-1.115a22.885,22.885,0,0,1-5.756-1.312,5.4,5.4,0,0,1-3.489-3.719,2.591,2.591,0,0,1,.015-.989,10.471,10.471,0,0,1,1.155-3.612,56.241,56.241,0,0,1,3.577-6.029c4.023-6.162,8.207-12.225,12.494-18.215.832-1.154,1.477-2.438,2.408-3.523,1.169-1.356,2.207-2.81,3.41-4.141.646-.714,1.184-1.532,1.767-2.3.768-1.013,1.561-1.047,2.4-.088a22,22,0,0,0,2.534,2.6c1.258,1.013,2.569,1.958,3.905,2.882a15.864,15.864,0,0,0,2.853,1.429c.852.362,1.683.754,2.54,1.106a21.2,21.2,0,0,0,5.589,1.606c2.325.3,4.625.738,6.945,1.086a9.9,9.9,0,0,0,3.289-.1,13.3,13.3,0,0,0,1.84-.46c1.067-.343,2.154-.617,3.24-.89a17.9,17.9,0,0,0,4.762-2.447c1.067-.705,2.188-1.356,3.176-2.154a13.811,13.811,0,0,0,2.329-2.046.668.668,0,0,1,.113-.093c.935-.539,1.322-1.518,1.938-2.31a13.664,13.664,0,0,0,1.615-2.393.477.477,0,0,1,.729-.22,1.838,1.838,0,0,1,.8.724c.631,1.052,1.376,2.036,1.943,3.132a8.635,8.635,0,0,0,1.14,1.493c2.114,2.583,3.988,5.344,5.887,8.085a15.081,15.081,0,0,0,2.413,2.878.739.739,0,0,1,.089.117c1.169,1.865,2.843,3.357,4.012,5.231.548.876,1.253,1.659,1.83,2.525a13.215,13.215,0,0,1,1.287,2.256,3.34,3.34,0,0,0,.45.744,23.214,23.214,0,0,1,2.247,3.372,30.042,30.042,0,0,1,2.153,4.639c.211.661.338,1.356.489,2.031a5.35,5.35,0,0,1-.465,3.156" transform="translate(-6347.2 4301.442)" fill="#f9f9f8"/><path d="M109.661,33.954c-.078,1.835-.083,3.225-.21,4.605a18.26,18.26,0,0,1-1.316,5.716c-.529,1.223-1.16,2.4-1.8,3.587-.436.8-.823,1.625-1.277,2.413a13.741,13.741,0,0,1-3.583,4.023,27.526,27.526,0,0,1-3.152,2.075c-.714.411-1.444.8-2.182,1.15A13.244,13.244,0,0,1,92.4,58.687c-.989.142-2,.152-2.985.343a1.325,1.325,0,0,1-.719-.069,6.549,6.549,0,0,0-2.09-.313,18.813,18.813,0,0,1-5.124-.754A33.282,33.282,0,0,1,77.5,56.328a32.8,32.8,0,0,1-4.214-2.3,20.95,20.95,0,0,1-3.01-2.246,4.664,4.664,0,0,0-.954-.661,7.347,7.347,0,0,1-2.143-1.835,14.874,14.874,0,0,1-2.838-5.237c-.269-.871-.773-1.649-1-2.539a23,23,0,0,1-.856-5.672c0-1.3.088-2.589.215-3.881a25.714,25.714,0,0,1,.788-4.453A20.341,20.341,0,0,1,64.6,24.464c.636-1.375,1.414-2.672,2.158-3.988.656-1.146,1.307-2.291,2.041-3.392a18.135,18.135,0,0,1,3.758-3.832c.622-.5,1.243-1.008,1.869-1.5a5.85,5.85,0,0,1,1.507-1,20.4,20.4,0,0,1,2.618-.9c.974-.206,1.928-.509,2.9-.749a33.587,33.587,0,0,1,4.492-.651,17.874,17.874,0,0,1,4.6.206,10.383,10.383,0,0,1,2.907.935,33.268,33.268,0,0,1,2.888,1.679c1.037.636,2.055,1.287,3.029,2a24.708,24.708,0,0,1,3.8,3.338,25.906,25.906,0,0,1,3,4.214c.347.573.65,1.175,1.047,1.723a4.441,4.441,0,0,1,.729,1.63c.362,1.688.92,3.323,1.312,5a8.4,8.4,0,0,1,.264,2.2c-.029,1.014.215,2.007.147,2.58" transform="translate(-6374.162 4345.353)" fill="#f9f9f8"/><path d="M112.006,171.566a4.906,4.906,0,0,1-.509,1.336c-.347.817-.748,1.615-1.1,2.432a2.565,2.565,0,0,1-.489.71,33.157,33.157,0,0,1-3.612,3.572.236.236,0,0,0-.054.044,30.294,30.294,0,0,1-4.262,3.519,1.619,1.619,0,0,1-.484.308,45.727,45.727,0,0,0-4.385,1.982c-1.146.489-2.3.954-3.485,1.331a2.374,2.374,0,0,0-.807.333,1.117,1.117,0,0,1-.479.156c-1.752.23-3.489.592-5.271.69a26.6,26.6,0,0,1-3.949.064,41.288,41.288,0,0,1-7.732-1.482,4.706,4.706,0,0,0-1.135-.27,17.52,17.52,0,0,1-5.09-1.307c-.852-.294-1.708-.592-2.569-.856a27.019,27.019,0,0,1-4.9-2.1,14.011,14.011,0,0,1-3.469-2.868,18.584,18.584,0,0,1-2.658-3.944c-.45-.822-.881-1.644-1.36-2.54.489,0,.89,0,1.291,0a61.036,61.036,0,0,0,8.246-.577c.553-.069,1.116-.117,1.679-.132a9.786,9.786,0,0,0,3.8-.965c1.136-.508,2.207-1.126,3.323-1.669a1.96,1.96,0,0,0,.406-.3,18.1,18.1,0,0,0,1.322-1.277c2.686-2.05,3.675-5.295,4.732-8.368l3.9-11.314c.4-1.145.866-2.315,1.2-3.5.724,2.99,1.439,5.986,2.178,8.975a45.213,45.213,0,0,0,3.049,9.146,21.232,21.232,0,0,0,2.134,3.45l.01.01a11.8,11.8,0,0,0,.822,1.424,7.615,7.615,0,0,0,2.814,2.574,13.71,13.71,0,0,0,2.192,1.14,8.605,8.605,0,0,0,2.007.338c2.373.152,4.746.157,7.116.122,1.61-.02,3.225-.073,4.835-.22a1.684,1.684,0,0,1,.744.039" transform="translate(-6369.935 4275.812)" fill="#f9f9f8"/><path d="M104.288,70.824c-1.4-.1-2.795.092-4.2.083-1.342-.009-2.7.086-4.036,0a34.629,34.629,0,0,1-4.737-.3c-.728-.145-1.5-.107-2.251-.232a2.5,2.5,0,0,1-2.189-1.627,1.892,1.892,0,0,1,.066-1.528,9.563,9.563,0,0,1,1.338-2.128c1.371-1.553,2.706-3.136,4.139-4.636a12.658,12.658,0,0,1,5.847-3.373,6.138,6.138,0,0,1,1.739.045,8.3,8.3,0,0,1,3.845,1.209,27.015,27.015,0,0,1,5.1,3.428,13.211,13.211,0,0,1,3.4,4.366A4.708,4.708,0,0,1,112.592,69a1.065,1.065,0,0,1-.629.748,8.185,8.185,0,0,1-3.164.8c-.436.023-.871.081-1.3.141a20.126,20.126,0,0,1-3.207.137" transform="translate(-6386.551 4320.517)" fill="#111"/><path d="M88.071,38.622a4.449,4.449,0,0,1,4.643,4.285,8.143,8.143,0,0,1-.991,4.069.852.852,0,0,1-.464.443,1.226,1.226,0,0,0-.505.4,2.556,2.556,0,0,1-1.509.795,7,7,0,0,1-4.087-.366,3.584,3.584,0,0,1-1.794-1.623,5.456,5.456,0,0,1,.567-6.553A3.347,3.347,0,0,1,85.5,39.064a6.787,6.787,0,0,1,2.569-.442" transform="translate(-6384.397 4329.918)" fill="#111"/><path d="M125.388,37.446a4.1,4.1,0,0,1,3.569,1.715,5.6,5.6,0,0,1,.935,5.805,3.3,3.3,0,0,1-2.821,2.261,6.984,6.984,0,0,1-5.171-.94,3.284,3.284,0,0,1-1.5-2.2,6.855,6.855,0,0,1,.662-4.4,4.44,4.44,0,0,1,3.847-2.235,4.377,4.377,0,0,1,.479,0" transform="translate(-6403.68 4330.514)" fill="#111"/><path d="M110.456,70.9c-1.067-.078-2.086-.011-3.111-.1a20.931,20.931,0,0,0-2.754.078,21.574,21.574,0,0,1-2.926-.094c-.945-.086-1.9-.054-2.854-.065-.463-.005-.927.018-1.391.013s-.654-.288-.441-.718a3.367,3.367,0,0,1,.464-.642,20.786,20.786,0,0,1,4.907-4.248,4.518,4.518,0,0,1,3.506-.528,9.769,9.769,0,0,1,4.758,2.633,17.025,17.025,0,0,1,2.451,2.449c.218.314.7.614.418,1.053-.212.329-.676.149-1.026.161-.682.026-1.365.008-2,.008" transform="translate(-6391.73 4316.715)" fill="#f27d21"/><rect width="110.35" height="144.506" transform="translate(-6342.256 4349.631)" fill="none"/></g></svg>