<?xml version="1.0" encoding="UTF-8"?><svg id="Layer_2" xmlns="http://www.w3.org/2000/svg" viewBox="0 0 266.71 78"><defs><style>.cls-1{fill:#111112;stroke-width:0px;}</style></defs><g id="Layer_1-2"><path id="Path_1897" class="cls-1" d="m266.15,35.4c1.23.66-.65,38.09-2.06,39-1.13.14-2.28.13-3.41-.02.58-.95,2.56-38.22.47-39.22-2.21-1.05.77-28.25-1.62-29.31l.31-.12c1.51-.1,3.03-.07,4.54.11,2.28,1.15-.38,28.4,1.76,29.55Z"/><path id="Path_1898" class="cls-1" d="m8.22,35.4c-.13,3.42-.8,38.09-2.56,39-1.41.14-2.83.13-4.24-.02.72-.95.31-30.95.59-39.22-.15-5.75.96-28.25-2.01-29.31l.39-.12c1.88-.1,3.77-.07,5.65.11,2.83,1.15,2.16,27.75,2.19,29.55Z"/><path id="Path_1899" class="cls-1" d="m149.44,7.93C136.37,7.8,3.86,7.16.38,5.46-.29,5.14.05.92.45,1.37c3.64.69,118.29.3,149.91.57,21.98-.14,107.98.93,112.01-1.94l.46.37c.44,1.15.12,5.1-.43,5.45-4.39,2.73-106.08,2.09-112.96,2.11Z"/><path id="Path_1900" class="cls-1" d="m152.92,77.96c-13.1-.11-145.83-.68-149.32-2.17-.67-.29-.33-3.99.07-3.59,3.65.61,118.49.26,150.16.5,22.02-.13,108.17.82,112.2-1.71l.46.33c.44,1.01.12,4.48-.43,4.79-4.39,2.4-106.26,1.83-113.15,1.86Z"/></g></svg>