<?xml version="1.0" encoding="utf-8"?>
<!-- Generator: Adobe Illustrator 28.0.0, SVG Export Plug-In . SVG Version: 6.00 Build 0)  -->
<svg version="1.1" id="Layer_1" xmlns="http://www.w3.org/2000/svg" xmlns:xlink="http://www.w3.org/1999/xlink" x="0px" y="0px"
	 viewBox="0 0 208.3 73.6" style="enable-background:new 0 0 208.3 73.6;" xml:space="preserve">
<style type="text/css">
	.st0{clip-path:url(#SVGID_00000109715630225183884830000006502099713876669580_);}
	.st1{fill:#9FD6CD;}
	.st2{fill:none;stroke:#000000;stroke-width:5;stroke-miterlimit:10;}
</style>
<g transform="translate(0 0)">
	<g>
		<defs>
			<rect id="SVGID_1_" width="208.3" height="73.6"/>
		</defs>
		<clipPath id="SVGID_00000137843095679474616740000008247560639748178321_">
			<use xlink:href="#SVGID_1_"  style="overflow:visible;"/>
		</clipPath>
		<g style="clip-path:url(#SVGID_00000137843095679474616740000008247560639748178321_);">
			<path class="st1" d="M103.1,71c-2.7,0-5.3,0-8,0c-4.1,0-8.3,0-12.4-0.1c-1,0-2-0.2-3-0.3c-1.2-0.1-2.4-0.2-3.7-0.2
				c-1.1-0.1-2.2-0.1-3.3-0.2c-1.3-0.1-2.7-0.2-4-0.3c-1.6-0.1-3.1-0.3-4.7-0.5c-3.7-0.4-7.4-0.8-11.1-1.4c-1.9-0.3-3.9-0.7-5.8-1
				c-0.6-0.1-1.1-0.3-1.7-0.4c-1-0.3-2-0.5-3-0.8c-2.5-0.6-5-1.3-7.4-1.9c-1.1-0.3-2.2-0.6-3.2-0.9c-0.8-0.3-1.5-0.6-2.2-0.9
				c-1.8-0.8-3.6-1.5-5.4-2.3c-1.3-0.6-2.5-1.2-3.8-1.8c-0.8-0.4-1.6-0.8-2.4-1.2c-1.3-0.7-2.7-1.3-3.9-2c-0.9-0.5-1.6-1.2-2.5-1.7
				c-2-1.4-3.8-3.1-5.2-5.1c-1.1-1.4-2-2.9-2.7-4.5c-0.3-0.7-0.6-1.5-0.8-2.3c-0.1-0.5-0.2-1.1-0.2-1.7c-0.2-0.8-0.3-1.7-0.3-2.5
				c0.1-0.9,0.2-1.7,0.4-2.5c0.1-0.7,0.2-1.3,0.4-2c0.3-1.3,0.9-2.6,1.8-3.6c1.7-1.8,3.3-3.5,4.9-5.3c0.5-0.6,1-1.1,1.5-1.6
				c0.7-0.6,1.6-1.1,2.3-1.7c0.5-0.3,1-0.7,1.5-1c1-0.7,2.1-1.4,3.2-2c0.3-0.1,0.5-0.2,0.8-0.3c0.7-0.3,1.3-0.5,1.9-0.8
				c0.8-0.4,1.6-0.7,2.4-1.1c1.1-0.5,2.2-0.9,3.3-1.3c0.7-0.3,1.3-0.6,2-0.8c1.3-0.5,2.7-0.9,4.1-1.4c0.4-0.1,0.8-0.2,1.2-0.3
				c1.6-0.4,3.3-0.8,4.9-1.2c1.1-0.3,2.1-0.6,3.1-0.9c1.6-0.4,3.3-0.8,5-1.2c1.7-0.4,3.4-0.7,5.1-1.1C54.1,6.4,56,6,57.8,5.6
				c1.7-0.3,3.5-0.5,5.2-0.8c0.9-0.1,1.8-0.3,2.7-0.4c1.8-0.2,3.6-0.4,5.4-0.6c0.9-0.1,1.9-0.1,2.8-0.2l4.4-0.3
				c1-0.1,1.9-0.1,2.9-0.2c1.1-0.1,2.1-0.1,3.2-0.2c1.4-0.1,2.8-0.2,4.2-0.2c1.7-0.1,3.5-0.2,5.2-0.2c0.8,0,1.7-0.1,2.5-0.1
				c3,0,6,0.1,9,0.1c1.1,0,2.1,0,3.2,0.1c2,0.1,4,0.1,6,0.2c1.9,0.1,3.8,0.2,5.7,0.3c3,0.2,6.1,0.4,9.1,0.6c2.6,0.2,5.1,0.4,7.7,0.5
				c3.5,0.2,6.9,0.8,10.2,1.3c1.7,0.3,3.4,0.5,5.1,0.8c2.3,0.4,4.6,0.9,7,1.4c2.4,0.5,4.7,1,7,1.5c2.3,0.5,4.5,1.1,6.7,1.7
				c1.7,0.5,3.3,1.1,5,1.7c0.5,0.2,0.8,0.4,1.2,0.6c0.7,0.3,1.4,0.6,2.1,0.9c1.2,0.5,2.3,1,3.4,1.6c1.8,0.9,3.5,1.9,5.3,2.8
				c1.1,0.6,2.2,1.1,3.2,1.7c2.5,1.5,4.9,3.4,7,5.4c0.9,1,1.8,2,2.7,3c0.4,0.6,0.7,1.2,0.9,1.8c0.4,0.7,0.8,1.4,1.1,2.1
				c0.2,0.7,0.4,1.4,0.5,2.1c0.2,0.6,0.3,1.3,0.4,1.9c0,0.4,0,0.7-0.1,1.1c-0.1,0.6-0.3,1.3-0.4,1.9c-0.3,1.4-0.8,2.7-1.6,3.9
				c-0.7,1.2-1.5,2.4-2.2,3.6c-0.7,1.4-1.7,2.6-2.9,3.6c-1.1,1.1-2.3,2-3.6,2.9c-1,0.6-2,1.2-3.1,1.8c-1.1,0.6-2.3,1.2-3.6,1.7
				c-1.7,0.7-3.4,1.3-5.2,2c-1.7,0.6-3.5,1.2-5.4,1.7c-1.8,0.5-3.6,1-5.4,1.5c-3.2,0.9-6.5,1.7-9.6,2.6c-2.9,0.8-5.8,1.4-8.8,1.8
				c-0.7,0.1-1.3,0.2-1.9,0.3c-1.6,0.2-3.2,0.5-4.9,0.7c-2,0.3-4.1,0.5-6.2,0.8c-1.6,0.2-3.3,0.5-4.9,0.7c-2,0.2-4,0.4-6,0.5
				c-1.8,0.1-3.5,0.3-5.3,0.4c-1.2,0.1-2.4,0.1-3.6,0.2c-1.7,0.1-3.4,0.1-5.1,0.2c-1.1,0-2.3,0.1-3.4,0.2c-1.6,0.1-3.1,0.2-4.7,0.2
				S104.7,71,103.1,71C103.1,71,103.1,71,103.1,71"/>
			<path class="st2" d="M103.1,71c-2.7,0-5.3,0-8,0c-4.1,0-8.3,0-12.4-0.1c-1,0-2-0.2-3-0.3c-1.2-0.1-2.4-0.2-3.7-0.2
				c-1.1-0.1-2.2-0.1-3.3-0.2c-1.3-0.1-2.7-0.2-4-0.3c-1.6-0.1-3.1-0.3-4.7-0.5c-3.7-0.4-7.4-0.8-11.1-1.4c-1.9-0.3-3.9-0.7-5.8-1
				c-0.6-0.1-1.1-0.3-1.7-0.4c-1-0.3-2-0.5-3-0.8c-2.5-0.6-5-1.3-7.4-1.9c-1.1-0.3-2.2-0.6-3.2-0.9c-0.8-0.3-1.5-0.6-2.2-0.9
				c-1.8-0.8-3.6-1.5-5.4-2.3c-1.3-0.6-2.5-1.2-3.8-1.8c-0.8-0.4-1.6-0.8-2.4-1.2c-1.3-0.7-2.7-1.3-3.9-2c-0.9-0.5-1.6-1.2-2.5-1.7
				c-2-1.4-3.8-3.1-5.2-5.1c-1.1-1.4-2-2.9-2.7-4.5c-0.3-0.7-0.6-1.5-0.8-2.3c-0.1-0.5-0.2-1.1-0.2-1.7c-0.2-0.8-0.3-1.7-0.3-2.5
				c0.1-0.9,0.2-1.7,0.4-2.5c0.1-0.7,0.2-1.3,0.4-2c0.3-1.3,0.9-2.6,1.8-3.6c1.7-1.8,3.3-3.5,4.9-5.3c0.5-0.6,1-1.1,1.5-1.6
				c0.7-0.6,1.6-1.1,2.3-1.7c0.5-0.3,1-0.7,1.5-1c1-0.7,2.1-1.4,3.2-2c0.3-0.1,0.5-0.2,0.8-0.3c0.7-0.3,1.3-0.5,1.9-0.8
				c0.8-0.4,1.6-0.7,2.4-1.1c1.1-0.5,2.2-0.9,3.3-1.3c0.7-0.3,1.3-0.6,2-0.8c1.3-0.5,2.7-0.9,4.1-1.4c0.4-0.1,0.8-0.2,1.2-0.3
				c1.6-0.4,3.3-0.8,4.9-1.2c1.1-0.3,2.1-0.6,3.1-0.9c1.6-0.4,3.3-0.8,5-1.2c1.7-0.4,3.4-0.7,5.1-1.1C54.1,6.4,56,6,57.8,5.6
				c1.7-0.3,3.5-0.5,5.2-0.8c0.9-0.1,1.8-0.3,2.7-0.4c1.8-0.2,3.6-0.4,5.4-0.6c0.9-0.1,1.9-0.1,2.8-0.2l4.4-0.3
				c1-0.1,1.9-0.1,2.9-0.2c1.1-0.1,2.1-0.1,3.2-0.2c1.4-0.1,2.8-0.2,4.2-0.2c1.7-0.1,3.5-0.2,5.2-0.2c0.8,0,1.7-0.1,2.5-0.1
				c3,0,6,0.1,9,0.1c1.1,0,2.1,0,3.2,0.1c2,0.1,4,0.1,6,0.2c1.9,0.1,3.8,0.2,5.7,0.3c3,0.2,6.1,0.4,9.1,0.6c2.6,0.2,5.1,0.4,7.7,0.5
				c3.5,0.2,6.9,0.8,10.2,1.3c1.7,0.3,3.4,0.5,5.1,0.8c2.3,0.4,4.6,0.9,7,1.4c2.4,0.5,4.7,1,7,1.5c2.3,0.5,4.5,1.1,6.7,1.7
				c1.7,0.5,3.3,1.1,5,1.7c0.5,0.2,0.8,0.4,1.2,0.6c0.7,0.3,1.4,0.6,2.1,0.9c1.2,0.5,2.3,1,3.4,1.6c1.8,0.9,3.5,1.9,5.3,2.8
				c1.1,0.6,2.2,1.1,3.2,1.7c2.5,1.5,4.9,3.4,7,5.4c0.9,1,1.8,2,2.7,3c0.4,0.6,0.7,1.2,0.9,1.8c0.4,0.7,0.8,1.4,1.1,2.1
				c0.2,0.7,0.4,1.4,0.5,2.1c0.2,0.6,0.3,1.3,0.4,1.9c0,0.4,0,0.7-0.1,1.1c-0.1,0.6-0.3,1.3-0.4,1.9c-0.3,1.4-0.8,2.7-1.6,3.9
				c-0.7,1.2-1.5,2.4-2.2,3.6c-0.7,1.4-1.7,2.6-2.9,3.6c-1.1,1.1-2.3,2-3.6,2.9c-1,0.6-2,1.2-3.1,1.8c-1.1,0.6-2.3,1.2-3.6,1.7
				c-1.7,0.7-3.4,1.3-5.2,2c-1.7,0.6-3.5,1.2-5.4,1.7c-1.8,0.5-3.6,1-5.4,1.5c-3.2,0.9-6.5,1.7-9.6,2.6c-2.9,0.8-5.8,1.4-8.8,1.8
				c-0.7,0.1-1.3,0.2-1.9,0.3c-1.6,0.2-3.2,0.5-4.9,0.7c-2,0.3-4.1,0.5-6.2,0.8c-1.6,0.2-3.3,0.5-4.9,0.7c-2,0.2-4,0.4-6,0.5
				c-1.8,0.1-3.5,0.3-5.3,0.4c-1.2,0.1-2.4,0.1-3.6,0.2c-1.7,0.1-3.4,0.1-5.1,0.2c-1.1,0-2.3,0.1-3.4,0.2c-1.6,0.1-3.1,0.2-4.7,0.2
				S104.7,71,103.1,71C103.1,71,103.1,71,103.1,71"/>
		</g>
	</g>
</g>
</svg>
