<svg xmlns="http://www.w3.org/2000/svg" xmlns:xlink="http://www.w3.org/1999/xlink" width="208.297" height="73.62" viewBox="0 0 208.297 73.62"><defs><style>.a,.d{fill:none;}.b{clip-path:url(#a);}.c{fill:#f6a29c;}.d{stroke:#000;stroke-miterlimit:10;stroke-width:5px;}</style><clipPath id="a"><rect class="a" width="208.297" height="73.62" transform="translate(0 0)"/></clipPath></defs><g transform="translate(0 0)"><g class="b"><path class="c" d="M103.1,70.974c-2.665,0-5.331.012-8,0-4.134-.023-8.265-.044-12.4-.109-.991-.016-1.966-.214-2.961-.294-1.215-.1-2.441-.161-3.664-.237-1.088-.068-2.176-.126-3.264-.2-1.338-.091-2.681-.176-4.011-.292-1.566-.135-3.122-.3-4.681-.453q-5.625-.546-11.055-1.432c-1.948-.321-3.9-.651-5.825-1-.591-.105-1.133-.274-1.686-.422-.987-.264-1.959-.54-2.953-.8-2.475-.645-4.965-1.277-7.436-1.926-1.1-.287-2.194-.576-3.234-.906-.793-.252-1.507-.562-2.228-.862-1.8-.751-3.626-1.491-5.372-2.271-1.316-.585-2.527-1.222-3.78-1.839-.8-.4-1.6-.794-2.393-1.2-1.327-.678-2.71-1.332-3.94-2.048-.935-.542-1.641-1.17-2.5-1.744A22.943,22.943,0,0,1,6.47,47.846a23.823,23.823,0,0,1-2.68-4.477,11.536,11.536,0,0,1-.778-2.309A11.989,11.989,0,0,1,2.788,39.4,18.113,18.113,0,0,1,2.5,36.872a15.551,15.551,0,0,1,.389-2.529c.12-.653.239-1.3.426-1.953a7.68,7.68,0,0,1,1.847-3.576C6.878,27.057,8.448,25.27,10.09,23.5a15.589,15.589,0,0,1,1.518-1.566c.7-.58,1.551-1.117,2.337-1.673.49-.346.953-.7,1.469-1.038Q16.979,18.2,18.592,17.2a6.18,6.18,0,0,1,.77-.285q.981-.406,1.937-.828c.8-.353,1.555-.728,2.37-1.072,1.065-.451,2.176-.881,3.256-1.323.665-.271,1.279-.574,1.978-.822,1.346-.478,2.729-.933,4.109-1.389.366-.121.755-.227,1.151-.328,1.623-.416,3.26-.817,4.867-1.243,1.065-.282,2.071-.617,3.148-.89q2.455-.624,4.98-1.19c1.68-.38,3.4-.747,5.118-1.1,1.843-.38,3.69-.763,5.57-1.1,1.72-.3,3.488-.539,5.238-.8.912-.139,1.813-.3,2.74-.408,1.8-.221,3.608-.435,5.428-.621.923-.093,1.877-.114,2.815-.169l4.4-.257q1.452-.085,2.9-.177c1.058-.066,2.112-.141,3.174-.2q2.081-.118,4.165-.216,2.619-.123,5.245-.23c.826-.032,1.656-.059,2.482-.052q4.48.038,8.965.1c1.054.012,2.108.021,3.158.052,1.993.057,3.989.112,5.974.194,1.918.078,3.832.182,5.742.293q4.57.265,9.13.557c2.565.168,5.122.369,7.683.544,3.518.241,6.868.779,10.221,1.311,1.694.269,3.421.5,5.089.8,2.344.43,4.65.9,6.954,1.381,2.355.487,4.721.967,7.017,1.511,2.269.537,4.5,1.113,6.662,1.741,1.727.5,3.331,1.106,4.968,1.68.452.159.819.375,1.238.56.684.3,1.387.592,2.063.9,1.151.521,2.34,1.026,3.409,1.582,1.8.931,3.511,1.9,5.26,2.847,1.069.581,2.231,1.127,3.2,1.744a40.125,40.125,0,0,1,7,5.433,35.135,35.135,0,0,1,2.676,3.018,10.25,10.25,0,0,1,.932,1.832c.358.7.815,1.4,1.1,2.1a14.087,14.087,0,0,1,.546,2.1,19.556,19.556,0,0,1,.374,1.933,3.653,3.653,0,0,1-.09,1.083c-.115.63-.3,1.258-.4,1.887a10.585,10.585,0,0,1-1.6,3.872c-.748,1.2-1.492,2.41-2.18,3.623a13.959,13.959,0,0,1-2.86,3.621,26.651,26.651,0,0,1-3.634,2.884c-.976.618-1.992,1.225-3.092,1.794-1.14.591-2.344,1.161-3.619,1.684q-2.519,1.034-5.2,1.976c-1.742.61-3.544,1.188-5.383,1.728-1.761.517-3.6.97-5.41,1.452-3.218.86-6.456,1.7-9.648,2.583a80.921,80.921,0,0,1-8.786,1.844c-.654.1-1.282.239-1.936.34-1.616.25-3.227.5-4.861.724-2.049.275-4.119.507-6.172.771-1.649.212-3.272.478-4.935.658-1.974.212-3.973.367-5.97.53-1.757.143-3.514.276-5.278.387-1.208.077-2.427.112-3.642.161-1.712.068-3.428.128-5.14.2-1.144.047-2.291.1-3.435.154-1.567.077-3.133.178-4.7.241s-3.13.091-4.7.134a.532.532,0,0,0,0-.08"/><path class="d" d="M103.1,70.974c-2.665,0-5.331.012-8,0-4.134-.023-8.265-.044-12.4-.109-.991-.016-1.966-.214-2.961-.294-1.215-.1-2.441-.161-3.664-.237-1.088-.068-2.176-.126-3.264-.2-1.338-.091-2.681-.176-4.011-.292-1.566-.135-3.122-.3-4.681-.453q-5.625-.546-11.055-1.432c-1.948-.321-3.9-.651-5.825-1-.591-.105-1.133-.274-1.686-.422-.987-.264-1.959-.54-2.953-.8-2.475-.645-4.965-1.277-7.436-1.926-1.1-.287-2.194-.576-3.234-.906-.793-.252-1.507-.562-2.228-.862-1.8-.751-3.626-1.491-5.372-2.271-1.316-.585-2.527-1.222-3.78-1.839-.8-.4-1.6-.794-2.393-1.2-1.327-.678-2.71-1.332-3.94-2.048-.935-.542-1.641-1.17-2.5-1.744A22.943,22.943,0,0,1,6.47,47.846a23.823,23.823,0,0,1-2.68-4.477,11.536,11.536,0,0,1-.778-2.309A11.989,11.989,0,0,1,2.788,39.4,18.113,18.113,0,0,1,2.5,36.872a15.551,15.551,0,0,1,.389-2.529c.12-.653.239-1.3.426-1.953a7.68,7.68,0,0,1,1.847-3.576C6.878,27.057,8.448,25.27,10.09,23.5a15.589,15.589,0,0,1,1.518-1.566c.7-.58,1.551-1.117,2.337-1.673.49-.346.953-.7,1.469-1.038Q16.979,18.2,18.592,17.2a6.18,6.18,0,0,1,.77-.285q.981-.406,1.937-.828c.8-.353,1.555-.728,2.37-1.072,1.065-.451,2.176-.881,3.256-1.323.665-.271,1.279-.574,1.978-.822,1.346-.478,2.729-.933,4.109-1.389.366-.121.755-.227,1.151-.328,1.623-.416,3.26-.817,4.867-1.243,1.065-.282,2.071-.617,3.148-.89q2.455-.624,4.98-1.19c1.68-.38,3.4-.747,5.118-1.1,1.843-.38,3.69-.763,5.57-1.1,1.72-.3,3.488-.539,5.238-.8.912-.139,1.813-.3,2.74-.408,1.8-.221,3.608-.435,5.428-.621.923-.093,1.877-.114,2.815-.169l4.4-.257q1.452-.085,2.9-.177c1.058-.066,2.112-.141,3.174-.2q2.081-.118,4.165-.216,2.619-.123,5.245-.23c.826-.032,1.656-.059,2.482-.052q4.48.038,8.965.1c1.054.012,2.108.021,3.158.052,1.993.057,3.989.112,5.974.194,1.918.078,3.832.182,5.742.293q4.57.265,9.13.557c2.565.168,5.122.369,7.683.544,3.518.241,6.868.779,10.221,1.311,1.694.269,3.421.5,5.089.8,2.344.43,4.65.9,6.954,1.381,2.355.487,4.721.967,7.017,1.511,2.269.537,4.5,1.113,6.662,1.741,1.727.5,3.331,1.106,4.968,1.68.452.159.819.375,1.238.56.684.3,1.387.592,2.063.9,1.151.521,2.34,1.026,3.409,1.582,1.8.931,3.511,1.9,5.26,2.847,1.069.581,2.231,1.127,3.2,1.744a40.125,40.125,0,0,1,7,5.433,35.135,35.135,0,0,1,2.676,3.018,10.25,10.25,0,0,1,.932,1.832c.358.7.815,1.4,1.1,2.1a14.087,14.087,0,0,1,.546,2.1,19.556,19.556,0,0,1,.374,1.933,3.653,3.653,0,0,1-.09,1.083c-.115.63-.3,1.258-.4,1.887a10.585,10.585,0,0,1-1.6,3.872c-.748,1.2-1.492,2.41-2.18,3.623a13.959,13.959,0,0,1-2.86,3.621,26.651,26.651,0,0,1-3.634,2.884c-.976.618-1.992,1.225-3.092,1.794-1.14.591-2.344,1.161-3.619,1.684q-2.519,1.034-5.2,1.976c-1.742.61-3.544,1.188-5.383,1.728-1.761.517-3.6.97-5.41,1.452-3.218.86-6.456,1.7-9.648,2.583a80.921,80.921,0,0,1-8.786,1.844c-.654.1-1.282.239-1.936.34-1.616.25-3.227.5-4.861.724-2.049.275-4.119.507-6.172.771-1.649.212-3.272.478-4.935.658-1.974.212-3.973.367-5.97.53-1.757.143-3.514.276-5.278.387-1.208.077-2.427.112-3.642.161-1.712.068-3.428.128-5.14.2-1.144.047-2.291.1-3.435.154-1.567.077-3.133.178-4.7.241s-3.13.091-4.7.134a.532.532,0,0,0,0-.08"/></g></g></svg>