<svg xmlns="http://www.w3.org/2000/svg" width="487.875" height="195.568" viewBox="0 0 487.875 195.568"><defs><style>.a{fill:#f6a29c;mix-blend-mode:multiply;isolation:isolate;}</style></defs><path class="a" d="M399.779,46.446l-1.863-.291L385.2,41.377a19.727,19.727,0,0,0-5.356-1.616l-6.129-2.1a9.551,9.551,0,0,1-1.548-.23,33.182,33.182,0,0,0-5.01-1.636,26.865,26.865,0,0,1-4.26-1.1,10.345,10.345,0,0,0-3.159-.732,46.843,46.843,0,0,0-5.011-1.636q-2.135-.44-4.28-1.043c-1.177-.457-2.482-.439-3.74-.834a32.307,32.307,0,0,0-3.752-.807c-1.635-.3-3.219-.724-4.824-1.1a45.358,45.358,0,0,1-4.848-1.326,3.986,3.986,0,0,0-1.03-.4c-1.95.078-3.4-.981-4.907-1.9a22.757,22.757,0,0,0-2.243-1.056l-4.073-3.033c.566-.584,2.036.574,2.657.135.073-.188.168-.43.2-.51s-.827-.63-1.148-.971a1.932,1.932,0,0,1-.624-1.447,1.078,1.078,0,0,1,.667-.626,2.8,2.8,0,0,1,1.267-.138c1.143.351,2.29.652,3.433.9a19.731,19.731,0,0,1,3.219.724,5.356,5.356,0,0,0,1.03.4,20.358,20.358,0,0,1,4.759.828c1.815.7,3.558.578,5.177,1.206s3.174.552,4.852,1.173c1.076.291,2.152.533,3.218.724a23.077,23.077,0,0,0,3.252,1.077,45.577,45.577,0,0,1,4.831,1.226,34.277,34.277,0,0,1,7.192,1.834l1.361.127c2.313.588,4.613,1.79,6.961,1.991l8.06,2.943,1.862.291C393.81,36.806,404.533,40.6,415.4,45.185l1.68,1.054L421.1,47.8a8.118,8.118,0,0,1,1.569.609,29.144,29.144,0,0,0,5.582,2.784c1.738,1.225,3.566,2.4,5.466,3.513a36.474,36.474,0,0,1,4.212,2.531c.9.6,1.935,1.122,2.774,1.726a44.357,44.357,0,0,1,8.279,6.3,43.762,43.762,0,0,1,4.322,3.408,7.644,7.644,0,0,0,1.207.963c.495.3,1.009.578,1.535.843.6.635,1.229,1.342,1.928,2.015s1.526,1.3,2.284,1.968A35.034,35.034,0,0,1,465,78.839,6.537,6.537,0,0,0,466,79.879a54.145,54.145,0,0,1,6.907,7.656,26.774,26.774,0,0,1,1.723,2.832,30.749,30.749,0,0,1,4.232,9.461,15.181,15.181,0,0,1,.878,6.027c-.26.671.551,1.635.23,2.314s-.521,1.343-.792,2.041a.854.854,0,0,0-.22.564,4.1,4.1,0,0,1-.483,3.428l-1.47,3.787a1.9,1.9,0,0,1-.449,1.155,12.431,12.431,0,0,0-2.732,4.131,2.5,2.5,0,0,0-.811.489,3.606,3.606,0,0,1-1.223,1.842c-.7.5-1.289.7-1.48,1.342a10.219,10.219,0,0,1-2.466,2.719,2.884,2.884,0,0,0-1.863,2.181,1.477,1.477,0,0,1-.22.564c-.775.254-1.59.464-2.318.738a.222.222,0,0,0-.105.267.643.643,0,0,0,.27.323c1.835.218,3-.444,4.666-.383a.893.893,0,0,1,.232.057.972.972,0,0,1,.21.114.484.484,0,0,1,.1.175.225.225,0,0,1-.108.278.507.507,0,0,1-.195.058c-.339.146-.765.227-1.154.355l-1.1.347,1.4,1.04a8.511,8.511,0,0,1-1.412.873,6.359,6.359,0,0,0-3.053,1.9,3.538,3.538,0,0,1-1.629.851,10.321,10.321,0,0,1-1.669.372l-3.124.486a9.214,9.214,0,0,0-2.523.536,29.622,29.622,0,0,1-2.934.87l-.958,1.45a33.969,33.969,0,0,1-6.619,1.634,47.127,47.127,0,0,0-8,2.274,6.927,6.927,0,0,1-1.454.547c-1.753.154-2.934.87-4.551,1.108s-3.057,1.038-4.967,1.161a44.255,44.255,0,0,0-4.881.794,20.723,20.723,0,0,0-3.726.872,30.725,30.725,0,0,1-6.23,1.506,9.615,9.615,0,0,0-2.872.708,7.193,7.193,0,0,1-2.105.48c-2.31.278-4.085,1.072-6.219,1.48a11.566,11.566,0,0,1-3.7.944,25.1,25.1,0,0,0-4.164.98c-1.206.489-2.956.49-4.289.868-2.109.634-4.587.908-6.892,1.465l-2.394,1.079c-1.193.31-2.814.268-3.687.918a3.332,3.332,0,0,1-1.2.336,74.365,74.365,0,0,0-8.075,1.315,74.559,74.559,0,0,1-7.491,1.264,22.628,22.628,0,0,0-3.774.852,14.751,14.751,0,0,1-3.085.532l-11.362,1.492a7.817,7.817,0,0,1-1.862.143,39.388,39.388,0,0,0-7.042.542c-1.613.084-2.7.712-4.356.751s-3.177.187-4.753.319-2.063.372-3.162.44-2.976-.042-4.449-.027-2.246.55-3.7.357a21.77,21.77,0,0,0-3.384.139,24.241,24.241,0,0,0-2.975-.042q-2.776.216-5.719.19c-1.9.1-3.966.037-5.7.136q-1.275-.06-2.483,0a20.669,20.669,0,0,1-4.526-.119c-1.907-.139-3.772-.191-5.584-.159-5.563-.213-11.136-.4-16.84-.975-2.93-.3-5.563-.212-8.739-.61q-6.472-.564-13.11-1.567-3.18-.475-6.275-.7a58.213,58.213,0,0,1-7.878-1.081l-.491-.191a20.8,20.8,0,0,1-4.724-.628c-1.569-.609-3.165-.426-4.776-.928a14.062,14.062,0,0,1-3.208-.751c-1.031-.4-2.13-.332-3.191-.651s-3.176-.4-4.824-1.1a6.157,6.157,0,0,0-1.576-.3,46.962,46.962,0,0,1-8.529-1.736c-1.275-.495-2.458-.212-3.712-.76a9.9,9.9,0,0,0-3.191-.651c-1.473-.572-2.868-.465-4.3-.99s-2.876-.591-4.291-1.017-2.876-.591-4.3-.989a17.958,17.958,0,0,0-3.769-.907,6.981,6.981,0,0,1-1.031-.4,32.738,32.738,0,0,0-5.377-1.562c-1.53-.13-3.19-1.238-4.812-1.126a3.234,3.234,0,0,1-1.031-.4q-3.744-1.156-7.5-2.048c-.882.091-1.717-.666-2.516-.79a22.8,22.8,0,0,1-2.676-.669c-1.177-.457-2.5-.538-3.721-.887a33.9,33.9,0,0,1-3.188-1.238q-1.438-.367-2.865-.618l-4.075-1.427a8,8,0,0,0-1.571-.61,22.614,22.614,0,0,1-5.377-1.562,22.378,22.378,0,0,0-5.063-1.5,10.628,10.628,0,0,1-2.11-.819c-3.189-1.238-6.4-2.269-9.518-3.695A16.5,16.5,0,0,0,104,133.176Q85.79,126.431,67.992,119.2l-2.333-.535-10.78-4.37-1.561-1.069A32.927,32.927,0,0,1,46.837,110a40.9,40.9,0,0,1-5.911-3.1c-1.69-1.027-3.339-2.161-5.039-3.161a28.333,28.333,0,0,1-2.693-1.787c-.575-.409-1.081-.852-1.656-1.261-1.932-1.275-3.924-2.543-5.787-3.853s-3.112-2.6-4.768-3.859a43.029,43.029,0,0,1-6.865-6.311L8.776,80.36Q6.69,77.533,4.994,74.689A13.363,13.363,0,0,1,3.623,71.53C3.03,70,2.487,68.493,1.944,66.984a6.854,6.854,0,0,1-.661-3.532,12.177,12.177,0,0,0-.388-2.345A12.151,12.151,0,0,1,.778,58.5a4.541,4.541,0,0,0-.326-1.486,7.058,7.058,0,0,0,.21-3.6,1.712,1.712,0,0,1,.448-1.155l3.034-7.815c1.759-.46,1.348-2.165,3.048-2.618l1.362-2.345a51.971,51.971,0,0,0,4.691-3.649,51.375,51.375,0,0,1,10.31-6.783c1.9-.963,3.884-1.861,5.733-2.843a94.826,94.826,0,0,1,10.331-4.364c3.577-1.362,7.154-2.724,11.022-3.818.695-.627,2.148-.588,3.095-.993a23.84,23.84,0,0,1,3.445-1.166c1.074-.294,2.323-.458,3.435-.706s2.665-.758,4.036-1.091c2.2-.569,4.548-.954,6.783-1.477A63.89,63.89,0,0,1,78.3,11.21a72,72,0,0,1,8.578-1.738q6.372-1.39,13.274-2.2c4.531-.621,9.063-1.241,13.622-1.789l14.214-1.714a23.109,23.109,0,0,1,3.811-.22,27.524,27.524,0,0,0,3.734-.312,61.9,61.9,0,0,1,7.982-.64,28.11,28.11,0,0,0,3.231-.322,33.585,33.585,0,0,1,6.684-.5,5.559,5.559,0,0,0,1.4-.107c2.956-.49,6.472-.238,9.467-.682a53.521,53.521,0,0,0,7.175-.305c2.041-.166,4.214-.095,6.371-.123s2.919-.1,4.355-.164,3.629-.043,5.324-.189c1.583-.1,3.214-.124,4.886-.081,2.986.016,5.7-.137,8.88-.045s5.972.031,8.959.047a78.446,78.446,0,0,1,10.079.359c1.775.226,3.216-.142,5.03.129A22.525,22.525,0,0,0,229.962.8a28.781,28.781,0,0,1,3.613.29c5.49.4,11.5,1.217,17.258,1.786,1.248.274,2.487.486,3.706.635a17.72,17.72,0,0,1,3.126.379,19.855,19.855,0,0,1,3.706.635q6.577.908,13.273,2.309c1.365-.026,2.843.671,4.255.817s2.547.71,3.719.888a29.8,29.8,0,0,1,4.316,1.243,8.892,8.892,0,0,0,1.506.337,9.39,9.39,0,0,1,3.144,1.065q1.891,1.058,3.654,2.222c-1.267.064-2.54-.584-3.775-.6a16.5,16.5,0,0,1-3.2-.625c-1.241-.3-2.509-.665-3.738-.987l.192,1.249c-.857.316-1.825-.245-2.644-.316l-2.469-.186a9.391,9.391,0,0,1-1.777.361,16.113,16.113,0,0,1-2.577-.2,8.14,8.14,0,0,0-3.375.112,12.72,12.72,0,0,1-4.8.146c-1.568-.176-2.986-.016-4.554-.192a51.19,51.19,0,0,1-8.9-1.074,56.937,56.937,0,0,0-6.712-.6,25.9,25.9,0,0,1-3.042-.161L235.5,9.5c-1.14.175-1.885.783-3.51.461a11.735,11.735,0,0,0-2.6-.27c-2.919.1-6.2-.46-9.236-.495s-7.114-.289-10.525-.223c-5.352.117-11.2-.237-16.193.266-4.695-.123-8.967.413-13.71.271a9.412,9.412,0,0,0-1.445.088,51.707,51.707,0,0,1-6.188.379,55.1,55.1,0,0,1-5.75.271,6.791,6.791,0,0,0-1.4.107,81.64,81.64,0,0,1-9.39.774,66.157,66.157,0,0,0-8.78.949,36.518,36.518,0,0,1-7.041.542,2.791,2.791,0,0,0-1.32.2,23.735,23.735,0,0,1-6.188,1.4c-1.626.265-3.331.437-5,.656l-20.163,2.495a26.962,26.962,0,0,0-4.366.777,29.656,29.656,0,0,1-4.754.9c-1.5.222-3.034.4-4.493.666a16.051,16.051,0,0,0-5.356,1.29c-1.316.045-2.011.672-3.425.679a23.623,23.623,0,0,0-2.939.59,33.875,33.875,0,0,0-6.608,1.607,17.5,17.5,0,0,1-3.221.882,17.716,17.716,0,0,0-1.98.591c-1.371.333-2.549.9-3.871,1.247a10.166,10.166,0,0,0-3.522,1.074,61.2,61.2,0,0,0-10.363,2.992,8.811,8.811,0,0,0-3.006,1.491,5.711,5.711,0,0,1-1.891,1.089c-2.158.615-3.741,1.638-5.762,2.337a55.1,55.1,0,0,0-6.887,3.2C32.687,39.7,31.15,40.9,29.3,41.881s-2.941,2.2-4.524,3.219a9.067,9.067,0,0,0-1.317,1.065,8.941,8.941,0,0,0-2.65,2.463c-.333.859-1.7,1.192-2.01,2.125s-.6,1.558-.949,2.444l-1.2.77L13.909,61.03l.252,1.241a10.524,10.524,0,0,0-.538,2.7,26.224,26.224,0,0,0,.642,4.019,13.532,13.532,0,0,0,1.363,4.052c.686,1.286,1.639,2.614,2.245,3.961a6.688,6.688,0,0,0,1.88,2.429,4.657,4.657,0,0,1,.791,1.018,32.369,32.369,0,0,0,5.472,6.265,20.842,20.842,0,0,1,1.647,1.721l1.608,1.675c1.305,1,2.512,1.964,3.789,2.892A29.533,29.533,0,0,0,36.6,95.362a38.793,38.793,0,0,1,3.834,2.631l2.257.876,2.7,1.047c1.6,1.115,3.45,2.019,5.029,3.188,2.159.838,3.832,2.2,5.931,3.044l5.936,2.3,1.729,1.073a53.019,53.019,0,0,1,8.258,3.885l2.018.474a5.755,5.755,0,0,0,.9.6l5.59,2.324,2.493.412,3.14,1.219,1.806,1.165,2.669.542q1.265.446,2.5.971,1.26.66,2.454,1.385l2.129.332,9.03,3.351,1.824.244,8.929,3.466a15.727,15.727,0,0,1,4.2,1.105,12.623,12.623,0,0,0,3.171.7l6.7,2.383,2.14.305,2.4.933a16.729,16.729,0,0,0,3.728,1.014,10.791,10.791,0,0,1,2.133.613,11.193,11.193,0,0,0,2.666.695,3.378,3.378,0,0,1,1.064.166c2.7,1.047,5.167,1.232,8.072,2.329a4.454,4.454,0,0,0,1.031.4c2.3.182,4.641,1.277,6.97,1.531,2.306.9,4.659.943,7,1.758,1.729.053,3.615,1.156,5.208,1.125a17.168,17.168,0,0,1,5.218,1.1c3.166.424,6.474,1.648,9.594,1.9a94.439,94.439,0,0,0,11.117,2.337c1.614.349,3.188,1.238,4.822,1.1a33.4,33.4,0,0,0,5.3.885,9.375,9.375,0,0,1,2.136.458,8.447,8.447,0,0,0,1.633.449c2.942.275,6.059,1.115,8.972,1.319a57.523,57.523,0,0,1,7.4,1.144,40.946,40.946,0,0,0,4.221.618c1.361.127,2.882.717,4.152.5a4.332,4.332,0,0,1,1.568.176,62.276,62.276,0,0,0,6.294.8,63,63,0,0,1,8.766.685c1.026.119,2.073.186,3.109.279a6.378,6.378,0,0,0,1.531.13,30.325,30.325,0,0,1,7.529.234,40.822,40.822,0,0,0,7.911-.019c1.943.228,3.609.01,5.573.185s4.051.182,6.1.3a11.616,11.616,0,0,0,1.474-.015c1.109-.094,2.141-.28,3.279-.3s2.112.232,3.042.161a31.948,31.948,0,0,0,4.355-.164,11.486,11.486,0,0,1,4.105-.107,8.116,8.116,0,0,0,2.376-.159,15.974,15.974,0,0,1,3.375-.112,11.467,11.467,0,0,0,2.8-.241,9.569,9.569,0,0,0,1.543-.483c1.852.318,3.083-.38,4.876-.055s2.572-.083,3.984.063a15.009,15.009,0,0,0,3.308-.231c2.084-.289,4.252-.48,6.487-.572A92.437,92.437,0,0,0,343.44,156.1a12.454,12.454,0,0,0,3.814-.806,7.645,7.645,0,0,1,1.757-.306c1.15-.2,2.6-.011,3.656-.4a21.556,21.556,0,0,1,3.552-.568l3.124-.486,3.6-.55a6.848,6.848,0,0,0,1.33-.226,34.166,34.166,0,0,1,6.8-1.377,12.393,12.393,0,0,0,3.774-.852,6.029,6.029,0,0,1,1.718-.354l6.042-1.022c1.381-.793,3.848-.608,5.152-1.492a6.89,6.89,0,0,1,2.182-.388c.725-.12,2.7-.406,3.989-.677a28.627,28.627,0,0,0,3.222-.881c2.669-.912,5.7-1.463,8.219-2.558,1.156-.509,3.033-.4,4-1.136,2.532-.562,4.434-1.679,6.889-2.332s4.269-1.835,6.626-2.526c3.185-1.515,6.418-3.01,9.476-4.635a14.381,14.381,0,0,0,3.3-1.809,2.923,2.923,0,0,0,1.955-1.837l2.239-.676a17.573,17.573,0,0,1,2.954-2.376c1.849-.981,3.211-2.308,5.273-3.114a8.538,8.538,0,0,1,1.547-1.656c1.548-.79,2.318-2.19,3.785-2.918a1.535,1.535,0,0,0,.628-.745,16.547,16.547,0,0,1,3.464-3.105l1.826-2.814a6.892,6.892,0,0,0,1.533-1.476q.562-1.45,1.125-2.9c.636-1.638,1.283-3.3,1.918-4.941a14.941,14.941,0,0,0,.431-4.746,1.24,1.24,0,0,0-.134-.67c-.568-1.3-.711-2.532-1.131-3.776a33.785,33.785,0,0,0-6.259-10.927l-1.949-2.395q-1.788-1.493-3.391-3.046a38.776,38.776,0,0,0-5.635-4.969c-2.61-2-5.35-3.962-8.019-5.956-3.262-2.3-6.717-4.492-10.331-6.544a33.491,33.491,0,0,0-4.666-2.522c-1.571-.609-2.774-1.726-4.4-2.327q-2.131-.756-4.219-1.638a4.137,4.137,0,0,1-.978-.534,7.328,7.328,0,0,0-2.453-.952l-2.258-1.309Z" transform="translate(-0.454 25.073) rotate(-3)"/></svg>