<svg xmlns="http://www.w3.org/2000/svg" width="62.856" height="47.856" viewBox="0 0 62.856 47.856"><path d="M77.546,42.294c-.568-4.069-1.041-8.233-1.893-12.3-.568-2.744-1.041-4.448-3.974-4.921-7.949-1.23-17.317.095-25.361.662-8.706.662-17.507,2.366-26.118.095-1.325-.379-3.217.662-3.028,2.271a338.719,338.719,0,0,1,2.65,35.3c.095,3.028,4.826,3.028,4.732,0a306.351,306.351,0,0,0-2.271-32.269,64.558,64.558,0,0,0,15.993.189c7.57-.662,15.236-1.325,22.806-1.419,3.407-.095,8.611-1.23,10.031,2.366,1.23,3.123,1.23,7.76,1.7,11.166.852,6.813,1.514,13.627,1.893,20.44-18.831.568-37.663,1.325-56.305,3.974-3.028.473-1.7,5.015,1.23,4.542,19.115-2.744,38.325-3.312,57.535-3.88a2.343,2.343,0,0,0,2.366-2.366C79.25,58,78.587,50.148,77.546,42.294Z" transform="translate(-16.682 -24.564)"/><path d="M50.263,58.317c3.217-.189,5.772-4.826,7.57-6.908,3.785-4.353,7.476-8.9,11.166-13.343,1.893-2.366-1.419-5.678-3.312-3.312-2.555,3.123-5.11,6.246-7.76,9.368-.852,1.041-6.813,9.274-7.949,9.274-1.136-.095-3.217-2.839-4.164-3.785-1.8-1.7-3.6-3.312-5.489-5.015-3.217-2.934-6.34-5.867-9.558-8.8-2.271-2.082-5.583,1.23-3.312,3.312,4.353,3.974,8.611,7.949,12.964,11.923C42.692,53.112,46.667,58.6,50.263,58.317Z" transform="translate(-17.22 -25.068)"/></svg>