<?xml version="1.0" encoding="utf-8"?>
<!-- Generator: Adobe Illustrator 28.0.0, SVG Export Plug-In . SVG Version: 6.00 Build 0)  -->
<svg version="1.1" id="Layer_1" xmlns="http://www.w3.org/2000/svg" xmlns:xlink="http://www.w3.org/1999/xlink" x="0px" y="0px"
	 viewBox="0 0 147.7 154.9" style="enable-background:new 0 0 147.7 154.9;" xml:space="preserve">
<style type="text/css">
	.st0{fill:#F27D21;}
</style>
<g transform="translate(-0.844 -0.686)">
	<ellipse class="st0" cx="75.8" cy="94.5" rx="36.7" ry="39"/>
	<path d="M47.2,56.8c-22.7,22.4-16.1,51.3-0.2,66.6c9.3,8.9,20.7,15.7,24.6,29.1c0.5,1.6,4.1,3.2,6.1,3c1.6-0.1,4.5-2.9,4.4-4.5
		c-0.3-10.9,7.3-16.6,14.1-23.2c10.1-9.7,19.1-19.9,20.4-35.1c2.1-25.6-13.9-48.9-41-47.8C62.7,45.2,56.7,47.4,47.2,56.8z
		 M53.2,113.4c-11.2-10.6-11.6-30.8-1.1-44.7C63,54.2,78.8,53.5,92.4,61.2c7.6,4.3,11.7,12.4,12.8,21.7c1.8,12.6-3.1,25.3-12.8,33.5
		c-5.9,5.4-12.4,10-18.7,15C68.3,126.7,60.5,120.3,53.2,113.4L53.2,113.4z M83.2,88.1c-3-2.3-5.8-5.8-9.1-6.4
		c-4.5-0.9-7.3,2.7-7.4,7.3c-0.5,3.6,2,6.9,5.5,7.4c0.9,0.1,1.7,0.1,2.6-0.1c2.9-0.4,5.5-3.1,8.3-4.8L83.2,88.1z"/>
</g>
<g>
	<g>
		<path d="M45.9,25.3c0,2.2-0.9,3.9-2.8,5.3c-1.9,1.3-4.7,2-8.6,2H18.2c-0.6,0-1-0.1-1.2-0.3c-0.3-0.2-0.4-0.5-0.4-0.9
			c0-0.7,0.3-1.1,1-1.4l1-0.3c0.4-0.1,0.6-0.3,0.8-0.5c0.2-0.2,0.3-0.5,0.3-0.8V6.4c0-0.3-0.1-0.6-0.3-0.8C19.3,5.3,19,5.2,18.7,5
			l-1-0.3c-0.7-0.2-1-0.7-1-1.4c0-0.4,0.1-0.7,0.4-0.9c0.3-0.2,0.7-0.3,1.2-0.3H31c2.8,0,5.1,0.4,7.1,1.1C40,4,41.5,5,42.6,6.4
			c1,1.3,1.6,2.9,1.6,4.7c0,1.5-0.4,2.7-1.3,3.9c-0.8,1.1-2.1,2-3.7,2.7c-1.6,0.7-3.6,1-6,1l1.1-0.8c2.3,0,4.4,0.3,6.1,0.9
			s3.1,1.5,4.1,2.6C45.4,22.5,45.9,23.8,45.9,25.3z M31.6,19.6h-5.7v-2.1h4.9c1.2,0,2.2-0.2,3-0.7c0.8-0.4,1.4-1.1,1.8-2
			c0.4-0.9,0.6-2,0.6-3.3c0-1.4-0.3-2.6-0.8-3.7c-0.5-1-1.3-1.8-2.3-2.4c-1-0.6-2.2-0.9-3.6-0.9h-1.3v23.2c0,0.8,0.2,1.4,0.7,1.8
			c0.5,0.4,1.1,0.6,2,0.6h1.7c1.1,0,2-0.2,2.7-0.6c0.7-0.4,1.3-1,1.7-1.8c0.4-0.8,0.6-1.7,0.6-2.8c0-1.7-0.5-3-1.5-3.9
			S33.5,19.6,31.6,19.6z"/>
		<path d="M58.2,1.7v26.8c0,0.5,0.1,0.9,0.2,1.1c0.1,0.2,0.3,0.4,0.5,0.5l0.6,0.2c0.3,0.1,0.5,0.3,0.7,0.5c0.1,0.2,0.2,0.4,0.2,0.7
			c0,0.3-0.1,0.6-0.3,0.8c-0.2,0.2-0.6,0.3-1.1,0.3h-9.2c-0.5,0-0.9-0.1-1.1-0.3c-0.2-0.2-0.3-0.5-0.3-0.8c0-0.3,0.1-0.5,0.2-0.7
			s0.4-0.3,0.7-0.5l0.7-0.2c0.2-0.1,0.4-0.3,0.5-0.5c0.1-0.2,0.2-0.6,0.2-1.1V6c0-0.4-0.1-0.7-0.2-0.9c-0.1-0.2-0.3-0.3-0.6-0.4
			L49,4.6c-0.3-0.1-0.5-0.2-0.6-0.4s-0.2-0.4-0.2-0.6c0-0.3,0.1-0.5,0.2-0.7c0.2-0.2,0.5-0.3,0.9-0.5l4.4-1.7
			c0.7-0.3,1.2-0.4,1.6-0.5s0.7-0.2,1-0.2c0.6,0,1,0.2,1.3,0.5C58,0.8,58.2,1.2,58.2,1.7z"/>
		<path d="M74.9,11.2c2.3,0,4.4,0.5,6.2,1.4c1.8,0.9,3.2,2.2,4.1,3.9s1.5,3.6,1.5,5.8c0,2-0.5,3.9-1.5,5.5c-1,1.7-2.4,3-4.3,3.9
			c-1.8,1-3.9,1.4-6.3,1.4c-2.3,0-4.4-0.5-6.2-1.4c-1.8-0.9-3.2-2.2-4.1-3.9c-1-1.7-1.5-3.6-1.5-5.7c0-2.1,0.5-4,1.5-5.6
			c1-1.6,2.4-2.9,4.3-3.9C70.4,11.7,72.5,11.2,74.9,11.2z M76.4,30.4c0.8-0.1,1.4-0.6,1.8-1.3c0.4-0.7,0.7-1.7,0.8-3
			c0.1-1.3-0.1-2.8-0.5-4.7c-0.4-1.8-0.8-3.3-1.4-4.5s-1.2-2-1.9-2.5c-0.7-0.5-1.5-0.7-2.3-0.5c-0.8,0.1-1.4,0.6-1.8,1.3
			c-0.4,0.7-0.7,1.7-0.8,2.9c-0.1,1.3,0.1,2.8,0.5,4.7c0.4,1.8,0.8,3.3,1.4,4.5c0.6,1.2,1.2,2,1.9,2.5
			C74.8,30.4,75.6,30.6,76.4,30.4z"/>
		<path d="M101.4,11.2c2.3,0,4.4,0.5,6.2,1.4c1.8,0.9,3.2,2.2,4.1,3.9s1.5,3.6,1.5,5.8c0,2-0.5,3.9-1.5,5.5c-1,1.7-2.4,3-4.3,3.9
			c-1.8,1-3.9,1.4-6.3,1.4c-2.3,0-4.4-0.5-6.2-1.4c-1.8-0.9-3.2-2.2-4.1-3.9c-1-1.7-1.5-3.6-1.5-5.7c0-2.1,0.5-4,1.5-5.6
			c1-1.6,2.4-2.9,4.3-3.9C96.9,11.7,99,11.2,101.4,11.2z M103,30.4c0.8-0.1,1.4-0.6,1.8-1.3c0.4-0.7,0.7-1.7,0.8-3
			c0.1-1.3-0.1-2.8-0.5-4.7c-0.4-1.8-0.8-3.3-1.4-4.5s-1.2-2-1.9-2.5c-0.7-0.5-1.5-0.7-2.3-0.5c-0.8,0.1-1.4,0.6-1.8,1.3
			c-0.4,0.7-0.7,1.7-0.8,2.9c-0.1,1.3,0.1,2.8,0.5,4.7c0.4,1.8,0.8,3.3,1.4,4.5c0.6,1.2,1.2,2,1.9,2.5
			C101.4,30.4,102.2,30.6,103,30.4z"/>
		<path d="M127.1,28.5c0,0.5,0.1,0.8,0.2,1.1c0.2,0.3,0.4,0.4,0.8,0.5l2.2,0.3c0.4,0,0.7,0.2,0.8,0.4c0.2,0.2,0.2,0.5,0.2,0.8
			c0,0.8-0.5,1.1-1.4,1.1h-12.3c-0.4,0-0.8-0.1-1-0.3c-0.2-0.2-0.4-0.5-0.4-0.8c0-0.3,0.1-0.6,0.3-0.8c0.2-0.2,0.4-0.3,0.8-0.4
			l0.7-0.2c0.4-0.1,0.8-0.3,0.9-0.6s0.3-0.6,0.3-1V16.7c0-0.3-0.1-0.5-0.2-0.7c-0.1-0.2-0.4-0.4-0.8-0.6l-0.9-0.3
			c-0.5-0.2-0.9-0.5-1.1-0.7c-0.2-0.2-0.3-0.4-0.3-0.7c0-0.3,0.1-0.5,0.3-0.7s0.6-0.3,1-0.3h3.6l-1.6,0.7v-0.7c0-0.3-0.1-0.7-0.4-1
			c-0.2-0.3-0.5-0.7-0.9-1.1c-0.3-0.4-0.6-0.9-0.9-1.5c-0.2-0.6-0.4-1.2-0.4-2c0-1.9,0.7-3.4,2.2-4.5c1.4-1.2,3.5-1.7,6.1-1.7
			c1.7,0,3.1,0.3,4.2,0.8c1.1,0.5,2,1.2,2.6,2c0.6,0.8,0.9,1.8,0.9,2.8c0,1.1-0.3,1.9-0.9,2.4c-0.6,0.6-1.3,0.8-2.3,0.8
			c-1,0-1.9-0.3-2.5-0.9c-0.6-0.6-0.9-1.4-0.9-2.5V4.7c0-0.6-0.2-1.1-0.6-1.4c-0.4-0.3-0.9-0.5-1.4-0.5c-0.7,0-1.2,0.2-1.6,0.6
			s-0.5,1-0.5,1.8c0,0.7,0.1,1.3,0.4,1.9s0.6,1.1,1.1,1.5c0.4,0.5,0.9,0.9,1.3,1.3c0.4,0.4,0.8,0.8,1.1,1.3s0.4,0.9,0.4,1.4v1.1
			l-0.8-1.1h5.1c0.4,0,0.7,0.1,1,0.3c0.2,0.2,0.3,0.4,0.3,0.7c0,0.5-0.2,0.9-0.7,1.2c-0.5,0.3-1.2,0.5-2.3,0.5h-2V28.5z"/>
	</g>
</g>
</svg>
