<svg xmlns="http://www.w3.org/2000/svg" width="60.089" height="60.227" viewBox="0 0 60.089 60.227"><path d="M60.686,77.381c-13.074-.205-23.5-5.775-31.875-15.612A51.11,51.11,0,0,1,19.239,46.05c-3.335-9.28-2.584-15.265,3.471-21.188,2.808-2.746,6.3-4.285,10.018-3.05a10.4,10.4,0,0,1,7.308,7.92,13.39,13.39,0,0,1-1.253,9.7,3.283,3.283,0,0,0-.252,2.525,18.091,18.091,0,0,0,2.821,5.5c2.888,3.206,6.09,6.14,9.282,9.056a5.981,5.981,0,0,0,7.452.718c5.3-3.152,9.332-1.964,12.516,3.507C72.44,63.9,75.1,66.918,72.83,70.833c-2.381,4.113-5.69,6.982-10.893,6.553C61.523,77.352,61.1,77.381,60.686,77.381ZM60.018,73.3a12.9,12.9,0,0,1,1.748.011c3.518.486,5.73-1.489,7.332-4.17,1.406-2.351-.786-3.975-1.694-5.826a6.828,6.828,0,0,0-.588-.808c-2.39-3.453-2.754-3.518-6.466-1.778-4.329,2.029-8.57,2.111-12.4-1.118a58.027,58.027,0,0,1-7.51-6.941,51.213,51.213,0,0,1-5.7-8.99,6.271,6.271,0,0,1,.573-6.638A9.113,9.113,0,0,0,36.408,33c.266-2.81-1.847-6.023-4.512-7.2-1.989-.882-4.867.108-6.947,2.149-3.811,3.738-4.517,8.193-3.2,13.124,1.935,7.251,5.971,13.353,10.875,18.865,7.268,8.169,16.2,13.114,27.394,13.362ZM49.269,18.977c.762.666,1.463,1.82,2.3,1.925a24.556,24.556,0,0,1,21.174,18.48,9.385,9.385,0,0,0,.932,3.074,8.938,8.938,0,0,0,2.578,1.737,9.7,9.7,0,0,0,1.114-2.858,10.2,10.2,0,0,0-.738-3.132c-3.555-12.526-13.767-19.769-25.254-21Zm-.251,12.957c-.481,1.515.9,1.876,2.148,1.97,6.286.475,9.309,4.306,10.655,10.077.2.846,1.452,1.445,2.217,2.158.515-.9,1.6-1.895,1.457-2.671C64.2,36.343,60.017,30.909,50.98,30.138,50.6,30.461,49.3,31.037,49.018,31.934Z" transform="translate(-17.274 -17.202)"/></svg>