<?xml version="1.0" encoding="UTF-8"?><svg id="Layer_2" xmlns="http://www.w3.org/2000/svg" viewBox="0 0 1610.27 1073.77"><defs><style>.cls-1{fill:#125860;}.cls-1,.cls-2,.cls-3,.cls-4,.cls-5,.cls-6{stroke-width:0px;}.cls-2{fill:#9dd6cd;}.cls-3{fill:#fffdf4;}.cls-4{fill:#ffc905;}.cls-5{fill:#f27a21;}.cls-6{fill:#f6a19c;}</style></defs><g id="Layer_1-2"><rect class="cls-2" x=".44" y=".42" width="1609.38" height="1072.92"/><rect class="cls-1" x="1342.04" y="537.31" width="133.56" height="269.05"/><rect class="cls-2" x="1074.53" y="805.54" width="267.5" height="134.11"/><rect class="cls-6" x="1074.18" y="269.27" width="267.86" height="267.86"/><rect class="cls-2" x="0" y="537.91" width="537.18" height="268.97"/><rect class="cls-2" x="805.51" y="269.01" width="268.6" height="268.3"/><rect class="cls-1" x="673.28" y="269.08" width="132.81" height="133.87"/><rect class="cls-1" x="805.51" y="134.97" width="133.76" height="133.76"/><rect class="cls-4" x="806.5" y="537.14" width="268.39" height="269.66"/><path class="cls-4" d="m1209.32,536.93v268.83c-74.25,0-134.42-60.19-134.42-134.42s60.17-134.42,134.42-134.42"/><path class="cls-1" d="m805.28,1.24h268.83c0,74.25-60.19,134.42-134.42,134.42S805.28,75.48,805.28,1.24"/><path class="cls-4" d="m866.4,1.24h146.57c0,40.48-32.82,73.29-73.29,73.29s-73.29-32.81-73.29-73.29"/><path class="cls-5" d="m805.27,671.95v-134.42h135.16c-.41,74.3-60.76,134.42-135.16,134.42"/><path class="cls-1" d="m805.31,604.36v-66.82h67.54c-.38,36.98-30.46,66.82-67.54,66.82"/><polygon class="cls-6" points="669.68 804.88 672.08 804.88 670.88 806.08 669.68 804.88"/><path class="cls-1" d="m1074.11,535.72v-266.45h267.93c-.81,147.29-120.44,266.45-267.93,266.45"/><path class="cls-2" d="m1074.18,401.74v-132.47h133.89c-.76,73.31-60.39,132.47-133.89,132.47"/><polygon class="cls-6" points="806.5 672.33 537.64 672.33 672.08 537.91 806.5 672.33"/><polygon class="cls-2" points="731.08 672.33 613.06 672.33 672.08 613.32 731.08 672.33"/><rect class="cls-1" x="442.6" y="442.86" width="190.1" height="190.1" transform="translate(-222.89 537.73) rotate(-45)"/><polygon class="cls-2" points="537.64 672.33 537.18 537.91 672.08 537.91 537.64 672.33"/><rect class="cls-1" x="673.11" y="1.57" width="131.77" height="133.76"/><polygon class="cls-2" points="673.11 1.57 804.87 135.32 804.74 1.93 673.11 1.57"/><rect class="cls-3" x="269.11" y="269.08" width="268.06" height="268.83"/><polygon class="cls-2" points="537.67 403.5 537.18 537.91 403.23 537.91 537.67 403.5"/><polygon class="cls-6" points="537.64 403.2 403.23 537.61 268.81 403.2 269.18 402.83 537.17 402.83 537.17 402.72 537.64 403.2"/><polygon class="cls-4" points="537.17 402.72 537.17 402.83 269.18 402.83 403.23 268.78 537.17 402.72"/><rect class="cls-3" x="361.5" y="361.47" width="83.45" height="83.45" transform="translate(-167 403.22) rotate(-45)"/><path class="cls-3" d="m672.08,941.22c74.23,0,134.42-60.19,134.42-134.42h-268.83c0,74.23,60.17,134.42,134.42,134.42"/><rect class="cls-1" x="537.66" y="672.33" width="268.83" height="134.48"/><path class="cls-2" d="m671.78,881.55c-41.48,0-75.1-33.62-75.1-75.1s33.63-75.1,75.1-75.1,75.1,33.62,75.1,75.1-33.63,75.1-75.1,75.1"/><path class="cls-6" d="m1074.9,806.81h0c-74.12,0-134.2-60.08-134.2-134.2v-135.08h134.2v269.28Z"/><rect class="cls-3" x="0" y="806.89" width="537.18" height="130.78"/><polygon class="cls-4" points="536.95 806.67 536.95 806.89 .67 806.89 268.92 538.64 536.95 806.67"/><rect class="cls-1" x="176.58" y="714.65" width="184.47" height="184.47" transform="translate(-491.82 426.41) rotate(-45)"/><path class="cls-2" d="m1318.45,605.12c0,23.45-19.01,42.46-42.46,42.46s-42.46-19.01-42.46-42.46,19.01-42.46,42.46-42.46,42.46,19.01,42.46,42.46"/><polygon class="cls-6" points="1075.13 939.36 806.28 939.36 940.72 1073.77 1075.13 939.36"/><path class="cls-1" d="m867.42,939.36h146.57c0,40.48-32.82,73.29-73.28,73.29s-73.29-32.81-73.29-73.29"/><rect class="cls-2" x="806.43" y="806.63" width="268.56" height="132.73"/><path class="cls-1" d="m915.47,874.02c0,23.45-19.01,42.46-42.46,42.46s-42.46-19.01-42.46-42.46,19.01-42.46,42.46-42.46,42.46,19.01,42.46,42.46"/><path class="cls-5" d="m1049.74,874.02c0,23.45-19.01,42.46-42.46,42.46s-42.46-19.01-42.46-42.46,19.01-42.46,42.46-42.46,42.46,19.01,42.46,42.46"/><rect class="cls-5" x="537.18" y=".85" width="136.1" height="401.99"/><path class="cls-1" d="m647.52,68.44c0,23.45-19.01,42.46-42.46,42.46s-42.46-19.01-42.46-42.46,19.01-42.46,42.46-42.46,42.46,19.01,42.46,42.46"/><path class="cls-1" d="m647.52,201.84c0,23.45-19.01,42.46-42.46,42.46s-42.46-19.01-42.46-42.46,19.01-42.46,42.46-42.46,42.46,19.01,42.46,42.46"/><path class="cls-1" d="m647.52,335.24c0,23.45-19.01,42.46-42.46,42.46s-42.46-19.01-42.46-42.46,19.01-42.46,42.46-42.46,42.46,19.01,42.46,42.46"/><rect class="cls-1" x="0" y="937.67" width="401.99" height="136.1"/><path class="cls-6" d="m67.59,963.97c23.45,0,42.46,19.01,42.46,42.46s-19.01,42.46-42.46,42.46-42.46-19.01-42.46-42.46,19.01-42.46,42.46-42.46"/><path class="cls-6" d="m200.99,963.97c23.45,0,42.46,19.01,42.46,42.46s-19.01,42.46-42.46,42.46-42.46-19.01-42.46-42.46,19.01-42.46,42.46-42.46"/><path class="cls-6" d="m334.39,963.97c23.45,0,42.46,19.01,42.46,42.46s-19.01,42.46-42.46,42.46-42.46-19.01-42.46-42.46,19.01-42.46,42.46-42.46"/><rect class="cls-4" x="1380.66" y="174.22" width="190.1" height="190.1" transform="translate(241.82 1122.34) rotate(-45)"/><polygon class="cls-2" points="1475.7 403.68 1476.15 269.27 1610.14 269.27 1475.7 403.68"/><polygon class="cls-2" points="1475.72 134.85 1476.15 269.27 1341.29 269.27 1475.72 134.85"/><polygon class="cls-5" points="128.95 937.78 0 806.89 .13 937.43 128.95 937.78"/><rect class="cls-4" x="401.99" y="937.32" width="135.14" height="136.45"/><polygon class="cls-5" points="402.57 937.32 537.18 1073.77 537.04 937.69 402.57 937.32"/><rect class="cls-6" x="844.64" y="307.72" width="190.1" height="190.1" transform="translate(-9.57 782.42) rotate(-45)"/><path class="cls-2" d="m806.34,269.03s3.16,64.29-33.49,100.56c-36.65,36.28-99.3,33.07-99.3,33.07,0,0-3.24-62.02,33.41-98.3,36.65-36.28,99.39-35.34,99.39-35.34"/><path class="cls-3" d="m673.54,135.33s-3.16,64.29,33.49,100.56c36.65,36.28,99.3,33.07,99.3,33.07,0,0,3.24-62.02-33.41-98.3-36.65-36.28-99.39-35.34-99.39-35.34"/><path class="cls-5" d="m806.48,269.03s-3.16,64.29,33.49,100.57c36.65,36.27,99.3,33.07,99.3,33.07,0,0,3.24-62.02-33.41-98.3-36.65-36.28-99.39-35.34-99.39-35.34"/><path class="cls-3" d="m939.28,135.33s3.16,64.29-33.49,100.56c-36.65,36.27-99.3,33.07-99.3,33.07,0,0-3.24-62.02,33.41-98.3,36.65-36.28,99.39-35.34,99.39-35.34"/><polygon class="cls-4" points="1074.11 402.77 939.62 402.04 939.69 537.19 1074.11 402.77"/><polygon class="cls-3" points="536.83 402.95 806.09 672.22 806.09 402.95 536.83 402.95"/><path class="cls-5" d="m782.15,470.7c0,23.45-19.01,42.46-42.46,42.46s-42.46-19.01-42.46-42.46,19.01-42.46,42.46-42.46,42.46,19.01,42.46,42.46"/><path class="cls-1" d="m1207.85,940.07s3.16,64.29-33.49,100.57c-36.65,36.27-99.3,33.07-99.3,33.07,0,0-3.24-62.02,33.41-98.3,36.65-36.28,99.39-35.34,99.39-35.34"/><path class="cls-5" d="m1075.05,806.36s-3.16,64.29,33.49,100.57c36.65,36.27,99.3,33.07,99.3,33.07,0,0,3.24-62.02-33.41-98.3-36.65-36.28-99.39-35.34-99.39-35.34"/><path class="cls-1" d="m1207.99,940.07s-3.16,64.29,33.49,100.56c36.65,36.27,99.3,33.07,99.3,33.07,0,0,3.24-62.02-33.41-98.3-36.65-36.28-99.39-35.34-99.39-35.34"/><path class="cls-5" d="m1340.79,806.36s3.16,64.29-33.49,100.56c-36.65,36.28-99.3,33.07-99.3,33.07,0,0-3.24-62.02,33.41-98.3,36.65-36.28,99.39-35.34,99.39-35.34"/><rect class="cls-1" x="1209.32" y="672.85" width="132.9" height="132.9"/><polygon class="cls-6" points="1209.32 672.86 1342.22 672.86 1342.22 805.76 1209.32 672.86"/><rect class="cls-3" x="1475.71" y="940.1" width="133.67" height="133.67"/><polygon class="cls-5" points="1475.71 940.1 1609.39 940.1 1609.39 1073.77 1475.71 940.1"/><rect class="cls-3" x="1342.04" y="940.1" width="133.67" height="133.67"/><polygon class="cls-6" points="1342.04 1073.77 1342.04 940.1 1475.71 940.1 1342.04 1073.77"/><rect class="cls-6" x="1475.71" y="538.31" width="133.67" height="401.99"/><path class="cls-2" d="m1585.01,605.91c0,23.45-19.01,42.46-42.46,42.46s-42.46-19.01-42.46-42.46,19.01-42.46,42.46-42.46,42.46,19.01,42.46,42.46"/><path class="cls-2" d="m1585.01,739.31c0,23.45-19.01,42.46-42.46,42.46s-42.46-19.01-42.46-42.46,19.01-42.46,42.46-42.46,42.46,19.01,42.46,42.46"/><path class="cls-2" d="m1585.01,872.71c0,23.45-19.01,42.46-42.46,42.46s-42.46-19.01-42.46-42.46,19.01-42.46,42.46-42.46,42.46,19.01,42.46,42.46"/><path class="cls-2" d="m1475.6,670.9h0c-74.12,0-134.2,60.08-134.2,134.2v135.08h134.2v-269.28Z"/><polygon class="cls-3" points="1341.29 269.27 1475.7 403.68 1475.71 538.31 1342.04 537.12 1341.29 269.27"/><path class="cls-4" d="m1475.67,539.06s3.16,64.29-33.49,100.57c-36.65,36.27-99.3,33.07-99.3,33.07,0,0-3.24-62.02,33.41-98.3,36.65-36.28,99.39-35.34,99.39-35.34"/><path class="cls-1" d="m1609.32,404.81s3.16,64.29-33.49,100.56c-36.65,36.27-99.3,33.07-99.3,33.07,0,0-3.24-62.02,33.41-98.3,36.65-36.28,99.39-35.34,99.39-35.34"/><rect class="cls-3" x="0" y=".85" width="269.11" height="268.23"/><path class="cls-6" d="m269.11,135.65v133.39h-134.13c.41-73.73,60.3-133.39,134.13-133.39"/><path class="cls-4" d="m269.08,202.75v66.31h-67.03c.38-36.7,30.23-66.31,67.03-66.31"/><path class="cls-1" d="m0,.85h0c74.76,0,135.36,60.6,135.36,135.36v132.87H0V.85Z"/><path class="cls-5" d="m244.51,68.44c0,23.45-19.01,42.46-42.46,42.46s-42.46-19.01-42.46-42.46,19.01-42.46,42.46-42.46,42.46,19.01,42.46,42.46"/><rect class="cls-1" x="269.78" y="1.57" width="267.72" height="133.23"/><polygon class="cls-3" points="537.97 135.26 403.55 269.68 269.14 135.26 269.5 134.9 537.5 134.9 537.5 134.79 537.97 135.26"/><polygon class="cls-6" points="537.5 134.79 537.5 134.9 269.5 134.9 403.55 .85 537.5 134.79"/><rect class="cls-1" x="361.83" y="93.54" width="83.45" height="83.45" transform="translate(22.55 324.98) rotate(-45)"/><polygon class="cls-6" points="1343.38 269.27 1074.11 0 1074.11 269.27 1343.38 269.27"/><path class="cls-4" d="m1098.06,201.51c0-23.45,19.01-42.46,42.46-42.46s42.46,19.01,42.46,42.46-19.01,42.46-42.46,42.46-42.46-19.01-42.46-42.46"/><polygon class="cls-3" points="1479.27 .85 1203.3 .85 1341.3 138.82 1479.27 .85"/><polygon class="cls-1" points="1341.3 138.82 1342.04 269.27 1610.27 .85 1479.27 .85 1341.3 138.82"/><polygon class="cls-5" points="1610.27 .85 1475.71 134.85 1610.14 269.27 1610.27 .85"/><path class="cls-1" d="m646.2,1006.92c0,23.45-19.01,42.46-42.46,42.46s-42.46-19.01-42.46-42.46,19.01-42.46,42.46-42.46,42.46,19.01,42.46,42.46"/><path class="cls-1" d="m780.47,1006.92c0,23.45-19.01,42.46-42.46,42.46s-42.46-19.01-42.46-42.46,19.01-42.46,42.46-42.46,42.46,19.01,42.46,42.46"/><polygon class="cls-4" points="806.28 939.36 806.49 1073.77 940.72 1073.77 806.28 939.36"/><polygon class="cls-1" points="1074.11 209.71 1074.11 327.73 1015.11 268.72 1074.11 209.71"/><polygon class="cls-6" points="939.81 269.01 939.81 135.34 1073.49 135.34 939.81 269.01"/><path class="cls-1" d="m269.78,403.5c0,74.22-60.19,134.42-134.42,134.42v-268.83c74.22,0,134.42,60.17,134.42,134.42"/><rect class="cls-5" x="0" y="269.08" width="135.36" height="268.83"/><path class="cls-2" d="m210.1,403.2c0-41.48-33.63-75.1-75.1-75.1s-75.1,33.62-75.1,75.1,33.62,75.1,75.1,75.1,75.1-33.62,75.1-75.1"/></g></svg>