<svg xmlns="http://www.w3.org/2000/svg" width="39.61" height="35.289" viewBox="0 0 39.61 35.289"><path d="M3.422,35.29a3.345,3.345,0,0,1-2.6-1.319L0,33l.432-1.2c.36-1,1.354-2.147,9.361-8.91.742-.627,1.314-1.11,1.583-1.347l4.782-4.041c-.733-.613-1.568-1.287-2.447-2A63.061,63.061,0,0,1,5.658,8.26L5.4,7.942c-.172-.024-2.381-.289-2.381-.289L2.8,5.885a1.844,1.844,0,0,0-.335-.922,2.842,2.842,0,0,1,.315-3.781A3.492,3.492,0,0,1,5.33,0C7.26,0,8.345,1.6,9.3,3.009A10.928,10.928,0,0,0,10.517,4.6c.369.358.669.68.957.988A11.76,11.76,0,0,0,12.665,6.75c.641.53,1.131.992,1.605,1.44a27.084,27.084,0,0,0,3.01,2.523l.094.073,3.5,2.859c1.985-1.658,5.9-5.242,8-7.163,1.186-1.086,2.2-2.014,2.826-2.571a2.935,2.935,0,0,0,.256-.289,3.364,3.364,0,0,1,2.656-1.441,3.677,3.677,0,0,1,1.469.326l.4.173.306.312a2.964,2.964,0,0,1,.883,2.441c-.191,1.641-1.605,2.534-2.853,3.322a11.062,11.062,0,0,0-.987.669,25.555,25.555,0,0,0-1.921,1.8c-.453.456-.92.926-1.483,1.444L25.118,17.86l6.992,7.862a9.377,9.377,0,0,0,1.678,1.443l.1.069.094.078a12.808,12.808,0,0,1,1.32,1.316,7.253,7.253,0,0,0,.5.532,1.229,1.229,0,0,0,.2.154c.056.016.13.023.206.036a6.045,6.045,0,0,1,1.763.555l1.636.807-.478,1.76a3.738,3.738,0,0,1-3.771,2.806,5.894,5.894,0,0,1-1.082-.106c-2.141-.4-4.912-3.183-9.945-8.877-.673-.761-1.24-1.4-1.629-1.815l-2.628-2.809-7.29,6.2c-.753.693-1.521,1.313-2.263,1.915s-1.449,1.172-2.071,1.76c-.484.457-.909.932-1.321,1.392-1.032,1.157-2.1,2.352-3.71,2.352" transform="translate(0 -0.001)" fill-rule="evenodd"/></svg>