<?xml version="1.0" encoding="UTF-8"?><svg id="Layer_2" xmlns="http://www.w3.org/2000/svg" viewBox="0 0 414.92 574.67"><defs><style>.cls-1,.cls-2,.cls-3,.cls-4,.cls-5,.cls-6,.cls-7,.cls-8,.cls-9,.cls-10{stroke-width:0px;}.cls-2{fill:#f9f9f8;}.cls-3{fill:#615f5f;}.cls-4{fill:#828181;}.cls-5{fill:#111;}.cls-6{fill:#d5d5d4;}.cls-7{fill:#9cd5cc;}.cls-8{fill:#976a47;}.cls-9{fill:#999;}.cls-10{fill:#f07c21;}</style></defs><g id="Layer_1-2"><path class="cls-5" d="m0,300.52c.21-7.38.34-12.38.49-17.37.08-2.54.2-5.08.27-7.62.11-4.77.05-9.54.33-14.3.27-4.63.97-9.23,1.32-13.86.62-8.12,2.3-16.05,3.84-24.02,1.34-6.98,2.4-14.03,3.43-21.07,1.31-8.93,3.57-17.66,5.44-26.47,1.39-6.53,2.88-13.03,5.1-19.32,1.2-3.39,2.75-6.65,4.23-9.93,3.47-7.69,6.87-15.43,10.54-23.03,3.19-6.6,6.41-13.21,10.16-19.5,4.01-6.71,8.58-13.09,13.04-19.52,3.48-5.02,7.02-10.02,10.81-14.81,2.91-3.68,6.16-7.11,9.44-10.47,3.4-3.47,6.89-6.86,10.58-10,3.57-3.03,7.42-5.73,11.21-8.49,6.68-4.88,13.25-9.92,20.14-14.5,7.8-5.18,16.07-9.56,24.43-13.82,8.07-4.11,16.68-6.16,25.33-8.25,4.05-.98,8.13-1.88,12.24-2.5,4.03-.61,8.12-.84,12.19-1.19C197.09.29,199.62,0,202.14,0c3.18,0,6.35.28,9.53.45,1.89.1,3.77.22,5.66.33,3.31.19,6.64.23,9.93.62,3.95.47,7.87,1.26,11.8,1.89,7.12,1.14,14.14,2.69,20.97,5.01,8.51,2.89,17.02,5.78,25.08,9.84,4.14,2.09,8.43,3.88,12.57,5.99,2.9,1.48,5.75,3.1,8.44,4.93,4.93,3.34,9.99,6.55,14.49,10.42,4.97,4.27,9.52,9.08,13.98,13.9,2.91,3.15,5.42,6.7,7.99,10.15,3.79,5.08,7.57,10.16,11.17,15.37,3.52,5.11,6.93,10.31,10.16,15.6,2.78,4.56,5.31,9.29,7.84,14,2.97,5.53,5.94,11.06,8.68,16.7,2.13,4.38,4.01,8.88,5.8,13.41,2.93,7.4,6.01,14.77,8.45,22.33,2.99,9.25,5.4,18.69,8.05,28.05.95,3.36,2.12,6.67,2.79,10.08,1.09,5.66,1.98,11.37,2.72,17.09.65,5.01.91,10.07,1.45,15.1.28,2.64.83,5.25,1.19,7.88.21,1.55.34,3.11.44,4.67.13,2.17.14,4.34.31,6.51.32,4.02.74,8.04,1.08,12.06.22,2.56.44,5.13.56,7.7.15,3.41.21,6.83.31,10.24.18,6.55.36,13.1.55,19.66.18,6.41.43,12.82.54,19.23.15,8.05.34,16.1.22,24.14-.06,3.73-.82,7.45-1.25,11.18-.3,2.6-.62,5.19-.89,7.79-.38,3.65-.71,7.31-1.07,10.97-.29,2.97-.55,5.95-.91,8.92-.67,5.54-1.44,11.05-3.18,16.4-2.57,7.89-5.2,15.77-7.48,23.75-1.95,6.83-4.06,13.54-7.29,19.92-2.14,4.21-3.59,8.78-5.29,13.22-2.73,7.16-6.82,13.53-11.18,19.79-3.39,4.88-6.39,10.04-9.73,14.95-1.99,2.93-4.28,5.66-6.49,8.43-1.99,2.48-3.98,4.98-6.13,7.31-2.97,3.22-6.13,6.27-9.16,9.44-1.18,1.23-2.17,2.64-3.36,3.85-6.26,6.35-12.51,12.67-20.04,17.6-4.29,2.81-8.33,6.04-12.36,9.23-3.49,2.77-7.15,5.15-11.24,6.94-3.53,1.55-6.84,3.62-10.4,5.1-3.37,1.4-6.94,2.32-10.41,3.49-2.08.7-4.11,1.58-6.22,2.19-4.65,1.35-9.29,2.82-14.02,3.81-8.47,1.78-17.04,3.06-25.49,4.92-6.31,1.39-12.65,1.75-19.05,1.88-5.27.11-10.54.35-15.81.21-4.59-.12-9.16-.73-13.74-1.02-6.41-.41-12.54-2.09-18.69-3.8-5.23-1.45-10.48-2.75-15.4-5.14-5.13-2.5-10.45-4.63-15.5-7.29-6.11-3.22-12.07-6.73-18-10.29-3.1-1.87-5.96-4.14-8.97-6.17-2.21-1.48-4.59-2.73-6.72-4.31-4.19-3.12-8.43-6.21-12.34-9.67-4.81-4.24-9.54-8.62-13.86-13.35-4.45-4.87-8.38-10.23-12.51-15.39-2.23-2.78-4.49-5.55-6.58-8.43-1.34-1.85-2.3-3.99-3.6-5.87-2.54-3.66-5.55-7.03-7.74-10.88-4.18-7.32-8.08-14.81-11.8-22.38-6.32-12.87-10.98-26.43-15.48-40-3.09-9.34-5.17-19.01-7.8-28.51-1.29-4.68-1.99-9.4-2.26-14.24-.18-3.28-.89-6.53-1.28-9.8-.27-2.23-.37-4.49-.62-6.73-.41-3.79-.93-7.56-1.3-11.35-.22-2.3-.25-4.61-.36-6.91-.19-3.92-.34-7.84-.57-11.75-.46-7.73-.97-15.47-1.31-20.83m399.38-10.28c.15,0,.3,0,.45-.01-.24-4.19-.4-8.38-.75-12.56-.35-4.2-.92-8.39-1.35-12.58-.32-3.06-.6-6.12-.86-9.19-.38-4.58-.72-9.17-1.1-13.75-.27-3.25-.47-6.51-.9-9.74-.63-4.72-1.37-9.43-2.17-14.12-.91-5.34-1.78-10.69-2.97-15.97-1.01-4.45-2.5-8.79-3.69-13.2-1.48-5.49-2.78-11.03-4.32-16.51-1.23-4.37-2.66-8.68-4.06-13-.57-1.75-1.33-3.44-1.91-5.18-2.71-8.16-6.03-16.04-10.34-23.5-4.93-8.54-9.67-17.2-14.48-25.81-2.7-4.83-5.24-9.77-8.14-14.47-3.03-4.92-6.27-9.74-9.69-14.4-3.51-4.78-7.22-9.42-11.08-13.91-2.94-3.41-6.13-6.63-9.44-9.68-3.19-2.94-6.6-5.66-10.06-8.27-5.04-3.8-10.61-6.75-16.17-9.72-6.45-3.43-13.28-5.75-20.3-7.65-6.8-1.84-13.55-3.83-20.31-5.83-7.11-2.1-14.29-3.74-21.71-4.28-3.53-.26-7.05-.76-10.58-1.07-2.02-.18-4.06-.36-6.07-.24-3.62.21-7.23.61-10.84,1-3.94.43-7.91.73-11.8,1.46-3.97.74-7.86,1.96-11.79,2.93-3.43.84-6.99,1.27-10.27,2.49-5.74,2.13-11.38,4.56-16.92,7.16-10.85,5.09-20.89,11.57-30.46,18.73-3.46,2.59-6.53,5.7-9.78,8.56-5.33,4.68-10.74,9.27-15.96,14.07-3.12,2.87-5.95,6.05-8.87,9.12-1.72,1.8-3.35,3.69-5.04,5.52-1.03,1.12-2.24,2.09-3.14,3.31-3.21,4.38-6.59,8.66-9.42,13.29-3.53,5.78-6.75,11.76-9.76,17.82-3.05,6.15-5.74,12.47-8.47,18.77-2.67,6.16-5.33,12.34-7.74,18.6-1.71,4.45-2.99,9.07-4.5,13.61-2.99,8.97-6,17.93-7.35,27.34-.99,6.85-2.11,13.69-3.05,20.55-1.12,8.13-2.14,16.28-3.12,24.42-.62,5.11-1.19,10.23-1.64,15.36-.46,5.32-.78,10.65-1.09,15.98-.17,2.81-.22,5.63-.29,8.45-.2,7.99-.41,15.99-.54,23.98-.04,2.21.11,4.43.29,6.64.39,4.68.83,9.36,1.29,14.03.37,3.72.77,7.43,1.21,11.14.33,2.83.75,5.66,1.12,8.49.34,2.59.67,5.18.99,7.77.49,3.92.96,7.84,1.44,11.76.3,2.51.43,5.07.95,7.53,1.03,4.87,2.23,9.7,3.48,14.52.64,2.48,1.52,4.89,2.29,7.33,1.49,4.68,2.81,9.41,4.51,14.01,1.86,5.04,4.02,9.97,6.14,14.9,1.98,4.6,4.02,9.17,6.17,13.69,2.13,4.48,4.34,8.93,6.67,13.32,1.53,2.88,3.41,5.57,4.99,8.42,2.39,4.3,4.64,8.68,6.97,13.02.57,1.05,1.16,2.1,1.84,3.08,2.57,3.68,5.11,7.39,7.79,10.99,1.39,1.87,3.09,3.51,4.61,5.29,2.48,2.89,4.89,5.86,7.42,8.71,1.93,2.18,4.03,4.21,6.01,6.34,1.58,1.7,3.11,3.43,4.64,5.18.57.66.94,1.55,1.6,2.06,3.74,2.88,7.51,5.72,11.32,8.5,1.89,1.38,3.88,2.62,5.82,3.93,3.12,2.1,6.13,4.38,9.38,6.25,2.78,1.6,5.83,2.76,8.78,4.06,9.94,4.38,19.96,8.59,29.81,13.17,6.41,2.98,13.2,4,20.05,4.94,3.63.5,7.29.82,10.95,1.14,4.72.41,9.45.99,14.18,1.04,4.73.04,9.47-.48,14.2-.76,3.1-.18,6.21-.21,9.28-.6,4.34-.54,8.7-1.08,12.94-2.11,8.46-2.05,16.93-4.02,25.1-7.17,9.95-3.84,19.79-7.8,28.55-14.04,3.21-2.29,6.74-4.19,9.78-6.68,4.01-3.3,7.68-6.99,11.48-10.54,2.26-2.11,4.49-4.25,6.7-6.4,3.46-3.35,7.03-6.6,10.31-10.11,4.37-4.68,8.52-9.55,12.73-14.37,1.68-1.93,3.42-3.84,4.83-5.96,1.85-2.78,3.47-5.72,5.08-8.65,3.63-6.61,7.18-13.27,10.8-19.89,1.45-2.66,3.01-5.26,4.49-7.9.83-1.48,1.78-2.93,2.37-4.51,1.94-5.16,3.78-10.37,5.59-15.58,3.34-9.67,5.98-19.54,8.03-29.57.85-4.17,1.78-8.33,2.54-12.52.65-3.56,1.13-7.15,1.64-10.73.41-2.9.74-5.82,1.12-8.73.43-3.27.78-6.55,1.33-9.8.45-2.66,1.57-5.27,1.65-7.92.36-11.05.49-22.11.61-33.16.08-7.13.02-14.26.02-21.39"/><path class="cls-7" d="m399.38,290.23c0,7.13.07,14.26-.02,21.39-.13,11.06-.25,22.11-.61,33.16-.09,2.65-1.2,5.26-1.65,7.92-.55,3.25-.9,6.53-1.33,9.8-.38,2.91-.71,5.82-1.12,8.73-.51,3.58-.99,7.17-1.64,10.73-.76,4.19-1.69,8.35-2.54,12.52-2.04,10.03-4.69,19.89-8.03,29.57-1.8,5.21-3.65,10.42-5.59,15.58-.59,1.58-1.54,3.03-2.37,4.51-1.48,2.64-3.03,5.24-4.49,7.9-3.62,6.62-7.16,13.28-10.8,19.89-1.61,2.93-3.23,5.87-5.08,8.65-1.41,2.12-3.15,4.03-4.83,5.96-4.21,4.82-8.36,9.7-12.73,14.37-3.28,3.52-6.85,6.76-10.31,10.11-2.22,2.15-4.45,4.29-6.7,6.4-3.8,3.55-7.47,7.25-11.48,10.54-3.04,2.5-6.56,4.39-9.78,6.68-8.76,6.24-18.6,10.21-28.55,14.04-8.17,3.15-16.65,5.13-25.1,7.17-4.24,1.02-8.6,1.56-12.94,2.11-3.07.39-6.19.42-9.28.6-4.73.28-9.47.8-14.2.76-4.73-.04-9.46-.62-14.18-1.04-3.66-.32-7.31-.64-10.95-1.14-6.85-.94-13.64-1.96-20.05-4.94-9.85-4.58-19.87-8.78-29.81-13.17-2.95-1.3-6-2.46-8.78-4.06-3.25-1.87-6.26-4.15-9.38-6.25-1.94-1.31-3.93-2.55-5.82-3.93-3.81-2.79-7.59-5.62-11.32-8.5-.67-.51-1.03-1.4-1.6-2.06-1.52-1.75-3.06-3.48-4.64-5.18-1.98-2.13-4.08-4.16-6.01-6.34-2.53-2.85-4.94-5.82-7.42-8.71-1.52-1.78-3.22-3.42-4.61-5.29-2.68-3.6-5.23-7.3-7.79-10.99-.68-.98-1.27-2.02-1.84-3.08-2.33-4.34-4.58-8.72-6.97-13.02-1.58-2.85-3.46-5.54-4.99-8.42-2.33-4.38-4.54-8.83-6.67-13.32-2.15-4.52-4.19-9.1-6.17-13.69-2.13-4.93-4.28-9.87-6.14-14.9-1.7-4.6-3.02-9.33-4.51-14.01-.78-2.44-1.66-4.85-2.29-7.33-1.24-4.82-2.44-9.65-3.48-14.52-.52-2.47-.64-5.02-.95-7.53-.48-3.92-.95-7.84-1.44-11.76-.32-2.59-.65-5.18-.99-7.77-.37-2.83-.79-5.65-1.12-8.49-.44-3.71-.84-7.42-1.21-11.14-.46-4.67-.9-9.35-1.29-14.03-.18-2.21-.33-4.43-.29-6.64.14-7.99.35-15.99.54-23.98.07-2.82.12-5.64.29-8.45.32-5.33.63-10.67,1.09-15.98.44-5.13,1.02-10.25,1.64-15.36.99-8.15,2.01-16.29,3.12-24.42.94-6.86,2.07-13.7,3.05-20.55,1.35-9.41,4.37-18.37,7.35-27.34,1.51-4.53,2.78-9.15,4.5-13.61,2.41-6.27,5.07-12.44,7.74-18.6,2.73-6.3,5.42-12.63,8.47-18.77,3.01-6.07,6.24-12.05,9.76-17.82,2.82-4.62,6.2-8.91,9.42-13.29.89-1.21,2.1-2.19,3.14-3.31,1.69-1.83,3.32-3.71,5.04-5.52,2.92-3.08,5.75-6.26,8.87-9.12,5.22-4.8,10.64-9.39,15.96-14.07,3.26-2.86,6.32-5.97,9.78-8.56,9.58-7.16,19.61-13.64,30.46-18.73,5.54-2.6,11.19-5.03,16.92-7.16,3.28-1.22,6.85-1.65,10.27-2.49,3.93-.96,7.82-2.18,11.79-2.93,3.89-.73,7.85-1.03,11.8-1.46,3.61-.39,7.22-.79,10.84-1,2.01-.12,4.05.07,6.07.24,3.53.31,7.05.81,10.58,1.07,7.42.55,14.61,2.18,21.71,4.28,6.75,2,13.51,3.99,20.31,5.83,7.02,1.9,13.85,4.22,20.3,7.65,5.57,2.96,11.13,5.92,16.17,9.72,3.46,2.61,6.87,5.33,10.06,8.27,3.31,3.05,6.51,6.27,9.44,9.68,3.86,4.49,7.57,9.13,11.08,13.91,3.42,4.66,6.66,9.48,9.69,14.4,2.9,4.71,5.44,9.64,8.14,14.47,4.82,8.61,9.55,17.27,14.48,25.81,4.31,7.47,7.63,15.34,10.34,23.5.58,1.75,1.34,3.43,1.91,5.18,1.4,4.32,2.83,8.63,4.06,13,1.54,5.48,2.84,11.02,4.32,16.51,1.19,4.41,2.68,8.75,3.69,13.2,1.19,5.28,2.06,10.63,2.97,15.97.8,4.7,1.55,9.4,2.17,14.12.43,3.23.63,6.49.9,9.74.38,4.58.72,9.17,1.1,13.75.26,3.06.54,6.13.86,9.19.43,4.19,1,8.38,1.35,12.58.35,4.18.51,8.37.75,12.56-.15,0-.3,0-.45.01"/><path class="cls-1" d="m198.24,405.96c.05-2.32-.28-4.64.18-6.96-.11,3.5-.11,6.99.01,10.48-.44-1.15-.22-2.35-.19-3.52"/><path class="cls-1" d="m253.78,409.51c-.38-.94-.2-1.91-.17-2.87.06.31.06.64.06.95-.01.65-.07,1.28.11,1.92"/><path class="cls-1" d="m281.75,197.72c-1.45,4.95-3.99,9.43-6.28,14-1.55,3.09-2.99,6.22-5.04,9.05-2.38,3.29-5.19,6.1-8.4,8.5-3.91,2.9-8.11,5.41-12.47,7.58-4.02,1.99-8.29,3.11-12.75,3.66-1.67.2-3.36.04-5.03.44-1.2.3-2.36-.5-3.59-.6-1.21-.1-2.41-.47-3.62-.44-6.77.1-13.13-1.4-19.33-4.1-7.11-3.08-13.81-6.82-19.95-11.53-3.6-2.75-6.8-5.91-9.27-9.77-3.33-5.19-7.35-9.97-10-15.6-1.62-3.45-2.35-7.18-2.92-10.95-.22-1.39-.06-2.81-.46-4.17v-11.63c.35-2.82.5-5.66.99-8.47.76-4.23,1.94-8.32,3.56-12.29,2.21-5.45,5.41-10.38,8.29-15.46,1.67-2.95,3.31-5.91,5.58-8.48,1.58-1.79,3.24-3.5,5.07-5.03,2.47-2.05,4.94-4.09,7.4-6.14,3.61-3.01,8.07-3.97,12.41-5.2,4.08-1.18,8.22-2.18,12.43-2.72,9.46-1.24,18.63-.94,27.18,4.38,7.86,4.87,15.57,9.8,21.83,16.72,3.3,3.65,5.79,7.82,8.29,12.01.73,1.22,1.44,2.46,2.17,3.68,2.23,3.72,1.57,6.54-.91,10.1-1.95,2.82-4.89,4.44-7.57,6.36-4.24,3.07-8.67,5.9-12.82,9.1-3.3,2.55-5.35,6.08-6.32,10.18-.62,2.69.86,6.36,3.01,8.11,3.01,2.45,6.5,3.5,10.24,3.96,4.41.54,8.85.61,13.3.56,1.15,0,2.28.1,3.41.29,1.64.26,2.2,1.8,1.57,3.92"/><path class="cls-1" d="m204.18,328.01c-.07.05-.16.1-.24.13-2.04,2.9-3.74,6.01-5.46,9.1-3.49,6.25-6.42,12.77-9.01,19.44-2.12,5.51-3.79,11.18-5.47,16.85-1.98,6.7-4.89,13.05-9.1,18.71-2.66,3.57-6.41,5.22-10.67,5.9-1.85.3-3.71.25-5.54.48-1.76.03-3.51.05-5.27.07h-.02s0-.01.01-.02c0-.02.03-.06.05-.07.04-.05.07-.07.11-.11h.01s.11-.07.18-.1c1.55-.2,3.09-.02,4.63-.12,2.05-.34,4.13-.23,6.18-.6,4.87-.89,8.69-3.27,11.36-7.54,4.04-6.47,6.77-13.45,8.85-20.75,4.08-14.25,10.1-27.66,17.94-40.24.29-.47.55-.96,1.14-1.14.06-.01.12-.02.18-.02.05,0,.1.01.15.02"/><path class="cls-1" d="m309.96,322.27c-.24,2.16-.36,4.34-.57,6.51-.31,3.01-.76,6-1.39,8.95-1.04,4.87-2.41,9.65-4.45,14.21-1.39,3.12-2.97,6.17-5.15,8.82-1.23,1.5-2.83,2.73-4.28,4.05-2.09,1.92-4.26,3.77-6.61,5.39-3.47,2.38-7.44,3.72-11.19,5.52-3.02,1.44-6.12,2.77-9.44,3.41-3.18.6-6.34,1.27-9.53,1.82-3.56.62-7.14,1.15-10.7,1.68-3.86.58-7.75.73-11.65.55-9.49-.44-18.72-2.13-27.54-5.78-1.7-.71-3.48-1.27-5.09-2.15-3.68-2-4.17-3.75-2.71-7.53,3.65-9.39,7.41-18.73,11.13-28.1.47-1.21.89-2.45,1.33-3.66-.05-.14-.07-.29-.07-.42.06.08.11.17.14.25.04.08.06.17.08.26.1.86-.29,1.62-.57,2.39-3.59,9.34-7.29,18.64-11.04,27.91-.18.42-.35.85-.52,1.28-1.49,3.93-.71,5.9,3.18,7.64,8,3.57,16.36,5.88,25.08,6.96,7.53.92,14.98.55,22.43-.7,5.23-.88,10.45-1.75,15.65-2.77,3.97-.77,7.6-2.49,11.25-4.17.76-.35,1.48-.74,2.26-1.03,5.58-2.04,10-5.76,14.42-9.58,6.34-5.47,9.37-12.74,11.67-20.45,2-6.7,2.9-13.6,3.43-20.56.17-2.29.26-4.59.4-6.9.13-2.38-.2-4.77-.42-7.15-.47-5-.98-10-1.47-14.99-.44-4.52-1.57-8.89-2.88-13.22-2.09-6.94-4.4-13.79-7.28-20.44-3.07-7.09-6.9-13.76-11.09-20.23-1.09-1.7-2.18-3.42-3.26-5.13-.56-.9-1.11-1.8-1.77-2.64-1.49-1.88-2.5-2-4.19-.29-6.33,6.39-13.96,10.98-21.6,15.52-1.15.68-2.39,1.25-3.66,1.64-5.41,1.68-10.79,3.49-16.41,4.33-3.07.47-6.18.43-9.22-.24-4.5-.98-9.06-1.69-13.62-2.27-6.45-.8-12.62-2.58-18.47-5.43-2.28-1.11-4.71-1.9-7.02-2.95-4.8-2.19-8.74-5.58-12.75-8.92-3.89-3.23-7.42-6.74-10.33-10.9-1.22-1.75-1.64-1.68-2.88.11-5.04,7.28-9.29,15.06-14.04,22.52-4.99,7.81-10.12,15.52-15.66,22.96-3.93,5.29-7.87,10.57-11.05,16.37-2.06,3.77-3.79,7.69-5.94,11.41-3.86,6.67-7.9,13.21-12.53,19.38-2.83,3.77-4.84,8.05-7.16,12.14-2.42,4.25-4.8,8.52-7.12,12.81-.23.4-.44.81-.86,1.05-.05.01-.11.02-.16.04-.04.01-.06.01-.1.01.02-.04.04-.07.06-.11,3.48-6.26,7-12.5,10.43-18.81,2.59-4.77,5.89-9.07,8.94-13.54,4.91-7.2,9.21-14.75,13.04-22.57,2.64-5.42,6.08-10.34,9.68-15.15,5.57-7.45,10.95-15.02,15.92-22.87,3.78-5.97,7.4-12.04,11.14-18.04,1.83-2.95,3.77-5.83,5.68-8.72.78-1.19,1.58-1.19,2.44,0,2.11,2.93,4.21,5.87,6.98,8.24,5.04,4.32,9.71,9.17,15.93,11.89,6.1,2.67,12.09,5.72,18.59,7.39,2.63.68,5.36,1.04,8.06,1.4,4.45.59,8.84,1.45,13.26,2.22,5.06.89,10.15.48,15.11-1.23,3.01-1.04,6.19-1.57,9.2-2.62,4.33-1.5,8.15-4.03,11.93-6.56,5.07-3.37,10.09-6.8,14.34-11.25,1.69-1.76,2.95-1.38,4.34.71,3.31,4.96,6.48,10.04,9.56,15.16,3.81,6.32,6.88,13.03,9.45,19.95,1.88,5.06,3.49,10.21,5.03,15.39,1.27,4.29,2.02,8.66,2.51,13.11.56,5,.98,10.01,1.52,15.01.42,3.89.28,7.8-.15,11.72"/><path class="cls-1" d="m320.62,179.5c-1.97.98-4.08,1.43-6.25,1.56-1.67.37-3.33.36-4.99,0-4.75-.02-9.44.59-14.1,1.38-3.08.53-6.19.79-9.33.77-4.88-.04-9.76.07-14.64-.29-1.56-.11-3.09-.44-4.58-.92-1.44-.46-1.69-1.39-.8-2.66.97-1.39,2.4-2.29,3.68-3.33,5.36-4.34,10.81-8.6,16.02-13.13,2.11-1.85,4.32-2.22,7.14-1.46,10.35,2.76,19.42,8.02,28.17,13.97,2.22,1.51,2.12,2.91-.31,4.12"/><path class="cls-1" d="m140.56,394.44c-.4,1.62-.05,2.26,1.58,2.58,2.3.47,4.63.79,6.98.94,1.1.06,2.2.14,3.29.32.3.06.6.06.84.24.04.03.06.05.1.08.01.02.03.05.06.07,0,.01.01.01.01.02h-.02c-.36-.02-.73-.05-1.09-.06-3.62-.29-7.24-.45-10.78-1.33-1.62-.39-2.03-1.09-1.52-2.6,2.35-7.05,3.53-14.42,5.77-21.48,1.88-5.95,4.19-11.75,6.55-17.53.97-2.37,1.85-4.8,2.37-7.34.89-4.26-2.89-8.62-7.14-7.99-2.42.36-4.05,2.02-4.93,4.22-1.74,4.44-3.29,8.95-5,13.38-1.26,3.26-3.02,6.29-4.67,9.36-1.61,3.02-3.23,6.04-4.74,9.11-2.24,4.55-3.59,9.4-5.46,14.07-.53,1.31-1.64,1.79-2.78,1.76-5.28-.11-10.34-1.15-14.85-4.08-2.67-1.73-3.33-3.45-1.97-6.09,4.95-9.62,9.68-19.36,15.48-28.51,2.1-3.31,4.5-6.42,6.43-9.83,2.07-3.71,1.32-7.1-.88-10.36-.82-1.2-2.08-1.58-3.53-1.26-3.12.71-5.33,2.53-6.9,5.31-3,5.31-6.56,10.27-9.8,15.45-3.37,5.37-6.87,10.67-10.33,16-1.62,2.49-3.28,4.97-4.88,7.47-.78,1.21-1.8,1.58-3.1.99-1.93-.89-3.86-1.79-5.76-2.73-.98-.49-1.63-1.31-1.76-2.45-.4-1.67-.25-3.35-.01-5.01.11-3.78.29-7.54,1.44-11.2.97-3.07,2.66-5.74,4.16-8.53,1.05-1.97,2.15-3.91,3.21-5.88.02-.04.04-.07.06-.11.01.04.04.07.04.09.25.61-.16,1.08-.42,1.56-1.6,3.01-3.31,5.95-4.92,8.95-2.14,3.99-2.89,8.3-3.03,12.76-.02.83.02,1.65-.12,2.48-.35,1.55-.37,3.1,0,4.64.24,1.24,1.02,2.03,2.1,2.58,1.51.8,3.06,1.52,4.63,2.17,1.68.68,2.41.52,3.42-.98,2.26-3.37,4.41-6.8,6.61-10.21,5.05-7.88,10.12-15.74,15.21-23.59.99-1.55,2.01-3.08,2.9-4.7,1.49-2.72,3.69-4.55,6.7-5.37,1.96-.53,3.47-.07,4.59,1.61,2.1,3.15,2.79,6.49.95,10.04-1,1.93-2.05,3.83-3.33,5.58-3.5,4.76-6.55,9.81-9.28,15.04-2.97,5.66-6.02,11.3-8.95,16.99-1.78,3.47-1.68,5.1,2.34,7.41,3.71,2.14,7.83,2.94,12.03,3.35,2.66.25,3.73-.49,4.5-3.07,2.69-9.09,7.15-17.35,11.68-25.61,2.14-3.88,3.57-8.07,5.1-12.23.7-1.91,1.38-3.81,2.09-5.71.53-1.4,1.3-2.65,2.4-3.67,2.36-2.21,5.88-2.27,8.28-.11,2.24,2,3.17,4.47,2.51,7.46-.48,2.17-1.26,4.23-2.06,6.3-2.59,6.61-5.27,13.18-7.3,19.99-1.5,4.99-2.32,10.16-3.89,15.12-.43,1.37-.86,2.72-1.21,4.11"/><path class="cls-3" d="m198.24,405.96c.05-2.32-.28-4.64.18-6.96.01,3.5.01,6.99.01,10.48-.44-1.15-.22-2.35-.19-3.52"/><path class="cls-4" d="m253.78,409.51c-.38-.94-.2-1.91-.17-2.87.01.31.04.64.06.95.02.64.07,1.27.11,1.92"/><path class="cls-2" d="m309.96,322.27c-.24,2.16-.36,4.34-.57,6.51-.31,3.01-.76,6-1.39,8.95-1.04,4.87-2.41,9.65-4.45,14.21-1.39,3.12-2.97,6.17-5.15,8.82-1.23,1.5-2.83,2.73-4.28,4.05-2.09,1.92-4.26,3.77-6.61,5.39-3.47,2.38-7.44,3.72-11.19,5.52-3.02,1.44-6.12,2.77-9.44,3.41-3.18.6-6.34,1.27-9.53,1.82-3.56.62-7.14,1.15-10.7,1.68-3.86.58-7.75.73-11.65.55-9.49-.44-18.72-2.13-27.54-5.78-1.7-.71-3.48-1.27-5.09-2.15-3.68-2-4.17-3.75-2.71-7.53,3.65-9.39,7.41-18.73,11.13-28.1.47-1.21.89-2.45,1.33-3.66-.05-.14-.07-.29-.07-.42-.04-.5.18-.98.35-1.45,1.12-3.21,2.24-6.42,3.13-9.71.5-1.86,1.01-3.73,1.01-5.68,0-.89-.18-1.74-.95-2.34-1.15-.91-2.51-.67-3.59.7-2.05,2.6-3.78,5.45-5.66,8.16-.67.97-1.08,2.18-2.17,2.81-.07.05-.16.1-.24.13-2.04,2.9-3.74,6.01-5.46,9.1-3.49,6.25-6.42,12.77-9.01,19.44-2.12,5.51-3.79,11.18-5.47,16.85-1.98,6.7-4.89,13.05-9.1,18.71-2.66,3.57-6.4,5.22-10.67,5.9-1.85.3-3.71.25-5.54.48-1.75-.06-3.49-.07-5.23-.02h-.11c-.35.01-.7.02-1.04.04-3.62-.29-7.24-.46-10.78-1.33-1.62-.39-2.03-1.09-1.52-2.6,2.35-7.05,3.52-14.42,5.77-21.48,1.88-5.95,4.19-11.75,6.55-17.54.97-2.37,1.85-4.8,2.37-7.34.89-4.26-2.89-8.62-7.14-7.99-2.42.36-4.05,2.01-4.93,4.22-1.74,4.44-3.29,8.95-5,13.38-1.26,3.26-3.02,6.29-4.67,9.36-1.61,3.02-3.23,6.04-4.74,9.11-2.24,4.54-3.59,9.4-5.46,14.07-.53,1.31-1.64,1.79-2.78,1.76-5.28-.11-10.34-1.15-14.85-4.08-2.67-1.73-3.33-3.45-1.97-6.09,4.95-9.62,9.68-19.36,15.48-28.51,2.1-3.31,4.5-6.42,6.43-9.83,2.07-3.71,1.32-7.1-.88-10.36-.82-1.2-2.08-1.58-3.53-1.26-3.12.71-5.33,2.53-6.9,5.31-3,5.31-6.56,10.27-9.8,15.45-3.37,5.37-6.87,10.67-10.33,16-1.62,2.5-3.27,4.97-4.88,7.47-.78,1.21-1.8,1.58-3.09.99-1.93-.89-3.86-1.79-5.76-2.73-.98-.49-1.63-1.31-1.76-2.45-.17-1.67-.14-3.35-.01-5.01.11-3.78.29-7.54,1.44-11.2.97-3.07,2.66-5.74,4.16-8.53,1.06-1.97,2.15-3.91,3.22-5.88.02-.04.04-.07.06-.11,3.48-6.26,7-12.5,10.43-18.81,2.59-4.77,5.89-9.07,8.94-13.54,4.91-7.2,9.21-14.75,13.04-22.57,2.64-5.42,6.08-10.34,9.68-15.15,5.57-7.45,10.95-15.02,15.92-22.87,3.78-5.97,7.4-12.04,11.14-18.04,1.83-2.95,3.77-5.83,5.68-8.72.78-1.19,1.58-1.19,2.44,0,2.11,2.93,4.21,5.87,6.98,8.24,5.04,4.32,9.71,9.17,15.93,11.89,6.1,2.67,12.09,5.72,18.59,7.39,2.63.68,5.36,1.04,8.06,1.4,4.45.59,8.84,1.45,13.26,2.22,5.06.89,10.15.48,15.11-1.23,3.01-1.04,6.19-1.57,9.2-2.62,4.33-1.5,8.15-4.03,11.93-6.56,5.07-3.37,10.09-6.8,14.34-11.25,1.69-1.76,2.95-1.38,4.34.71,3.31,4.96,6.48,10.04,9.56,15.16,3.81,6.32,6.88,13.03,9.45,19.95,1.88,5.06,3.49,10.21,5.03,15.39,1.27,4.29,2.02,8.66,2.51,13.11.56,5,.98,10.01,1.52,15.01.42,3.89.28,7.8-.15,11.72"/><path class="cls-2" d="m281.75,197.72c-1.45,4.95-3.99,9.43-6.28,14-1.55,3.09-2.99,6.22-5.04,9.05-2.38,3.29-5.19,6.1-8.4,8.5-3.91,2.9-8.11,5.41-12.47,7.58-4.02,1.99-8.29,3.11-12.75,3.66-1.67.2-3.36.04-5.03.44-1.2.3-2.36-.5-3.59-.6-1.21-.1-2.41-.47-3.62-.44-6.77.1-13.13-1.4-19.33-4.1-7.11-3.08-13.81-6.82-19.95-11.53-3.6-2.75-6.8-5.91-9.27-9.77-3.33-5.19-7.35-9.97-10-15.6-1.62-3.45-2.35-7.18-2.92-10.95-.22-1.39-.06-2.81-.46-4.17.07-3.87.06-7.75,0-11.63.35-2.82.5-5.66.99-8.47.76-4.23,1.94-8.32,3.56-12.29,2.21-5.45,5.41-10.38,8.29-15.46,1.67-2.95,3.31-5.91,5.58-8.48,1.58-1.79,3.24-3.5,5.07-5.03,2.47-2.05,4.94-4.09,7.4-6.14,3.61-3.01,8.07-3.97,12.41-5.2,4.08-1.18,8.22-2.18,12.43-2.72,9.46-1.24,18.63-.94,27.18,4.38,7.86,4.87,15.57,9.8,21.83,16.72,3.3,3.65,5.79,7.82,8.29,12.01.73,1.22,1.44,2.46,2.17,3.68,2.23,3.72,1.57,6.54-.91,10.1-1.95,2.82-4.89,4.44-7.57,6.36-4.24,3.07-8.67,5.9-12.82,9.1-3.3,2.55-5.35,6.08-6.32,10.18-.62,2.69.86,6.36,3.01,8.11,3.01,2.45,6.5,3.5,10.24,3.96,4.41.54,8.85.61,13.3.56,1.15,0,2.28.1,3.41.29,1.64.26,2.2,1.8,1.57,3.92"/><path class="cls-10" d="m320.62,179.5c-1.97.98-4.08,1.43-6.25,1.56-1.67.16-3.33.14-4.99,0-4.75-.02-9.44.59-14.1,1.38-3.08.53-6.19.79-9.33.77-4.88-.04-9.76.07-14.64-.29-1.56-.11-3.09-.44-4.58-.92-1.44-.46-1.69-1.39-.8-2.66.97-1.39,2.4-2.29,3.68-3.33,5.36-4.34,10.81-8.6,16.02-13.13,2.11-1.85,4.32-2.22,7.14-1.46,10.35,2.76,19.42,8.02,28.17,13.97,2.22,1.51,2.12,2.91-.31,4.12"/><path class="cls-5" d="m335.15,176.99c-2.23-3.53-4.87-6.71-8.06-9.42-5.78-4.92-12.12-8.97-18.94-12.32-3.46-1.69-6.92-3.49-10.76-4.21-3.78-.7-5.78-2.97-6.78-6.55-6.09-21.82-20.91-35.42-41.4-43.4-7.98-3.11-16.47-3.9-24.96-4.13-4.92-.13-9.86-.41-14.75.48-4.7.85-9.09,2.66-13.57,4.17-11.98,4.04-21.67,11.11-28.69,21.71-2.94,4.45-5.58,9.09-8.2,13.72-1.98,3.48-4.02,6.95-5.78,10.54-3.23,6.6-4.5,13.73-4.77,20.98-.32,8.59-.32,17.19.77,25.75.57,4.61,1.59,9.1,3.38,13.37.98,2.36.75,4.4-.68,6.45-1.79,2.53-3.51,5.1-5.25,7.66-4.21,6.24-8.29,12.56-12.65,18.69-5.3,7.44-10.18,15.14-14.97,22.9-2.11,3.41-4.21,6.84-6.5,10.13-1.7,2.48-3.73,4.73-5.47,7.2-2.45,3.48-4.43,7.26-6.62,10.89-3.96,6.53-7.6,13.23-11.35,19.87-1.13,1.99-2.24,3.98-3.56,5.86-3.13,4.48-6.33,8.95-7.98,14.28-4.56,9.89-9.37,19.67-13.68,29.67-.19.42-.29.88-.37,1.33-.36,1.8-.71,3.61-1.05,5.42-.46,2.35-1,4.7-.54,7.11.62,3.27,2.63,5.61,5.19,7.56,5.42,4.11,11.61,6.93,17.52,10.21,3.3,1.82,6.68,3.5,9.98,5.34,4.19,2.3,8.4,4.63,13,5.88,8.08,2.19,16.25,4.07,24.48,5.66,5.73,1.12,11.51,1.89,17.33,2.12,5.54.22,11.12.41,16.67-.25,3.74-.32,7.33-1.25,10.72-2.83,2.45-1.15,4.46-.22,5.01,2.47.4,1.94.42,3.93.2,5.89-.37,3.42.06,6.86-.43,10.27,0,.69.02,1.39,0,2.07-.21,4.87-.41,9.74-.64,14.61-.15,3.06.95,5.58,3.15,7.65,2.34,2.21,4.99,3.91,8.07,4.89,8.29,2.64,16.62,5.07,25.25,6.37,3.61.54,7.23.84,10.76-.58,5.51-2.22,6.2-6.28,1.72-10.18-.83-.72-1.72-1.42-2.66-1.95-8.64-4.88-17.85-8.44-27.13-11.82-1.86-.96-3.18-2.35-3.2-4.51-.02-1.44.35-2.88.49-4.31.4-3.72.73-7.42.88-11.18.11-3.02.12-6.05.11-9.07-.45-1.15-.22-2.35-.19-3.53.05-2.32-.28-4.64.18-6.96.05-1.43-.01-2.87.17-4.27.46-3.53,1.5-5.26,5.73-3.84,1.46.49,2.94.98,4.41,1.46,7.2,2.33,14.72,2.95,22.13,4.1,2.57.41,4.99,1.91,5.48,4.05.68,3.07,1.16,6.17,1.16,9.34.01,7.18-.25,14.37-.01,21.56.03.91.19,1.8.5,2.65,2.43,6.73,7.09,11.24,13.8,13.61,3.79,1.33,7.69,2.15,11.69,2.56,4.5.46,8.92.54,13.22-1.18,3.39-1.36,4.69-4.71,3.41-7.8-1.45-3.47-4.52-5.01-7.63-6.3-4.63-1.92-9.47-3.26-14.25-4.8-2.3-.73-3.89-2.28-4.09-4.8-.14-1.87-.4-3.73-.36-5.62.07-2.76-.02-5.52.01-8.29.01-.65-.45-1.31-.02-1.95-.38-.94-.2-1.91-.17-2.87-.02-1.98-.01-3.97-.08-5.95-.16-3.65,2.12-5.81,5.43-6.38,3.33-.58,6.68-1.09,10.01-1.69,6.88-1.24,13.37-3.47,19.27-7.36,5.85-3.87,11.01-8.55,16.35-13.05,4.69-3.93,8.09-8.72,10.76-14.12,4.16-8.41,5.67-17.46,6.31-26.72.22-3.04.34-6.1.82-9.1.7-4.31.77-8.64.94-12.96.11-2.95-.23-5.92-.44-8.88-.28-3.63-.78-7.24-1.32-10.84-.77-5-1.9-9.91-3.5-14.69-2.39-7.05-5.24-13.91-7.92-20.86-1.82-4.71-3.84-9.34-6.43-13.68-3.83-6.42-8.5-12.25-12.91-18.27-2.03-2.78-3.27-5.61-1.94-9.06,2.14-5.53,4.23-11.06,6.39-16.58.98-2.49,2.89-3.74,5.55-3.81,4.88-.12,9.74-.44,14.57-1.13,5.58-.78,11.02-2.17,16.28-4.16,4.82-1.82,6.15-6.02,3.39-10.36m-172.5-4.85c.35-2.82.5-5.66.99-8.47.76-4.23,1.94-8.32,3.56-12.29,2.21-5.45,5.41-10.37,8.29-15.46,1.67-2.95,3.31-5.91,5.58-8.48,1.58-1.79,3.24-3.5,5.07-5.03,2.47-2.05,4.94-4.09,7.4-6.14,3.61-3.01,8.07-3.97,12.41-5.2,4.08-1.18,8.22-2.18,12.43-2.72,9.46-1.24,18.63-.94,27.18,4.38,7.85,4.87,15.57,9.8,21.83,16.72,3.3,3.65,5.79,7.82,8.29,12.01.73,1.22,1.44,2.46,2.17,3.68,2.23,3.72,1.57,6.54-.91,10.1-1.95,2.82-4.89,4.44-7.57,6.36-4.24,3.07-8.67,5.9-12.82,9.1-3.3,2.55-5.35,6.08-6.32,10.18-.62,2.69.86,6.36,3.01,8.11,3.01,2.45,6.5,3.5,10.24,3.96,4.41.54,8.85.61,13.3.56,1.15,0,2.28.1,3.41.29,1.64.26,2.2,1.8,1.57,3.92-1.45,4.95-3.99,9.43-6.28,14-1.55,3.09-2.99,6.22-5.04,9.06-2.38,3.29-5.19,6.1-8.4,8.5-3.91,2.9-8.11,5.41-12.47,7.58-4.02,1.99-8.29,3.11-12.75,3.66-1.67.2-3.36.03-5.02.44-1.2.3-2.36-.5-3.59-.6-1.21-.1-2.41-.47-3.62-.44-6.77.1-13.13-1.4-19.33-4.1-7.11-3.08-13.81-6.82-19.94-11.53-3.6-2.75-6.8-5.91-9.27-9.78-3.33-5.19-7.35-9.97-10-15.6-1.62-3.45-2.35-7.18-2.92-10.95-.22-1.39-.06-2.81-.46-4.17v-11.63Zm128.95,74.95c3.81,6.32,6.88,13.03,9.45,19.95,1.88,5.06,3.49,10.21,5.03,15.39,1.27,4.29,2.02,8.66,2.51,13.11.56,5,.98,10.01,1.52,15.02.42,3.89.28,7.8-.14,11.72-.24,2.16-.36,4.34-.58,6.51-.31,3.01-.76,6-1.39,8.95-1.04,4.87-2.41,9.65-4.45,14.21-1.39,3.12-2.97,6.16-5.15,8.82-1.23,1.5-2.83,2.73-4.28,4.05-2.09,1.92-4.26,3.77-6.61,5.39-3.47,2.38-7.44,3.72-11.19,5.52-3.02,1.44-6.12,2.77-9.44,3.41-3.18.6-6.34,1.27-9.53,1.82-3.56.62-7.14,1.15-10.7,1.68-3.86.58-7.75.73-11.64.55-9.49-.44-18.72-2.13-27.54-5.78-1.7-.71-3.48-1.27-5.09-2.15-3.68-2-4.17-3.75-2.71-7.53,3.65-9.39,7.41-18.73,11.13-28.1.47-1.21.89-2.45,1.33-3.66-.05-.15-.07-.29-.07-.42-.04-.5.18-.98.35-1.45,1.11-3.21,2.24-6.42,3.13-9.72.5-1.86,1.01-3.73,1.01-5.68,0-.89-.18-1.74-.95-2.34-1.15-.91-2.51-.67-3.59.7-2.05,2.6-3.78,5.45-5.66,8.16-.67.97-1.08,2.18-2.17,2.81-.07.05-.16.1-.24.13-2.04,2.9-3.74,6.01-5.46,9.1-3.49,6.25-6.42,12.77-9.01,19.44-2.12,5.51-3.79,11.18-5.47,16.85-1.98,6.7-4.89,13.05-9.1,18.71-2.66,3.57-6.4,5.22-10.67,5.9-1.85.3-3.71.25-5.54.48-1.76.02-3.51.05-5.27.07h-.03c-.36-.02-.73-.05-1.09-.06-3.62-.29-7.24-.46-10.78-1.33-1.62-.4-2.03-1.09-1.52-2.6,2.35-7.05,3.53-14.42,5.77-21.48,1.88-5.95,4.19-11.75,6.55-17.54.97-2.37,1.85-4.8,2.37-7.34.89-4.26-2.89-8.62-7.14-7.99-2.42.36-4.05,2.01-4.93,4.22-1.74,4.44-3.29,8.95-5,13.38-1.26,3.26-3.02,6.29-4.67,9.36-1.61,3.02-3.23,6.04-4.74,9.12-2.24,4.55-3.59,9.4-5.46,14.07-.53,1.31-1.64,1.79-2.78,1.76-5.28-.11-10.34-1.15-14.85-4.08-2.68-1.73-3.33-3.45-1.97-6.09,4.95-9.62,9.68-19.36,15.48-28.51,2.1-3.31,4.5-6.42,6.43-9.83,2.07-3.71,1.32-7.1-.88-10.36-.82-1.2-2.08-1.58-3.53-1.26-3.12.71-5.33,2.53-6.9,5.31-3,5.31-6.56,10.27-9.8,15.45-3.37,5.37-6.87,10.68-10.33,16-1.62,2.49-3.27,4.97-4.88,7.47-.78,1.21-1.8,1.58-3.09.99-1.93-.89-3.86-1.79-5.76-2.73-.98-.49-1.63-1.31-1.76-2.45-.4-1.67-.25-3.35-.01-5.01.11-3.78.29-7.54,1.44-11.2.97-3.07,2.66-5.75,4.16-8.53,1.06-1.97,2.15-3.91,3.22-5.88.02-.04.04-.07.06-.11,3.48-6.26,7-12.5,10.43-18.81,2.59-4.77,5.89-9.07,8.94-13.54,4.91-7.2,9.21-14.75,13.04-22.57,2.64-5.42,6.08-10.34,9.68-15.15,5.57-7.45,10.95-15.02,15.92-22.87,3.78-5.97,7.4-12.04,11.14-18.04,1.84-2.95,3.77-5.83,5.69-8.72.78-1.19,1.58-1.19,2.44,0,2.11,2.93,4.21,5.87,6.98,8.24,5.04,4.32,9.71,9.17,15.93,11.89,6.1,2.67,12.09,5.72,18.59,7.39,2.63.68,5.36,1.04,8.06,1.4,4.45.59,8.84,1.45,13.26,2.22,5.06.89,10.15.48,15.11-1.23,3.01-1.04,6.19-1.57,9.2-2.61,4.33-1.5,8.14-4.03,11.93-6.56,5.08-3.37,10.09-6.8,14.34-11.25,1.69-1.76,2.95-1.38,4.34.71,3.31,4.96,6.48,10.04,9.56,15.16m29.02-67.6c-1.97.98-4.08,1.43-6.25,1.56-1.67.37-3.33.36-4.99,0-4.75-.02-9.44.59-14.1,1.38-3.08.53-6.19.79-9.33.77-4.88-.04-9.76.07-14.64-.29-1.56-.11-3.09-.44-4.58-.92-1.44-.46-1.69-1.39-.8-2.66.97-1.39,2.4-2.29,3.68-3.33,5.36-4.34,10.81-8.6,16.02-13.13,2.11-1.85,4.32-2.22,7.14-1.46,10.35,2.76,19.42,8.02,28.17,13.97,2.22,1.51,2.12,2.91-.31,4.12"/><path class="cls-1" d="m217.03,319.63c-.88,5.6-2.77,10.91-4.83,16.15-.02.06-.05.11-.07.17-.05-.14-.07-.29-.07-.42-.04-.5.18-.98.35-1.45,1.11-3.21,2.24-6.42,3.13-9.72.5-1.86,1.01-3.73,1.01-5.68,0-.89-.18-1.74-.95-2.34-1.15-.91-2.51-.67-3.59.7-2.05,2.6-3.78,5.45-5.66,8.16-.67.97-1.08,2.18-2.17,2.81-.07.05-.16.1-.24.13.04-.05.06-.11.1-.15,2.29-3.75,4.73-7.41,7.38-10.92,1.44-1.89,2.41-2.23,4.05-1.44,1.38.66,1.92,1.79,1.57,4.01"/><path class="cls-6" d="m162.83,182.46c0,.44.16.92-.19,1.32v-11.63c.43.64.18,1.34.18,2.02.02,2.77.02,5.53.01,8.3"/><path class="cls-6" d="m158.68,398.62c-1.76.02-3.51.05-5.27.07h-.02c-.36-.02-.73-.05-1.09-.06.31-.05.62-.08.95-.12.1-.01.2-.02.31-.02h.01c1.7-.16,3.41-.12,5.11.13"/><path class="cls-8" d="m314.37,181.06c-1.67.37-3.33.36-4.99,0h4.99Z"/><path class="cls-9" d="m78.16,372.18c-.4-1.67-.25-3.35-.01-5.01,0,1.67.01,3.33.01,5.01"/><path class="cls-5" d="m250.27,156.19c.12,3.94-1.87,6.82-4.74,9.21-6.09,5.07-15.71,4.3-20.14-1.66-3.18-4.29-3.24-9.01-1.26-13.74,1.91-4.55,5.63-6.92,10.46-7.45,8.62-.94,15.59,5.16,15.67,13.64"/></g></svg>