<?xml version="1.0" standalone="no"?>
<!DOCTYPE svg PUBLIC "-//W3C//DTD SVG 20010904//EN"
 "http://www.w3.org/TR/2001/REC-SVG-20010904/DTD/svg10.dtd">
<svg version="1.0" xmlns="http://www.w3.org/2000/svg"
 width="1150.000000pt" height="1150.000000pt" viewBox="0 0 1150.000000 1150.000000"
 preserveAspectRatio="xMidYMid meet">
<metadata>
Created by potrace 1.14, written by Peter Selinger 2001-2017
</metadata>
<g transform="translate(0.000000,1150.000000) scale(0.100000,-0.100000)"
fill="#000000" stroke="none">
<path d="M5409 11474 c-208 -19 -518 -85 -724 -155 -158 -54 -475 -221 -690
-364 -109 -73 -450 -321 -575 -418 -89 -69 -306 -283 -394 -387 -203 -241
-509 -701 -643 -965 -145 -286 -349 -740 -393 -875 -21 -63 -68 -248 -103
-410 -72 -325 -76 -343 -113 -580 -14 -91 -43 -259 -64 -375 -66 -352 -85
-558 -100 -1100 -8 -262 -8 -420 -1 -510 6 -71 15 -231 21 -355 10 -217 33
-476 65 -740 9 -69 20 -163 26 -210 25 -209 234 -922 370 -1257 117 -290 335
-708 450 -863 39 -52 86 -122 105 -154 77 -129 364 -478 529 -641 184 -183
294 -272 555 -447 518 -348 914 -529 1358 -623 104 -22 393 -45 557 -45 262 0
452 17 668 59 111 22 243 47 292 56 155 28 292 64 515 137 307 101 496 197
725 367 94 70 200 148 237 174 104 73 258 218 455 428 249 266 333 373 538
685 195 296 235 368 305 554 27 69 66 163 89 210 38 81 61 146 215 630 110
346 119 394 156 775 11 116 30 284 41 375 20 150 21 196 16 500 -11 606 -27
1102 -43 1290 -8 102 -19 248 -24 325 -5 77 -14 165 -19 195 -6 30 -18 129
-26 220 -17 179 -48 404 -70 509 -18 87 -176 646 -222 786 -55 171 -218 575
-293 730 -77 158 -227 437 -303 565 -158 265 -489 725 -648 899 -220 242 -488
439 -809 594 -559 270 -952 378 -1503 412 -271 17 -332 17 -528 -1z m606 -314
c211 -19 353 -48 625 -130 52 -15 161 -47 242 -69 210 -59 324 -102 478 -182
374 -195 637 -439 950 -879 111 -156 415 -681 641 -1105 108 -204 224 -529
324 -905 31 -118 69 -258 85 -310 64 -219 136 -655 160 -970 11 -143 26 -311
56 -605 25 -248 16 -1343 -12 -1480 -22 -105 -31 -161 -60 -385 -50 -389 -137
-780 -244 -1101 -90 -267 -120 -343 -177 -444 -31 -55 -121 -219 -201 -365
-79 -146 -163 -294 -187 -330 -47 -74 -299 -364 -420 -485 -44 -44 -175 -169
-290 -279 -184 -174 -231 -212 -381 -312 -334 -222 -736 -378 -1194 -465 -117
-22 -456 -49 -625 -49 -211 0 -632 47 -780 87 -33 9 -195 76 -360 148 -165 73
-345 152 -400 175 -55 23 -120 54 -145 68 -121 69 -560 383 -560 400 0 5 -49
60 -108 124 -297 317 -484 560 -599 777 -37 69 -96 176 -132 236 -119 201
-361 722 -441 950 -123 345 -191 615 -225 880 -14 110 -34 270 -45 355 -71
555 -83 722 -75 1030 17 692 44 983 180 1900 46 308 178 728 374 1189 199 466
344 742 506 962 69 94 277 326 384 428 80 77 441 396 525 464 308 251 795 502
1121 577 72 16 153 36 180 44 125 36 480 77 620 71 50 -2 144 -9 210 -15z"/>
<path d="M5845 9549 c-157 -15 -452 -125 -601 -224 -174 -116 -262 -223 -450
-550 -122 -213 -166 -306 -195 -420 -23 -85 -24 -107 -24 -400 0 -337 11 -439
61 -574 13 -35 24 -80 24 -101 0 -41 3 -37 -341 -540 -103 -151 -246 -369
-319 -485 -72 -115 -165 -254 -206 -308 -76 -101 -162 -241 -349 -572 -59
-104 -134 -229 -167 -277 -32 -47 -76 -124 -97 -170 -313 -674 -306 -658 -326
-764 -39 -208 -14 -264 165 -379 123 -79 621 -338 703 -366 103 -35 388 -100
584 -134 107 -19 201 -28 338 -32 219 -6 341 5 445 43 39 14 83 24 98 22 57
-6 61 -58 41 -491 -14 -286 -11 -306 54 -368 61 -60 109 -84 252 -128 430
-132 621 -141 705 -34 75 96 -77 212 -480 368 -184 71 -189 74 -207 108 -12
25 -13 42 -2 116 6 47 14 235 18 417 8 423 -4 403 204 340 61 -18 193 -46 292
-61 225 -34 246 -44 267 -122 6 -21 13 -175 17 -343 l6 -305 30 -59 c85 -169
284 -265 555 -269 136 -2 191 12 237 58 45 45 46 104 3 163 -36 50 -107 86
-295 146 -75 25 -147 52 -160 60 -36 24 -42 68 -49 339 -7 268 -2 299 46 331
12 8 88 26 167 40 326 58 429 108 708 343 62 52 140 125 175 162 149 161 239
409 262 721 4 47 14 153 23 235 27 250 3 563 -61 808 -37 139 -202 569 -271
708 -49 95 -91 160 -217 332 -111 151 -138 197 -138 241 0 32 134 383 158 416
28 38 60 50 132 50 244 0 586 81 646 153 60 71 8 187 -148 331 -144 134 -408
288 -586 342 -107 33 -134 59 -164 158 -101 337 -321 597 -647 765 -200 103
-354 146 -555 156 -216 11 -284 12 -361 4z m490 -239 c94 -24 145 -50 307
-159 230 -154 323 -247 446 -446 105 -170 115 -216 63 -296 -38 -60 -60 -78
-249 -209 -192 -133 -235 -173 -270 -248 -68 -146 -3 -261 173 -307 34 -9 124
-18 210 -21 83 -3 165 -7 182 -10 69 -10 54 -71 -78 -334 -100 -200 -151 -268
-266 -360 -192 -153 -392 -235 -583 -240 -86 -3 -339 25 -415 45 -208 55 -516
234 -651 377 -64 68 -237 321 -275 401 -113 244 -102 693 26 983 41 93 194
358 250 432 62 83 259 252 340 291 77 38 343 107 461 120 113 12 235 5 329
-19z m1193 -1076 c181 -61 504 -245 510 -291 5 -34 -90 -65 -198 -65 -79 0
-208 -11 -425 -38 -99 -13 -356 -6 -442 11 -64 13 -68 31 -20 76 36 34 333
276 380 311 42 30 99 29 195 -4z m-2607 -1226 c47 -65 203 -211 306 -284 69
-50 283 -150 416 -195 49 -16 135 -36 190 -44 56 -8 157 -25 225 -36 176 -31
276 -24 460 29 78 23 165 53 192 67 89 45 313 202 393 275 43 38 83 70 90 70
21 0 49 -36 149 -195 166 -264 236 -409 321 -670 85 -257 101 -342 132 -670
14 -154 14 -187 0 -343 -24 -279 -69 -456 -158 -626 -92 -175 -302 -331 -597
-443 -69 -26 -285 -70 -489 -98 -268 -38 -577 5 -834 115 -98 42 -137 75 -137
117 0 14 48 145 106 292 258 650 292 771 223 810 -24 13 -29 13 -52 -2 -23
-15 -195 -265 -260 -378 -111 -194 -206 -419 -292 -694 -87 -277 -181 -456
-272 -517 -79 -54 -131 -63 -333 -62 -121 1 -204 7 -240 16 -52 13 -55 16 -54
43 1 42 96 400 137 520 19 55 61 165 92 245 83 209 79 275 -19 324 -32 16 -44
17 -75 7 -20 -6 -47 -21 -59 -34 -12 -12 -50 -99 -86 -193 -38 -103 -100 -238
-154 -340 -50 -93 -112 -227 -138 -299 -26 -71 -54 -138 -63 -149 -14 -16 -26
-18 -91 -13 -93 7 -159 27 -230 69 -89 54 -89 61 7 251 112 221 189 357 293
517 48 74 93 152 99 173 18 53 -2 129 -44 171 -44 43 -151 -6 -201 -92 -84
-144 -511 -793 -526 -798 -24 -7 -164 59 -177 84 -23 44 -5 274 28 363 40 105
368 681 506 889 79 118 178 280 221 360 42 80 92 172 110 206 18 33 93 143
167 245 166 229 263 372 409 609 184 299 232 370 249 370 8 0 35 -28 60 -62z"/>
<path d="M6226 8624 c-93 -34 -154 -118 -163 -226 -8 -87 11 -143 71 -204 62
-61 115 -79 214 -72 236 17 339 262 181 433 -70 76 -202 106 -303 69z"/>
</g>
</svg>
