<?xml version="1.0" encoding="utf-8"?>
<!-- Generator: Adobe Illustrator 28.0.0, SVG Export Plug-In . SVG Version: 6.00 Build 0)  -->
<svg version="1.1" id="Layer_1" xmlns="http://www.w3.org/2000/svg" xmlns:xlink="http://www.w3.org/1999/xlink" x="0px" y="0px"
	 viewBox="0 0 115.4 127.9" style="enable-background:new 0 0 115.4 127.9;" xml:space="preserve">
<path d="M56.5,1.4c-3.2,23.5-2.2,17.8-2.8,25.7c-1.5,28.8-2.7,56.1-4,85c-0.2,3.7,4.1,6.5,5.9,3.8l20.2-29.9l-5.6-4.8
	c-3.4,15.1-9.1,28.4-17.3,39.4c1.7,0.5,3.4,0.9,5.1,1.4C52,107.8,45.6,93.8,38.7,80c-2.5-5-8.4-1.3-5.8,3.8
	c7,13.7,13.5,27.7,19.6,41.9c1,2.4,3.8,3.2,5.1,1.4c9.2-12.8,15.6-27.4,19-42.8c0.9-3.8-3.6-7.8-5.6-4.8
	c-6.8,9.9-13.6,19.8-20.4,29.7c2,1.3,3.9,2.5,5.9,3.8c0.8-26.6,1.6-53.2,2.6-79.7c0.7-11.9,0.6-7.9,2.6-31.2
	C62.7-0.5,57.6-2.9,56.5,1.4z"/>
</svg>
