<?xml version="1.0" encoding="utf-8"?>
<!-- Generator: Adobe Illustrator 28.0.0, SVG Export Plug-In . SVG Version: 6.00 Build 0)  -->
<svg version="1.1" id="Layer_1" xmlns="http://www.w3.org/2000/svg" xmlns:xlink="http://www.w3.org/1999/xlink" x="0px" y="0px"
	 viewBox="0 0 122.9 120.9" style="enable-background:new 0 0 122.9 120.9;" xml:space="preserve">
<style type="text/css">
	.st0{fill:#111111;}
	.st1{fill:#F9F9F8;}
	.st2{fill:#F27D21;}
</style>
<g>
	<path class="st0" d="M76.4,14.8c1.2-1.1,2.3-2.1,3.4-3.2c0.7-0.7,1.4-1.3,2.1-2c1.1-1.1,2.3-2.2,3.4-3.3c1.6-1.7,3.3-3.3,5.2-4.7
		c1.3-1,2.8-1.6,4.4-1.6c0.5,0,0.9,0.1,1.4,0.3c0.8,0.4,1.6,0.9,2.4,1.5c0.5,0.4,1.1,0.8,1.6,1.2c1.5,1.1,2.8,2.3,4,3.7
		c1.4,1.5,2.8,3.1,4.2,4.7c1.2,1.4,2.4,2.8,3.6,4.2c1.4,1.5,2.8,3.1,4.2,4.6c1.4,1.5,2.6,3.1,3.9,4.7c0.8,0.9,1.5,1.9,2,2.9
		c0.6,1,0.8,2.1,0.7,3.3c-0.1,0.7-0.4,1.3-0.8,1.8c-0.5,0.7-1,1.4-1.5,2.1c-0.6,0.8-1.3,1.5-2.1,2.1c-1.5,1.1-2.7,2.5-4.3,3.5
		c-2.2,1.6-4.6,3.1-7,4.5c-2.3,1.3-4.6,2.6-7,3.8c-1.1,0.6-2.3,1.2-3.4,1.8c-1.1,0.5-2.1,1.2-3,1.8c-0.1,0.1-0.2,0.1-0.3,0.2
		c-1.6,1-3.1,2.1-4.5,3.3c-0.9,0.7-1.8,1.4-2.8,2.1c-0.3,0.1-0.4,0.4-0.3,0.7c0,0,0,0,0,0c0.8,2.1,1.3,4.3,1.5,6.5
		c0.4,2.8,0.4,5.7,0.1,8.5c-0.2,1.6-0.3,3.3-0.5,4.9c-0.1,1.9-0.5,3.9-1.1,5.7c-0.3,0.9-0.7,1.7-1.1,2.5c-0.4,0.7-0.8,1.4-1.3,2
		c-0.6,0.8-1.3,1.5-2.1,2.1c-1.2,1-2.4,2-3.6,2.9c-1.2,1-2.6,1.8-4,2.5c-1.8,0.7-3.7,1.2-5.6,1.5c-0.8,0.1-1.6,0.2-2.4,0.4
		c-1,0.2-1.6,1.1-1.5,2c0,0.8,0,1.7,0,2.5c0,1.1,0,2.2,0,3.4c0,0.8,0,1.6,0.1,2.4c0.1,0.5,0.4,1,0.9,1.2c0.4,0.2,0.9,0.4,1.4,0.5
		c1.2,0.4,2.5,0.7,3.7,1.2c0.8,0.2,1.5,0.6,2.1,1.2c0.7,0.5,1,1.3,0.8,2.2c-0.2,0.6-0.6,1-1.1,1.3c-1.2,0.5-2.4,0.6-3.7,0.5
		c-1.4-0.1-2.8-0.3-4.1-0.7c-0.9-0.3-1.8-0.7-2.6-1.1c-1.3-0.9-2.2-2.1-2.8-3.5c-0.1-0.4-0.2-0.7-0.2-1.1c-0.1-2.2,0-4.5,0-6.7
		c0-0.9-0.1-1.9-0.3-2.8c-0.1-0.9-0.8-1.6-1.7-1.7c-0.7-0.2-1.5-0.3-2.3-0.3c-1.6-0.2-3.1-0.5-4.6-0.8c-0.2,0-0.5-0.1-0.7-0.2
		c-0.7-0.2-1.3-0.4-2-0.6c-0.5-0.2-1.1,0-1.3,0.5c0,0.1-0.1,0.2-0.1,0.3C46,98.1,46,98.4,46,98.7c0,1.9,0,3.8,0,5.7
		c0,1.8-0.1,3.5-0.4,5.3c-0.1,0.4-0.1,0.9-0.1,1.3c-0.1,0.8,0.3,1.6,1.1,1.8c1.2,0.5,2.4,0.9,3.6,1.3c0.7,0.3,1.4,0.6,2.1,0.9
		c0.9,0.4,1.7,0.8,2.6,1.2c0.9,0.4,1.6,0.9,2.3,1.6c0.9,1.1,0.5,1.8-0.4,2.4c-0.7,0.5-1.5,0.7-2.3,0.7c-1.4,0-2.9-0.2-4.3-0.5
		c-1.8-0.4-3.5-0.9-5.2-1.4c-1.4-0.3-2.7-1-3.8-2c-0.6-0.6-1-1.5-1-2.3c0-1.4,0.1-2.8,0.2-4.2c0.1-2.1,0.2-4.1,0.2-6.2
		c0-0.3-0.1-0.7-0.3-0.9c-0.3-0.5-0.9-0.7-1.4-0.4c-1.9,0.8-3.9,1.2-6,1.1c-1.8,0.1-3.7,0-5.5-0.2c-1.8-0.3-3.6-0.5-5.4-0.9
		c-1.4-0.3-2.7-0.6-4.1-0.9c-1.3-0.3-2.5-0.6-3.7-1c-0.2-0.1-0.4-0.1-0.6-0.2c-1.9-0.9-3.8-2-5.7-3c-0.7-0.4-1.4-0.7-2.1-1.1
		c-0.5-0.3-1-0.5-1.6-0.8c-1-0.5-1.9-1.1-2.7-1.8c-1.1-0.8-1.6-2.2-1.4-3.5c0.1-0.8,0.3-1.6,0.4-2.4c0.2-0.8,0.5-1.5,0.8-2.2
		c0.5-1.1,1-2.2,1.5-3.3s1-2.2,1.6-3.3c0.5-1,0.9-2,1.3-3c0.2-0.3,0.3-0.7,0.5-1c0.8-1.3,1.8-2.5,2.5-3.8c0.8-1.4,1.6-2.8,2.4-4.2
		c0.7-1.1,1.4-2.3,2.1-3.4c0.4-0.6,0.7-1.2,1.1-1.8c0.4-0.6,0.8-1.2,1.2-1.8c0.6-0.8,1.3-1.6,1.9-2.5c0.9-1.3,1.7-2.7,2.6-4.1
		c0.7-1,1.3-2.1,2-3.1c0.7-1,1.3-1.9,2.1-2.9c0.9-1.3,1.8-2.6,2.7-3.9c0.6-0.9,1.2-1.8,1.8-2.7c0.6-0.7,1.1-1.5,1.6-2.2
		c0.4-0.5,0.5-1.3,0.3-1.9c-0.2-0.4-0.3-0.8-0.4-1.2c-0.4-1.2-0.7-2.5-0.8-3.8c-0.4-2.8-0.4-5.7-0.2-8.5c0.1-2.3,0.7-4.6,1.7-6.7
		c0.3-0.5,0.6-1.1,0.9-1.6c0.4-0.7,0.8-1.3,1.2-2c0.7-1.2,1.4-2.3,2.1-3.5c0.6-1,1.4-1.9,2.2-2.8c0.7-0.8,1.5-1.5,2.4-2.1
		c0.9-0.6,1.8-1.2,2.7-1.7c0.7-0.4,1.5-0.7,2.2-1c1-0.3,1.9-0.7,2.8-1c1.3-0.5,2.7-0.7,4.2-0.8c2.2,0,4.3,0,6.5,0.2
		c0.5,0,0.9,0.1,1.4,0.2c1.5,0.3,3,0.7,4.4,1.3c1.8,0.7,3.6,1.7,5.2,2.8c1,0.7,1.9,1.5,2.8,2.3c0.6,0.6,1.2,1.3,1.8,2
		c0.8,1,1.4,2.1,2,3.2C75.8,13.3,76.2,14.1,76.4,14.8"/>
	<path class="st1" d="M58.9,94.6c-1.5-0.1-3-0.2-4.4-0.4c-1.6-0.2-3.2-0.7-4.7-1.2c-0.6-0.2-1.2-0.5-1.9-0.7
		c-0.3-0.1-0.6-0.2-0.8-0.4c-1-0.7-1.1-1-0.8-2.1c0.2-0.5,0.4-1,0.6-1.5c0.9-2,1.6-4,2.5-6c0.4-1,0.9-2,1.2-3
		c0.5-1.2,0.9-2.5,1.3-3.7c0.2-0.7,0.4-1.4,0.4-2.1c0-0.5-0.2-0.7-0.5-0.9c-0.4-0.2-0.9-0.1-1.1,0.3c-0.7,0.8-1.3,1.6-1.8,2.5
		c-0.5,0.7-0.9,1.4-1.4,2.1c-0.4,0.6-0.8,1.2-1.1,1.9c-0.4,0.8-0.8,1.5-1.2,2.3c-0.6,1.2-1.1,2.4-1.7,3.6c-0.6,1.4-1.1,2.9-1.6,4.4
		c-0.3,1-0.6,2-0.9,3c-0.3,0.8-0.6,1.6-1,2.4c-0.5,1.1-1.2,2.2-2,3.1c-0.9,0.9-2.1,1.5-3.4,1.6c-1.3,0.1-2.7,0.2-4,0.1
		c-1.1,0-2.2-0.1-3.3-0.4c-0.7-0.2-0.8-0.3-0.6-1c0.5-1.7,0.9-3.3,1.3-5c0.3-1.2,0.7-2.4,1.1-3.5c0.3-0.8,0.6-1.6,0.9-2.4
		c0.2-0.6,0.5-1.1,0.7-1.7c0.3-0.7,0.5-1.5,0.8-2.2c0.4-1.2-0.4-2.5-1.6-2.9c0,0-0.1,0-0.1,0c-0.7-0.1-1.5,0.2-2,0.7
		c-0.4,0.6-0.6,1.2-0.8,1.9c-0.5,1.2-0.9,2.5-1.4,3.7c-0.6,1.3-1.3,2.5-2,3.8c-0.7,1.2-1.3,2.5-1.8,3.9c-0.3,0.8-0.6,1.5-0.9,2.3
		c-0.1,0.5-0.5,0.8-1,0.7c-0.7,0-1.4-0.1-2.1-0.2c-1-0.2-2-0.5-2.8-1.1c-0.1,0-0.1-0.1-0.2-0.1c-1-0.7-1-1.1-0.4-2.1
		c0.7-1.3,1.4-2.6,2.1-4c0.3-0.6,0.7-1.3,1-1.9c0.4-0.6,0.7-1.3,1.1-1.9c0.6-1.1,1.4-2.1,2.1-3.1c0.5-0.6,0.9-1.3,1.2-2
		c0.2-0.5,0.2-1,0.1-1.5c-0.1-0.5-0.4-1-0.7-1.4c-0.2-0.3-0.6-0.4-0.9-0.3c-0.8,0.1-1.5,0.5-2,1.1c-0.4,0.5-0.8,1.1-1.2,1.7
		c-0.7,1.2-1.5,2.3-2.3,3.4c-0.4,0.6-0.8,1.2-1.2,1.8c-0.6,0.9-1.2,1.8-1.8,2.7c-0.8,1.2-1.7,2.5-2.5,3.7c-0.4,0.5-0.6,0.6-1.2,0.3
		s-1.1-0.5-1.7-0.8c-0.4-0.2-0.7-0.5-0.7-1c0-0.3-0.1-0.5,0-0.8c0-1.4,0.2-2.9,0.5-4.2c0-0.2,0.1-0.4,0.2-0.5
		c0.8-1.7,1.8-3.3,2.7-4.9c0.6-1,1.1-2.1,1.7-3.1c1-1.6,1.8-3.3,2.9-4.8s2.2-3,3.2-4.6c1-1.6,1.9-3.3,2.8-5c0.5-1,1-1.9,1.7-2.8
		c0.9-1.3,1.9-2.6,2.9-3.9c1.2-1.6,2.4-3.2,3.5-4.9c1.2-1.8,2.4-3.6,3.5-5.5c0.6-0.9,1.2-1.8,1.8-2.8c0.3-0.4,0.6-0.8,0.8-1.2
		c0.1-0.1,0.1-0.2,0.2-0.3c0.2-0.3,0.4-0.3,0.7,0c0.2,0.2,0.4,0.5,0.6,0.7c0.3,0.4,0.7,0.8,1,1.2c0.3,0.3,0.6,0.6,0.9,0.9
		c0.8,0.7,1.5,1.3,2.3,2c1,0.8,2.1,1.5,3.2,1.9c0.8,0.3,1.6,0.6,2.4,1c1.7,0.8,3.5,1.3,5.3,1.6c2,0.3,4,0.6,6,0.9
		c0.9,0.1,1.9,0.1,2.9-0.1c0.6-0.1,1.2-0.3,1.8-0.5c1-0.3,2-0.5,3-0.8c0.8-0.3,1.6-0.6,2.3-1.1c0.4-0.2,0.8-0.5,1.2-0.7
		c0.9-0.6,1.8-1.2,2.7-1.8c0.9-0.6,1.7-1.3,2.5-2.1c0.1-0.1,0.3-0.2,0.4-0.3c0.4-0.3,0.6-0.3,0.9,0.1c0.6,0.8,1.2,1.6,1.7,2.4
		c0.4,0.5,0.7,1.1,1,1.6c0.8,1.3,1.6,2.5,2.2,3.9c0.3,0.7,0.7,1.3,0.9,2c0.4,0.9,0.8,1.8,1.1,2.8c0.3,0.9,0.6,1.8,0.9,2.8
		c0.5,1.5,0.9,2.9,1.1,4.4c0.2,1.2,0.3,2.4,0.4,3.6c0.1,0.8,0.2,1.7,0.3,2.5c0.2,1.4,0.1,2.7-0.1,4.1c-0.1,1.2-0.3,2.3-0.4,3.5
		c-0.1,0.4-0.1,0.9-0.2,1.3c-0.3,1.6-0.8,3.2-1.5,4.8c-0.6,1.6-1.7,3.1-3.1,4.2c-0.5,0.4-0.9,0.8-1.4,1.2c-0.8,0.7-1.8,1.2-2.7,1.6
		c-0.9,0.4-1.7,0.7-2.6,1.1c-1.4,0.6-2.8,1-4.3,1.2c-0.9,0.1-1.8,0.4-2.8,0.5C62.6,94.4,60.7,94.6,58.9,94.6"/>
	<path class="st1" d="M74.7,25.9c-0.1,1.4,0,2.7-0.1,4.1c-0.1,1.4-0.4,2.9-0.8,4.3c-0.1,0.5-0.4,0.9-0.5,1.3c-0.3,0.7-0.6,1.3-1,2
		c-0.8,1.9-1.9,3.6-3.3,5.2c-1.2,1.1-2.5,2-3.9,2.8c-0.5,0.3-1.1,0.6-1.6,0.9c-1.2,0.6-2.4,1-3.7,1.2c-0.9,0.1-1.7,0.1-2.6,0.3
		c-0.2,0-0.4,0-0.6-0.1c-0.6-0.2-1.2-0.3-1.8-0.3c-1.5,0-3-0.2-4.5-0.7c-1.1-0.4-2.2-0.8-3.2-1.2c-1.4-0.6-2.7-1.3-3.9-2.1
		c-1.3-0.8-2.4-1.7-3.5-2.8c-0.9-1-1.6-2.2-2.4-3.2c-0.4-0.5-0.8-1-1.1-1.6c-0.9-1.3-1.5-2.7-1.9-4.2c-0.4-2.3-0.5-4.7-0.3-7.1
		c0-1,0.2-2,0.4-3c0.1-0.4,0.2-0.8,0.3-1.2c0.3-0.9,0.6-1.8,1-2.7c0.8-1.5,1.7-3,2.5-4.5c0.5-0.9,1-1.8,1.7-2.6
		c0.5-0.6,1.1-1.2,1.7-1.7c0.8-0.6,1.6-1.3,2.4-1.9c0.9-0.8,2-1.3,3.2-1.7c1.1-0.3,2.1-0.6,3.2-0.8c1.2-0.3,2.5-0.4,3.7-0.5
		c1.4-0.1,2.7-0.1,4.1,0.2c1.2,0.2,2.4,0.6,3.5,1.3c1.4,0.8,2.8,1.7,4.2,2.7c1.2,0.9,2.4,1.9,3.4,3c1.2,1.4,2.2,3,3.2,4.6
		c0.6,0.9,1,2,1.2,3c0.4,1.4,0.8,2.8,1,4.2c0.1,0.7,0.1,1.4,0.1,2.1C74.7,25.6,74.6,25.8,74.7,25.9"/>
	<path class="st1" d="M83.9,53.1c-0.5-1.1-1-2.2-1.5-3.3c-0.5-1.2-1.2-2.3-1.9-3.3c-0.8-1.2-1.7-2.3-2.5-3.4
		c-0.6-0.7-1.1-1.5-1.6-2.2c-0.4-0.6-0.4-1.4-0.1-2.1c0.5-1,0.8-2,1.2-3c0.2-0.5,0.4-0.9,0.6-1.4c0.2-0.6,0.4-1.3,0.5-1.9
		c0.2-1.2,0.5-2.4,0.8-3.6c0.2-0.9,0.2-1.8,0.2-2.7c0-1.9-0.3-3.9-0.7-5.8c-0.1-0.3-0.1-0.6-0.2-1c-0.1-0.9-0.1-0.9,0.6-1.3
		c1.1-0.8,2.2-1.7,3.1-2.8c0.4-0.4,0.9-0.9,1.3-1.4c1.6-1.6,3.2-3.1,4.8-4.7c1.6-1.5,3.2-2.9,5-4.2c0.7-0.7,1.9-0.7,2.6,0.1
		c1.3,1.1,2.6,2.3,3.7,3.6c0.4,0.4,0.6,0.9,0.9,1.4c0.2,0.5,0.1,1.1-0.3,1.5c-0.5,0.5-1,1-1.6,1.5C97.6,14,96.2,15,95,16.1
		c-1,0.8-1.9,1.8-2.6,2.9c-0.1,0.2-0.3,0.4-0.4,0.6c-0.3,0.4-0.4,0.9-0.5,1.3c0,0.7,0.5,1.3,1.2,1.4c0.1,0,0.1,0,0.2,0
		c0.3,0,0.7-0.1,1-0.3c1.7-0.8,3.2-1.9,4.6-3.2c1.3-1.2,2.7-2.2,4.1-3.3c0.5-0.4,1.1-0.8,1.7-1.2c0.4-0.3,1.1-0.3,1.4,0.1
		c0.9,0.8,1.8,1.6,2.7,2.4c0.4,0.5,0.8,1,1,1.6c0.1,0.2,0.1,0.5-0.1,0.7c-0.3,0.5-0.7,1-1.1,1.4c-1,0.8-2,1.5-3.1,2.1
		c-1.2,0.6-2.4,1.4-3.4,2.4c-1.1,0.9-2.1,1.9-3,2.9c-0.5,0.6-0.8,1.5-0.8,2.3c0,0.5,0.2,0.7,0.7,0.8c0.8,0.3,1.7,0.1,2.3-0.4
		c0.9-0.6,1.8-1.2,2.7-1.8c0.1-0.1,0.2-0.2,0.3-0.2c1.7-0.9,3.2-2,4.8-3c0.6-0.4,1.2-0.7,1.8-1.1c0.5-0.3,1.1-0.5,1.7-0.7
		c0.6-0.2,1.4,0,1.7,0.7c0.7,1.2,1.5,2.5,2.3,3.7c0.4,0.7,0.8,1.4,1.1,2.2c0.4,0.7,0.2,1.5-0.3,2.1c-0.8,0.9-1.7,1.8-2.6,2.6
		c-1.2,1.1-2.6,1.9-4.1,2.6c-1.1,0.5-2.1,1.2-3.1,1.9c-1,0.7-2,1.3-3.1,1.9c-1.5,0.8-3,1.7-4.4,2.7c-0.3,0.2-0.6,0.4-0.9,0.5
		c-1.5,0.7-2.8,1.7-4.3,2.4c-0.7,0.3-1.3,0.7-1.9,1.1c-1.8,0.9-3.4,2.1-5.1,3c-1.1,0.6-2.1,1.2-3.1,1.8C84.2,53,84.1,53,83.9,53.1"
		/>
	<path class="st0" d="M59.3,36.7c-1.2-0.1-2.4,0.1-3.6,0.1c-0.8,0-1.6,0-2.4,0c-0.7,0-1.3,0-2-0.1c-1.8,0-3.5-0.2-5.3-0.4
		c-0.9-0.1-1.7-0.7-1.9-1.6c-0.1-0.6,0.1-1.2,0.4-1.6c0.9-1.3,1.9-2.6,3-3.7c0.7-0.9,1.5-1.7,2.3-2.4c1.2-1,2.7-1.7,4.2-2.1
		c0.5-0.1,1,0,1.5,0c1.2,0.1,2.3,0.4,3.3,1c1.6,0.8,3.1,1.8,4.5,3c1.2,1,2.2,2.3,2.9,3.8c0.3,0.7,0.4,1.5,0.2,2.3
		c-0.1,0.4-0.3,0.7-0.6,0.8c-0.9,0.4-1.8,0.6-2.7,0.7c-0.4,0-0.7,0.1-1.1,0.1C61.2,36.7,60.2,36.7,59.3,36.7"/>
	<path class="st0" d="M47.1,17c2-0.1,3.7,1.3,4,3.3c0.1,1,0,2.1-0.4,3c-0.1,0.2-0.2,0.5-0.3,0.7c0,0.1-0.1,0.2-0.2,0.3
		c-0.6,0.7-1.5,1.1-2.3,1.3c-1.1,0.1-2.2,0-3.2-0.4c-0.9-0.4-1.6-1.2-1.9-2.1c-0.7-1.6-0.4-3.5,0.8-4.9c0.3-0.4,0.7-0.7,1.2-0.8
		C45.4,17.1,46.3,17,47.1,17"/>
	<path class="st0" d="M67,21.2c0,0.9-0.2,1.8-0.7,2.5c-0.3,0.6-0.9,1-1.5,1.1c-1.2,0.3-2.4,0.3-3.6,0c-1.5-0.3-2.6-1.5-2.8-3
		c-0.1-0.7,0-1.4,0.1-2c0-0.1,0.1-0.3,0.1-0.4c0.4-1.8,2-3,3.9-2.9c1.7-0.1,3.2,0.8,3.9,2.3C66.8,19.5,67,20.4,67,21.2"/>
	<path class="st2" d="M60.1,33.4c-0.9,0-1.7,0-2.6,0c-0.8,0-1.6,0-2.5,0.1c-0.8,0-1.7,0-2.5-0.1c-0.8-0.1-1.7,0-2.5-0.1
		c-0.4,0-0.8,0-1.2,0c-0.5,0-0.6-0.2-0.4-0.6c0.3-0.5,0.7-0.9,1.1-1.3c1-1.1,2.2-2.1,3.5-2.9c0.9-0.6,2-0.7,3-0.5
		c1.6,0.4,3.1,1.2,4.2,2.3c0.7,0.6,1.4,1.3,2,2c0.2,0.2,0.3,0.4,0.4,0.6c0.2,0.3,0,0.5-0.3,0.5c-0.7,0-1.4,0-2,0
		C60.4,33.4,60.2,33.4,60.1,33.4"/>
</g>
</svg>
