<?xml version="1.0" encoding="UTF-8"?><svg id="Layer_2" xmlns="http://www.w3.org/2000/svg" viewBox="0 0 949.66 534.19"><defs><style>.cls-1{fill:#86835a;}.cls-1,.cls-2,.cls-3,.cls-4,.cls-5,.cls-6,.cls-7,.cls-8,.cls-9,.cls-10,.cls-11,.cls-12,.cls-13,.cls-14{stroke-width:0px;}.cls-2{fill:#305557;}.cls-3{fill:#5a7a49;}.cls-4{fill:#125860;}.cls-5{fill:#84cfca;}.cls-6{fill:#9dd6cd;}.cls-7{fill:#8b8755;}.cls-8{fill:#8d8755;}.cls-9{fill:#849157;}.cls-10{fill:#f18d8d;}.cls-11{fill:#fccc09;}.cls-12{fill:#ffcc02;}.cls-13{fill:#f27a21;}.cls-14{fill:#f6a19c;}</style></defs><g id="Layer_1-2"><rect class="cls-6" width="949.66" height="533.85"/><path class="cls-4" d="m198.15,0h77.91c10.42,1.83,20.72,4.03,31.03,6.2.95.2,1.92.37,2.93.28,3.39.52,5.93,2.36,8.73,3.73,20.91,10.26,41.95,20.34,63.48,29.76,12.85,5.62,25.64,11.34,38.53,16.9,20.97,9.04,42.3,9.4,63.64.95,12.2-4.83,21.19-12.43,27.71-21.91.85-1.24,1.37-2.7,3.23-3.32,4.32-.82,8.65-.45,12.84.36,7.31,1.41,14.77,1.66,22.18,2.33,4.48.41,9.12-.22,13.42.87,9.34,2.38,19.07,1.5,28.56,2.56.62.07,1.26.09,1.85.27,5.84,1.8,12,1.63,18.09,1.82,5.03.15,10.03.17,14.75,2.01,2.7,1.05,5.86.89,8.78.93,5.79.08,11.45.34,17.06,1.71,4.93,1.2,10.18.79,15.26,1.4.89.11,1.86.06,2.61.47,3.02,1.66,6.52,1.53,9.88,1.61,3.07.08,6.09.45,9.15.57.73.03,1.48.16,2.02.54,2.42,1.7,5.41,1.84,8.38,1.94,2.82.09,5.47.43,8.04,1.52,2.15.92,4.68,1.01,7.11,1.07,3.37.08,6.58.43,9.52,1.97,1.75.92,3.93.98,6,1.07,1.67.07,3.18.41,4.54,1.2,1.91,1.12,4.15,1.45,6.42,1.24,4.06-.36,7.49.45,11.23,1.94,3.57,1.42,6.93,3.61,11.23,3.81,1.78.08,2.9.9,3.63,2.22.82,1.47,2.19,2.64,4.09,3.25,1.57.51,2.4,1.35,2.83,2.65.38,1.16.71,2.35,1.53,3.42.82,1.08.66,2.29-.44,3.2-1.22,1.01-2.03,2.17-2.65,3.45-.51,1.05-1.44,1.88-2.74,2.26-2.53.74-4.42,2.15-6.34,3.54-1.8,1.3-4.12,1.83-6.36,2.25-3.72.7-7.06,2.07-10.55,3.2-5.31,1.73-10.47,3.74-15.89,5.26-7.79,2.18-15.93,3.29-23.79,5.18-4.54,1.09-9.21,1.76-13.73,2.95-3.54.93-7.36,1.21-10.97,2.06-5.6,1.33-11.32,2.29-16.98,3.45-6.33,1.3-12.66,2.6-19.12,3.48-3.8.52-7.53,1.4-11.42,1.46-.67.01-1.07.5-1.64.72-1.45.55-3.01.85-4.53,1.25-4.17.42-8.27,1.18-12.34,1.99-3.81.76-7.69,1.33-11.44,2.26-2.16.54-4.4.71-6.56,1.04-4.38.67-8.71,1.57-13.14,2.09-2.52.3-5.12.62-7.55,1.39-2.44.77-5.13.5-7.66,1.04-4.31.92-8.71,1.58-13.07,2.29-5.33.88-10.67,1.77-16,2.63-1.05.17-2.1-.64-3.11.05-1.04.62-2.23,1.08-3.51.94-3.03-.35-5.8.75-8.65,1.14-2.68.36-5.46.46-8.15,1.06-4.64,1.04-9.44,1.56-14.16,2.37-4.27.73-8.64,1.14-12.88,1.99-4.78.96-9.69,1.37-14.51,2.16-2.67.44-5.49.74-8.09,1.22-4.1.76-8.27,1.06-12.37,1.77-4.52.79-9.11,1.43-13.59,2.31-5.61,1.09-11.38,1.07-16.97,2.2-5.11,1.03-10.42,1.49-15.54,2.48-3.6.7-7.23,1.02-10.86,1.39-1.14.12-1.6.87-2.53,1.08-1.78.08-3.56.11-4.91-.01-.8-.01-.45.38-.53.1-.03-.1.04-.14.21-.14,7.9-.2,15.8.25,23.66.64,9.41.46,18.83.92,28.21,1.8,9.56.89,19.1,1.85,28.57,3.21,8.71,1.25,17.21,3.18,25.3,6.02,4.45,1.57,8.22,4.07,11.42,7.05.98,4.38,2.56,8.75.71,13.23.1,1.08-.94,2.02-.62,3.13.2,1.41-1.12,2.11-2.14,2.96-1.15.54-2.44.45-3.69.46-7.03.04-14.07.18-21.09-.03-12.95-.38-25.9-.71-38.83-1.34-11.31-.55-22.63-1.03-33.93-1.69-14.89-.87-29.78-1.72-44.65-2.84-11.56-.87-23.07-2.06-34.61-3.02-19.97-1.68-39.81-4.02-59.65-6.45-18.6-2.27-37.09-5.06-55.65-7.54-1.61-.21-3.53-.29-4.09-1.99.18-1.76,1.83-2.11,3.57-2.3,1.42-.15,2.86.02,4.29.07,3.42.71,6.91.69,10.42.72,8.99.08,17.98.08,26.96.19,7.59.09,15.27.09,22.88-.52,4.03-.32,8.09-.18,12.14-.12,8.94.12,17.78-.32,26.4-2.37,1.13-.27,2.32-.17,3.48-.24.69-.06,1.38-.12,2.07-.16.24-.04.49-.06.74-.08.6-.05,1.19-.18,1.8-.21.38-.01.74.05,1.08.19.73.3.71,1.02,1.26,1.42,1.39.52,2.89.38,4.24.2,5.94-.79,11.97-.76,17.94-1.28,10.8-.94,21.61-1.81,32.26-3.61,1.17-.2,2.53-.18,3.72-1.23-3.63-1.04-7.2-1.44-10.84-1.59-3.32-1.21-6.8-.62-10.13-.33-7.98.71-15.96.97-23.97.88-1.44-.02-2.89-.02-4.32.13-11.32-.97-22.69-.6-34.01-.32-9.56.24-19.14.85-28.71,1.25-9.79.41-19.5,1.37-29.23,2.18-5.91.49-11.81,1.06-17.66,1.79-9.24,1.15-18.45,2.52-27.59,4.13-1.97.35-3.92.37-5.89.02-.84-.24-1.49-.78-2.44-.87-12.41-1.23-24.53-3.68-36.78-5.62-2.11-.34-4.25-.57-6.34-1-1.27-.26-2.39-.64-3.05-1.59-5.32-9.13-11.04-18.05-18.29-26.4-5.49-6.31-11.39-12.33-17.7-18.08-7.04-6.4-14.57-12.45-23.68-17.09-2.73-1.39-5.1-3.17-7.66-4.74-6.14-3.76-12.9-6.44-20.21-8.39-2.37-.63-4.6-1.54-7.15-1.76-1.4-.12-2.08.13-1.97,1.31.02.21,0,.43,0,.65.39,13.68-.6,27.36-.67,41.04-.03,5.63-.12,11.3-.99,16.92-.12.8-.3,1.55-1.12,2.11-2.18,1.06-4.46.29-6.55-.04-11.5-1.83-23.06-3.39-34.6-5.01-1.31-.18-2.36-.61-3.22-1.39v-59.41c.78-.72,1.73-1.17,2.92-1.44,21.83-4.84,41.91-12.93,61.84-21.27,21.84-9.13,42.76-19.55,64.5-28.83,21.01-8.97,41.72-18.4,62.38-27.89,1.83-.84,3.9-.99,5.84-1.52"/><path class="cls-14" d="m210.45,171.41c.6.79,1.65.78,2.61.92,14.89,2.08,29.77,4.22,44.68,6.22,15.8,2.12,31.66,3.97,47.54,5.65,18.21,1.93,36.47,3.51,54.73,5.06,7.79.66,15.61,1,23.41,1.54,14.8,1.04,29.62,1.76,44.44,2.47,7.64.37,15.28.71,22.92,1.01,8.9.34,17.8.67,26.71.88,8.47.2,16.93.24,25.4.35,1.25.02,2.54.11,3.65-.53,2.19-1.1,4.66-1.06,7-.7,4.35.66,8.65.71,12.99.07,6.02-.1,12.01.94,18.05.22,2.96-.35,5.93.15,8.89.34,4.43.28,8.8-.46,13.22-.43,10.46.06,20.92-.09,31.37.04,19.74.24,39.47-.36,59.19-.58,9.42-.11,18.9-.06,28.31-1.06,4.82-.52,9.71.01,14.57,0,6.13-.01,12.23-.67,18.36-.53,12.35.29,24.67-.58,37.02-.45,18.82.19,37.63-.78,56.46-.42,4.41.09,8.81-.05,13.23.34,5.03.46,10.07-.17,15.1-.45,9.63-.53,19.25-.5,28.88-.01,4.22.21,8.46.1,12.67.55,1.16.12,2.35.06,3.47.36,7.06,1.91,14.45,1.31,21.69,1.72,8.43.48,16.9.63,25.35,1,1.53.07,3.11.21,4.46.77,2.97,1.23,6.17,1.55,9.4,1.74,1.46.09,2.62.41,3.44,1.4v95.58c-.84.75-1.91.62-3.01.54-5.65-.4-11.18-1.44-16.8-1.93-9.91-.87-19.74-2.16-29.67-2.95-6.24-.5-12.46-1.32-18.71-1.84-7.42-.61-14.84-1.31-22.33-1.05-.54.02-1.09.02-1.61.14-1.46.35-1.83.97-.51,1.76,1.94,1.16,4.04,2.16,6.24,2.99,9.77,3.67,19.39,7.56,29.1,11.31,14.66,5.67,28.92,11.93,43.43,17.82,3.84,1.56,7.45,3.48,11.25,5.11,1.13.49,2.02,1.19,2.63,2.1v20.23c-.87.91-2.14.92-3.4.95-3.13.06-6.26-.03-9.39.05-4.47-.49-8.93-.62-13.39.05-4.54.68-9.13.47-13.71.44-3.69-.02-7.36.06-10.98.7-15.58.42-31.15-.43-46.73-.5-5.38-.03-10.8-.07-16.19-.31-10.69-.48-21.4-.55-32.08-1.19-4.75-.28-9.53-.25-14.29-.39-9.8-.3-19.6-.65-29.39-1.06-10.77-.45-21.56-.91-32.19-2.3.04,1.3,1.58,1.51,2.51,2.03,5.7,3.23,10.79,7.05,16.3,10.45.85.53,1.31,1.15,1.11,2.03-.43,1.16-1.38,1.98-2.62,2.61-1.4.78-2.88.62-4.41.31-12.31-2.45-24.53-5.2-36.78-7.83-12-2.57-23.92-5.34-35.85-8.09-21.19-4.89-42.32-9.91-63.4-15.09-15.23-3.74-30.38-7.65-45.51-11.64-1.18-.31-2.52-.51-2.51-1.85,1.84-1.44,4.33-1.6,6.64-2.01,3.58-.64,7.12-1.4,10.67-2.11,2.7.22,4.83-.99,7.08-1.84,3.97-1.5,8.18-2.68,11.56-5.05,3.08-2.16,5.52-4.58,5.89-8.03.12-1.1-.96-1.67-1.2-2.52-.71-2.5-2.84-4.07-5.24-5.5-.81-.48-1.45-1.07-1.83-1.82-.24-.48-.6-1-1.16-1.15-2.69-.71-4.61-2.37-7.01-3.43-3.09-1.37-6.62-2.29-9.45-3.7-3.31-1.64-7.2-2.12-10.23-4.06-1.11-.71-2.65-.83-4.04-1.14-2.48-.55-5.13-.75-7.14-2.29-.47-.36-1.2-.58-1.95-.68-3.19-.44-6.25-1.04-8.97-2.67-1.88-1.13-4.49-.88-6.78-1.16-1.07-.14-2.25-.14-3.11-.61-3.64-1.99-7.89-2.25-12.02-2.84-.9-.13-1.87-.2-2.58-.59-4.06-2.2-8.86-2.15-13.39-2.91-1.23-.21-2.56-.28-3.62-.82-5.15-2.63-11.22-2.32-16.84-3.43-.95-.19-2.07-.14-2.85-.57-4.05-2.24-8.94-1.93-13.41-2.86-3.36-.7-6.78-.96-10.02-2.3-2.52-1.04-5.72-1.07-8.65-1.42-6.95-.84-13.53-2.82-20.31-4.16-5.57-1.11-11.37-1.36-16.97-2.45-.7-.14-1.44-.18-2.08-.43-8.41-3.34-17.76-3.37-26.72-4.69-3.44-.51-6.42-1.8-9.69-2.54-6.16-1.4-12.46-2.18-18.73-3.09-4.33-.62-8.64-1.08-12.8-2.42-5.85-1.89-12.19-2.48-18.32-3.64-5.25-.99-10.86-1.24-15.77-2.81-10.64-3.39-21.99-4.28-32.87-6.76-2.33-.53-4.71-.98-7.12-1.24-3.36-.36-6.17-1.92-9.31-2.69-8-1.96-16.25-3.19-24.31-4.98-4.77-1.06-9.71-1.7-14.33-3.08-5.05-1.52-10.05-3.06-15.29-4.14-8.63-1.77-17.21-3.67-25.75-5.71-4.92-1.18-9.5-3.07-14.49-4.09-2.62-.53-5.19-1.19-7.92-1.23-5.82-1.02-11.12-.46-16.11,2.46-3.12,1.83-7.17,2.23-10.86,3.14-4.22-.17-7.82-1.98-11.76-2.9-1.53-.36-3.07-.8-4.53-1.36-1.1-.42-2.44-.73-2.33-2.05.44-.9,1.43-1.25,2.49-1.48,9.25-2.04,18.65-3.62,27.98-5.43,12.3-2.38,24.62-4.7,36.98-6.87,9.91-1.75,19.83-3.43,29.79-4.94,1.48-.23,3.2-.89,4.51.44"/><path class="cls-4" d="m556.96,318.27c4.08,1.11,8.15,2.26,12.25,3.31,9.24,2.38,18.49,4.75,27.77,7.05,9.71,2.41,19.43,4.77,29.17,7.11,11.54,2.77,23.09,5.52,34.66,8.21,18.21,4.24,36.44,8.44,54.78,12.33,8.6,1.82,17.17,3.72,25.79,5.49,1.27.26,2.44.44,3.64-.08,3.09-.23,5.67,1.11,8.31,1.98,1.35.45,2.61.74,4,.83,4.99,1.39,10.12,2.32,15.3,3.11.88.13,1.75.28,2.6.48,1.87.54,3.72,1.5,5.69.18,4.88-.39,9.68.41,14.5.7,6,.37,12.01.72,18.01,1.09,8.51.52,17.02,1.12,25.56,1.39,12.12.39,24.21,1.14,36.33,1.5,6.61.2,13.26.24,19.86.95,2.52.27,5.17-.01,7.77.1,8.79.37,17.6.52,26.39.63,4.08.05,8.19.51,12.35.02,2.61-.31,5.57-.28,7.96,1.2v26.26c-.88.92-2.17.84-3.43.95-5.85.54-11.23-1.1-16.65-2.34-13.07-3-26.3-5.51-39.42-8.36-8.6-1.87-17.33-3.34-25.93-5.23-6.62-1.45-13.49-1.74-20.26-2.52-9.44-1.09-18.88-2.17-28.31-3.28-12.02-1.41-24.06-2.66-36.06-4.12-7.03-.86-14.06-1.66-21.09-2.54-11.02-1.38-22.08-2.53-33.11-3.89-18.14-2.24-36.28-4.44-54.41-6.74-21.33-2.7-42.65-5.38-63.95-8.24-19.88-2.66-39.76-5.31-59.62-8.09-20.75-2.9-41.45-5.98-62.16-9.04-18.14-2.68-36.27-5.41-54.36-8.32-1.83-.3-3.5-1.17-5.46-.98-2.02.57-3.61-.6-5.43-.88-1.06-.16-2.1-.39-2.96-.55,3.17,1.72,6.37,3.68,9.48,5.71,3.2,2.09,6.26,4.27,8.95,6.81,6.15,5.81,13.26,10.89,20.32,15.98,3.58,2.58,6.42,5.62,9.19,8.69,2.17,2.4,4.67,4.55,7.16,6.69,5.51,4.73,10.78,9.64,15.58,14.81,3.46,3.73,6.48,7.72,9.81,11.54.51.58.96,1.25.29,1.98-2.22.78-4.26.1-6.2-.61-19.44-7.15-38.74-14.54-57.79-22.34-7.92-3.24-15.8-6.55-23.84-9.6-3.18-1.21-5.9-3.02-9.16-4.09-3.31-1.53-5.69-3.9-8.41-5.96-9.56-7.24-19.27-14.35-29.28-21.2-1.4-.96-3.55-1.66-3.18-3.66,1.28-1.44,2.75-.59,4.07-.13,5.03,1.78,9.73,4.06,14.65,6.01,3.55,1.41,7.08,2.85,10.65,4.21.77.29,1.48.82,2.75.52-3.35-3.24-7.18-5.91-11.18-8.42-9.97-6.27-20.5-11.9-31.16-17.37-.53-.27-1.03-.61-1.63-.76-6.25-1.59-12.67-2.6-19.09-3.61-12.07-2.06-24.09-4.26-35.94-7.03-.83-.12-1.59-.42-2.41-.58-.28-.04-.54-.12-.8-.22-3.79-1.42-7.96-1.77-11.91-2.74-7.1-1.75-14.16-3.65-21.39-4.98-7.64-1.4-15.15-3.1-22.58-5.03-14.62-3.8-29.21-7.7-43.73-11.76-13.24-3.7-26.33-7.74-39.49-11.61-26.85-7.89-53.06-17.02-79.39-25.94-4.73-1.6-9.4-3.27-13.92-5.2-2.78-2.38-6.64-3.41-10.11-4.8-15.54-6.21-30.16-13.62-44.62-21.25-.96-.51-1.38-1.3-2.12-1.91v-50.37c1.05-.75,2.17-.47,3.3-.16,15.83,4.36,31.65,8.73,47.44,13.17,16.47,4.64,32.91,9.31,49.35,14.01,1.52.44,3.07.84,4.68,1.04,1.06.66,2.67.8,3.09,2.07,2.85,1.2,5.98,1.84,8.98,2.74,3.26.97,6.55,1.87,9.82,2.81,4.12-.09,7.64,1.57,11.32,2.63,14.21,4.1,28.39,8.3,42.56,12.5,20.41,6.06,40.82,12.11,61.22,18.18,23.86,7.1,47.71,14.23,71.64,21.18,17.75,5.16,35.5,10.33,53.25,15.5,26.63,7.76,53.33,15.37,80.08,22.84,24.63,6.88,49.28,13.72,74.12,20.12,11.04,2.84,22.09,5.68,33.08,8.66.9.25,2,.31,2.36,1.24"/><path class="cls-6" d="m.67,357.34v-115.81c1.46-.99,2.92-.31,4.33.05,10.78,2.77,21.61,5.42,32.46,8,27.98,6.65,55.92,13.43,84.06,19.65,5.26,1.16,10.63,2.1,15.68,3.84,3.96,2.64,8.71,4.27,13.06,6.4,16.57,8.1,33.18,16.13,49.85,24.09,10.42,4.98,20.92,9.84,31.36,14.79,11.76,5.57,23.55,11.09,35.43,16.48,9.93,4.5,19.93,8.91,29.88,13.38,17.65,7.93,35.68,15.28,53.8,22.49,12.64,5.04,25.49,9.73,38.5,14.15,11.43,3.88,22.86,7.74,34.49,11.22,6.54,1.96,13.51,2.36,20.19,3.79.26.05.54.04.81.02.98-.05,2.11.04,2.61-.81.51-.87-.28-1.49-.98-2.06-2.88-2.38-6.14-4.42-9.16-6.67-1.08-.8-2.57-1.46-1.97-2.98,1.47-.8,2.82-.13,4.07.34,14.82,5.57,29.57,11.26,44.66,16.36,7.05,2.38,14.04,4.85,21.19,7.04,2.54.78,4.61,1.92,6,3.8,7.94,8.16,14.45,17,19.73,26.42,1.02,1.83,1.93,3.69,2.58,5.63.66,2.54,2.33,4.76,3.6,7.1.25.46.62.87.72,1.38,1.44,2.98,3.48,5.74,4.97,8.7,2.57,5.12,4.18,10.41,5.02,15.87.1.64.05,1.28-.31,1.88-2.97,7.08-12.25,8.77-19.58,7.82-.42-.07-.81-.2-1.17-.37-.61-.22-1.24-.4-1.93-.43-.94-.06-1.88-.02-2.83-.06-9.95-1.8-18.04-6.63-26.72-10.48-2.35-1.04-4.84-1.91-6.99-3.23-1.24-1.4-3.18-2.09-4.94-2.93-12.68-6.08-25.34-12.16-37.52-18.9-10.71-5.93-21.29-11.99-31.59-18.33-12.21-7.53-24.44-15.08-35.91-23.33-1.2-.86-2.62-1.52-3.7-2.5-.51-.7-1.36-1.11-2.09-1.64-9.8-7.03-19.74-13.94-29.36-21.14-6.67-4.99-13.2-10.12-20.09-14.94-3.43-2.39-6.25-5.32-9.5-7.9-1.6-1.28-2.9-1.76-4.7-.3-2.83,2.3-6.7,2.96-10.35,3.91-.69.18-1.34.37-1.96.67-6.18,1.11-12.3,2.49-18.67,2.7-.83.03-1.55.35-2.35.4-7.87.55-15.72,1.53-23.66,1.09-5.04.2-10.1.3-15.11.21-7.48-.12-14.96-.08-22.43-.19-7.46-.11-14.89-.6-22.34-.87-10.06-.36-20.13-.71-30.17-1.53-6.08-.5-12.21-.66-18.32-.97-9.43-.48-18.84-1.17-28.27-1.63-6.38-.31-12.75-.75-19.13-.97-8.81-.31-17.6-.8-26.38-1.56-4.74-.41-9.53-.28-14.3-.55-16.71-.97-33.39-2.07-49.81-4.85-1.74-.3-3.61-.41-4.76-1.75"/><path class="cls-6" d="m510.72,415.7c-2.2-2.45-5.48-3.5-8.85-4.59-18.67-6.04-37.07-12.57-55.24-19.52-3.89-1.49-7.8-2.94-11.71-4.4-2.61.63-4.32-.81-5.91-1.93-7.25-5.05-14.52-10.08-21.32-15.52-1.84-1.47-3.62-2.99-5.67-4.3-1.03-.66-2.1-1.48-1.07-2.74,8.63,3.54,17.23,7.12,25.9,10.61,12.74,5.13,25.42,10.37,38.35,15.21,8.86,3.32,17.72,6.66,26.54,10.05,1.99.77,4.08.99,6.19,1.27,1.05-.4,1.93.04,2.82.37,19.27,7.14,38.85,13.71,58.65,19.86,25.01,7.77,50.34,14.79,76.2,20.58,4.88,1.09,9.93,1.41,14.93,1.75,10.03.68,20.07,1.41,30.15,1.37,4.31-.02,8.59-.79,12.92-.27,2.77.8,5.5-.13,8.24-.2,5.09-.13,10.16-.68,15.48-1.19-1.2-1.06-2.73-1.18-3.99-1.69-3.92-1.58-7.92-3.03-11.71-4.82-1.16-.55-2.39-.99-3.73-1.19-6.21-2.91-12.91-5.14-18.88-8.34-7.88-4.23-16.88-6.37-25.46-9.29-16.47-5.61-32.9-11.29-49.25-17.11-22.19-7.9-44.14-16.19-66.06-24.55-12.02-4.58-23.95-9.3-35.95-13.9-16.48-6.31-32.81-12.86-49.14-19.39-8.52-3.41-17-6.89-25.49-10.35-1.29-.53-2.98-.88-2.76-2.51.56-.54,1.23-.41,1.97-.29,8.29,1.33,16.58,2.65,24.88,3.94,8.74,1.35,17.49,2.68,26.25,3.98,11.22,1.67,22.44,3.35,33.67,4.97,16.38,2.36,32.76,4.71,49.15,7,14.71,2.05,29.43,4.04,44.16,5.98,17.04,2.24,34.09,4.41,51.13,6.59,14.3,1.83,28.59,3.68,42.91,5.43,13.87,1.7,27.77,3.26,41.65,4.91,13.79,1.64,27.58,3.33,41.37,4.96,8.54,1.01,17.09,1.92,25.64,2.91,11.21,1.29,22.42,2.62,33.63,3.91,6.05.7,12.11,1.4,18.18,2.02,1.98.2,3.87.66,5.79,1.02,7.34,1.4,14.68,2.83,22,4.33,7.5,1.53,14.98,3.12,22.45,4.73,9.56,2.05,19.11,4.13,28.65,6.23,2.57.57,5.2.27,7.79.42,1.17.07,2.34.06,3.51.08v22.39c-.45.4-.46,1.01-1.03,1.35-5.11,1.74-10.25,3.44-15.37,5.17-12.33,4.19-24.65,8.41-36.22,13.82-6.49,3.04-12.56,6.65-18.12,10.76-3.36,2.48-7.15,4.57-10.19,7.34-2.23,2.03-5.62,2.47-8.33,3.84-4.44.49-8.75-.57-13.14-.69-5.74-.16-11.47-.64-17.2-1.01-4.31-.28-8.62-.41-12.77-1.49-2.96-.77-6.08-.14-9.1-.64-1.4-.23-2.83-.38-4.23-.66-2.29-.55-4.62-.67-6.98-.41-7.71-1.41-15.43-2.84-23.18-4.08-4.5-.72-9.32-.16-13.98.04-6.66.28-13.29-.04-19.92-.42-4.13-.24-8.26.02-12.41-.41-6.69-.7-13.41-1.16-20.11-1.81-1.76-.65-3.75.13-5.5-.58-2.77-.89-5.81-.52-8.65-1.14-.93-.2-1.94-.3-2.92-.38-15.54-2.34-31.15-4.45-46.6-7.16-17.29-3.04-34.58-6.06-51.78-9.46-24.16-4.79-47.59-11.28-70.97-17.95-2.88-.82-5.36-2.37-8.42-2.81-.61.09-1.21-.22-1.82,0"/><path class="cls-6" d="m633.29,119.33c.51-.41.97-.9,1.76-.91,1.81-.03,3.55-.68,5.22-.77,2.56-.13,4.94-.78,7.34-1.2,2.66-.46,5.58-.22,8.02-1.45,3.07.35,5.52-1.57,8.58-1.47,1.47.04,2.94-.58,4.36-.93,4-.97,8.16-1.43,12.16-2.43,2.12-.53,4.32-1.36,6.71-1.18.62.05,1.29-.09,1.78-.43.75-.51,1.62-.58,2.54-.56,1.01.03,1.97-.05,2.8-.59.27-.18.65-.4.95-.38,2.58.2,4.71-1.28,7.25-1.19.55.02,1.05-.09,1.5-.38.89-.55,1.94-.72,3.06-.69.74.02,1.51-.02,2.05-.42.81-.61,1.74-.67,2.75-.66.99,0,1.99.03,2.77-.62.49-.41,1.15-.33,1.78-.36,1.24-.07,2.54,0,3.48-.88.11-.1.31-.19.47-.19,1.99.05,3.82-.41,5.66-.93,1.12-.32,2.77.46,3.3-1.09.04-.1.67-.1,1.02-.11,1.29-.05,2.74.3,3.43-1.08.15-.31.8-.22,1.24-.29.52-.08,1.1-.15,1.53-.38,2.42-1.29,5.28-1.77,7.92-2.64,2.8-.92,5.32-2.32,8.28-2.99.75-.17,1.48-.48,2.29-.56,2.43-.25,4.55-1.29,6.89-1.76.34-.07.89-.21.93-.38.37-1.57,2.34-1.78,3.52-2.63.91-.66,1.97-1.23,3.27-1.41,1.66-.22,2.63-1.18,2.56-2.38-.07-1.3.94-1.93,1.83-2.64,2.19-1.74,2.25-1.73.12-3.3-.54-.4-.85-.77-.46-1.28.36-.48.27-.79-.31-1.05-.88-.4-.87-.72-.06-1.26.54-.36.07-.8-.5-.95-.68-.18-1.41-.24-2.1-.41-.6-.14-1.34-.22-1.57-.74-.43-.96-1.21-1.52-2.41-1.84-.73-.19-.79-.69-.45-1.23.61-.98-.18-1.33-1.17-1.45-1.59-.2-3.21-.34-4.81-.47-.94-.08-1.88-.23-2.14-1.05-.31-.96-1.14-1.15-2.19-1.28-1.15-.14-2.29-.39-3.42-.63-.6-.13-1.49-.24-1.57-.71-.24-1.32-1.56-1.31-2.61-1.39-2.2-.17-4.36-.45-6.66-.33-2.7.14-5.81.3-7.91-1.85-.54-.55-1.63-.54-2.53-.6-1.79-.13-3.59-.2-5.35-.54-.8-.15-1.6-.3-2.24-.71-2.23-1.45-4.94-1.57-7.63-1.77-2.06-.15-4.13-.23-6.18-.44-1.31-.14-2.56-.36-3.61-1.21-1.13-.92-2.84-.78-4.34-.91-2.41-.22-4.83-.39-7.25-.54-1.04-.06-2.08-.26-2.63-.93-.95-1.17-2.41-1.17-3.81-1.25-4.66-.28-9.33-.49-13.99-.74-1.25-.06-2.43-.11-3.41-.98-.79-.7-2.02-.81-3.23-.89-5.01-.32-10.06-.44-15.02-1.17-.97-.14-2.02-.21-2.87-.56-2.59-1.06-5.39-1.04-8.16-1.14-4.13-.16-8.27-.29-12.4-.49-2-.09-3.89-.63-5.59-1.44-1.14-.55-2.33-.76-3.59-.81-6.11-.25-12.22-.45-18.33-.73-2.31-.1-4.61-.22-6.79-1.08-2.81-1.09-5.96-.82-8.97-1.02-5.83-.39-11.67-.62-17.5-.93-.53-.03-1.14-.07-1.57-.28-3.42-1.69-7.29-1.29-11-1.55-5.64-.39-11.29-.71-16.94-1.05-4.05-.24-7.96-1.07-11.92-1.72-3.89-.65-7.86-.69-11.82-.73-1.41-.96-.48-2.01-.06-2.94,1.66-3.64,2.91-7.37,3.58-11.21.94-5.42.72-10.84-.14-16.25-.15-.96-.24-1.86.77-2.57h248.88c3.65.66,6.19,2.83,9.2,4.35,10.05,5.05,21.02,7.67,32.85,8.11.54.02,1.08.04,1.59.22,1.86,1.11,3.63,2.32,5.28,3.64,17.76,14.16,35.75,28.13,53.26,42.48,25.16,20.63,51.03,40.7,76.43,61.13,1.18.95,1.87,2.07,2.63,3.2v8.61c-1.96,1.56-4.43.98-6.67.83-8.16-.53-16.34-.78-24.51-1.17-10.06-.49-20.13-.71-30.19-1.13-9.17-.39-18.32-.96-27.46-1.49-11.58-.68-23.16-1.12-34.78-1.34-8.63-.16-17.26-.51-25.89-.83-9.07-.33-18.13-.86-27.18-1.55-3.04-.23-6.13-.42-9.15-.43-7.12-.02-14.21-.53-21.32-.57-14.22-.07-28.42-.75-42.61-1.33-2.58-.37-5.16-.75-7.78-.21-1.68-.09-3.34-.39-5.03-.44-11.72-.67-23.45-.75-35.19-.98-5.53-.11-11.11-.22-16.62-.79-.83-.08-1.89.07-1.98-.98"/><path class="cls-13" d="m949.66,198.9c-2.72-.6-5.55-.42-8.3-.83-1.16-.17-2.32-.27-3.34-.77-1.9-.93-4.05-1.22-6.2-1.36-3.32-.22-6.65-.32-9.98-.44-9.72-.34-19.44-.65-29.16-1-1.25-.05-2.56-.14-3.72-.48-3.97-1.16-8.14-1.26-12.25-1.45-10.52-.48-21.06-.87-31.61-.55-2.07.06-4.13.23-6.19.41-6.02.52-12.04.3-18.08.14-8.65-.23-17.31-.13-25.96-.23-9.2-.11-18.37.27-27.55.76-2.59.14-5.22-.08-7.83-.17-10.73-.39-21.44.53-32.16.38-9.56-.13-19.09.38-28.64.66-1.61.05-3.24-.1-4.86-.16-5.24-.18-10.45.19-15.66.52-2.07.13-4.14.21-6.21.21-4.15,0-8.28.03-12.42.35-3.77.29-7.57.1-11.35.13-13.07.1-26.13.34-39.2.43-14.15.1-28.31-.09-42.45.18-8.47.16-16.93-.14-25.4.09-4.85.13-9.73-.2-14.59-.32-4.91-.37-9.82-.72-14.71-1.22-1.58-.16-2.95-.59-4.19-1.33-1.15-1.06.45-1.68.64-2.53,2.54-4.54,1.81-8.97-.73-13.34-5.27-4.29-11.54-7.24-18.77-8.93-6.12-1.43-12.23-2.93-18.54-3.74-6.74-.87-13.46-1.8-20.26-2.38-6.43-.55-12.85-1.34-19.3-1.6-6.83-.28-13.61-.9-20.44-1.16-6.9-.26-13.78-.75-20.67-1.29,2.38-.55,4.83-.09,7.22-.39,2.51-1.02,5.25-.82,7.91-.85,6.94-.08,13.88,0,20.82-.03,27.39-.08,54.78-.14,82.16.09,12.97.11,25.96.01,38.91.46,8.38.29,16.77-.04,25.12.38,8.83.45,17.66.18,26.48.43,4.04.11,8.06.55,12.12.54,4.77-.22,9.53-.38,14.29.15.72.08,1.44.12,2.16.1,8.65-.26,17.28.37,25.92.52,14.48.26,28.95.93,43.43,1.33,11.51.32,23.02.7,34.51,1.3,4.91.25,9.91-.25,14.75.85,1.12.25,2.28-.36,3.47-.29,4.22.14,8.43.55,12.66.64,8.63.2,17.24.77,25.86,1.16,6.83.31,13.65.67,20.48.97,10.6.45,21.19,1.07,31.78,1.58,6.65.32,13.29.71,19.93,1.02,10.87.49,21.74.82,32.59,1.57,6.71.47,13.46.8,20.2,1.02,10.97.37,21.93.9,32.89,1.39,1.57.07,3.28.18,4.45,1.29v25.83Z"/><path class="cls-4" d="m593.11,533.85H213.3c-.24-1.57,1.33-1.85,2.62-2.19,5.16-1.34,10.21-2.96,15.51-3.94.62-.11,1.15-.37,1.68-.64,22.89-5.99,45.74-12.07,68.68-17.92,1.8-.46,3.64-.8,5.46-1.2,5.1-1.63,10.43-2.71,15.67-3.99,14.88-3.62,29.67-7.53,44.85-10.32,12.27-2.25,24.69-3.83,37.18-5.14,9.08-.95,18.18-1.85,27.31-2.41,9.05-.54,18.1-.6,27.14.49,14.94,1.8,29.31,5.13,43.25,9.72,1.28.45,2.39,1.14,3.69,1.58,6.04,1.46,11.72,3.64,17.48,5.63,11.73,4.03,23.21,8.49,34.69,12.96,2.18.85,4.25,1.87,6.39,2.79,6.19,2.29,12.14,4.96,18.1,7.58,2.99,1.32,5.92,2.72,8.59,4.42.95.6,2.46,1.19,1.51,2.58"/><path class="cls-14" d="m41.35,370.47c8.07.46,16.14,1.01,24.21,1.48,7.35.43,14.65,1.24,21.99,1.85,10.64.89,21.22,2.17,31.82,3.34,9.54,1.05,19.02,2.37,28.52,3.61,22.9,3,45.66,6.65,68.39,10.43,3.96.65,6.88.12,9.63-2.3,2.57-2.28,5.73-4.14,8.71-6.09,1-.66,2.24-1.32,3.38-.52.08.05.16.12.21.17-2.05,1.4-4.05,2.84-5.97,4.35-1.54,1.2-2.18,2.69-2.15,4.17-.05.04-.09.1-.14.14-1.06,1.26-1.42,2.53-1.26,3.7-2.43,2.32-4.96,4.94-6.6,7.7-1.89-.08-3.79-.14-5.65-.38-1.58-.21-2.75.26-3.81,1.18-3.57,3.13-7.24,6.21-10.82,9.33-9.96,8.68-19.5,17.64-28.55,26.94-7.44,7.65-14.59,15.45-21.05,23.63-1.57,1.07-3.11,2.16-4.63,3.26-2.53.96-4.88,2.1-6.78,3.86-3.21,2.96-4.94,7.12-7.04,10.62-1.54,2.56-.85,5.02.9,6.8-2.01.24-3.33-.51-4.19-1.91-.08-2.83,1.95-5.06,3.4-7.44.46-.76,1.03-1.47,1.25-2.31,9.3-14.82,21.24-28.25,34.4-41.01,9.27-8.96,18.98-17.61,29.42-25.73,2.73-2.13,5.07-4.56,8.52-6.54-2.69-.99-5.01-.7-7.16-.87-6.6-.53-13.23-1.03-19.86-1.5-9.21-.65-18.43-1.22-27.64-1.98-6.26-.51-12.53-.89-18.79-1.43-8.13-.69-16.29-1.03-24.42-1.63-3.68-.27-7.37-.33-11.05-.43-14.74-.39-29.48-.98-44.24-1.09-8.71-.07-17.45-.15-26.18-.3-3.78-.06-7.51.64-11.31.46-1.53-.07-3.05-.06-4.55-.33-2.02-.26-2.77-1.55-3.4-2.8-2.83-5.56-6.69-10.8-8.17-16.77v-3.44c.81-.83,1.96-.92,3.17-.93,12.51-.05,25.01.04,37.51.73"/><path class="cls-12" d="m131.01,485.67c1.09.78,2.23,1.48,3.74,1.66.83-.12,1.62-.03,2.35.32,6.56,3.11,13.42,5.83,19.9,9.05,3.49,1.62,7.11,3.03,10.66,4.55,20.58,8.8,41.54,16.99,62.86,24.59,1.19.42,2.66.67,2.75,2.05-4.98,1.66-10.21,2.76-15.3,4.18-1.19.33-2.4.62-3.59.93-.54.14-1,.33-1.07.84H30.43c-.86-.62-1.63-1.29-2.15-2.15-2.59-4.37-5.58-8.58-8.37-12.88-1.23-1.89-2.34-3.82-3.11-5.87.1-1.7,1.13-3.15,2.06-4.62,4.96-7.88,9.84-15.8,13.73-24.07,3.72-7.91,6.25-16,5.84-24.53-.46-9.68-3.06-18.99-7.49-28.01-.9-1.83-2.4-3.57-1.98-5.71,1.6-1.43,3-.31,4.26.33,5.7,2.89,11.2,6,16.45,9.4,14.81,9.58,29.14,19.63,44.11,29.05,8.91,5.6,18.32,10.64,27.9,15.48,2.06,1.1,4.23,2.05,6.36,3.05,1.27.6,2.26,1.33,2.96,2.34"/><path class="cls-6" d="m949.66,173.07c-22.09-1.28-44.24-1.78-66.32-3.25-7-.46-14.03-.59-21.04-.94-16.53-.81-33.06-1.71-49.6-2.48-17.35-.8-34.68-1.82-52.05-2.36-4.14-.13-8.27-.41-12.4-.62-2.15.12-3.78-.73-5.32-1.76-7.83-5.27-15.52-10.66-23.27-16-10.27-7.07-20.52-14.16-30.75-21.26-1.02-.7-2.18-1.32-2.05-2.6.09-.21.26-.36.5-.45,1.77.07,3.55.13,5.32.2,2.17.23,4.37-.11,6.53.18,13.94.6,27.89,1.15,41.85,1.38,16.04.26,32.05.88,48.03,1.95,6.47.44,12.95.58,19.43.81,16.2.58,32.42.6,48.59,1.65,12.84.83,25.69,1.59,38.56,2.07,12.15.46,24.29.91,36.44,1.4,4.86.19,9.71.48,14.56.71.98.05,1.97.02,2.96.03v41.33Z"/><path class="cls-13" d="m519.53,0c.36,2.84,1.07,5.63,1.23,8.49.45,8.04-1.1,15.79-4.94,23.25-.2.39-.29.82-.44,1.23-2.32,3.4-4.49,6.86-7.45,9.96-12.74,13.35-29.57,20.71-50.62,21.73-14.1.69-27.06-2.22-39.26-7.86-10.91-5.04-22.07-9.74-33.15-14.54-24.46-10.61-48.3-22.05-71.92-33.8-.91-.45-1.77-1.01-2.87-1.16-4.48-1.28-8.52-3.21-12.4-5.37-.83-.46-1.99-.81-1.64-1.94h223.45Z"/><path class="cls-12" d="m198.15,0c-22.6,10.13-45.14,20.35-67.83,30.36-14.42,6.36-28.92,12.59-43.1,19.29-21.1,9.97-42.93,18.81-65.69,26.13-6.76,2.17-13.64,4.11-20.86,5.16v-43.05c1.71-4.27,4.8-7.92,8.09-11.49.48-.52.64-1.17,1-1.75,1.19-1.32,2.98-2.05,4.64-2.88C27.09,15.39,39.41,8.57,51.87,1.92,53.65.97,55.57.56,57.48,0h140.67Z"/><path class="cls-14" d="m105.53,188.64c-1.68.13-3.17-.4-4.69-.84-12.51-3.58-25.02-7.19-37.55-10.73-13.38-3.78-26.78-7.51-40.19-11.23-7.46-2.07-14.96-4.08-22.44-6.12v-19.37c3.71.49,7.43.94,11.13,1.48,10.32,1.49,20.63,3.01,30.94,4.53.72.11,1.42.15,2.12-.04,2.05-1.46,4.42-.63,6.46-.28,11.96,2.05,24.05,3.54,36.09,5.16,15.52,2.08,30.94,4.51,46.4,6.82,2.65.4,5.29.82,7.94,1.24,1.26.2,2.42.54,3.14,1.48.71.9,1.94.95,3.06,1.14,9.67,1.59,19.33,3.17,29.01,4.75,4.48.73,8.97,1.42,13.46,2.15.96.16,1.91.4,2.86.6-.23,1.15-1.39,1.36-2.54,1.59-9.57,1.91-19.16,3.78-28.67,5.89-12.88,2.86-25.73,5.8-38.6,8.68-4.83,1.08-9.67,2.13-14.49,3.24-1.1.25-2.31.09-3.45-.12"/><path class="cls-6" d="m29.49,425.72c1.21,2.62,2.42,5.25,3.62,7.87,3.4,7.45,5.62,15.07,6.2,23.04.49,6.81.04,13.46-2.31,20.02-1.83,5.11-4.11,10.09-6.78,14.97-3.24,5.92-6.93,11.67-10.47,17.47-.82,1.35-1.66,2.71-2.2,4.15.2,1.22-.03,2.37-.55,3.55-1.85,4.25-2.8,8.69-4.45,12.98-.57,1.49-.93,3.08-2.68,4.08H.67v-159.72c1.42,1.67,2.23,3.58,3.24,5.4,2.04,3.66,3.98,7.36,6.03,11.02.53.95.79,2.09,2.12,2.66,1.06.46,1.85,1.09,2.33,2,4.92,9.29,10.14,18.48,14.85,27.84.44.87.88,1.74.24,2.68"/><path class="cls-2" d="m251.9,371.12c-.71,1.08-1.41,2.16-2.14,3.23-1.07,1.55-.94,3.1-.38,4.77,1.77,5.32,4.09,10.52,5.33,15.96.24,1.05.5,2.1.27,3.3-1.83.13-3.51-.45-5.22-.72-5.12-.83-10.2-1.77-15.3-2.67-2.33-.41-2.79-.87-1.64-2.39,1.31-1.72,1.71-3.58,2.21-5.46.31-1.19.7-2.35,1.94-3.21.49-.34,1.03-.78.87-1.6-1.41.29-2.38,1.01-3.36,1.71-3.76,2.67-7.56,5.31-11.28,8.01-.94.69-1.76.92-3.11.71-16.31-2.62-32.63-5.25-48.97-7.73-15.28-2.32-30.63-4.36-46.03-6.14-11.3-1.31-22.6-2.6-33.93-3.79-6.69-.7-13.41-1.23-20.12-1.73-8.24-.62-16.48-1.24-24.74-1.68-10.78-.58-21.57-1.06-32.38-1.05-4.41,0-8.82-.17-13.24.05v-13.35c9.91,1.5,19.78,3.19,29.83,3.96,13,.99,26.02,1.7,39.06,2.34,6.91.34,13.84.72,20.75,1.23,6.46.47,12.95.57,19.43.93,13.57.74,27.14,1.65,40.72,2.28,9.18.42,18.31,1.23,27.5,1.56,6.39.22,12.78.41,19.16.7,3.95.18,7.89.51,11.86.55,13.41.15,26.82.61,40.23.19.9-.03,1.8.04,2.7.06"/><path class="cls-13" d="m136.72,273.81c-6.04-1.4-12.07-2.81-18.11-4.21-10.63-2.45-21.27-4.9-31.9-7.35-7.78-1.79-15.56-3.55-23.33-5.38-5.78-1.36-11.52-2.83-17.29-4.23-11.96-2.91-23.94-5.79-35.9-8.7-3.18-.78-6.35-1.61-9.52-2.41v-24.97c1.04-.72,2.03-.24,3.01.1,7.92,2.73,15.71,5.66,23.49,8.63,10.18,3.89,20.28,7.9,30.47,11.77.15.06.24.17.3.32,15.9,5.91,32.21,11.05,48.31,16.6,8.92,3.07,17.93,5.96,26.96,8.82,10.78,3.41,21.68,6.58,32.55,9.82,5.81,1.73,11.59,3.52,17.44,5.16,10.26,2.88,20.47,5.88,30.83,8.53,5.82,1.49,11.64,2.99,17.43,4.55,7.41,1.99,14.9,3.79,22.4,5.55.09.02.18.04.26.07,1.37.55,2.98-.43,4.46.7.98.76,2.82.82,4.29,1.16,1.55.36,3.13.64,4.68,1.01,6.88,1.64,13.79,3.23,20.75,4.64.87.18,1.71.39,2.41.85-1.6,1.26-3.49.58-5.1.25-11.59-2.35-23.24-4.53-34.88-6.72-20.05-3.77-39.97-7.93-59.92-12.02-15.42-3.16-30.8-6.46-46.12-9.92-2.77-.62-5.29-1.78-7.96-2.62"/><path class="cls-12" d="m593.11,533.85c-.12-1.03-1.29-1.32-2.1-1.82-4.38-2.68-9.27-4.68-14.08-6.78-3.47-1.51-7-2.95-10.5-4.43-.71-.3-1.38-.66-2.07-1,.27-1,1.23-1.33,2.34-1.52,9.46-1.65,18.89-3.37,28.41-4.77,1.23-.18,2.4-.61,3.69-.56,1.19.06,2.28-.39,3.45-.41,1.86-.06,3.55.52,5.18,1.08,11.75,3.97,23.82,7.28,35.81,10.76,1.78.52,3.56,1.06,4.44,2.57.25.6.49,1.2.74,1.8.35.61-.05,1.3.29,1.92.76.99,1.34,2.05,1.75,3.16h-57.35Z"/><path class="cls-12" d="m9.87,533.85c2.54-6.52,3.94-13.29,7.05-19.67.16-.33.42-.62.63-.94,3.85,5.88,7.71,11.75,11.54,17.64.61.94,1.46,1.82,1.34,2.97H9.87Z"/><path class="cls-3" d="m57.93,237.38c-4.33-1.03-8.19-2.92-12.33-4.29-7.54-2.5-14.89-5.33-22.24-8.17-6.45-2.49-13.01-4.82-19.55-7.18-1.06-.38-1.97-1.02-3.15-1.18v-6.46c2.65.63,4.7,2.09,6.91,3.29,3.79,2.06,7.72,3.95,11.57,5.94,6.86,3.56,13.98,6.78,21.11,9.99,4.77,2.15,9.5,4.35,14.48,6.2,1.2.45,2.5.85,3.2,1.87"/><path class="cls-12" d="m.67,29.71c2.5-1.22,4.99-2.44,7.49-3.65.76-.37,1.54-.7,2.31-1.04-2.57,4.23-5.92,8.09-8.87,12.14-.22.3-.48.6-.93.73v-8.18Z"/><path class="cls-6" d="m687.11,121.83c3.36,2.37,6.71,4.77,10.1,7.12,9.36,6.49,18.74,12.95,28.11,19.43,6.79,4.69,13.6,9.37,20.34,14.11.81.57,1.75.63,2.61.95-4.76-.11-9.53-.07-14.27-.39-4.76-.32-9.52-.44-14.28-.58-11.77-.35-23.55-.78-35.32-1.15-14.2-.44-28.4-.84-42.6-1.28-9.08-.28-18.15-.5-27.23-.67-1.35-.03-2.69-.1-4.04-.16-3.15-.64-6.02-1.82-8.92-2.96-5.19-2.05-10.66-3.3-16.42-3.92-5.84-.63-11.37-2.14-16.27-4.82-5.24-2.87-11.19-4.08-17.32-5.01-4.92-.75-9.54-2.07-12.84-5.35-.62-.62-1.4-1.15-.95-2.07.67-.35,1.36-.23,2.08-.12.43.07,1.13.21,1.28.06,1.15-1.2,2.88-.41,4.11-.82,2.25-.75,4.76-.43,6.9-1.33.67-.28,1.35-.34,2.08-.35,1.22-.01,2.48.24,3.49-.68.26-.24,1.02-.15,1.55-.16,1.16-.02,2.36.13,3.32-.59.12-.09.35-.2.48-.17,2.4.53,4.55-.46,6.69-.91,2.9-.61,6.03-.25,8.77-1.43.58-.25,1.4-.15,2.12-.18.8-.04,1.58.02,2.29-.45.8-.53,1.79-.58,2.82-.46.79.09,1.62.11,2.26-.44.17-.15.51-.34.68-.29,3.25.86,5.88-1.72,9.14-1.01,1.05.23,1.8-.94,2.98-.82,2.44.27,4.85-.41,6.91-1.02,2.5-.74,5.37-.24,7.57-1.66.4-.26,1.01-.4,1.54-.24.96.28,1.66-.26,2.45-.39,2.06-.32,4.06-.96,6.19-.97,1.18,0,2.34-.04,3.38-.58,1.59-.33,3.21-.24,4.81-.17,17.11.76,34.22,1.32,51.36,1.29.78,0,1.67-.17,2.08.63"/><path class="cls-6" d="m145.66,159.97c-15.69-2.27-31.38-4.49-47.05-6.83-8.61-1.29-17.27-2.25-25.93-3.26-6.46-.76-12.88-1.7-19.32-2.53-9.67-1.25-19.34-2.46-29-3.7-6.7-.86-13.32-2.12-20.08-2.74-1.43-.13-2.85-.25-4.28-.37.4-6.13.6-12.26.83-18.39.44-11.56.02-23.12.29-34.67.29-12.4-.28-24.79-.28-37.19,0-2.04.56-2.47,2.44-1.31,2.05,1.26,4.77-.11,6.54,1.45,3.6-.33,6.1,1.92,9.33,2.55,2.98.58,5.77,1.73,8.71,2.48,5.55,1.42,10.18,4.16,14.91,6.68,8.9,4.73,17.21,10.13,25.94,15.05,7.52,4.24,13.24,9.88,19.89,14.79,3.66,2.7,6.23,6.1,10.11,8.62,2.05,1.34,3.26,3.47,5.1,5.05,5.52,4.72,10.27,9.83,14.46,15.38,2.8,3.71,6.51,7.02,9.68,10.59,1.13,1.28,2.16,2.59,2.92,4.04,1.02,1.92,2.12,3.79,3.99,5.31.54.44,1,.99,1.27,1.57,2.67,5.59,6.51,10.73,9.78,16.09.32.52.41.97-.24,1.36"/><path class="cls-6" d="m537.83,135.08c2.28,1.8,4.3,3.89,7.4,4.86,2.25.71,4.55,1.32,6.95,1.68,4.42.67,8.87,1.28,12.9,3,1.98.84,3.98,1.68,5.84,2.67,4.85,2.58,10.32,3.68,15.96,4.28,8.57.91,16.09,3.86,23.41,7.27.13.06.16.25.24.38-5.41.24-10.8-.19-16.2-.27-24.32-.35-48.64-.72-72.96-1.08-19.19-.28-38.38-.12-57.57-.34-20.81-.23-41.62-.12-62.43.04-1.53.01-3.06-.06-4.59-.09-.01-.67-.05-1.24,1.22-1.26,1.59-.02,3.19-.15,4.67-.75.67-.27,1.41-.14,2.13-.14,1.22,0,2.53.29,3.38-.82.31-.4.93-.22,1.49-.17.96.09,2.59.31,2.8,0,1-1.49,2.69-.35,3.67-.79,2.26-1.02,4.79-.26,7.04-1.03,1.05-.36,2.4-.21,3.4-.53,2.45-.78,4.93-.73,7.46-.92,1.46-.11,2.94-.47,4.46-.45.56,0,1.14-.06,1.53-.35.93-.68,1.88-.81,3.11-.55,1.3.28,2.24-.36,3.33-.93.91-.48,2.36.55,3.63.12.3-.1.59-.34.74-.57.43-.65,1.07-.67,1.83-.5,1.25.28,2.49.47,3.37-.59,2.35.21,4.54-.72,6.8-.67,1.51.03,2.83.22,3.82-.85.67-.72,1.42-.42,2.15-.15,1.17.43,2.28.53,3.14-.39.47-.5,1.03-.57,1.66-.39,1.64.48,2.98,0,4.28-.72.56-.31,1.09-.8,1.85-.15.39.33,1.04.32,1.52.09,2.67-1.26,6.04-.23,8.63-1.7.46-.26.85-.07,1.26.04.74.2,1.55.08,2.08-.23,1.4-.8,2.76-1.07,4.44-.58,1.18.35,1.51-1.3,2.76-.98.97.25,1.92.38,2.92.24.49-.07.72-.4.97-.69.28-.32.67-.49,1.15-.36,1.56.43,2.97.26,4.32-.52.61-.35,1.37-.2,2.09-.13,1.17.11,2.36.14,3.2-.74.47-.49,1.07-.34,1.71-.26,1.27.16,2.51.12,3.54-.65.51-.39,1.09-.51,1.7-.14,1.04.63,1.98.49,2.9-.16.87-.61,1.77-.85,2.96-.43,1.06.37,2.17.12,2.99-.52.57-.44,1.19-.75,1.92-.52,1.84.58,3.42.02,5.01-.57"/><path class="cls-13" d="m321.51,167.87c-4.25.02-8.26,1.09-12.35,1.8-3.08.54-6.26.58-9.39.66-9.18.25-18.36.31-27.54.49-4.32.08-8.63.23-12.95.39-2.98.11-5.93-.18-8.9-.21-6.12-.06-12.25-.04-18.37-.04-4.86,0-9.7-.37-14.55-.6.53-1.4,2.14-1.43,3.5-1.61,18.45-2.51,36.93-4.89,55.55-6.41,5.09-.41,10.21-.7,15.33-.96,14.7-.74,29.42-.82,44.13-1.1,8.17-.18,16.36-.14,24.49-.65,4.17-.26,8.29-.45,12.45-.31.71.03,1.41.17,2.11.26-.31.86-1.13,1.3-2.13,1.38-3.34.27-6.52,1.26-9.88,1.4-1.64-.26-3.29-.55-4.76.42-.58.3-1.22.46-1.92.48-1.45-.25-2.92-.58-4.18.42-.44.22-.92.36-1.44.41-1.63-.24-3.27-.51-4.61.62-.51.23-1.05.33-1.64.27-2.88-1.02-5.34.65-8.05.86-2.45.19-4.98.55-7.33,1.28-1.18.37-2.26-.26-3.39-.12-.28.01-.55.02-.83.03-.49.38-1.25.06-1.75.42h0c-.42.43-1.16.06-1.62.41"/><path class="cls-2" d="m335.97,160.28c-6.56.22-13.13.37-19.69.67-13.03.6-26.05,1.24-39.04,2.32-16.29,1.36-32.5,3.21-48.62,5.52-3.72.53-7.51.72-11.16,1.57-1.3-.16-2.6-.32-3.9-.2-1.21.11-2.46.23-3.11,1.24-3.6.21-7.1.9-10.61,1.47-9.68,1.6-19.37,3.16-28.99,4.95-8.48,1.58-17.01,3.02-25.45,4.78-7.64,1.6-15.41,2.8-23.09,4.28-4.62.89-9.19,1.97-13.78,2.97-1-.41-1.99-.82-2.99-1.22,10.36-2.34,20.71-4.68,31.07-7.03,4.23-.96,8.47-1.9,12.69-2.89,9.66-2.25,19.34-4.41,29.12-6.29,4.98-.96,9.91-2.05,14.87-3.07,1.51.33,3.05.34,4.55.07,8.05-1.44,16.16-2.66,24.3-3.75,7.7-1.02,15.44-1.86,23.21-2.52,5.54-.47,11.09-.86,16.63-1.35,2.85-.25,5.72-.4,8.56-.64,3.18-.26,6.44-.32,9.65-.36,4.13-.05,8.26-.28,12.39-.36,5.65-.12,11.31-.26,16.96-.28,8.82-.03,17.64-.13,26.45.11"/><path class="cls-11" d="m350.74,163.41c.36-.1.71-.19,1.07-.29,1.46-.7,3.08-.23,4.62-.4.45-.16.9-.33,1.35-.49,1.45-.8,3.34.12,4.77-.76,4.21-.42,8.32-1.27,12.49-1.88,4.52.45,9.1.69,13.46,2.34-.63,1.04-1.56,1.49-2.84,1.73-4.71.88-9.4,1.79-14.23,2.19-4.45.36-8.85,1.06-13.3,1.46-4.9.44-9.83.67-14.74,1.06-3.75.3-7.53.26-11.28.66-2.22.24-4.49.21-6.68-.34.59-1.19,1.83-1.5,3.29-1.69,5.46-.7,10.75-2.06,16.25-2.6.31-.13.63-.27.94-.4,1.49-.82,3.3-.03,4.84-.6"/><path class="cls-8" d="m344.95,164.41c-.3.37-.71.8-1.22.75-3.12-.29-5.68,1.5-8.73,1.4-.64-.02-1.23.13-1.79.37-1.3.54-2.69.7-4.14.7-1.38,0-2.65.23-3.65,1.06-.91-.28-.44-.59,0-.85.4-.24.68-.46.28-.84,4.26-.74,8.42-1.87,12.82-2.05.34-.01.74-.08,1.01-.23,1.74-.94,3.57-.78,5.43-.31"/><path class="cls-8" d="m323.12,167.46c.46-.46,1.07-.52,1.75-.42-.5.36-1.08.52-1.75.42"/><path class="cls-8" d="m321.51,167.87c.46-.33.99-.49,1.61-.42-.41.46-.98.52-1.61.42"/><path class="cls-12" d="m556.96,318.27c-1.11.1-2.13-.18-3.16-.45-10.85-2.85-21.71-5.69-32.56-8.54-7.52-1.97-15.06-3.9-22.55-5.93-12.1-3.27-24.18-6.56-36.24-9.93-20.04-5.6-40.07-11.23-60.08-16.91-15.51-4.41-30.99-8.89-46.46-13.38-20.45-5.94-40.9-11.91-61.32-17.9-9.46-2.77-18.86-5.65-28.31-8.46-17.94-5.33-35.89-10.65-53.84-15.97-15.34-4.54-30.68-9.09-46.03-13.61-11.05-3.25-22.13-6.46-33.18-9.7-2.02-.59-4.08-1.13-5.9-2.09,1.61-.64,3.26-1.18,4.98-1.62,2.47-.63,4.9-1.25,7.03-2.59,4.23-2.66,9.21-2.44,14.19-1.9.27.03.52.1.79.15,6.05,1.33,12.06,2.67,17.88,4.63,5.8,1.95,12.06,2.89,18.07,4.38,8.47,2.1,17.2,3.38,25.47,6.17,6.65,2.25,14.01,3.1,21.03,4.61,6.15,1.32,12.65,1.89,18.44,3.88,8.2,2.81,16.91,3.73,25.37,5.52,7.88,1.67,15.91,2.76,23.65,5.01,6.02,1.76,12.55,2.42,18.9,3.37,8.32,1.23,16.2,3.74,24.44,5.11,6.23,1.04,12.54,1.75,18.76,2.87,1.58.28,3.24.45,4.67.99,6.54,2.49,13.7,2.77,20.64,3.8,4.66.7,9.36,1.2,13.77,2.8,4.7,1.71,9.92,1.91,14.95,2.5,4.83.57,9.43,1.7,14.06,2.84,5.56,1.38,11.43,1.78,17.03,2.96,6.03,1.27,11.91,3.02,18.14,3.66,3.43.35,6.48,1.53,9.7,2.34,4,1,8.28,1.18,12.43,1.79.99.15,2.03.26,2.81.68,3.64,1.97,7.85,2.3,12.01,2.81,2.57.31,5.1.68,7.42,1.74,3.18,1.46,6.87,1.5,10.35,2.11.61.11,1.29.02,1.81.35,3.2,2.03,7.13,2.17,10.92,2.67,1.08.14,2.3.21,3.05.76,2.4,1.76,5.39,2.19,8.4,2.65.71.11,1.46.17,2.02.56,2.35,1.62,5.3,1.97,8.16,2.47.99.17,1.9.44,2.75.84,2.08.99,4.48,1.5,6.55,2.37,3.24,1.36,6.78,2.22,9.86,3.65,3.35,1.55,7.22,2.86,9.79,5.05,3.19,2.72,7.65,4.65,9.05,8.75,1.61,4.71-.12,9.52-5.36,12.01-4.61,2.19-9.33,4.23-14.24,5.99-.93.33-1.99.05-2.79.6-5.66,1.48-11.51,2.38-17.29,3.5"/><path class="cls-12" d="m574.25,314.77c.65-.7,1.75-.73,2.63-.99,5.09-1.51,9.39-4.17,14.19-6.08.6-.24.88-.7,1.26-1.1.65-.69,1.19-1.47,1.98-2.03,1.46-1.04,2.37-2.14,1.54-3.74-.03-.06-.04-.15-.01-.21,1.28-2.67-1.19-4.76-1.74-7.14-.13-.56-.73-.79-1.28-1.04-1.49-.67-2.52-1.85-4.16-2.37-.29-.09-.68-.42-.66-.62.13-1.59-1.46-1.79-2.7-2.5-2.52-1.46-5.69-2.1-7.8-4.08-.97-.91-2.51-1.1-3.94-1.27-1.48-.17-2.89-.54-3.9-1.36-1.23-.99-2.71-1.37-4.31-1.62-1.26-.2-2.53-.49-3.45-1.17-1.69-1.25-3.76-1.64-5.9-1.92-2.33-.31-4.56-.7-6.41-2.04-1.1-.79-2.66-.82-4.08-.97-2.01-.2-3.88-.64-5.33-1.86-.72-.61-1.67-.86-2.64-1.01-2.47-.37-4.95-.74-7.45-.98-1.12-.11-2.18-.29-2.97-.9-1.54-1.17-3.48-1.43-5.43-1.67-3.76-.47-7.34-1.27-10.77-2.65-2.41-.97-5.23-.98-7.9-1.25-3.25-.32-6.32-.85-9.12-2.37-2.12-1.15-4.8-1.14-7.27-1.49-2.57-.36-5.16-.61-7.73-.94-.62-.08-1.31-.15-1.81-.41-4.01-2.09-8.81-1.88-13.18-2.91-1.97-.46-4.06-.61-6.09-.92-.53-.08-1.17-.09-1.54-.34-2.68-1.77-6.04-1.75-9.19-2.2-6.75-.96-13.4-2.13-19.87-4-3.63-1.05-7.57-1.19-11.39-1.68-4.7-.6-9.4-1.1-13.83-2.74-4.2-1.55-8.88-1.76-13.4-2.41-3.63-.52-7.28-.93-10.92-1.43-.97-.13-1.96-.32-2.86-.63-6.91-2.46-14.34-3.25-21.66-4.41-3.53-.56-7.07-1.1-10.61-1.61-2.24-.33-4.15-1.34-6.33-1.84-5.29-1.2-10.74-1.81-16.06-2.91-5.31-1.1-10.71-1.9-16.11-2.71-.53-.08-1.05-.22-1.53-.4-6.02-2.24-12.53-3.1-18.93-4.26-2.81-.51-5.63-.98-8.44-1.5-3.16-.57-6.28-1.26-9.48-1.71-3.27-.46-6.49-1.17-9.44-2.52-2.13-.98-4.63-1.14-6.96-1.64-9.82-2.11-19.65-4.21-29.53-6.16-3.45-.68-6.65-1.69-9.8-2.95-1.66-.66-3.61-.84-5.44-1.23-10.28-2.16-20.57-4.29-30.66-6.96-4.94-1.31-9.72-3.01-14.74-4.17-1.63-.38-3.4-.47-4.83-1.31,1.86-.13,3.54.46,5.25.86,4.4,1.03,8.81,1.99,13.03,3.49,4.35,1.55,9.08,2.3,13.66,3.38,8.55,2.01,17.38,3.28,25.69,5.83,4.89,1.5,9.82,2.77,14.86,3.82,8.18,1.69,16.39,3.32,24.59,4.96,3.14.63,6.28,1.18,9.11,2.58,1.6.79,3.59.9,5.43,1.24,11.13,2.06,22.28,4.08,33.41,6.13.79.14,1.63.26,2.31.58,3.28,1.53,6.98,1.81,10.57,2.46,8.6,1.55,17.45,2.45,25.73,4.82,6.87,1.96,13.97,2.61,20.98,3.79,6.06,1.02,12.25,1.67,17.92,3.87,2.39.93,5.09.86,7.64,1.24,5.21.77,10.45,1.44,15.69,2.12,1.08.14,2.11.33,3.09.72,4.75,1.86,9.88,2.61,15.06,3.19,6.07.68,11.98,1.74,17.81,3.34,4.4,1.2,9.08,1.74,13.7,2.35,2.81.37,5.62.72,8.21,1.92,2.27,1.05,5.03,1.02,7.58,1.42,3.17.5,6.37.91,9.55,1.37.35.05.74.09,1.03.24,4.84,2.43,10.47,2.36,15.81,3.17,1.68.26,3.33.5,4.82,1.27,1.99,1.03,4.22,1.55,6.59,1.78,2.5.24,4.93.82,7.46.96.52.03,1.12.15,1.54.39,3.76,2.18,8.26,2.3,12.57,2.91.99.14,2.01.27,2.8.74,2.82,1.66,6.12,1.94,9.42,2.28,2,.2,3.82.68,5.42,1.73,1.81,1.19,4.17,1.29,6.35,1.66,1.69.29,3.39.42,4.48,1.7.38.44,1.07.49,1.68.61,1.22.24,2.45.48,3.66.74,1.04.23,2.19.33,3.08.76,2.62,1.26,5.31,2.33,8.34,2.78.32.05.72.24.87.47,1.05,1.52,2.95,1.73,4.79,2.09,1.73.34,3.57.56,4.54,2.02.26.4.87.49,1.39.61,1.51.34,2.83.89,3.79,1.93.62.67,1.53.92,2.57,1.04,1.59.18,2.68.74,3.34,2.11.69,1.43,2.14,2.64,3.99,3.27,1.11.38,1.76.82,1.97,1.8.29,1.34.81,2.63,2.29,3.53.79.48.72,1.06.12,1.69-.49.52-1.01,1.14-.79,1.78.54,1.57-.27,2.56-1.86,3.34-.37.18-.71.47-.93.77-1.94,2.68-5.32,3.9-8.51,5.25-3.17,1.34-6.39,2.6-9.66,3.78-1.3.46-2.56.6-3.9.66"/><path class="cls-14" d="m136.72,273.81c4.18.56,8.18,1.69,12.26,2.56,10.01,2.11,19.98,4.36,30,6.44,19.17,3.99,38.34,7.99,57.55,11.83,14.15,2.83,28.39,5.4,42.57,8.12,3.85.74,7.67,1.58,11.59,2.07l-.06-.03c.62.51,1.57-.03,2.2.45,3.38.42,6.58,1.38,9.9,2,8.65,1.62,17.29,3.25,25.93,4.89.35.07.68.17,1.02.26,5.04,1.63,8.62,4.83,12.56,7.58,5.13,3.58,10.54,6.87,15.71,10.4,1.04.71,2.04,1.4,2.29,2.54.78,1.2,2.29,1.79,3.49,2.62,7.26,4.99,14.29,10.18,21.41,15.29,3.73,2.68,7.11,5.64,10.97,8.21,1.69,1.13,3.15,2.51,4.82,3.68.01.89.76,1.42,1.54,1.92,3.15,2.04,5.87,4.44,8.83,6.64,5.13,3.81,10.29,7.59,15.55,11.29,2.51,1.77,5.02,3.47,8.05,4.63,2.35,2.38,5.4,4.2,8.21,6.2,1.48,1.05,2.93,2.12,4.37,3.21.13.1.25.2.38.31.94.79,1.35,1.88,1.01,2.77-.35.91-1.86,1.02-3,1.15-1.25.15-2.51-.06-3.76-.25-4.33-.66-8.6-1.55-12.96-2.15-3.98-.55-7.74-1.91-11.5-3.1-22.8-7.2-45.31-14.94-67.27-23.64-13.55-5.37-27.05-10.84-40.31-16.66-5.52-2.43-11.12-4.74-16.63-7.18-7-3.11-13.94-6.3-20.91-9.45-3.68-1.67-7.32-3.39-11.04-5-7.98-3.47-15.76-7.22-23.58-10.91-8.76-4.13-17.55-8.2-26.31-12.32-6.66-3.14-13.32-6.29-19.94-9.47-9.86-4.74-19.69-9.51-29.52-14.28-8.06-3.92-16.1-7.87-24.15-11.81-.46-.22-.86-.52-1.29-.78"/><path class="cls-14" d="m424.88,329c.48.67,1.34.94,2.14,1.26,21.26,8.49,42.38,17.19,63.75,25.5,14.73,5.73,29.45,11.49,44.23,17.14,20.46,7.83,40.92,15.67,61.64,23.06,23.27,8.3,46.53,16.6,70.21,24.14,4.17,1.33,8.22,2.81,12,4.85,5.22,2.81,10.98,4.93,16.55,7.27,1.01.43,2.24.63,2.83,1.55.12.27.06-.11.17.17.79,2.12-2.26,9.08-4.53,10.36-6.39.1-12.78.68-19.17.39-11.94-.54-23.93-.79-35.74-2.43-5.77-.8-11.32-2.35-16.92-3.71-17.15-4.16-34.08-8.83-50.87-13.84-19.83-5.91-39.36-12.39-58.74-19.18-3.54-1.24-7.05-2.55-10.59-3.8-1.41-.5-2.73-1.09-3.92-1.88-2.88-2.83-5.64-5.74-7.96-8.87-1.97-2.66-4.25-5.14-6.7-7.51-5.43-5.25-11.03-10.38-16.86-15.37-1.64-1.4-2.95-3.05-4.35-4.62-2.95-3.3-6.68-6-10.32-8.77-3.39-2.57-6.9-5.04-10.24-7.65-2.5-1.96-4.98-3.95-7.16-6.13-2.78-2.79-6.2-4.99-9.61-7.2-3.14-2.03-6.41-3.94-9.6-5.92-.4-.25-1.01-.38-1.03-1.13,3.77.37,7.4.94,10.78,2.31"/><path class="cls-13" d="m360.25,332.91c-1.17-.3-1.86-1.1-2.75-1.69-6.54-4.33-13.27-8.47-19.54-13.06-2.7-1.97-5.68-3.7-8.27-5.78,6.01.82,11.94,1.97,17.86,3.09,1.37.26,2.39.96,3.5,1.55,7.17,3.81,14.46,7.48,21.4,11.54,6.07,3.55,12.08,7.18,17.56,11.31,1.11.84,2.12,1.75,3.13,2.67.35.31.67.7.8,1.1.28.84-.66,1.5-1.68,1.15-2.31-.79-4.63-1.58-6.86-2.49-6.81-2.76-13.58-5.58-20.37-8.37-1.12-.46-2.27-.87-3.39-1.32-.59-.24-1.03-.11-1.4.29"/><path class="cls-13" d="m292.84,305.24c-.76-.07-1.56-.03-2.2-.45.77.04,1.56,0,2.2.45"/><path class="cls-13" d="m647.68,526.97c-6.54-2.39-13.33-4.26-20.19-5.96-2.41-.6-4.68-1.46-7.01-2.2-6.02-1.89-12.05-3.74-18.07-5.61-20.33-6.87-40.78-13.52-58.3-19.32,8.36,3.11,20.05,6.28,31.29,10.3,7.3,2.61,14.78,4.86,22.18,7.29.58.19,1.16.39,1.72.62,1.93.77.64,1.16-.3,1.59-.84.47-1.85.59-2.81.7-6.41.74-12.65,2.1-18.97,3.15-3.34.55-6.67,1.13-10.02,1.62-.99.14-1.91.37-2.82.68-4.69-1.82-9.38-3.64-14.06-5.47-14.55-5.69-29.34-10.94-44.32-15.85-.84-1.21.38-1.73,1.33-2.17,4.47-2.08,8.9-4.22,13.11-6.61,2.28-1.29,4.71-1,7.17-.99,3.89.72,7.59.09,11.28-.9,3.09-.83,5.05-2.58,6.49-4.79.29-.44.49-.91.96-1.26,1.32-.76,2.42-.01,3.53.37,5.46,1.86,10.73,4.05,16.1,6.07,20.67,7.76,41.37,15.47,62.35,22.69,5.2,1.79,10.4,3.6,15.49,5.6,1,.39,1.96.74,2.25,1.7,1.11,1.35,1.48,6.24,1.64,8.77"/><path class="cls-6" d="m646.04,518.2c-24.31-8.54-48.68-16.97-72.63-26.16-9.01-3.46-18.05-6.84-27.08-10.26.07-4.91-1.49-9.58-3.43-14.18-1.48-3.52-3.51-6.85-5.47-10.2-.41-.69-1.03-1.36-.79-2.21,1.19-.59,2.28-.13,3.31.28,9.18,3.64,18.24,7.48,27.39,11.17,5.45,2.2,10.87,4.43,16.4,6.52,6.9,2.61,13.89,5.08,20.82,7.62,5.79,2.12,11.55,4.37,17.56,6.08,3,.85,5.26,2.75,8.37,3.34,1.39.61,2.85,1.08,4.42,1.31,4.17,2.21,8.29,4.49,11.89,7.29.27.85,1.95,1.13,1.45,2.29-1.23,2.24-1.53,4.64-1.61,7.04-.1,2.98-.02,5.97.02,8.95,0,.48-.21.81-.62,1.11"/><path class="cls-13" d="m488.72,474.57c-6.17-2.5-12.36-4.95-18.49-7.51-7.71-3.23-15.16-6.84-22.9-10.05-3.09-1.28-6.09-2.73-9.07-4.2-3.05-1.5-6.19-2.88-9.24-4.38-3.81-1.87-7.75-3.58-11.6-5.4-2.77-1.31-5.19-3.06-8.25-4.02-1.21-.38-2.23-1.19-3.27-1.88-1.57-1.03-3.36-1.65-5.33-1.96-.54-1.59-2.46-1.98-3.9-2.75-.49-.26-1.17-.3-1.7-.6-1.83-1.03-3.79-1.91-5.64-2.88-4.2-2.2-8.39-4.41-12.64-6.53-5.03-2.51-9.69-5.46-14.79-7.83-3.82-1.77-7.28-3.96-11.1-5.69-5.32-2.42-10.19-5.37-15.36-7.95-17.54-8.74-34.53-18.15-51.93-27.05-2.64-1.35-5.3-2.68-7.96-4.03,4.03-.13,7.96-.83,11.89-1.45,3.06-.48,6.11-1.02,9.16-1.54,1.21.12,2.16.58,3.05,1.24,4.29,3.16,8.68,6.25,12.82,9.52,3.93,3.11,8.69,5.06,13.32,7.23,12.41,5.81,24.71,11.77,37.21,17.45,4.23,1.92,8.16,4.18,12.22,6.3,5.61,3.59,10.98,7.4,16.45,11.12,4.64,3.16,9.76,5.88,14.44,9.01,11.31,7.57,23.35,14.37,35.38,21.17,6.21,3.51,12.42,7.05,18.95,10.24,5.51,2.69,10.93,5.49,16.39,8.26,2.95,1.49,6.02,2.85,9.02,4.28,1.07.51,2.26.92,2.87,1.88"/><path class="cls-2" d="m510.72,415.7c-.13-.32-.45-.8.02-.92.41-.1.98.21,1.48.33,2.44.76,4.66,1.86,6.66,3.17,5.78,3.76,11.93,7.16,17.52,11.09,10.24,7.21,21.49,13.41,32.04,20.31,5.6,3.67,11.73,6.87,17.51,10.39,5.85,3.56,11.42,7.42,16.57,11.62.45.89,1.52,1.4,2.11,2.19.06.23,0,.43-.15.62-.48.41-1.08.55-1.71.36-2.91-.88-5.94-1.59-8.91-2.22-4.45-.95-8.28-3.01-12.73-3.83-5.83-2.05-11.33-4.62-16.98-6.96-9.15-3.79-18.19-7.76-27.21-11.75-1.62-.72-3.43-1.31-4.31-2.78-.93-.91-1.3-2.04-1.82-3.1-1.88-3.87-4.26-7.54-6.62-11.24-3.88-6.08-9.04-11.51-13.49-17.29"/><path class="cls-13" d="m375.22,408.61c-1.57-.2-2.77-1.01-4.1-1.59-8.94-3.87-17.66-8.05-26.41-12.19-8.05-3.81-16.1-7.62-24.23-11.32-3.39-1.54-6.48-3.3-9.27-5.5-4.03-3.18-8.27-6.18-12.4-9.28-.78-.59-1.48-1.25-2.22-1.87,1.9-.65,3.8-1.33,5.83-1.71,2.67-.5,4.56-1.96,6.57-3.29,2.06-1.36,2.06-1.4,4.01.18,2.96,2.41,5.87,4.86,8.84,7.27,4.16,3.39,8.82,6.34,13.12,9.61,2.35,1.78,4.7,3.56,6.96,5.41,6.18,5.04,13.06,9.46,19.61,14.18,4.61,3.32,9.14,6.71,13.7,10.07"/><path class="cls-13" d="m532.65,447.34c3.73,1.25,7.12,3.01,10.67,4.52,7.75,3.29,15.39,6.75,23.21,9.94,4.86,1.98,9.64,4.1,14.46,6.16,4.43,1.35,8.44,3.45,13.09,4.44,3.6.77,6.96,2.13,10.75,2.49,1.98.19,3.57,1.32,5.16,2.23,6.76,3.88,13.41,7.89,19.91,12.03.71.45,1.83.82.71,1.75-1.1-.08-2.15-.42-3-.9-2.32-1.31-5.02-1.91-7.58-2.76-5.07-1.67-10.05-3.49-15.06-5.26-6.07-2.13-12.19-4.21-18.14-6.55-5.22-2.04-10.53-3.93-15.63-6.18-6.99-3.08-14.26-5.76-21.39-8.64-4.41-1.78-8.78-3.61-13.17-5.42-2.19-2.22-3.1-4.91-4.24-7.51-.04-.08.16-.23.25-.35"/><path class="cls-13" d="m527.59,488.74c-.74.34-1.58.21-2.37.3-2.09.23-4.05.68-5.43,2.09-.22.22-.46.53-.76.59-3.66.76-5.98,3.4-9.56,4.3-1.57.39-2.52,1.48-3.49,2.49-1.07-.38-2.14-.76-3.21-1.14,2.65-1.12,5.6-1.81,7.8-3.55.51-.41,1.07-.74,1.78-.91,1.77-.4,3.21-1.22,4.43-2.3.86-.76,1.87-1.32,3.15-1.52.72-.11,1.37-.32,1.77-.86,1.15.03,2.3.05,3.46.08.37.17.83.04,1.19.24.41.06.82.12,1.23.18"/><path class="cls-13" d="m526.36,488.56c-.46.13-.88.08-1.19-.24.45-.08.87-.07,1.19.24"/><path class="cls-14" d="m601.74,472.28c-3.53-2.54-7.02-5.11-10.59-7.61-7.04-4.92-14.84-9.05-22.29-13.54-3.15-1.9-6.45-3.64-9.34-5.81-4.27-3.2-9.12-5.8-13.83-8.55-6.01-3.52-11.3-7.75-17.3-11.31-5.33-3.17-10.42-6.58-15.62-9.89-.21-.13-.38-.3-.56-.45.67-.66,1.32-.1,1.88.09,13.22,4.4,26.84,7.92,40.39,11.6,12.27,3.34,24.76,6.07,37.34,8.58,9.52,1.89,19.02,3.8,28.6,5.47,6.32,1.1,12.66,2.15,18.97,3.28,13.52,2.42,27.16,4.34,40.77,6.43,2.56.39,5.14.71,7.7,1.1.95.15,1.99.17,2.74.78.99.69.7,1.56.47,2.39-.55,2.03-1.3,4-2.53,5.84-1.51,2.04-4.17,3.09-6.33,4.56-3.6,2.45-6.33,5.67-10.3,7.75-5.05,2.64-7.85,6.66-11.09,10.47-1.9,2.23-3.62,4.55-5.67,6.71-.9.95-1.69,1.98-2.12,3.19-.74,2.09-2.48,3.78-3.99,5.53-.69.81-1.73,1.31-2.94.44-3.67-2.49-7.76-4.56-11.32-7.16-6.16-3.16-11.57-7.12-17.54-10.49-3.86-2.18-7.57-4.55-11.6-6.54-.57-.28-.99-.6-1.16-1.11l-.04-.03c-1-.48-1.69-1.25-2.7-1.71"/><path class="cls-5" d="m646.11,499.33c1.1.27,1.76-.26,2.19-.9,1.26-1.87,3.2-3.41,3.8-5.62.31-1.12,1.45-2.11,2.26-3.13,2.27-2.89,4.8-5.63,6.99-8.57,1.77-2.37,4.04-4.52,6.16-6.71.89-.91,2.42-1.13,3.57-1.85,2.83-1.78,5-4.06,7.63-5.96,2.91-2.11,5.84-4.22,9.09-6.02,2.64-2.11,5.52-3.95,8.86-5.34,1.67-.69,3.34-1.28,5.21-1.43,1.83.18,3.67.35,5.5.53-.67.73-1.71,1.1-2.69,1.37-2.89.8-5.5,2.08-8.29,3.06-2.51.87-4.7,2.33-7,3.58-3.18,1.73-6.1,3.73-8.97,5.77-1.79,1.27-3.4,2.69-5.15,4-1.36,1.02-2.65,2.2-4.26,2.87-2.3.97-3.59,2.49-4.81,4.16-.13.18-.18.43-.37.56-3.04,2.02-4.31,5.03-6.61,7.47-2.56,2.71-4.84,5.58-6.55,8.77-1,1.86-2.34,3.79-4.41,5.2-.68-.62-1.77-.92-2.13-1.78"/><path class="cls-6" d="m693.87,444.29c1.46-3.51,2.91-7.02,4.37-10.53.86-.33,1.57-.01,2.28.32,6.07,2.83,12.47,5.14,18.84,7.5.47.17,1.06.27,1.17.89-1.84.57-3.81.65-5.74.8-5.82.47-11.64.86-17.46,1.26-1.15.08-2.34.22-3.45-.24"/><path class="cls-14" d="m701.88,453.78c-1.02.95-2.51,1.34-3.83,1.87-2.42.98-4.65,2.12-6.76,3.47-1,.64-2.04,1.4-3.49,1.44.94-2.71,1.88-5.41,2.81-8.11,3.84-.03,7.57.58,11.26,1.34"/><path class="cls-13" d="m648.71,530.69c-.64-.59-.46-1.25-.29-1.92.52.6.24,1.27.29,1.92"/><path class="cls-6" d="m391.88,434.35c2.91.46,5.67,1.25,8.69.82,1.78-1.05,3.32-.21,4.69.54,4.39,2.39,8.94,4.54,13.41,6.79,5.93,2.98,12.06,5.68,18.07,8.56,11.79,5.64,24.11,10.54,35.91,16.16,5.31,2.53,10.93,4.6,16.07,7.36,5.24,2.07,10.21,4.54,15.26,6.88,5.3,2.46,10.63,4.83,16.51,6.32.43.11.81.3,1.22.47.26.57-.07,1-.63,1.26-5.24,2.44-10.08,5.4-15.46,7.66-.95.39-1.87.34-2.85.2-8.3-2.61-16.67-4.99-25.32-6.81-9.96-2.09-20.05-3.56-30.34-3.86-6.84-.2-13.68.27-20.5.8-16.14,1.24-32.18,3.01-48.14,5.35-14.55,2.15-28.65,5.66-42.79,9.05-8.53,2.05-17.05,4.15-25.57,6.22-.87.21-1.75.36-2.62.54-5.65,1.46-11.31,2.91-16.95,4.38-18.05,4.73-36.09,9.47-54.14,14.2-1.03.27-2.02.64-3.12.66-7.35-2.7-14.71-5.38-22.05-8.11-17.62-6.54-34.85-13.69-51.91-21.11-1.01-.44-1.99-.96-2.99-1.44-6.68-2.74-13.17-5.77-19.68-8.74-.7-.32-1.44-.58-1.89-1.15,2.15-4.11,5.13-7.86,7.92-11.69.34-.46.89-.82,1.42-1.19.15-.12.3-.22.44-.33.73-1.1,2.03-1.55,3.4-1.97,10.87-3.3,22.03-5.88,33.08-8.71,11.4-2.92,22.85-5.72,34.31-8.45,11.13-2.66,22.44-4.76,33.6-7.29,1.18-.27,2.31-.36,3.3.37,4.58-.39,8.98-1.38,13.46-2.14,1.84-.31,3.68-.65,5.51-.97,6.67-1.21,13.31-2.46,20.09-3.34,6.46-.84,12.92-1.83,19.38-2.65,4.33-.56,8.66-1.24,13.04-1.65,5.24-.49,10.6-.4,15.77-1.45,1.36-.28,2.86-.14,4.31-.16,2.78-.04,5.57.05,8.33-.47,3.62-.69,7.33-.39,11-.5,5.09-.15,10.19.3,15.32-.53,4.4-.7,9.05-.55,13.44.15"/><path class="cls-4" d="m29.49,425.72c-3.28-6.11-6.56-12.22-9.83-18.33-2.53-4.73-5.06-9.46-7.59-14.2,4.59-.13,9.17-.34,13.76-.38,7.75-.06,15.5-.08,23.25,0,9,.08,18,.18,27,.44,11.33.33,22.66.74,33.97,1.31,11.58.58,23.12,1.51,34.67,2.41,13.61,1.05,27.24,1.96,40.86,2.95,7.7.56,15.4,1.16,23.1,1.75.26.02.51.09.8.14-.11.75-.9,1.07-1.44,1.51-5.99,4.86-12.12,9.62-17.98,14.58-6.78,5.74-13.34,11.64-19.59,17.75-7.62,7.45-14.84,15.13-21.42,23.19-4.71,5.77-9.09,11.69-13.01,17.82-4.36,2.55-9.15,4.16-14.64,4.2-3.38-1.06-6.19-2.9-9.2-4.45-14.95-7.67-28.46-16.83-42.02-25.93-8.19-5.5-16.34-11.03-24.81-16.26-5.05-3.12-10.24-6.08-15.87-8.51"/><path class="cls-2" d="m252.25,448.06c-8.79,1.86-17.59,3.66-26.35,5.58-21.44,4.7-42.55,10.26-63.72,15.68-5.91,1.51-11.76,3.19-17.63,4.79-.4-.97.26-1.62,1.03-2.25,2.83-3.01,6.47-5.36,10.14-7.66,6.38-3.99,12.08-8.57,18.06-12.9,6.18-4.47,12.42-8.91,18.29-13.65,7.45-6.02,14.48-12.33,21.05-18.97,4.23-4.29,8.16-8.72,11.34-13.55.67-1.02,1.81-1.56,2.97-2.1,8.96.62,17.94,1.21,26.87,2.07,2.26.22,2.52.32,2.56,2.07.11,4.65.63,9.28.41,13.96-.3,6.26-1.71,12.37-2.99,18.5-.59,2.81-1.51,5.59-2.04,8.42"/><path class="cls-14" d="m275.54,369.85c3.05.48,5.67,1.69,8.24,3.05,12.5,6.65,25.2,13.07,37.67,19.75,13.74,7.36,27.83,14.29,41.68,21.51,6.39,3.34,12.84,6.61,19.14,10.06,4.95,2.72,10.08,5.26,15.32,7.62.95.42,1.89.86,2.59,1.53.81.78,1.24,1.62-.01,2.43-2.03.62-4.06.44-6.1.04-6.03-1.19-12.07-1.27-18.19-.29-3.9.63-7.94.28-11.87.15-7.87-.26-15.65.72-23.42,1.17-9.73.57-19.51,1.37-29.13,2.88-11.84,1.86-23.82,3.06-35.56,5.26-6.74,1.27-13.47,2.57-20.26,3.68-.96.16-1.9.32-2.79.07-9.77,2.59-19.84,4.34-29.7,6.67-9.35,2.22-18.42,5.12-27.4,8.16-9.39,3.17-18.76,6.39-28.15,9.6-2.7.92-5.4,1.84-8.1,2.76-1.72.59-4.66,1.1-6.08,2.13-2.85,2.05-4.36,6.4-6.05,9.2-2.84,4.72-9.54,3.71-12.72.46-1.75-1.78-2.45-4.23-.9-6.8,2.11-3.5,3.83-7.66,7.04-10.62,1.89-1.76,4.25-2.9,6.78-3.86,1.52-1.09,3.06-2.19,4.63-3.25,6.47-8.18,13.62-15.98,21.06-23.63,9.05-9.3,18.59-18.26,28.55-26.94,3.58-3.12,7.25-6.2,10.82-9.33,1.06-.92,2.23-1.39,3.81-1.18,1.86.24,3.75.3,5.65.38,1.65-2.75,4.17-5.38,6.6-7.7-.16-1.18.2-2.45,1.26-3.7.04-.04.09-.1.14-.14-.02-1.48.61-2.97,2.15-4.17,1.93-1.51,3.92-2.95,5.97-4.35.74.73-.01,1.59-.6,2.33-1.89,2.43-1.67,5.4-3.16,7.96-.48.82.42,1.32,1.4,1.48,5.28.89,10.55,1.83,15.81,2.78,1.68.3,2.03-.2,1.83-1.48-.58-3.51-2.1-6.82-3.25-10.2-.68-2.01-1.3-4.03-2.03-6.02-.35-.96-.5-1.9-.43-2.78.12-2.32,1.6-4.27,4.11-5.38,7.9-.06,15.78-.58,23.64-1.27"/><path class="cls-14" d="m247.79,376.5c-.07.88.08,1.82.43,2.78.73,1.99,1.35,4.01,2.03,6.02,1.15,3.38,2.67,6.69,3.25,10.2.2,1.28-.15,1.78-1.83,1.48-5.26-.95-10.54-1.89-15.82-2.78-.98-.16-1.88-.65-1.4-1.48,1.49-2.56,1.26-5.53,3.16-7.96.59-.74,1.34-1.61.6-2.33,2.68-1.83,5.47-3.56,8.33-5.21.42-.24.83-.48,1.25-.72"/><path class="cls-10" d="m121.38,480.86c4.79-1.6,9.67-2.99,14.64-4.2-1.67,3-3.34,6-5.01,9.01-3.34-1.43-6.7-2.84-9.63-4.8"/><path class="cls-13" d="m598.98,513.68c.46-.62,1.07-1.11-.44-1.56-4.3-1.26-8.53-2.68-12.79-4.04-7.26-2.32-14.25-5.14-21.6-7.29-8.62-2.51-16.93-5.61-25.4-8.41-.31-.1-.67-.2-.75-.55.75-.37,1.39.02,2.02.24,9.81,3.4,19.77,6.53,29.64,9.81,10.38,3.45,20.71,6.96,31.17,10.25.69.22,1.35.42,1.57,1.06-1.14.16-2.28.33-3.42.49"/><path class="cls-9" d="m362.54,161.47c-1.29,1.45-3.12.73-4.77.76.16-.71.82-.89,1.57-.89,1.07,0,2.13.08,3.2.12"/><path class="cls-7" d="m356.42,162.72c-1.44.88-3.05.47-4.62.4,1.34-1.59,2.99-.91,4.62-.4"/><path class="cls-1" d="m350.74,163.41c-1.39,1.33-3.2.53-4.84.6,1.36-1.51,3.16-.72,4.84-.6"/><path class="cls-13" d="m604.48,474.02c2.94,1.11,5.42,2.8,8.02,4.3,6.91,3.99,13.59,8.23,20.37,12.35.72.44,1.43.87,1.91,1.49-1.52-.16-2.97-.46-4.18-1.27-.89-1.62-2.92-2.27-4.52-3.24-5.62-3.45-11.24-6.9-17.01-10.19-2.75-1.57-5.82-2.16-8.89-2.9-6.47-1.56-12.66-3.64-18.61-6.18-.23-.1-.4-.28-.6-.42,1.04-.1,1.89.33,2.78.65,3.23,1.17,6.36,2.46,9.87,3.2,3.06.65,6.08,1.53,9.12,2.32.6.16,1.19.36,1.72-.1"/><path class="cls-13" d="m601.74,472.28c1.3.18,2.02.92,2.7,1.71-1.33-.14-1.98-.97-2.7-1.71"/><path class="cls-4" d="m366.39,157.26c-49.55-1.38-99.15-1.34-148.71.15-10.54.32-10.05,11.83,0,12.76,40.09,3.69,80.23,6.98,120.43,2.36,2.2-.25,3.86-1.5,4.84-3.06,13.5.25,27,.61,40.5,1.07,8.5.29,10.15-8.53,4.05-11.88-3.24-1.78-6.48-3.56-9.72-5.34-5.18-2.85-10.17.14-11.39,3.95"/><path class="cls-14" d="m106.55,165.01c-10.11.4-10.17,12.96,0,12.56.22,0,.43,0,.65-.02-7.65,1.97-6.87,12.41,2.42,12.24,5.9-.11,11.8-.22,17.7-.33.97.92,2.24,1.59,3.75,1.78,6.71.85,13.01.22,18.67-2.98,3.3-1.87,4.3-5.29,3.12-7.95,13.12,1.82,26.14,4.27,39.11,6.76,4.42.85,7.7-1.12,9.09-3.71,3.16.48,6.32,1.01,9.47,1.59,9.88,1.82,14.1-10.29,4.2-12.11-21.3-3.91-43.07-5.84-64.9-5.65-14.3-1.78-28.72-2.76-43.27-2.18"/><path class="cls-4" d="m703.53,452.88c-.15.01-.3.02-.45.04-7.83,1.05-14.53,4.73-20.85,8.36-6.05,3.48-11.9,7.26-16.64,11.88-4.55,4.43-7.62,9.23-10.26,14.47-2.79,3.36-4.74,7.13-6.09,11.11-.72.81-1.46,1.6-2.21,2.4-1.04,2.28-1.54,4.63-1.56,7.07-.03,3.33.15,6.65-.09,9.98.52,2.65.77,5.32,1.4,7.96.04.67.09,1.34.14,2,.08,1.11.46,2.05,1.04,2.86.24,1.28,1.22,2.15,2.52,2.85h2.04c1.79.45,3.74.45,5.46,0h197.01c3.08-1.17,4.62-3.53,6.64-5.5,6.42-6.26,12.58-12.68,18.58-19.2,2.8-1.78,4.93-4.19,6.28-6.91.87-1.01,1.4-2.03,1.17-3.12.6-2.31.69-4.73.2-7.11-1.79-8.7-9.49-19.24-17.9-24.97-10.5-7.16-25.87-7.15-38.97-8.29-14.3-1.25-28.64-2.01-43.01-2.39-13.32-1.88-26.71-3.48-40.14-4.8-15.36-1.51-30.38-2.75-44.3,1.33"/><path class="cls-4" d="m515.65,34.86c-1.05,2.92,1.29,7.27,5.51,7.72,46.57,5.03,93.14,10.02,139.7,15.09,2.6.28,5.2.57,7.8.86-8.34.95-7.73,12.04,1.76,12.51,15.66.77,31.32,1.53,46.98,2.3,7.32.36,14.65.68,21.97,1.08,2.92.16,5.76.5,8.57.88-4.26,1.17-8.52,2.33-12.8,3.46-24.87,6.55-50.08,12.26-75.53,17.2-7.11,1.38-6.92,8.05-2.57,10.96-9.92,2.08-19.9,3.97-29.9,5.73-32.59,5.76-65.39,10.93-98.2,15.96,24.89-6.93,50.07-12.97,76.47-15.06,10.01-.79,10.11-13.36,0-12.56-72.66,5.76-136.44,41.36-209.75,43.54-3.95.12-6.36,2.1-7.23,4.46-2.27,1.57-3.29,4.46-2.57,6.63,1.2,3.64,5.5,4.84,9.71,4.39,52.18-5.59,103.77-14.16,155.4-22.28,47.48-7.47,95.66-13.94,141.71-26.05,5.26-1.38,10.48-2.85,15.67-4.4,7.02-1.01,13.3-3.65,19.59-6.36,5.33-1.88,10.6-3.86,15.79-5.97.79-.21,1.58-.41,2.38-.59,11.35-2.49,35.22-7.63,30.31-20.92-.64-1.73-1.77-3.15-3.21-4.34-2.27-2.89-6.16-5.3-10.23-6.6-23.08-7.36-48.24-10.99-72.71-14.03-25.26-3.14-50.66-5.64-76-8.38-29.64-3.2-59.29-6.4-88.93-9.6-4.26-.46-8.42.82-9.71,4.39"/></g></svg>