<?xml version="1.0" encoding="utf-8"?>
<!-- Generator: Adobe Illustrator 28.0.0, SVG Export Plug-In . SVG Version: 6.00 Build 0)  -->
<svg version="1.1" id="Layer_2_00000089571472548872767880000008022177413974209196_"
	 xmlns="http://www.w3.org/2000/svg" xmlns:xlink="http://www.w3.org/1999/xlink" x="0px" y="0px" viewBox="0 0 672.4 493.4"
	 style="enable-background:new 0 0 672.4 493.4;" xml:space="preserve">
<style type="text/css">
	.st0{fill:#135A60;}
	.st1{fill:#FFFDF4;}
	.st2{fill:#9CD5CC;}
</style>
<g id="Layer_1-2">
	<polygon class="st0" points="630.4,420.6 630.4,436.8 658.4,453 658.4,485.3 672.4,493.4 672.4,444.9 	"/>
	<polygon class="st1" points="644.4,412.5 630.4,420.6 672.4,444.9 714.4,420.6 700.4,412.5 672.4,428.7 	"/>
	<polygon class="st1" points="588.3,444.9 574.3,453 616.3,477.2 658.4,453 644.4,444.9 616.3,461.1 	"/>
	<polygon class="st1" points="532.3,412.5 518.3,420.6 560.3,444.9 602.3,420.6 588.3,412.5 560.3,428.7 	"/>
	<polygon class="st2" points="574.3,485.3 560.3,493.4 560.3,444.9 602.3,420.6 602.3,436.8 574.3,453 	"/>
	<polygon class="st0" points="630.4,355.9 630.4,372.1 658.4,388.3 658.4,420.6 672.4,428.7 672.4,380.2 	"/>
	<polygon class="st0" points="574.3,388.3 574.3,404.4 602.3,420.6 602.3,453 616.3,461 616.3,412.5 	"/>
	<polygon class="st1" points="588.3,380.2 574.3,388.3 616.3,412.5 658.4,388.3 644.4,380.2 616.3,396.4 	"/>
	<polygon class="st2" points="630.4,453 616.3,461 616.3,412.5 658.4,388.3 658.4,404.4 630.4,420.6 	"/>
	<polygon class="st2" points="574.3,420.6 560.3,428.7 560.3,380.2 602.3,355.9 602.3,372.1 574.3,388.3 	"/>
	<polygon class="st0" points="574.3,323.5 574.3,339.7 602.3,355.9 602.3,388.2 616.3,396.3 616.3,347.8 	"/>
	<polygon class="st2" points="630.4,388.2 616.3,396.3 616.3,347.8 658.4,323.5 658.4,339.7 630.4,355.9 	"/>
	<polygon class="st0" points="630.4,355.9 630.4,372.1 658.4,388.3 658.4,420.6 672.4,428.7 672.4,380.2 	"/>
	<polygon class="st1" points="644.4,347.8 630.4,355.9 672.4,380.2 714.4,355.9 700.4,347.8 672.4,364 	"/>
	<polygon class="st1" points="588.3,380.2 574.3,388.3 616.3,412.5 658.4,388.3 644.4,380.2 616.3,396.4 	"/>
	<polygon class="st1" points="532.3,347.8 518.3,355.9 560.3,380.2 602.3,355.9 588.3,347.8 560.3,364 	"/>
	<polygon class="st2" points="574.3,420.6 560.3,428.7 560.3,380.2 602.3,355.9 602.3,372.1 574.3,388.3 	"/>
	<polygon class="st0" points="630.4,291.2 630.4,307.4 658.4,323.5 658.4,355.9 672.4,364 672.4,315.5 	"/>
	<polygon class="st0" points="574.3,323.5 574.3,339.7 602.3,355.9 602.3,388.2 616.3,396.3 616.3,347.8 	"/>
	<polygon class="st1" points="588.3,315.5 574.3,323.5 616.3,347.8 658.4,323.5 644.4,315.5 616.3,331.6 	"/>
	<polygon class="st2" points="630.4,388.2 616.3,396.3 616.3,347.8 658.4,323.5 658.4,339.7 630.4,355.9 	"/>
	<polygon class="st2" points="574.3,355.9 560.3,364 560.3,315.5 602.3,291.2 602.3,307.4 574.3,323.5 	"/>
	<polygon class="st0" points="574.3,258.8 574.3,275 602.3,291.2 602.3,323.5 616.3,331.6 616.3,283.1 	"/>
	<polygon class="st2" points="630.4,323.5 616.3,331.6 616.3,283.1 658.4,258.8 658.4,275 630.4,291.2 	"/>
	<polygon class="st0" points="630.4,291.2 630.4,307.4 658.4,323.5 658.4,355.9 672.4,364 672.4,315.5 	"/>
	<polygon class="st1" points="644.4,283.1 630.4,291.2 672.4,315.5 714.4,291.2 700.4,283.1 672.4,299.3 	"/>
	<polygon class="st1" points="588.3,315.5 574.3,323.5 616.3,347.8 658.4,323.5 644.4,315.5 616.3,331.6 	"/>
	<polygon class="st1" points="532.3,283.1 518.3,291.2 560.3,315.5 602.3,291.2 588.3,283.1 560.3,299.3 	"/>
	<polygon class="st2" points="574.3,355.9 560.3,364 560.3,315.5 602.3,291.2 602.3,307.4 574.3,323.5 	"/>
	<polygon class="st0" points="630.4,226.5 630.4,242.7 658.4,258.8 658.4,291.2 672.4,299.3 672.4,250.8 	"/>
	<polygon class="st0" points="574.3,258.8 574.3,275 602.3,291.2 602.3,323.5 616.3,331.6 616.3,283.1 	"/>
	<polygon class="st1" points="588.3,250.8 574.3,258.8 616.3,283.1 658.4,258.8 644.4,250.8 616.3,266.9 	"/>
	<polygon class="st2" points="630.4,323.5 616.3,331.6 616.3,283.1 658.4,258.8 658.4,275 630.4,291.2 	"/>
	<polygon class="st2" points="574.3,291.2 560.3,299.3 560.3,250.8 602.3,226.5 602.3,242.7 574.3,258.8 	"/>
	<polygon class="st0" points="574.3,194.1 574.3,210.3 602.3,226.5 602.3,258.8 616.3,266.9 616.3,218.4 	"/>
	<polygon class="st2" points="630.4,258.8 616.3,266.9 616.3,218.4 658.4,194.1 658.4,210.3 630.4,226.5 	"/>
	<polygon class="st0" points="630.4,226.5 630.4,242.7 658.4,258.8 658.4,291.2 672.4,299.3 672.4,250.8 	"/>
	<polygon class="st1" points="644.4,218.4 630.4,226.5 672.4,250.8 714.4,226.5 700.4,218.4 672.4,234.6 	"/>
	<polygon class="st1" points="588.3,250.8 574.3,258.8 616.3,283.1 658.4,258.8 644.4,250.8 616.3,266.9 	"/>
	<polygon class="st1" points="532.3,218.4 518.3,226.5 560.3,250.8 602.3,226.5 588.3,218.4 560.3,234.6 	"/>
	<polygon class="st2" points="574.3,291.2 560.3,299.3 560.3,250.8 602.3,226.5 602.3,242.7 574.3,258.8 	"/>
	<polygon class="st0" points="630.4,161.8 630.4,177.9 658.4,194.1 658.4,226.5 672.4,234.6 672.4,186 	"/>
	<polygon class="st0" points="574.3,194.1 574.3,210.3 602.3,226.5 602.3,258.8 616.3,266.9 616.3,218.4 	"/>
	<polygon class="st1" points="588.3,186 574.3,194.1 616.3,218.4 658.4,194.1 644.4,186 616.3,202.2 	"/>
	<polygon class="st2" points="630.4,258.8 616.3,266.9 616.3,218.4 658.4,194.1 658.4,210.3 630.4,226.5 	"/>
	<polygon class="st2" points="574.3,226.5 560.3,234.6 560.3,186 602.3,161.8 602.3,177.9 574.3,194.1 	"/>
	<polygon class="st0" points="574.3,129.4 574.3,145.6 602.3,161.8 602.3,194.1 616.3,202.2 616.3,153.7 	"/>
	<polygon class="st2" points="630.4,194.1 616.3,202.2 616.3,153.7 658.4,129.4 658.4,145.6 630.4,161.8 	"/>
	<polygon class="st0" points="630.4,161.8 630.4,177.9 658.4,194.1 658.4,226.5 672.4,234.6 672.4,186 	"/>
	<polygon class="st1" points="644.4,153.7 630.4,161.8 672.4,186 714.4,161.8 700.4,153.7 672.4,169.9 	"/>
	<polygon class="st1" points="588.3,186 574.3,194.1 616.3,218.4 658.4,194.1 644.4,186 616.3,202.2 	"/>
	<polygon class="st1" points="532.3,153.7 518.3,161.8 560.3,186 602.3,161.8 588.3,153.7 560.3,169.9 	"/>
	<polygon class="st2" points="574.3,226.5 560.3,234.6 560.3,186 602.3,161.8 602.3,177.9 574.3,194.1 	"/>
	<polygon class="st0" points="630.4,97.1 630.4,113.2 658.4,129.4 658.4,161.8 672.4,169.9 672.4,121.3 	"/>
	<polygon class="st0" points="574.3,129.4 574.3,145.6 602.3,161.8 602.3,194.1 616.3,202.2 616.3,153.7 	"/>
	<polygon class="st1" points="588.3,121.3 574.3,129.4 616.3,153.7 658.4,129.4 644.4,121.3 616.3,137.5 	"/>
	<polygon class="st2" points="630.4,194.1 616.3,202.2 616.3,153.7 658.4,129.4 658.4,145.6 630.4,161.8 	"/>
	<polygon class="st2" points="574.3,161.8 560.3,169.9 560.3,121.3 602.3,97.1 602.3,113.2 574.3,129.4 	"/>
	<polygon class="st0" points="574.3,64.7 574.3,80.9 602.3,97.1 602.3,129.4 616.3,137.5 616.3,89 	"/>
	<polygon class="st2" points="630.4,129.4 616.3,137.5 616.3,89 658.4,64.7 658.4,80.9 630.4,97.1 	"/>
	<polygon class="st0" points="630.4,97.1 630.4,113.2 658.4,129.4 658.4,161.8 672.4,169.9 672.4,121.3 	"/>
	<polygon class="st1" points="644.4,89 630.4,97.1 672.4,121.3 714.4,97.1 700.4,89 672.4,105.2 	"/>
	<polygon class="st1" points="588.3,121.3 574.3,129.4 616.3,153.7 658.4,129.4 644.4,121.3 616.3,137.5 	"/>
	<polygon class="st1" points="532.3,89 518.3,97.1 560.3,121.3 602.3,97.1 588.3,89 560.3,105.2 	"/>
	<polygon class="st2" points="574.3,161.8 560.3,169.9 560.3,121.3 602.3,97.1 602.3,113.2 574.3,129.4 	"/>
	<polygon class="st0" points="630.4,32.3 630.4,48.5 658.4,64.7 658.4,97.1 672.4,105.2 672.4,56.6 	"/>
	<polygon class="st0" points="574.3,64.7 574.3,80.9 602.3,97.1 602.3,129.4 616.3,137.5 616.3,89 	"/>
	<polygon class="st1" points="588.3,56.6 574.3,64.7 616.3,89 658.4,64.7 644.4,56.6 616.3,72.8 	"/>
	<polygon class="st2" points="630.4,129.4 616.3,137.5 616.3,89 658.4,64.7 658.4,80.9 630.4,97.1 	"/>
	<polygon class="st2" points="574.3,97.1 560.3,105.2 560.3,56.6 602.3,32.3 602.3,48.5 574.3,64.7 	"/>
	<polygon class="st0" points="574.3,0 574.3,16.2 602.3,32.3 602.3,64.7 616.3,72.8 616.3,24.3 	"/>
	<polygon class="st2" points="630.4,64.7 616.3,72.8 616.3,24.3 658.4,0 658.4,16.2 630.4,32.3 	"/>
	<polygon class="st0" points="518.3,420.6 518.3,436.8 546.3,453 546.3,485.3 560.3,493.4 560.3,444.9 	"/>
	<polygon class="st1" points="532.3,412.5 518.3,420.6 560.3,444.9 602.3,420.6 588.3,412.5 560.3,428.7 	"/>
	<polygon class="st1" points="476.3,444.9 462.3,453 504.3,477.2 546.3,453 532.3,444.9 504.3,461.1 	"/>
	<polygon class="st1" points="420.2,412.5 406.2,420.6 448.2,444.9 490.3,420.6 476.3,412.5 448.2,428.7 	"/>
	<polygon class="st2" points="462.3,485.3 448.2,493.4 448.2,444.9 490.3,420.6 490.3,436.8 462.3,453 	"/>
	<polygon class="st0" points="518.3,355.9 518.3,372.1 546.3,388.3 546.3,420.6 560.3,428.7 560.3,380.2 	"/>
	<polygon class="st0" points="462.3,388.3 462.3,404.4 490.3,420.6 490.3,453 504.3,461 504.3,412.5 	"/>
	<polygon class="st1" points="476.3,380.2 462.3,388.3 504.3,412.5 546.3,388.3 532.3,380.2 504.3,396.4 	"/>
	<polygon class="st2" points="518.3,453 504.3,461 504.3,412.5 546.3,388.3 546.3,404.4 518.3,420.6 	"/>
	<polygon class="st2" points="462.3,420.6 448.2,428.7 448.2,380.2 490.3,355.9 490.3,372.1 462.3,388.3 	"/>
	<polygon class="st0" points="462.3,323.5 462.3,339.7 490.3,355.9 490.3,388.2 504.3,396.3 504.3,347.8 	"/>
	<polygon class="st2" points="518.3,388.2 504.3,396.3 504.3,347.8 546.3,323.5 546.3,339.7 518.3,355.9 	"/>
	<polygon class="st0" points="518.3,355.9 518.3,372.1 546.3,388.3 546.3,420.6 560.3,428.7 560.3,380.2 	"/>
	<polygon class="st1" points="532.3,347.8 518.3,355.9 560.3,380.2 602.3,355.9 588.3,347.8 560.3,364 	"/>
	<polygon class="st1" points="476.3,380.2 462.3,388.3 504.3,412.5 546.3,388.3 532.3,380.2 504.3,396.4 	"/>
	<polygon class="st1" points="420.2,347.8 406.2,355.9 448.2,380.2 490.3,355.9 476.3,347.8 448.2,364 	"/>
	<polygon class="st2" points="462.3,420.6 448.2,428.7 448.2,380.2 490.3,355.9 490.3,372.1 462.3,388.3 	"/>
	<polygon class="st0" points="518.3,291.2 518.3,307.4 546.3,323.5 546.3,355.9 560.3,364 560.3,315.5 	"/>
	<polygon class="st0" points="462.3,323.5 462.3,339.7 490.3,355.9 490.3,388.2 504.3,396.3 504.3,347.8 	"/>
	<polygon class="st1" points="476.3,315.5 462.3,323.5 504.3,347.8 546.3,323.5 532.3,315.5 504.3,331.6 	"/>
	<polygon class="st2" points="518.3,388.2 504.3,396.3 504.3,347.8 546.3,323.5 546.3,339.7 518.3,355.9 	"/>
	<polygon class="st2" points="462.3,355.9 448.2,364 448.2,315.5 490.3,291.2 490.3,307.4 462.3,323.5 	"/>
	<polygon class="st0" points="462.3,258.8 462.3,275 490.3,291.2 490.3,323.5 504.3,331.6 504.3,283.1 	"/>
	<polygon class="st2" points="518.3,323.5 504.3,331.6 504.3,283.1 546.3,258.8 546.3,275 518.3,291.2 	"/>
	<polygon class="st0" points="518.3,291.2 518.3,307.4 546.3,323.5 546.3,355.9 560.3,364 560.3,315.5 	"/>
	<polygon class="st1" points="532.3,283.1 518.3,291.2 560.3,315.5 602.3,291.2 588.3,283.1 560.3,299.3 	"/>
	<polygon class="st1" points="476.3,315.5 462.3,323.5 504.3,347.8 546.3,323.5 532.3,315.5 504.3,331.6 	"/>
	<polygon class="st1" points="420.2,283.1 406.2,291.2 448.2,315.5 490.3,291.2 476.3,283.1 448.2,299.3 	"/>
	<polygon class="st2" points="462.3,355.9 448.2,364 448.2,315.5 490.3,291.2 490.3,307.4 462.3,323.5 	"/>
	<polygon class="st0" points="518.3,226.5 518.3,242.7 546.3,258.8 546.3,291.2 560.3,299.3 560.3,250.8 	"/>
	<polygon class="st0" points="462.3,258.8 462.3,275 490.3,291.2 490.3,323.5 504.3,331.6 504.3,283.1 	"/>
	<polygon class="st1" points="476.3,250.8 462.3,258.8 504.3,283.1 546.3,258.8 532.3,250.8 504.3,266.9 	"/>
	<polygon class="st2" points="518.3,323.5 504.3,331.6 504.3,283.1 546.3,258.8 546.3,275 518.3,291.2 	"/>
	<polygon class="st2" points="462.3,291.2 448.2,299.3 448.2,250.8 490.3,226.5 490.3,242.7 462.3,258.8 	"/>
	<polygon class="st0" points="462.3,194.1 462.3,210.3 490.3,226.5 490.3,258.8 504.3,266.9 504.3,218.4 	"/>
	<polygon class="st2" points="518.3,258.8 504.3,266.9 504.3,218.4 546.3,194.1 546.3,210.3 518.3,226.5 	"/>
	<polygon class="st0" points="518.3,226.5 518.3,242.7 546.3,258.8 546.3,291.2 560.3,299.3 560.3,250.8 	"/>
	<polygon class="st1" points="532.3,218.4 518.3,226.5 560.3,250.8 602.3,226.5 588.3,218.4 560.3,234.6 	"/>
	<polygon class="st1" points="476.3,250.8 462.3,258.8 504.3,283.1 546.3,258.8 532.3,250.8 504.3,266.9 	"/>
	<polygon class="st1" points="420.2,218.4 406.2,226.5 448.2,250.8 490.3,226.5 476.3,218.4 448.2,234.6 	"/>
	<polygon class="st2" points="462.3,291.2 448.2,299.3 448.2,250.8 490.3,226.5 490.3,242.7 462.3,258.8 	"/>
	<polygon class="st0" points="518.3,161.8 518.3,177.9 546.3,194.1 546.3,226.5 560.3,234.6 560.3,186 	"/>
	<polygon class="st0" points="462.3,194.1 462.3,210.3 490.3,226.5 490.3,258.8 504.3,266.9 504.3,218.4 	"/>
	<polygon class="st1" points="476.3,186 462.3,194.1 504.3,218.4 546.3,194.1 532.3,186 504.3,202.2 	"/>
	<polygon class="st2" points="518.3,258.8 504.3,266.9 504.3,218.4 546.3,194.1 546.3,210.3 518.3,226.5 	"/>
	<polygon class="st2" points="462.3,226.5 448.2,234.6 448.2,186 490.3,161.8 490.3,177.9 462.3,194.1 	"/>
	<polygon class="st0" points="462.3,129.4 462.3,145.6 490.3,161.8 490.3,194.1 504.3,202.2 504.3,153.7 	"/>
	<polygon class="st2" points="518.3,194.1 504.3,202.2 504.3,153.7 546.3,129.4 546.3,145.6 518.3,161.8 	"/>
	<polygon class="st0" points="518.3,161.8 518.3,177.9 546.3,194.1 546.3,226.5 560.3,234.6 560.3,186 	"/>
	<polygon class="st1" points="532.3,153.7 518.3,161.8 560.3,186 602.3,161.8 588.3,153.7 560.3,169.9 	"/>
	<polygon class="st1" points="476.3,186 462.3,194.1 504.3,218.4 546.3,194.1 532.3,186 504.3,202.2 	"/>
	<polygon class="st1" points="420.2,153.7 406.2,161.8 448.2,186 490.3,161.8 476.3,153.7 448.2,169.9 	"/>
	<polygon class="st2" points="462.3,226.5 448.2,234.6 448.2,186 490.3,161.8 490.3,177.9 462.3,194.1 	"/>
	<polygon class="st0" points="518.3,97.1 518.3,113.2 546.3,129.4 546.3,161.8 560.3,169.9 560.3,121.3 	"/>
	<polygon class="st0" points="462.3,129.4 462.3,145.6 490.3,161.8 490.3,194.1 504.3,202.2 504.3,153.7 	"/>
	<polygon class="st1" points="476.3,121.3 462.3,129.4 504.3,153.7 546.3,129.4 532.3,121.3 504.3,137.5 	"/>
	<polygon class="st2" points="518.3,194.1 504.3,202.2 504.3,153.7 546.3,129.4 546.3,145.6 518.3,161.8 	"/>
	<polygon class="st2" points="462.3,161.8 448.2,169.9 448.2,121.3 490.3,97.1 490.3,113.2 462.3,129.4 	"/>
	<polygon class="st0" points="462.3,64.7 462.3,80.9 490.3,97.1 490.3,129.4 504.3,137.5 504.3,89 	"/>
	<polygon class="st2" points="518.3,129.4 504.3,137.5 504.3,89 546.3,64.7 546.3,80.9 518.3,97.1 	"/>
	<polygon class="st0" points="518.3,97.1 518.3,113.2 546.3,129.4 546.3,161.8 560.3,169.9 560.3,121.3 	"/>
	<polygon class="st1" points="532.3,89 518.3,97.1 560.3,121.3 602.3,97.1 588.3,89 560.3,105.2 	"/>
	<polygon class="st1" points="476.3,121.3 462.3,129.4 504.3,153.7 546.3,129.4 532.3,121.3 504.3,137.5 	"/>
	<polygon class="st1" points="420.2,89 406.2,97.1 448.2,121.3 490.3,97.1 476.3,89 448.2,105.2 	"/>
	<polygon class="st2" points="462.3,161.8 448.2,169.9 448.2,121.3 490.3,97.1 490.3,113.2 462.3,129.4 	"/>
	<polygon class="st0" points="518.3,32.3 518.3,48.5 546.3,64.7 546.3,97.1 560.3,105.2 560.3,56.6 	"/>
	<polygon class="st0" points="462.3,64.7 462.3,80.9 490.3,97.1 490.3,129.4 504.3,137.5 504.3,89 	"/>
	<polygon class="st1" points="476.3,56.6 462.3,64.7 504.3,89 546.3,64.7 532.3,56.6 504.3,72.8 	"/>
	<polygon class="st2" points="518.3,129.4 504.3,137.5 504.3,89 546.3,64.7 546.3,80.9 518.3,97.1 	"/>
	<polygon class="st2" points="462.3,97.1 448.2,105.2 448.2,56.6 490.3,32.3 490.3,48.5 462.3,64.7 	"/>
	<polygon class="st0" points="462.3,0 462.3,16.2 490.3,32.3 490.3,64.7 504.3,72.8 504.3,24.3 	"/>
	<polygon class="st2" points="518.3,64.7 504.3,72.8 504.3,24.3 546.3,0 546.3,16.2 518.3,32.3 	"/>
	<polygon class="st0" points="406.2,420.6 406.2,436.8 434.2,453 434.2,485.3 448.2,493.4 448.2,444.9 	"/>
	<polygon class="st1" points="420.2,412.5 406.2,420.6 448.2,444.9 490.3,420.6 476.3,412.5 448.2,428.7 	"/>
	<polygon class="st1" points="364.2,444.9 350.2,453 392.2,477.2 434.2,453 420.2,444.9 392.2,461.1 	"/>
	<polygon class="st1" points="308.2,412.5 294.2,420.6 336.2,444.9 378.2,420.6 364.2,412.5 336.2,428.7 	"/>
	<polygon class="st2" points="350.2,485.3 336.2,493.4 336.2,444.9 378.2,420.6 378.2,436.8 350.2,453 	"/>
	<polygon class="st0" points="406.2,355.9 406.2,372.1 434.2,388.3 434.2,420.6 448.2,428.7 448.2,380.2 	"/>
	<polygon class="st0" points="350.2,388.3 350.2,404.4 378.2,420.6 378.2,453 392.2,461 392.2,412.5 	"/>
	<polygon class="st1" points="364.2,380.2 350.2,388.3 392.2,412.5 434.2,388.3 420.2,380.2 392.2,396.4 	"/>
	<polygon class="st2" points="406.2,453 392.2,461 392.2,412.5 434.2,388.3 434.2,404.4 406.2,420.6 	"/>
	<polygon class="st2" points="350.2,420.6 336.2,428.7 336.2,380.2 378.2,355.9 378.2,372.1 350.2,388.3 	"/>
	<polygon class="st0" points="350.2,323.5 350.2,339.7 378.2,355.9 378.2,388.2 392.2,396.3 392.2,347.8 	"/>
	<polygon class="st2" points="406.2,388.2 392.2,396.3 392.2,347.8 434.2,323.5 434.2,339.7 406.2,355.9 	"/>
	<polygon class="st0" points="406.2,355.9 406.2,372.1 434.2,388.3 434.2,420.6 448.2,428.7 448.2,380.2 	"/>
	<polygon class="st1" points="420.2,347.8 406.2,355.9 448.2,380.2 490.3,355.9 476.3,347.8 448.2,364 	"/>
	<polygon class="st1" points="364.2,380.2 350.2,388.3 392.2,412.5 434.2,388.3 420.2,380.2 392.2,396.4 	"/>
	<polygon class="st1" points="308.2,347.8 294.2,355.9 336.2,380.2 378.2,355.9 364.2,347.8 336.2,364 	"/>
	<polygon class="st2" points="350.2,420.6 336.2,428.7 336.2,380.2 378.2,355.9 378.2,372.1 350.2,388.3 	"/>
	<polygon class="st0" points="406.2,291.2 406.2,307.4 434.2,323.5 434.2,355.9 448.2,364 448.2,315.5 	"/>
	<polygon class="st0" points="350.2,323.5 350.2,339.7 378.2,355.9 378.2,388.2 392.2,396.3 392.2,347.8 	"/>
	<polygon class="st1" points="364.2,315.5 350.2,323.5 392.2,347.8 434.2,323.5 420.2,315.5 392.2,331.6 	"/>
	<polygon class="st2" points="406.2,388.2 392.2,396.3 392.2,347.8 434.2,323.5 434.2,339.7 406.2,355.9 	"/>
	<polygon class="st2" points="350.2,355.9 336.2,364 336.2,315.5 378.2,291.2 378.2,307.4 350.2,323.5 	"/>
	<polygon class="st0" points="350.2,258.8 350.2,275 378.2,291.2 378.2,323.5 392.2,331.6 392.2,283.1 	"/>
	<polygon class="st2" points="406.2,323.5 392.2,331.6 392.2,283.1 434.2,258.8 434.2,275 406.2,291.2 	"/>
	<polygon class="st0" points="406.2,291.2 406.2,307.4 434.2,323.5 434.2,355.9 448.2,364 448.2,315.5 	"/>
	<polygon class="st1" points="420.2,283.1 406.2,291.2 448.2,315.5 490.3,291.2 476.3,283.1 448.2,299.3 	"/>
	<polygon class="st1" points="364.2,315.5 350.2,323.5 392.2,347.8 434.2,323.5 420.2,315.5 392.2,331.6 	"/>
	<polygon class="st1" points="308.2,283.1 294.2,291.2 336.2,315.5 378.2,291.2 364.2,283.1 336.2,299.3 	"/>
	<polygon class="st2" points="350.2,355.9 336.2,364 336.2,315.5 378.2,291.2 378.2,307.4 350.2,323.5 	"/>
	<polygon class="st0" points="406.2,226.5 406.2,242.7 434.2,258.8 434.2,291.2 448.2,299.3 448.2,250.8 	"/>
	<polygon class="st0" points="350.2,258.8 350.2,275 378.2,291.2 378.2,323.5 392.2,331.6 392.2,283.1 	"/>
	<polygon class="st1" points="364.2,250.8 350.2,258.8 392.2,283.1 434.2,258.8 420.2,250.8 392.2,266.9 	"/>
	<polygon class="st2" points="406.2,323.5 392.2,331.6 392.2,283.1 434.2,258.8 434.2,275 406.2,291.2 	"/>
	<polygon class="st2" points="350.2,291.2 336.2,299.3 336.2,250.8 378.2,226.5 378.2,242.7 350.2,258.8 	"/>
	<polygon class="st0" points="350.2,194.1 350.2,210.3 378.2,226.5 378.2,258.8 392.2,266.9 392.2,218.4 	"/>
	<polygon class="st2" points="406.2,258.8 392.2,266.9 392.2,218.4 434.2,194.1 434.2,210.3 406.2,226.5 	"/>
	<polygon class="st0" points="406.2,226.5 406.2,242.7 434.2,258.8 434.2,291.2 448.2,299.3 448.2,250.8 	"/>
	<polygon class="st1" points="420.2,218.4 406.2,226.5 448.2,250.8 490.3,226.5 476.3,218.4 448.2,234.6 	"/>
	<polygon class="st1" points="364.2,250.8 350.2,258.8 392.2,283.1 434.2,258.8 420.2,250.8 392.2,266.9 	"/>
	<polygon class="st1" points="308.2,218.4 294.2,226.5 336.2,250.8 378.2,226.5 364.2,218.4 336.2,234.6 	"/>
	<polygon class="st2" points="350.2,291.2 336.2,299.3 336.2,250.8 378.2,226.5 378.2,242.7 350.2,258.8 	"/>
	<polygon class="st0" points="406.2,161.8 406.2,177.9 434.2,194.1 434.2,226.5 448.2,234.6 448.2,186 	"/>
	<polygon class="st0" points="350.2,194.1 350.2,210.3 378.2,226.5 378.2,258.8 392.2,266.9 392.2,218.4 	"/>
	<polygon class="st1" points="364.2,186 350.2,194.1 392.2,218.4 434.2,194.1 420.2,186 392.2,202.2 	"/>
	<polygon class="st2" points="406.2,258.8 392.2,266.9 392.2,218.4 434.2,194.1 434.2,210.3 406.2,226.5 	"/>
	<polygon class="st2" points="350.2,226.5 336.2,234.6 336.2,186 378.2,161.8 378.2,177.9 350.2,194.1 	"/>
	<polygon class="st0" points="350.2,129.4 350.2,145.6 378.2,161.8 378.2,194.1 392.2,202.2 392.2,153.7 	"/>
	<polygon class="st2" points="406.2,194.1 392.2,202.2 392.2,153.7 434.2,129.4 434.2,145.6 406.2,161.8 	"/>
	<polygon class="st0" points="406.2,161.8 406.2,177.9 434.2,194.1 434.2,226.5 448.2,234.6 448.2,186 	"/>
	<polygon class="st1" points="420.2,153.7 406.2,161.8 448.2,186 490.3,161.8 476.3,153.7 448.2,169.9 	"/>
	<polygon class="st1" points="364.2,186 350.2,194.1 392.2,218.4 434.2,194.1 420.2,186 392.2,202.2 	"/>
	<polygon class="st1" points="308.2,153.7 294.2,161.8 336.2,186 378.2,161.8 364.2,153.7 336.2,169.9 	"/>
	<polygon class="st2" points="350.2,226.5 336.2,234.6 336.2,186 378.2,161.8 378.2,177.9 350.2,194.1 	"/>
	<polygon class="st0" points="406.2,97.1 406.2,113.2 434.2,129.4 434.2,161.8 448.2,169.9 448.2,121.3 	"/>
	<polygon class="st0" points="350.2,129.4 350.2,145.6 378.2,161.8 378.2,194.1 392.2,202.2 392.2,153.7 	"/>
	<polygon class="st1" points="364.2,121.3 350.2,129.4 392.2,153.7 434.2,129.4 420.2,121.3 392.2,137.5 	"/>
	<polygon class="st2" points="406.2,194.1 392.2,202.2 392.2,153.7 434.2,129.4 434.2,145.6 406.2,161.8 	"/>
	<polygon class="st2" points="350.2,161.8 336.2,169.9 336.2,121.3 378.2,97.1 378.2,113.2 350.2,129.4 	"/>
	<polygon class="st0" points="350.2,64.7 350.2,80.9 378.2,97.1 378.2,129.4 392.2,137.5 392.2,89 	"/>
	<polygon class="st2" points="406.2,129.4 392.2,137.5 392.2,89 434.2,64.7 434.2,80.9 406.2,97.1 	"/>
	<polygon class="st0" points="406.2,97.1 406.2,113.2 434.2,129.4 434.2,161.8 448.2,169.9 448.2,121.3 	"/>
	<polygon class="st1" points="420.2,89 406.2,97.1 448.2,121.3 490.3,97.1 476.3,89 448.2,105.2 	"/>
	<polygon class="st1" points="364.2,121.3 350.2,129.4 392.2,153.7 434.2,129.4 420.2,121.3 392.2,137.5 	"/>
	<polygon class="st1" points="308.2,89 294.2,97.1 336.2,121.3 378.2,97.1 364.2,89 336.2,105.2 	"/>
	<polygon class="st2" points="350.2,161.8 336.2,169.9 336.2,121.3 378.2,97.1 378.2,113.2 350.2,129.4 	"/>
	<polygon class="st0" points="406.2,32.3 406.2,48.5 434.2,64.7 434.2,97.1 448.2,105.2 448.2,56.6 	"/>
	<polygon class="st0" points="350.2,64.7 350.2,80.9 378.2,97.1 378.2,129.4 392.2,137.5 392.2,89 	"/>
	<polygon class="st1" points="364.2,56.6 350.2,64.7 392.2,89 434.2,64.7 420.2,56.6 392.2,72.8 	"/>
	<polygon class="st2" points="406.2,129.4 392.2,137.5 392.2,89 434.2,64.7 434.2,80.9 406.2,97.1 	"/>
	<polygon class="st2" points="350.2,97.1 336.2,105.2 336.2,56.6 378.2,32.3 378.2,48.5 350.2,64.7 	"/>
	<polygon class="st0" points="350.2,0 350.2,16.2 378.2,32.3 378.2,64.7 392.2,72.8 392.2,24.3 	"/>
	<polygon class="st2" points="406.2,64.7 392.2,72.8 392.2,24.3 434.2,0 434.2,16.2 406.2,32.3 	"/>
	<polygon class="st0" points="294.2,420.6 294.2,436.8 322.2,453 322.2,485.3 336.2,493.4 336.2,444.9 	"/>
	<polygon class="st1" points="308.2,412.5 294.2,420.6 336.2,444.9 378.2,420.6 364.2,412.5 336.2,428.7 	"/>
	<polygon class="st1" points="252.1,444.9 238.1,453 280.2,477.2 322.2,453 308.2,444.9 280.2,461.1 	"/>
	<polygon class="st1" points="196.1,412.5 182.1,420.6 224.1,444.9 266.1,420.6 252.1,412.5 224.1,428.7 	"/>
	<polygon class="st2" points="238.1,485.3 224.1,493.4 224.1,444.9 266.1,420.6 266.1,436.8 238.1,453 	"/>
	<polygon class="st0" points="294.2,355.9 294.2,372.1 322.2,388.3 322.2,420.6 336.2,428.7 336.2,380.2 	"/>
	<polygon class="st0" points="238.1,388.3 238.1,404.4 266.1,420.6 266.1,453 280.2,461 280.2,412.5 	"/>
	<polygon class="st1" points="252.1,380.2 238.1,388.3 280.2,412.5 322.2,388.3 308.2,380.2 280.2,396.4 	"/>
	<polygon class="st2" points="294.2,453 280.2,461 280.2,412.5 322.2,388.3 322.2,404.4 294.2,420.6 	"/>
	<polygon class="st2" points="238.1,420.6 224.1,428.7 224.1,380.2 266.1,355.9 266.1,372.1 238.1,388.3 	"/>
	<polygon class="st0" points="238.1,323.5 238.1,339.7 266.1,355.9 266.1,388.2 280.2,396.3 280.2,347.8 	"/>
	<polygon class="st2" points="294.2,388.2 280.2,396.3 280.2,347.8 322.2,323.5 322.2,339.7 294.2,355.9 	"/>
	<polygon class="st0" points="294.2,355.9 294.2,372.1 322.2,388.3 322.2,420.6 336.2,428.7 336.2,380.2 	"/>
	<polygon class="st1" points="308.2,347.8 294.2,355.9 336.2,380.2 378.2,355.9 364.2,347.8 336.2,364 	"/>
	<polygon class="st1" points="252.1,380.2 238.1,388.3 280.2,412.5 322.2,388.3 308.2,380.2 280.2,396.4 	"/>
	<polygon class="st1" points="196.1,347.8 182.1,355.9 224.1,380.2 266.1,355.9 252.1,347.8 224.1,364 	"/>
	<polygon class="st2" points="238.1,420.6 224.1,428.7 224.1,380.2 266.1,355.9 266.1,372.1 238.1,388.3 	"/>
	<polygon class="st0" points="294.2,291.2 294.2,307.4 322.2,323.5 322.2,355.9 336.2,364 336.2,315.5 	"/>
	<polygon class="st0" points="238.1,323.5 238.1,339.7 266.1,355.9 266.1,388.2 280.2,396.3 280.2,347.8 	"/>
	<polygon class="st1" points="252.1,315.5 238.1,323.5 280.2,347.8 322.2,323.5 308.2,315.5 280.2,331.6 	"/>
	<polygon class="st2" points="294.2,388.2 280.2,396.3 280.2,347.8 322.2,323.5 322.2,339.7 294.2,355.9 	"/>
	<polygon class="st2" points="238.1,355.9 224.1,364 224.1,315.5 266.1,291.2 266.1,307.4 238.1,323.5 	"/>
	<polygon class="st0" points="238.1,258.8 238.1,275 266.1,291.2 266.1,323.5 280.2,331.6 280.2,283.1 	"/>
	<polygon class="st2" points="294.2,323.5 280.2,331.6 280.2,283.1 322.2,258.8 322.2,275 294.2,291.2 	"/>
	<polygon class="st0" points="294.2,291.2 294.2,307.4 322.2,323.5 322.2,355.9 336.2,364 336.2,315.5 	"/>
	<polygon class="st1" points="308.2,283.1 294.2,291.2 336.2,315.5 378.2,291.2 364.2,283.1 336.2,299.3 	"/>
	<polygon class="st1" points="252.1,315.5 238.1,323.5 280.2,347.8 322.2,323.5 308.2,315.5 280.2,331.6 	"/>
	<polygon class="st1" points="196.1,283.1 182.1,291.2 224.1,315.5 266.1,291.2 252.1,283.1 224.1,299.3 	"/>
	<polygon class="st2" points="238.1,355.9 224.1,364 224.1,315.5 266.1,291.2 266.1,307.4 238.1,323.5 	"/>
	<polygon class="st0" points="294.2,226.5 294.2,242.7 322.2,258.8 322.2,291.2 336.2,299.3 336.2,250.8 	"/>
	<polygon class="st0" points="238.1,258.8 238.1,275 266.1,291.2 266.1,323.5 280.2,331.6 280.2,283.1 	"/>
	<polygon class="st1" points="252.1,250.8 238.1,258.8 280.2,283.1 322.2,258.8 308.2,250.8 280.2,266.9 	"/>
	<polygon class="st2" points="294.2,323.5 280.2,331.6 280.2,283.1 322.2,258.8 322.2,275 294.2,291.2 	"/>
	<polygon class="st2" points="238.1,291.2 224.1,299.3 224.1,250.8 266.1,226.5 266.1,242.7 238.1,258.8 	"/>
	<polygon class="st0" points="238.1,194.1 238.1,210.3 266.1,226.5 266.1,258.8 280.2,266.9 280.2,218.4 	"/>
	<polygon class="st2" points="294.2,258.8 280.2,266.9 280.2,218.4 322.2,194.1 322.2,210.3 294.2,226.5 	"/>
	<polygon class="st0" points="294.2,226.5 294.2,242.7 322.2,258.8 322.2,291.2 336.2,299.3 336.2,250.8 	"/>
	<polygon class="st1" points="308.2,218.4 294.2,226.5 336.2,250.8 378.2,226.5 364.2,218.4 336.2,234.6 	"/>
	<polygon class="st1" points="252.1,250.8 238.1,258.8 280.2,283.1 322.2,258.8 308.2,250.8 280.2,266.9 	"/>
	<polygon class="st1" points="196.1,218.4 182.1,226.5 224.1,250.8 266.1,226.5 252.1,218.4 224.1,234.6 	"/>
	<polygon class="st2" points="238.1,291.2 224.1,299.3 224.1,250.8 266.1,226.5 266.1,242.7 238.1,258.8 	"/>
	<polygon class="st0" points="294.2,161.8 294.2,177.9 322.2,194.1 322.2,226.5 336.2,234.6 336.2,186 	"/>
	<polygon class="st0" points="238.1,194.1 238.1,210.3 266.1,226.5 266.1,258.8 280.2,266.9 280.2,218.4 	"/>
	<polygon class="st1" points="252.1,186 238.1,194.1 280.2,218.4 322.2,194.1 308.2,186 280.2,202.2 	"/>
	<polygon class="st2" points="294.2,258.8 280.2,266.9 280.2,218.4 322.2,194.1 322.2,210.3 294.2,226.5 	"/>
	<polygon class="st2" points="238.1,226.5 224.1,234.6 224.1,186 266.1,161.8 266.1,177.9 238.1,194.1 	"/>
	<polygon class="st0" points="238.1,129.4 238.1,145.6 266.1,161.8 266.1,194.1 280.2,202.2 280.2,153.7 	"/>
	<polygon class="st2" points="294.2,194.1 280.2,202.2 280.2,153.7 322.2,129.4 322.2,145.6 294.2,161.8 	"/>
	<polygon class="st0" points="294.2,161.8 294.2,177.9 322.2,194.1 322.2,226.5 336.2,234.6 336.2,186 	"/>
	<polygon class="st1" points="308.2,153.7 294.2,161.8 336.2,186 378.2,161.8 364.2,153.7 336.2,169.9 	"/>
	<polygon class="st1" points="252.1,186 238.1,194.1 280.2,218.4 322.2,194.1 308.2,186 280.2,202.2 	"/>
	<polygon class="st1" points="196.1,153.7 182.1,161.8 224.1,186 266.1,161.8 252.1,153.7 224.1,169.9 	"/>
	<polygon class="st2" points="238.1,226.5 224.1,234.6 224.1,186 266.1,161.8 266.1,177.9 238.1,194.1 	"/>
	<polygon class="st0" points="294.2,97.1 294.2,113.2 322.2,129.4 322.2,161.8 336.2,169.9 336.2,121.3 	"/>
	<polygon class="st0" points="238.1,129.4 238.1,145.6 266.1,161.8 266.1,194.1 280.2,202.2 280.2,153.7 	"/>
	<polygon class="st1" points="252.1,121.3 238.1,129.4 280.2,153.7 322.2,129.4 308.2,121.3 280.2,137.5 	"/>
	<polygon class="st2" points="294.2,194.1 280.2,202.2 280.2,153.7 322.2,129.4 322.2,145.6 294.2,161.8 	"/>
	<polygon class="st2" points="238.1,161.8 224.1,169.9 224.1,121.3 266.1,97.1 266.1,113.2 238.1,129.4 	"/>
	<polygon class="st0" points="238.1,64.7 238.1,80.9 266.1,97.1 266.1,129.4 280.2,137.5 280.2,89 	"/>
	<polygon class="st2" points="294.2,129.4 280.2,137.5 280.2,89 322.2,64.7 322.2,80.9 294.2,97.1 	"/>
	<polygon class="st0" points="294.2,97.1 294.2,113.2 322.2,129.4 322.2,161.8 336.2,169.9 336.2,121.3 	"/>
	<polygon class="st1" points="308.2,89 294.2,97.1 336.2,121.3 378.2,97.1 364.2,89 336.2,105.2 	"/>
	<polygon class="st1" points="252.1,121.3 238.1,129.4 280.2,153.7 322.2,129.4 308.2,121.3 280.2,137.5 	"/>
	<polygon class="st1" points="196.1,89 182.1,97.1 224.1,121.3 266.1,97.1 252.1,89 224.1,105.2 	"/>
	<polygon class="st2" points="238.1,161.8 224.1,169.9 224.1,121.3 266.1,97.1 266.1,113.2 238.1,129.4 	"/>
	<polygon class="st0" points="294.2,32.3 294.2,48.5 322.2,64.7 322.2,97.1 336.2,105.2 336.2,56.6 	"/>
	<polygon class="st0" points="238.1,64.7 238.1,80.9 266.1,97.1 266.1,129.4 280.2,137.5 280.2,89 	"/>
	<polygon class="st1" points="252.1,56.6 238.1,64.7 280.2,89 322.2,64.7 308.2,56.6 280.2,72.8 	"/>
	<polygon class="st2" points="294.2,129.4 280.2,137.5 280.2,89 322.2,64.7 322.2,80.9 294.2,97.1 	"/>
	<polygon class="st2" points="238.1,97.1 224.1,105.2 224.1,56.6 266.1,32.3 266.1,48.5 238.1,64.7 	"/>
	<polygon class="st0" points="238.1,0 238.1,16.2 266.1,32.3 266.1,64.7 280.2,72.8 280.2,24.3 	"/>
	<polygon class="st2" points="294.2,64.7 280.2,72.8 280.2,24.3 322.2,0 322.2,16.2 294.2,32.3 	"/>
	<polygon class="st0" points="182.1,420.6 182.1,436.8 210.1,453 210.1,485.3 224.1,493.4 224.1,444.9 	"/>
	<polygon class="st1" points="196.1,412.5 182.1,420.6 224.1,444.9 266.1,420.6 252.1,412.5 224.1,428.7 	"/>
	<polygon class="st1" points="140.1,444.9 126.1,453 168.1,477.2 210.1,453 196.1,444.9 168.1,461.1 	"/>
	<polygon class="st1" points="84,412.5 70,420.6 112.1,444.9 154.1,420.6 140.1,412.5 112.1,428.7 	"/>
	<polygon class="st2" points="126.1,485.3 112.1,493.4 112.1,444.9 154.1,420.6 154.1,436.8 126.1,453 	"/>
	<polygon class="st0" points="182.1,355.9 182.1,372.1 210.1,388.3 210.1,420.6 224.1,428.7 224.1,380.2 	"/>
	<polygon class="st0" points="126.1,388.3 126.1,404.4 154.1,420.6 154.1,453 168.1,461 168.1,412.5 	"/>
	<polygon class="st1" points="140.1,380.2 126.1,388.3 168.1,412.5 210.1,388.3 196.1,380.2 168.1,396.4 	"/>
	<polygon class="st2" points="182.1,453 168.1,461 168.1,412.5 210.1,388.3 210.1,404.4 182.1,420.6 	"/>
	<polygon class="st2" points="126.1,420.6 112.1,428.7 112.1,380.2 154.1,355.9 154.1,372.1 126.1,388.3 	"/>
	<polygon class="st0" points="126.1,323.5 126.1,339.7 154.1,355.9 154.1,388.2 168.1,396.3 168.1,347.8 	"/>
	<polygon class="st2" points="182.1,388.2 168.1,396.3 168.1,347.8 210.1,323.5 210.1,339.7 182.1,355.9 	"/>
	<polygon class="st0" points="182.1,355.9 182.1,372.1 210.1,388.3 210.1,420.6 224.1,428.7 224.1,380.2 	"/>
	<polygon class="st1" points="196.1,347.8 182.1,355.9 224.1,380.2 266.1,355.9 252.1,347.8 224.1,364 	"/>
	<polygon class="st1" points="140.1,380.2 126.1,388.3 168.1,412.5 210.1,388.3 196.1,380.2 168.1,396.4 	"/>
	<polygon class="st1" points="84,347.8 70,355.9 112.1,380.2 154.1,355.9 140.1,347.8 112.1,364 	"/>
	<polygon class="st2" points="126.1,420.6 112.1,428.7 112.1,380.2 154.1,355.9 154.1,372.1 126.1,388.3 	"/>
	<polygon class="st0" points="182.1,291.2 182.1,307.4 210.1,323.5 210.1,355.9 224.1,364 224.1,315.5 	"/>
	<polygon class="st0" points="126.1,323.5 126.1,339.7 154.1,355.9 154.1,388.2 168.1,396.3 168.1,347.8 	"/>
	<polygon class="st1" points="140.1,315.5 126.1,323.5 168.1,347.8 210.1,323.5 196.1,315.5 168.1,331.6 	"/>
	<polygon class="st2" points="182.1,388.2 168.1,396.3 168.1,347.8 210.1,323.5 210.1,339.7 182.1,355.9 	"/>
	<polygon class="st2" points="126.1,355.9 112.1,364 112.1,315.5 154.1,291.2 154.1,307.4 126.1,323.5 	"/>
	<polygon class="st0" points="126.1,258.8 126.1,275 154.1,291.2 154.1,323.5 168.1,331.6 168.1,283.1 	"/>
	<polygon class="st2" points="182.1,323.5 168.1,331.6 168.1,283.1 210.1,258.8 210.1,275 182.1,291.2 	"/>
	<polygon class="st0" points="182.1,291.2 182.1,307.4 210.1,323.5 210.1,355.9 224.1,364 224.1,315.5 	"/>
	<polygon class="st1" points="196.1,283.1 182.1,291.2 224.1,315.5 266.1,291.2 252.1,283.1 224.1,299.3 	"/>
	<polygon class="st1" points="140.1,315.5 126.1,323.5 168.1,347.8 210.1,323.5 196.1,315.5 168.1,331.6 	"/>
	<polygon class="st1" points="84,283.1 70,291.2 112.1,315.5 154.1,291.2 140.1,283.1 112.1,299.3 	"/>
	<polygon class="st2" points="126.1,355.9 112.1,364 112.1,315.5 154.1,291.2 154.1,307.4 126.1,323.5 	"/>
	<polygon class="st0" points="182.1,226.5 182.1,242.7 210.1,258.8 210.1,291.2 224.1,299.3 224.1,250.8 	"/>
	<polygon class="st0" points="126.1,258.8 126.1,275 154.1,291.2 154.1,323.5 168.1,331.6 168.1,283.1 	"/>
	<polygon class="st1" points="140.1,250.8 126.1,258.8 168.1,283.1 210.1,258.8 196.1,250.8 168.1,266.9 	"/>
	<polygon class="st2" points="182.1,323.5 168.1,331.6 168.1,283.1 210.1,258.8 210.1,275 182.1,291.2 	"/>
	<polygon class="st2" points="126.1,291.2 112.1,299.3 112.1,250.8 154.1,226.5 154.1,242.7 126.1,258.8 	"/>
	<polygon class="st0" points="126.1,194.1 126.1,210.3 154.1,226.5 154.1,258.8 168.1,266.9 168.1,218.4 	"/>
	<polygon class="st2" points="182.1,258.8 168.1,266.9 168.1,218.4 210.1,194.1 210.1,210.3 182.1,226.5 	"/>
	<polygon class="st0" points="182.1,226.5 182.1,242.7 210.1,258.8 210.1,291.2 224.1,299.3 224.1,250.8 	"/>
	<polygon class="st1" points="196.1,218.4 182.1,226.5 224.1,250.8 266.1,226.5 252.1,218.4 224.1,234.6 	"/>
	<polygon class="st1" points="140.1,250.8 126.1,258.8 168.1,283.1 210.1,258.8 196.1,250.8 168.1,266.9 	"/>
	<polygon class="st1" points="84,218.4 70,226.5 112.1,250.8 154.1,226.5 140.1,218.4 112.1,234.6 	"/>
	<polygon class="st2" points="126.1,291.2 112.1,299.3 112.1,250.8 154.1,226.5 154.1,242.7 126.1,258.8 	"/>
	<polygon class="st0" points="182.1,161.8 182.1,177.9 210.1,194.1 210.1,226.5 224.1,234.6 224.1,186 	"/>
	<polygon class="st0" points="126.1,194.1 126.1,210.3 154.1,226.5 154.1,258.8 168.1,266.9 168.1,218.4 	"/>
	<polygon class="st1" points="140.1,186 126.1,194.1 168.1,218.4 210.1,194.1 196.1,186 168.1,202.2 	"/>
	<polygon class="st2" points="182.1,258.8 168.1,266.9 168.1,218.4 210.1,194.1 210.1,210.3 182.1,226.5 	"/>
	<polygon class="st2" points="126.1,226.5 112.1,234.6 112.1,186 154.1,161.8 154.1,177.9 126.1,194.1 	"/>
	<polygon class="st0" points="126.1,129.4 126.1,145.6 154.1,161.8 154.1,194.1 168.1,202.2 168.1,153.7 	"/>
	<polygon class="st2" points="182.1,194.1 168.1,202.2 168.1,153.7 210.1,129.4 210.1,145.6 182.1,161.8 	"/>
	<polygon class="st0" points="182.1,161.8 182.1,177.9 210.1,194.1 210.1,226.5 224.1,234.6 224.1,186 	"/>
	<polygon class="st1" points="196.1,153.7 182.1,161.8 224.1,186 266.1,161.8 252.1,153.7 224.1,169.9 	"/>
	<polygon class="st1" points="140.1,186 126.1,194.1 168.1,218.4 210.1,194.1 196.1,186 168.1,202.2 	"/>
	<polygon class="st1" points="84,153.7 70,161.8 112.1,186 154.1,161.8 140.1,153.7 112.1,169.9 	"/>
	<polygon class="st2" points="126.1,226.5 112.1,234.6 112.1,186 154.1,161.8 154.1,177.9 126.1,194.1 	"/>
	<polygon class="st0" points="182.1,97.1 182.1,113.2 210.1,129.4 210.1,161.8 224.1,169.9 224.1,121.3 	"/>
	<polygon class="st0" points="126.1,129.4 126.1,145.6 154.1,161.8 154.1,194.1 168.1,202.2 168.1,153.7 	"/>
	<polygon class="st1" points="140.1,121.3 126.1,129.4 168.1,153.7 210.1,129.4 196.1,121.3 168.1,137.5 	"/>
	<polygon class="st2" points="182.1,194.1 168.1,202.2 168.1,153.7 210.1,129.4 210.1,145.6 182.1,161.8 	"/>
	<polygon class="st2" points="126.1,161.8 112.1,169.9 112.1,121.3 154.1,97.1 154.1,113.2 126.1,129.4 	"/>
	<polygon class="st0" points="126.1,64.7 126.1,80.9 154.1,97.1 154.1,129.4 168.1,137.5 168.1,89 	"/>
	<polygon class="st2" points="182.1,129.4 168.1,137.5 168.1,89 210.1,64.7 210.1,80.9 182.1,97.1 	"/>
	<polygon class="st0" points="182.1,97.1 182.1,113.2 210.1,129.4 210.1,161.8 224.1,169.9 224.1,121.3 	"/>
	<polygon class="st1" points="196.1,89 182.1,97.1 224.1,121.3 266.1,97.1 252.1,89 224.1,105.2 	"/>
	<polygon class="st1" points="140.1,121.3 126.1,129.4 168.1,153.7 210.1,129.4 196.1,121.3 168.1,137.5 	"/>
	<polygon class="st1" points="84,89 70,97.1 112.1,121.3 154.1,97.1 140.1,89 112.1,105.2 	"/>
	<polygon class="st2" points="126.1,161.8 112.1,169.9 112.1,121.3 154.1,97.1 154.1,113.2 126.1,129.4 	"/>
	<polygon class="st0" points="182.1,32.3 182.1,48.5 210.1,64.7 210.1,97.1 224.1,105.2 224.1,56.6 	"/>
	<polygon class="st0" points="126.1,64.7 126.1,80.9 154.1,97.1 154.1,129.4 168.1,137.5 168.1,89 	"/>
	<polygon class="st1" points="140.1,56.6 126.1,64.7 168.1,89 210.1,64.7 196.1,56.6 168.1,72.8 	"/>
	<polygon class="st2" points="182.1,129.4 168.1,137.5 168.1,89 210.1,64.7 210.1,80.9 182.1,97.1 	"/>
	<polygon class="st2" points="126.1,97.1 112.1,105.2 112.1,56.6 154.1,32.3 154.1,48.5 126.1,64.7 	"/>
	<polygon class="st0" points="126.1,0 126.1,16.2 154.1,32.3 154.1,64.7 168.1,72.8 168.1,24.3 	"/>
	<polygon class="st2" points="182.1,64.7 168.1,72.8 168.1,24.3 210.1,0 210.1,16.2 182.1,32.3 	"/>
	<polygon class="st0" points="70,420.6 70,436.8 98,453 98,485.3 112.1,493.4 112.1,444.9 	"/>
	<polygon class="st1" points="84,412.5 70,420.6 112.1,444.9 154.1,420.6 140.1,412.5 112.1,428.7 	"/>
	<polygon class="st1" points="28,444.9 14,453 56,477.2 98,453 84,444.9 56,461.1 	"/>
	<polygon class="st1" points="-28,412.5 -42,420.6 0,444.9 42,420.6 28,412.5 0,428.7 	"/>
	<polygon class="st2" points="14,485.3 0,493.4 0,444.9 42,420.6 42,436.8 14,453 	"/>
	<polygon class="st0" points="70,355.9 70,372.1 98,388.3 98,420.6 112.1,428.7 112.1,380.2 	"/>
	<polygon class="st0" points="14,388.3 14,404.4 42,420.6 42,453 56,461 56,412.5 	"/>
	<polygon class="st1" points="28,380.2 14,388.3 56,412.5 98,388.3 84,380.2 56,396.4 	"/>
	<polygon class="st2" points="70,453 56,461 56,412.5 98,388.3 98,404.4 70,420.6 	"/>
	<polygon class="st2" points="14,420.6 0,428.7 0,380.2 42,355.9 42,372.1 14,388.3 	"/>
	<polygon class="st0" points="14,323.5 14,339.7 42,355.9 42,388.2 56,396.3 56,347.8 	"/>
	<polygon class="st2" points="70,388.2 56,396.3 56,347.8 98,323.5 98,339.7 70,355.9 	"/>
	<polygon class="st0" points="70,355.9 70,372.1 98,388.3 98,420.6 112.1,428.7 112.1,380.2 	"/>
	<polygon class="st1" points="84,347.8 70,355.9 112.1,380.2 154.1,355.9 140.1,347.8 112.1,364 	"/>
	<polygon class="st1" points="28,380.2 14,388.3 56,412.5 98,388.3 84,380.2 56,396.4 	"/>
	<polygon class="st1" points="-28,347.8 -42,355.9 0,380.2 42,355.9 28,347.8 0,364 	"/>
	<polygon class="st2" points="14,420.6 0,428.7 0,380.2 42,355.9 42,372.1 14,388.3 	"/>
	<polygon class="st0" points="70,291.2 70,307.4 98,323.5 98,355.9 112.1,364 112.1,315.5 	"/>
	<polygon class="st0" points="14,323.5 14,339.7 42,355.9 42,388.2 56,396.3 56,347.8 	"/>
	<polygon class="st1" points="28,315.5 14,323.5 56,347.8 98,323.5 84,315.5 56,331.6 	"/>
	<polygon class="st2" points="70,388.2 56,396.3 56,347.8 98,323.5 98,339.7 70,355.9 	"/>
	<polygon class="st2" points="14,355.9 0,364 0,315.5 42,291.2 42,307.4 14,323.5 	"/>
	<polygon class="st0" points="14,258.8 14,275 42,291.2 42,323.5 56,331.6 56,283.1 	"/>
	<polygon class="st2" points="70,323.5 56,331.6 56,283.1 98,258.8 98,275 70,291.2 	"/>
	<polygon class="st0" points="70,291.2 70,307.4 98,323.5 98,355.9 112.1,364 112.1,315.5 	"/>
	<polygon class="st1" points="84,283.1 70,291.2 112.1,315.5 154.1,291.2 140.1,283.1 112.1,299.3 	"/>
	<polygon class="st1" points="28,315.5 14,323.5 56,347.8 98,323.5 84,315.5 56,331.6 	"/>
	<polygon class="st1" points="-28,283.1 -42,291.2 0,315.5 42,291.2 28,283.1 0,299.3 	"/>
	<polygon class="st2" points="14,355.9 0,364 0,315.5 42,291.2 42,307.4 14,323.5 	"/>
	<polygon class="st0" points="70,226.5 70,242.7 98,258.8 98,291.2 112.1,299.3 112.1,250.8 	"/>
	<polygon class="st0" points="14,258.8 14,275 42,291.2 42,323.5 56,331.6 56,283.1 	"/>
	<polygon class="st1" points="28,250.8 14,258.8 56,283.1 98,258.8 84,250.8 56,266.9 	"/>
	<polygon class="st2" points="70,323.5 56,331.6 56,283.1 98,258.8 98,275 70,291.2 	"/>
	<polygon class="st2" points="14,291.2 0,299.3 0,250.8 42,226.5 42,242.7 14,258.8 	"/>
	<polygon class="st0" points="14,194.1 14,210.3 42,226.5 42,258.8 56,266.9 56,218.4 	"/>
	<polygon class="st2" points="70,258.8 56,266.9 56,218.4 98,194.1 98,210.3 70,226.5 	"/>
	<polygon class="st0" points="70,226.5 70,242.7 98,258.8 98,291.2 112.1,299.3 112.1,250.8 	"/>
	<polygon class="st1" points="84,218.4 70,226.5 112.1,250.8 154.1,226.5 140.1,218.4 112.1,234.6 	"/>
	<polygon class="st1" points="28,250.8 14,258.8 56,283.1 98,258.8 84,250.8 56,266.9 	"/>
	<polygon class="st1" points="-28,218.4 -42,226.5 0,250.8 42,226.5 28,218.4 0,234.6 	"/>
	<polygon class="st2" points="14,291.2 0,299.3 0,250.8 42,226.5 42,242.7 14,258.8 	"/>
	<polygon class="st0" points="70,161.8 70,177.9 98,194.1 98,226.5 112.1,234.6 112.1,186 	"/>
	<polygon class="st0" points="14,194.1 14,210.3 42,226.5 42,258.8 56,266.9 56,218.4 	"/>
	<polygon class="st1" points="28,186 14,194.1 56,218.4 98,194.1 84,186 56,202.2 	"/>
	<polygon class="st2" points="70,258.8 56,266.9 56,218.4 98,194.1 98,210.3 70,226.5 	"/>
	<polygon class="st2" points="14,226.5 0,234.6 0,186 42,161.8 42,177.9 14,194.1 	"/>
	<polygon class="st0" points="14,129.4 14,145.6 42,161.8 42,194.1 56,202.2 56,153.7 	"/>
	<polygon class="st2" points="70,194.1 56,202.2 56,153.7 98,129.4 98,145.6 70,161.8 	"/>
	<polygon class="st0" points="70,161.8 70,177.9 98,194.1 98,226.5 112.1,234.6 112.1,186 	"/>
	<polygon class="st1" points="84,153.7 70,161.8 112.1,186 154.1,161.8 140.1,153.7 112.1,169.9 	"/>
	<polygon class="st1" points="28,186 14,194.1 56,218.4 98,194.1 84,186 56,202.2 	"/>
	<polygon class="st1" points="-28,153.7 -42,161.8 0,186 42,161.8 28,153.7 0,169.9 	"/>
	<polygon class="st2" points="14,226.5 0,234.6 0,186 42,161.8 42,177.9 14,194.1 	"/>
	<polygon class="st0" points="70,97.1 70,113.2 98,129.4 98,161.8 112.1,169.9 112.1,121.3 	"/>
	<polygon class="st0" points="14,129.4 14,145.6 42,161.8 42,194.1 56,202.2 56,153.7 	"/>
	<polygon class="st1" points="28,121.3 14,129.4 56,153.7 98,129.4 84,121.3 56,137.5 	"/>
	<polygon class="st2" points="70,194.1 56,202.2 56,153.7 98,129.4 98,145.6 70,161.8 	"/>
	<polygon class="st2" points="14,161.8 0,169.9 0,121.3 42,97.1 42,113.2 14,129.4 	"/>
	<polygon class="st0" points="14,64.7 14,80.9 42,97.1 42,129.4 56,137.5 56,89 	"/>
	<polygon class="st2" points="70,129.4 56,137.5 56,89 98,64.7 98,80.9 70,97.1 	"/>
	<polygon class="st0" points="70,97.1 70,113.2 98,129.4 98,161.8 112.1,169.9 112.1,121.3 	"/>
	<polygon class="st1" points="84,89 70,97.1 112.1,121.3 154.1,97.1 140.1,89 112.1,105.2 	"/>
	<polygon class="st1" points="28,121.3 14,129.4 56,153.7 98,129.4 84,121.3 56,137.5 	"/>
	<polygon class="st1" points="-28,89 -42,97.1 0,121.3 42,97.1 28,89 0,105.2 	"/>
	<polygon class="st2" points="14,161.8 0,169.9 0,121.3 42,97.1 42,113.2 14,129.4 	"/>
	<polygon class="st0" points="70,32.3 70,48.5 98,64.7 98,97.1 112.1,105.2 112.1,56.6 	"/>
	<polygon class="st0" points="14,64.7 14,80.9 42,97.1 42,129.4 56,137.5 56,89 	"/>
	<polygon class="st1" points="28,56.6 14,64.7 56,89 98,64.7 84,56.6 56,72.8 	"/>
	<polygon class="st2" points="70,129.4 56,137.5 56,89 98,64.7 98,80.9 70,97.1 	"/>
	<polygon class="st2" points="14,97.1 0,105.2 0,56.6 42,32.3 42,48.5 14,64.7 	"/>
	<polygon class="st0" points="14,0 14,16.2 42,32.3 42,64.7 56,72.8 56,24.3 	"/>
	<polygon class="st2" points="70,64.7 56,72.8 56,24.3 98,0 98,16.2 70,32.3 	"/>
</g>
</svg>
